<?xml version="1.0" encoding="utf-8"?>
<!-- Generator: Adobe Illustrator 24.1.3, SVG Export Plug-In . SVG Version: 6.00 Build 0)  -->
<svg version="1.1" id="Ebene_1" xmlns="http://www.w3.org/2000/svg" xmlns:xlink="http://www.w3.org/1999/xlink" x="0px" y="0px"
	 viewBox="0 0 793.6 115" style="enable-background:new 0 0 793.6 115;" xml:space="preserve">
<path d="M86.5,34.3H38.2v17H77v22.6H38.2v35.4H8V11.6h78.5V34.3z"/>
<path d="M123.1,33.8c8.1,0,15.1,1.5,21.1,4.5c5.9,2.9,10.7,7.4,14,13.1s5,12.7,5,20.9s-1.7,15.1-5,20.8c-3.2,5.7-8.1,10.3-14,13.2
	c-6,3-13.1,4.5-21.1,4.5c-7.2,0.1-14.4-1.4-20.9-4.5c-5.9-2.9-10.9-7.5-14.2-13.2c-3.4-5.8-5.1-12.7-5.1-20.8s1.7-15,5.1-20.9
	c3.3-5.7,8.3-10.2,14.2-13.1C108.7,35.2,115.9,33.7,123.1,33.8z M123.1,54.4c-2-0.1-3.9,0.5-5.6,1.6c-1.5,1.1-2.7,3-3.5,5.6
	c-0.9,3.5-1.3,7.1-1.2,10.7c-0.1,3.6,0.3,7.1,1.2,10.6c0.5,2.2,1.7,4.2,3.5,5.6c3.4,2.3,7.8,2.3,11.2,0c1.7-1.5,2.9-3.4,3.4-5.6
	c0.9-3.4,1.3-7,1.2-10.6c0.1-3.6-0.3-7.2-1.2-10.6c-0.8-2.7-1.9-4.5-3.4-5.6C127.1,54.9,125.1,54.3,123.1,54.4z"/>
<path d="M207.8,33.8c8.1,0,15.1,1.5,21.2,4.5c5.9,2.9,10.8,7.4,14.1,13.1s5,12.7,5,20.9s-1.7,15.1-5,20.8s-8.2,10.3-14.1,13.2
	c-6,3-13.1,4.5-21.2,4.5c-7.2,0.1-14.4-1.4-20.9-4.5c-5.9-2.9-10.9-7.5-14.2-13.2c-3.4-5.8-5.1-12.7-5.1-20.8s1.7-15,5.1-20.9
	c3.3-5.7,8.3-10.2,14.2-13.1C193.4,35.2,200.6,33.7,207.8,33.8z M207.8,54.4c-2-0.1-3.9,0.5-5.5,1.6c-1.5,1.1-2.7,3-3.5,5.6
	c-0.9,3.5-1.3,7.1-1.2,10.7c-0.1,3.6,0.3,7.1,1.2,10.6c0.5,2.2,1.7,4.2,3.5,5.6c3.4,2.3,7.8,2.3,11.1,0c1.7-1.5,2.9-3.4,3.4-5.6
	c0.9-3.5,1.3-7,1.2-10.6c0.1-3.6-0.3-7.2-1.2-10.6c-0.8-2.7-1.9-4.5-3.4-5.6C211.8,54.9,209.8,54.3,207.8,54.4z"/>
<path d="M282.2,110.7c-5.5,0.1-11-1.4-15.6-4.5c-4.6-3.3-8.1-7.8-10.1-13.1c-2.3-5.7-3.5-12.6-3.5-20.6c0-8.2,1.2-15.2,3.5-20.9
	c2-5.3,5.6-9.9,10.3-13.2c4.6-3.1,10.1-4.7,15.7-4.6c7,0,12.5,2.2,16.4,6.6s6.5,10,7.5,16.8l-2.7,3.7V10.8h29.9v98.5h-26.9
	l-1.8-27.7l3.4,3.4c-0.5,4.7-2,9.3-4.4,13.4C299.7,106.3,291.2,111.1,282.2,110.7L282.2,110.7z M293.8,89.4c2,0.1,3.9-0.6,5.5-1.9
	c1.7-1.6,2.9-3.6,3.5-5.8c0.9-3.1,1.4-6.4,1.3-9.6c0.1-3.1-0.3-6.2-1.1-9.2c-0.5-2.2-1.7-4.2-3.4-5.7c-1.6-1.3-3.6-2-5.7-1.9
	c-3.1-0.1-6,1.3-7.8,3.8c-1.9,2.5-2.9,6.9-2.9,13.2s0.9,10.7,2.8,13.3C287.7,88.1,290.7,89.6,293.8,89.4z"/>
<path d="M432.6,11.6v22.7h-31v75h-30.2v-75H340V11.6H432.6z"/>
<path d="M455,110.7c-4.5,0.1-9-0.8-13.1-2.6c-3.7-1.7-6.7-4.7-8.6-8.3c-2-3.8-3-8.7-3-14.8V35.3h29.9V78c0,3.7,0.7,6.4,2.1,8
	c1.6,1.6,3.8,2.5,6.1,2.4c1.3,0,2.6-0.3,3.8-0.8c1.2-0.6,2.2-1.4,3-2.4c0.9-1.3,1.6-2.7,1.9-4.3c0.5-2,0.7-4.1,0.7-6.2V35.3h29.9v74
	h-26.8l-0.7-14.8c-1.9,5-5.3,9.2-9.8,12.2C465.7,109.5,460.4,110.9,455,110.7z"/>
<path d="M518.4,109.3v-74h26.9l1.3,28.5l-3.1-3.2c0.6-5.1,2.3-10.1,4.9-14.6c2.3-3.8,5.6-7,9.5-9.1c4.2-2.1,8.8-3.2,13.5-3.1
	c4.5-0.1,8.9,0.9,12.9,2.9c3.6,1.9,6.5,4.9,8.4,8.6c2.1,4.4,3.1,9.2,3,14v50h-29.9V67c0-4.1-0.7-7-2-8.5c-1.5-1.6-3.5-2.4-5.7-2.3
	c-1.8,0-3.6,0.5-5.1,1.4c-1.6,1.1-2.9,2.7-3.5,4.5c-0.9,2.6-1.4,5.4-1.2,8.1v39L518.4,109.3z"/>
<path d="M644.3,110.7c-8.5,0-15.8-1.5-22-4.5c-6-2.8-10.9-7.4-14.2-13.1s-4.9-12.7-4.9-20.8c0-8.2,1.7-15.1,5-20.9
	c3.3-5.7,8.2-10.2,14.1-13.1c6.5-3.1,13.6-4.7,20.8-4.5c8.1,0,15,1.5,20.6,4.5c5.5,2.8,10,7.2,13,12.5c3.1,5.7,4.7,12.1,4.5,18.6
	c0,1.7-0.1,3.4-0.2,5s-0.3,3.1-0.5,4.3h-58.1v-13h45.1l-14.2,5.6c0-5.6-0.8-9.9-2.3-12.8c-1.5-2.9-4.2-4.4-7.9-4.4
	c-2.3-0.1-4.5,0.5-6.5,1.7c-1.9,1.5-3.3,3.6-3.8,5.9c-0.9,3.6-1.4,7.3-1.2,11c-0.1,3.6,0.4,7.3,1.5,10.7c0.8,2.3,2.3,4.2,4.4,5.4
	c2.2,1.1,4.6,1.6,7.1,1.5c2.6,0.1,5.2-0.5,7.4-1.9c1.8-1.3,3.1-3.2,3.8-5.3l24,7.1c-1.1,4.4-3.6,8.4-7.2,11.3
	c-3.8,3.1-8.1,5.5-12.8,6.9C654.8,110,649.5,110.8,644.3,110.7z"/>
<path d="M721.2,110.7c-7,0-14-1.1-20.7-3.3c-6.2-2-11.9-5.3-16.7-9.6l12-15.8c3,2.9,6.5,5.3,10.3,7c4.1,2,8.7,3,13.2,3
	c2,0.1,4.1-0.2,6-0.9c1.4-0.3,2.5-1.6,2.4-3.1c0-1-0.5-1.9-1.2-2.4c-0.8-0.7-2.6-1.2-5.2-1.7l-7.7-1.6c-10.1-2-17.2-4.8-21.4-8.7
	c-4.2-3.8-6.3-8.8-6.3-15c0.1-4.2,1.4-8.3,3.8-11.7c2.5-3.8,6.5-6.9,12-9.4s12.6-3.7,21.2-3.7c6.9-0.1,13.8,0.9,20.3,3
	c5.4,1.7,10.3,4.6,14.3,8.6l-11.7,15.4c-2.9-2.7-6.3-4.8-10-6.1c-3.7-1.4-7.6-2.2-11.5-2.2c-1.6,0-3.2,0.1-4.7,0.4
	c-1,0.2-2,0.6-2.9,1.3c-0.6,0.5-1,1.3-1,2.1c0.1,1.1,0.7,2.1,1.7,2.6c2,1,4.1,1.7,6.3,2l11.8,2.1c7.8,1.4,13.5,3.9,17,7.7
	c3.5,3.7,5.5,8.6,5.3,13.8c0,4.7-1.3,9.2-3.8,13.2c-2.6,4-6.5,7.1-11.9,9.5S729.6,110.7,721.2,110.7z"/>
<path d="M775.8,34.3c-2.8,0.1-5.6-0.6-8.1-2c-2.3-1.3-4.1-3.2-5.4-5.5c-1.3-2.4-2-5.1-1.9-7.9c0-2.8,0.6-5.5,1.9-7.9
	c1.3-2.3,3.1-4.2,5.4-5.5c5-2.7,11.1-2.7,16.1,0c2.3,1.3,4.1,3.2,5.4,5.5c1.3,2.4,2,5.1,1.9,7.9c0,2.7-0.6,5.5-1.9,7.9
	c-1.3,2.3-3.1,4.2-5.4,5.5C781.4,33.7,778.6,34.4,775.8,34.3z M775.8,32.4c2.4,0.1,4.8-0.6,6.9-1.8c2-1.2,3.6-2.9,4.7-4.9
	c2.3-4.3,2.3-9.5,0-13.9c-1.1-2-2.7-3.7-4.7-4.9c-4.3-2.4-9.6-2.4-13.9,0c-2,1.2-3.6,2.9-4.7,4.9c-1.1,2.2-1.7,4.6-1.7,7
	s0.5,4.8,1.7,6.9c1.1,2,2.7,3.7,4.7,4.9C770.9,31.9,773.3,32.5,775.8,32.4z M776.2,27.3c-2.2,0.1-4.4-0.7-6.1-2.2
	c-1.5-1.7-2.3-3.9-2.2-6.2c-0.1-2.3,0.7-4.5,2.2-6.2c1.6-1.6,3.8-2.4,6.1-2.3c1.6-0.1,3.1,0.3,4.4,1.2c1.2,0.8,2.1,1.9,2.6,3.2
	l-1.7,0.9c-0.3-1.1-1-2-1.9-2.7c-1-0.6-2.2-0.9-3.4-0.9c-1.7-0.1-3.4,0.6-4.6,1.8c-1.2,1.4-1.8,3.1-1.7,4.9
	c-0.1,1.8,0.5,3.6,1.7,4.9c1.2,1.2,2.9,1.9,4.6,1.8c1.3,0,2.5-0.3,3.5-1s1.7-1.7,2-2.8l1.6,0.7c-0.5,1.4-1.4,2.7-2.6,3.5
	C779.4,26.9,777.8,27.4,776.2,27.3L776.2,27.3z"/>
</svg>
