<?xml version="1.0" encoding="utf-8"?>
<!-- Generator: Adobe Illustrator 24.1.3, SVG Export Plug-In . SVG Version: 6.00 Build 0)  -->
<svg version="1.1" id="Ebene_1" xmlns="http://www.w3.org/2000/svg" xmlns:xlink="http://www.w3.org/1999/xlink" x="0px" y="0px"
	 viewBox="0 0 400 400" style="enable-background:new 0 0 400 400;" xml:space="preserve">
<style type="text/css">
	.st0{fill:#6BF178;}
	.st1{fill:#1D1D1B;}
	.st2{fill:#432918;}
</style>
<g>
	<path class="st0" d="M174.9,113c-99.1-32.4-111.3,3.6-131.2,35.7c-20.6,33.2-16.4,77.5,2.6,111.6c10.3,18.4,25.6,27.9,41.6,41.8
		c13.6,11.7,27.4,28.4,42.7,37.6c15,9,31.9,17.4,49.1,14.9c12-1.7,22.7-8.5,34.5-11.2c21.4-5,28.4,12.8,48.6,4.3
		c13.5-5.7,39.5-27.5,47.8-39.6c19.4-27.9,37-58,43.5-91.3s17-77.1-6.4-101.7c-22.8-23.9-32.9-33.8-65.7-37.4
		c-16.3-1.8-50.6-4-68.8,8.1C199.3,95,190.2,105.9,174.9,113"/>
	<g>
		<path class="st1" d="M180.7,122.5c-9.7-22.5-18.6-42.4-11.1-67.1c2.3-7.4-9.3-10.6-11.6-3.2c-8.5,27.9,1.3,50.9,12.3,76.4
			C173.3,135.7,183.7,129.6,180.7,122.5L180.7,122.5z"/>
	</g>
	<g>
		<path class="st2" d="M158.2,132c7-0.3,13.4,1.8,20.4,0.1c6-1.5,11.1-4.8,15.3-9.3c1.6-1.7-1-4.2-2.5-2.5c-4.5,4.8-10,7.9-16.5,8.8
			c-5.6,0.8-11-0.9-16.6-0.7C155.9,128.5,155.9,132.1,158.2,132L158.2,132z"/>
	</g>
</g>
<g>
</g>
<g>
</g>
<g>
</g>
<g>
</g>
<g>
</g>
<g>
</g>
<g>
</g>
<g>
</g>
<g>
</g>
<g>
</g>
<g>
</g>
<g>
</g>
<g>
</g>
<g>
</g>
<g>
</g>
</svg>
