<?xml version="1.0" encoding="utf-8"?>
<!-- Generator: Adobe Illustrator 24.1.3, SVG Export Plug-In . SVG Version: 6.00 Build 0)  -->
<svg version="1.1" id="Ebene_1" xmlns="http://www.w3.org/2000/svg" xmlns:xlink="http://www.w3.org/1999/xlink" x="0px" y="0px"
	 viewBox="0 0 589.1 394.3" style="enable-background:new 0 0 589.1 394.3;" xml:space="preserve">
<style type="text/css">
	.st0{fill:#F2C0C8;}
	.st1{fill:#6BF178;}
	.st2{fill:#1D1D1B;}
	.st3{fill:#432918;}
	.st4{fill:#FFE400;}
	.st5{fill:#FB5607;}
	.st6{fill:#0E1116;}
	.st7{fill:#F6F6F6;}
	.st8{fill:#3A86FF;}
	.st9{fill:#0C0F14;}
	.st10{fill:#F4F4F4;}
	.st11{fill:#0D0F14;}
	.st12{fill:#FFFFFF;}
	.st13{fill:#E45F12;}
	.st14{fill:#0E1115;}
	.st15{fill:#4C7ABB;}
</style>
<rect x="-1908.1" y="392.1" class="st0" width="377.6" height="216.7"/>
<g>
	<path class="st1" d="M-1642.3,406.4c-18.3-6-20.6,0.7-24.2,6.6c-3.8,6.1-3,14.3,0.5,20.6c1.9,3.4,4.7,5.2,7.7,7.7
		c2.5,2.2,5.1,5.2,7.9,6.9c2.8,1.7,5.9,3.2,9.1,2.8c2.2-0.3,4.2-1.6,6.4-2.1c3.9-0.9,5.2,2.4,9,0.8c2.5-1.1,7.3-5.1,8.8-7.3
		c3.6-5.2,6.8-10.7,8-16.9s3.1-14.3-1.2-18.8c-4.2-4.4-6.1-6.2-12.1-6.9c-3-0.3-9.3-0.7-12.7,1.5
		C-1637.8,403.1-1639.5,405.1-1642.3,406.4"/>
	<g>
		<path class="st2" d="M-1641.2,408.1c-1.8-4.2-3.4-7.8-2-12.4c0.4-1.4-1.7-2-2.1-0.6c-1.6,5.2,0.2,9.4,2.3,14.1
			C-1642.6,410.6-1640.7,409.4-1641.2,408.1L-1641.2,408.1z"/>
	</g>
	<g>
		<path class="st3" d="M-1645.4,409.9c1.3-0.1,2.5,0.3,3.8,0c1.1-0.3,2.1-0.9,2.8-1.7c0.3-0.3-0.2-0.8-0.5-0.5
			c-0.8,0.9-1.8,1.5-3,1.6c-1,0.1-2-0.2-3.1-0.1C-1645.8,409.3-1645.8,409.9-1645.4,409.9L-1645.4,409.9z"/>
	</g>
</g>
<g>
	<path class="st4" d="M-1590.9,444.9c0.8-1.5,1.8-2.8,2.8-3.9c1.6-1.7,2.9-3.7,5.3-4.9c4.2-2.2,10-1.8,14.6-2.8
		c4.3-0.9,8.2-2.7,12.2-4.7c8.2-4.3,11.9-7.6,17.6-15c1.8-2.4,4.4-4.8,6.8-8.2c2.4-3.4,4.5-7.6,6.7-9.6c2.6-2.4,8.1-1.9,11.3-3.4
		c1.2,3.4,2.4,8.4,1.4,11.9c-1.2,3.9-2.3,9-3.7,12c-4.1,9-9.7,13.3-19.2,20.9c-4.4,3.5-9.9,6.8-15.5,9.1c-3.4,1.4-13.5,3.2-17.4,3.9
		c-9.3,1.8-13.6,0.7-21.7-1.8C-1590.2,448.3-1591.4,445-1590.9,444.9"/>
	<g>
		<path class="st4" d="M-1514.7,401.1c3.2-5,7.4-13.6,3.6-19.3c-1.6-2.4-5.4-0.9-4.7,2c1.4,6.1-1.5,11.8-5.3,16.4
			c-2.1,2.6,1.5,6.2,3.7,3.7c5.1-6.1,8.5-13.4,6.6-21.5c-1.6,0.7-3.2,1.3-4.7,2c2.6,3.8-1.5,10.8-3.6,14
			C-1521,401.3-1516.5,403.9-1514.7,401.1L-1514.7,401.1z"/>
	</g>
	<g>
		<path class="st3" d="M-1516.5,393.9c0.2,1,0.8,1.9,1.7,2.5c0.3,0.2,0.5-0.3,0.3-0.4c-0.8-0.5-1.3-1.2-1.4-2.1
			C-1516.1,393.4-1516.6,393.6-1516.5,393.9L-1516.5,393.9z"/>
	</g>
	<g>
		<path class="st3" d="M-1591.2,444.3c0,0.7,0,1.5,0.1,2.2c0.2,0.8,0.6,1.5,1,2.1c0.5,0.9,1.8,0.1,1.3-0.8c-0.3-0.6-0.7-1.1-0.8-1.8
			c-0.1-0.6-0.1-1.2-0.1-1.8C-1589.6,443.3-1591.1,443.3-1591.2,444.3L-1591.2,444.3z"/>
	</g>
</g>
<path class="st5" d="M-1585.7,489.2c-8.5,2.2-13.1,6.1-14.8,13.7c-0.4,1.6,0.4,9.3,1.6,12.4c1.7,4.5,7.4,9.4,9.7,10.4
	c5.9,2.6,11.7,4.5,17.2,4.5c5.1-0.1,10-1.2,14.7-3.4c6.7-3.1,13-6.4,14.2-15.9c0.3-2.2-0.8-11.2-2-13.8c-4.2-8.7-15.8-10.1-25.2-8.3
	C-1574.6,489.3-1582.5,488-1585.7,489.2"/>
<path class="st1" d="M-1560.7,489.4c-2.9-0.8-4.6-1.2-7-0.3c-0.6,0.2-2.5,0.7-3.1,1c-1.1,0.6-2.9,1.4-3.5,1.3
	c-1.1-0.2-0.8,0.1-1.9-0.4c-0.9-0.4-2.8-1.5-3.7-1.9c-1.9-1-4.7-0.3-6.9,0.1c-1,0.1-4.9,1.4-5.2,0.7c-0.5-1,3-4,4.3-4.2
	c2.7-0.4,4.8-0.8,7.6-0.5c1.1,0.1,1.8,0.5,2.7,1.2c0.3,0.2,1,1.2,1.2,1.3c-0.1-0.2,0.1-0.8-0.6-1.6c-0.5-0.7-1.3-1.5-2.9-2.6
	c-1.1-0.8-2.8-1.8-4.3-2.8l-0.8-1.3c0-0.6,3.8,0.2,4.4,0.4c2.7,0.6,3.1,0.9,4.5,2.1c0.8,0.6,1.2,1.5,1.7,2.3
	c0.5,0.8,0.9,1.9,1.6,2.5c0.1,0,0.1,0.1,0.2,0.1c1.7-0.6,4.1-1.4,5.9-1.7c2.1-0.3,4.9,0.3,7,0.8c1.2,0.3,3.8,0.8,3.4,1.8
	C-1556.1,488.5-1559.6,489.6-1560.7,489.4z"/>
<path class="st1" d="M-1573.9,488.3c0,0,2.7-5.7,4.1-8c1.4-2.2,4.7-3.3,4.7-3.3s0.6,1.2,0.2,2.8s-2.2,3.5-3,4.6s-3.6,4.7-3.6,4.7
	L-1573.9,488.3z"/>
<g>
	<path class="st4" d="M-1574.3,587.9c0-1.8,0.3-3.4,0.4-4.9c0.1-0.6-1.1,0.3-1.1-2.1s1.6-1.6,1.5-2.3c-0.2-1.6,0.3-2.5-0.8-2.6
		c-1.7-0.2-3.5-0.3-3.7-2.5c-0.2-2.3,1.1-3.4,3.1-3.4c1.8,0,1.2-2,0.9-4.5l-86.9,17.9c0.4,1.3,0.6,2.5,0.7,3.8
		c0.1,1.3,0.1,2.5,0.1,3.8c1.3,0.8,2.4,2.4,2.4,3.5c0,2.4-1.4,2.9-2.6,3.8c-0.1,1,0,1.7,0.6,4.8c0.1,0.4,0.2,0.9,0.5,1.2
		c0.7,0.8,1.9,0.6,3,0.4c4.6-1.1,6.9-1.5,11.6-1.4c2.3,0.1,4.6,0.5,6.9,0.1c0.5-0.1-0.1-1.8,1.4-2.2c1.8-0.4,1.4,1.8,2,1.7
		c2.7-0.4,5.9-0.8,7.5-1.2c4-0.9,8.7-0.7,12.7,0c1.5,0.2,3.3,0.1,5.4-0.1c1-0.1,0.4-2.7,4.3-2.9c3.4-0.2,3.2,2.1,4.3,2
		c1.9-0.2,1.6-0.2,3.7-0.3c6.5-0.2,6.7-0.9,13.2-1.1c2.7-0.1,4.5-1.7,7.2-2.2c0.8-0.1,1.7-0.4,2.2-1c0.4-0.5,0.5-1.2,0.5-1.8
		C-1573.3,592.7-1574.2,589.9-1574.3,587.9z M-1653.1,601.6c-1,0-2.7,0.6-3.5,0.3c-0.7-0.2-0.6-1.5-0.2-2.3c0.4-0.8,1.9-1,1.9-1
		s2.4,0.1,2.8,0.6C-1651.7,599.8-1652.1,601.6-1653.1,601.6z M-1638.1,590.9c-0.8,0-2.4,1-3,0.6c-0.6-0.4-3.4-1.6-3-3
		c0.4-1.4,4.5-2.8,4.5-2.8s2.1,0.1,2.4,1.1S-1637.2,590.9-1638.1,590.9z M-1620,596.3c-1.8,0-3.1,1.5-4.4,1.1
		c-1.4-0.5-2.3-1.7-1.5-3.2s4.1-3.5,4.1-3.5s3.4-0.3,4.1,0.8C-1616.9,592.4-1618.2,596.3-1620,596.3z M-1602.1,584
		c-1.8,0-3.2,1-4.6,0.6c-1.4-0.4-1.3-4.6-0.6-6c0.8-1.4,3.5-1.7,3.5-1.7s4.5,0.1,5.3,1.1C-1597.7,579-1600.3,584-1602.1,584z
		 M-1581.4,593.7c-1.8,0-5.2,1.1-6.6,0.6c-1.4-0.5-1.1-2.9-0.3-4.4s3.5-1.8,3.5-1.8s4.6,0.2,5.4,1.2
		C-1578.6,590.3-1579.5,593.7-1581.4,593.7z"/>
</g>
<path class="st5" d="M-1661.1,582.3c2.8-2,10.3-4.5,10.1-4.4c-2.1,1,5.2-3.2,7.2-4.3c2.4-1.3,4.5-2.6,8-4.3c1.5-0.8,4-1.2,5.5-1.9
	c2.4-1.2,3.7-2.5,5.5-3.3c2.5-1.1,6.3-2.1,8-2.7c3.3-1.2,4-1.7,8.5-3.7c1.2-0.5,2.9-1.8,4.3-1.9c1.4-0.1,4.6,0.2,5.9,0.6
	c2.7,0.9,6.9,2.8,9.6,3.6c5.6,1.8,7.9,2.7,13.5,4.5c1,0.5,0.4,1.6-0.6,1.8c-2.3,0.5-4.5,0.2-6.5,0.5c-1.9,0.3-3.8,1.4-5.7,1.7
	c-2.1,0.4-3.2,0.6-5.6,1.1c-2,0.4-4.1,1-6.1,1.4c-1.4,0.2-3.9,0.4-5.4,0.6c-2.9,0.5-5.5,1.9-8.3,2.4c-2.1,0.4-4.5,0.5-8.6,1.5
	c-2.8,0.7-6,1.6-8.4,2.1c-1.6,0.4-6.5,0.6-7.5,0.8c-3.6,0.7-3.5,1.5-6.1,2.1c-2.4,0.6-4.8,0.4-7.4,1.1c-2.1,0.5-5.2,1.8-8,2.4
	C-1659.2,584.2-1663.4,584-1661.1,582.3z"/>
<g>
	<path class="st6" d="M-1784.3,390.9c0,0-0.2-0.3,2.2,2.6c2.2,2.6,4.8,18.4,0.1,24.9c-2.6,3.5-7.8,10.7-13,12.8
		c-2.6,1-17.8,4.9-25,3.7c-4-0.7-10.2-3.1-15.3-2.7c-5.1,0.4-13.1,0.6-18.6,0.8c-6.2,0.2-15.6-4-17.2-6.8c-1.6-2.7-0.6-9.4-0.6-9.4
		s16.8-6.5,18.2-6.5s40.8-16.4,42.3-17.1C-1809.9,392.4-1784.3,390.9-1784.3,390.9z"/>
	<path class="st5" d="M-1784.5,409.8c1.4-2.3,3-6.1,3.1-8.1c0.3-5.9-1.4-11.5-5.5-15c-4.4-3.7-10-4.8-15.7-5.8
		c-5.9-1.1-12.8-1.2-18.6,0.4c-7.6,2-13.9,14.8-20.8,18.6c-6.9,3.8-15,4.6-21.5,6.2c-6.9,4.4-5.8,5.4-7.3,8.4
		c-1.5,2.9,1.2,5.9,3.7,8c2.5,2.1,5.8,2.9,9,3.5c14.2,2.7,20.5-2.6,34.3,1.6c8.4,2.6,18.6-0.7,24.8-3.3c6.2-2.6,6.6-4.6,13.5-13.1
		C-1785.2,410.8-1784.9,410.3-1784.5,409.8z"/>
	<path class="st7" d="M-1831.7,406.6c0,0,6.6-2.3,10-4.1c3.4-1.7,6.8-2.6,6.4-4.1c-0.3-1.5-3.1-4.4-3.6-5.6
		c-0.5-1.2-0.3-3.3,1.7-1.3s3.2,3.3,4.8,5.4c1.8,2.3,3,3.7,5.2,5.2c2.4,1.3,4.8,2.9,5.8,3.3c1,0.4,0.7,2.5-0.7,1.9s-3.9-1.3-5.8-2.4
		c-1.9-1.1-2.6-2.8-4.7-2.7c-2.2,0.1-4.6,2.2-8.2,3.5s-6,2.1-9.3,2.9c-3.3,0.7-7,3.3-8.4,1.6C-1839.1,409.3-1837,408.2-1831.7,406.6
		z"/>
</g>
<g>
	<path class="st4" d="M-1782.1,591.4l9.9,21.8c0,0,1.5,4.5,5.4,2.7c2.8-1.2,2.8-2.2,0.8-6.5c-1.9-4.3-9.1-20.2-9.1-20.2
		L-1782.1,591.4z"/>
	<path class="st7" d="M-1787.4,600.3c0,0-3.7,2.1-8.7-7.8c-3.1-6.2-13.8-34.5-13.8-38.7c0-4.2,1.5-12.9,9-15.3
		c10.3-3.3,15.8,1.8,19.9,8.8c4.1,7,14.4,28.6,15.9,33.1c1.5,4.5,3.3,9.3-1.8,11.6C-1771.9,594.2-1787.4,600.3-1787.4,600.3z"/>
	<path class="st1" d="M-1796.1,592.5c-3.1-6.2-13.8-34.5-13.8-38.7c0-4.2,1.5-12.9,9-15.3c10.3-3.3,15.8,1.8,19.9,8.8
		c4.1,7,14.4,28.6,15.9,33.1C-1772,583.8-1786.1,590.9-1796.1,592.5z"/>
</g>
<g>
	<path class="st6" d="M-1869.6,564.3c0,0-0.3,3.1-0.4,4.1c0,1-0.2,4.6-0.2,4.6s-9.4-5.4-10.2-5.9c-0.8-0.5,1.9-7.5,1.9-7.5l9.3,1.5
		L-1869.6,564.3z"/>
	<path class="st6" d="M-1870.2,573c0,0,19.4-2.6,20.4-2.7c1-0.2-2.3-8.8-2.3-8.8l-10.8-1.8l-7.5,1.2L-1870.2,573z"/>
	<path class="st5" d="M-1876,561.2c0,0,1.1,0.5,1.7,0.8c0.6,0.3,4.3,1.9,4.7,2.3c0.4,0.4,5.3-0.7,7.3-0.9s5.7-1.3,6.7-1.5
		c1-0.2,2.6-0.2,3.5-0.5c-1.6-1-4.7-2-6.2-3.1c-1.5-1-2.8-1.5-4.1-1.9c-0.5-0.2-3.8,0.6-7.6,1.4c-3.8,0.8-8.2,1.6-8.6,1.7
		C-1879.2,559.9-1876,561.2-1876,561.2z"/>
	<path class="st6" d="M-1855.1,572.7c0,0,1.6,3.3,1.6,4.3c0,1-1.6,5.2-1.6,5.2s-10-6.3-10.8-6.8c-0.8-0.5,1.9-7.5,1.9-7.5l9.3,1.5
		L-1855.1,572.7z"/>
	<path class="st6" d="M-1855.1,582.2c0,0,18-5.1,19-5.2c1-0.2-1.4-7.2-1.4-7.2l-10.8-1.8l-7.5,1.2L-1855.1,582.2z"/>
	<path class="st5" d="M-1861.5,569.6c0,0,1.1,0.5,1.7,0.8c0.6,0.3,4.3,1.9,4.7,2.3s5.3-0.7,7.3-0.9c2-0.2,5.7-1.3,6.7-1.5
		c1-0.2,2.6-0.2,3.5-0.5c-1.6-1-4.7-2-6.2-3.1c-1.5-1-2.8-1.5-4.1-1.9c-0.5-0.2-3.8,0.6-7.6,1.4c-3.8,0.8-8.2,1.6-8.6,1.7
		C-1864.7,568.3-1861.5,569.6-1861.5,569.6z"/>
	<path class="st6" d="M-1891,569.5c0,0-0.3,3.1-0.4,4.1s-0.2,4.6-0.2,4.6s-9.4-5.4-10.2-5.9c-0.8-0.5,1.9-7.5,1.9-7.5l9.3,1.5
		L-1891,569.5z"/>
	<path class="st6" d="M-1891.6,578.2c0,0,19.4-2.6,20.4-2.7c1-0.2-2.3-8.8-2.3-8.8l-10.8-1.8l-7.5,1.2L-1891.6,578.2z"/>
	<path class="st5" d="M-1896.7,565.7c0,0,1.1,0.5,1.7,0.8s4.3,1.9,4.7,2.3c0.4,0.4,5.3-0.7,7.3-0.9c2-0.2,5.7-1.3,6.7-1.5
		c1-0.2,2.6-0.2,3.5-0.5c-1.6-1-4.7-2-6.2-3.1c-1.5-1-2.8-1.5-4.1-1.9c-0.5-0.2-3.8,0.6-7.6,1.4c-3.8,0.8-8.2,1.6-8.6,1.7
		C-1899.9,564.5-1896.7,565.7-1896.7,565.7z"/>
	<path class="st6" d="M-1876.5,577.9c0,0,1.6,3.3,1.6,4.3c0,1-1.6,5.2-1.6,5.2s-10-6.3-10.8-6.8c-0.8-0.5,1.9-7.5,1.9-7.5l9.3,1.5
		L-1876.5,577.9z"/>
	<path class="st6" d="M-1876.5,587.5c0,0,18-5.1,19-5.2c1-0.2-1.4-7.2-1.4-7.2l-10.8-1.8l-7.5,1.2L-1876.5,587.5z"/>
	<path class="st5" d="M-1882.9,574.9c0,0,1.1,0.5,1.7,0.8c0.6,0.3,4.3,1.9,4.7,2.3c0.4,0.4,5.3-0.7,7.3-0.9s5.7-1.3,6.7-1.5
		c1-0.2,2.6-0.2,3.5-0.5c-1.6-1-4.7-2-6.2-3.1c-1.5-1-2.8-1.5-4.1-1.9c-0.5-0.2-3.8,0.6-7.6,1.4c-3.8,0.8-8.2,1.6-8.6,1.7
		C-1886.2,573.6-1882.9,574.9-1882.9,574.9z"/>
	<path class="st6" d="M-1912.5,574.8c0,0-0.3,3.1-0.4,4.1c0,1-0.2,4.6-0.2,4.6s-9-1.4-9.9-1.9c-0.8-0.5,1.6-11.5,1.6-11.5l9.3,1.5
		L-1912.5,574.8z"/>
	<path class="st6" d="M-1913.1,583.5c0,0,19.4-2.6,20.4-2.7c1-0.2-2.3-8.8-2.3-8.8l-10.8-1.8l-7.5,1.2L-1913.1,583.5z"/>
	<path class="st5" d="M-1918.1,571c0,0,1.1,0.5,1.7,0.8c0.6,0.3,4.3,1.9,4.7,2.3c0.4,0.4,5.3-0.7,7.3-0.9s5.7-1.3,6.7-1.5
		c1-0.2,2.6-0.2,3.5-0.5c-1.6-1-4.7-2-6.2-3.1c-1.5-1-2.8-1.5-4.1-1.9c-0.5-0.2-3.8,0.6-7.6,1.4c-3.8,0.8-8.2,1.6-8.6,1.7
		C-1921.4,569.8-1918.1,571-1918.1,571z"/>
	<path class="st6" d="M-1898,583.2c0,0,1.6,3.3,1.6,4.3c0,1-1.6,5.2-1.6,5.2s-10-6.3-10.8-6.8c-0.8-0.5,1.9-7.5,1.9-7.5l9.3,1.5
		L-1898,583.2z"/>
	<path class="st6" d="M-1898,592.8c0,0,18-5.1,19-5.2c1-0.2-1.4-7.2-1.4-7.2l-10.8-1.8l-7.5,1.2L-1898,592.8z"/>
	<path class="st5" d="M-1904.4,580.2c0,0,1.1,0.5,1.7,0.8c0.6,0.3,4.3,1.9,4.7,2.3s5.3-0.7,7.3-0.9c2-0.2,5.7-1.3,6.7-1.5
		c1-0.2,2.6-0.2,3.5-0.5c-1.6-1-4.7-2-6.2-3.1c-1.5-1-2.8-1.5-4.1-1.9c-0.5-0.2-3.8,0.6-7.6,1.4c-3.8,0.8-8.2,1.6-8.6,1.7
		C-1907.6,578.9-1904.4,580.2-1904.4,580.2z"/>
	<path class="st6" d="M-1897.8,584l-0.3,11.8l62.2-15.3l-0.1-5.1l-5.8-1.8c0,0-49.4,13.5-49.9,13.7
		C-1892.2,587.4-1897.8,584-1897.8,584z"/>
	<polygon class="st6" points="-1898.1,595.8 -1922.9,581.6 -1917.2,577.2 -1892.7,589.9 	"/>
</g>
<g>
	<path class="st8" d="M-1927.3,503.1c12.8-2,33.8-9.5,40.1-12.4c6.3-2.9,12.9-4.1,19.1-4.3c7.2-0.2,14.9,1.6,17.3,5.4
		c2.6,4.2,3.2,15.3,4.4,18.7c1.3,3.4,3.6,5.6,4.6,2.9c1-2.7,3.6-13.9,5.8-16.2c2.2-2.3,9-2.9,12-4.5c3-1.6,5.5-4.4-1.3-5.6
		c-6.9-1.3-17.2-1-18.7-2.4s-8.1-18.2-30.5-21.5c-10.2-1.5-10.1-0.3-9.2-2.1c1.8-3.9,4-4.9,2.7-6.3c-1.3-1.3-21.8,1.2-23.1,2.3
		c-1.3,1.2-5.4,5-5.4,5s-13.7,1.7-21.4,7.3C-1938.3,474.8-1928.5,487.5-1927.3,503.1z"/>
	<path class="st6" d="M-1944.1,495.5c1.9-0.4,6.9-0.1,8.5-0.2c-2.8-1.4-5.3-2-8.7-1.7c-3.2,0.2-4.7,1.2-5.7,0
		c-0.6-0.8,0.6-6.9,1.4-9c3-7.6,9.6-12.4,17.8-15.2c6.2-2.1,16.4,31.7,3.6,33.7c-12.8,2-19.9-2.7-19.9-2.7c-1.1-0.5-3.4-2.7-2.1-3.3
		C-1947.9,496.5-1948.1,496.4-1944.1,495.5z"/>
	<path class="st1" d="M-1934.8,485.1c1.6,0.4,2.4-1.1,2.4-1.8c0-0.7-0.6-1.8-1.6-1.8c-1,0-1.7,0.4-2,1.1
		C-1936.5,484.2-1935.7,484.9-1934.8,485.1z"/>
	<path class="st6" d="M-1906.1,487.6c0,0,9.5,0.9,14.3-2c4.7-2.9,14.8-11.3,14.8-11.3s-0.2-3-9.1,0.4c-8.9,3.4-14.9,4.4-16.9,5.4
		S-1909.4,487.7-1906.1,487.6z"/>
</g>
<g>
	<g>
		<path class="st2" d="M-1762.8,500.6h-8.1v2.8h6.5v3.8h-6.5v5.9h-5v-16.3h13.1V500.6z"/>
		<path class="st2" d="M-1756.7,500.5c1.3,0,2.5,0.3,3.5,0.8c1,0.5,1.8,1.2,2.3,2.2c0.6,1,0.8,2.1,0.8,3.5c0,1.3-0.3,2.5-0.8,3.5
			c-0.6,1-1.3,1.7-2.3,2.2s-2.2,0.8-3.5,0.8c-1.3,0-2.5-0.3-3.5-0.8c-1-0.5-1.8-1.2-2.4-2.2c-0.6-1-0.8-2.1-0.8-3.5
			c0-1.4,0.3-2.5,0.8-3.5c0.6-1,1.4-1.7,2.4-2.2C-1759.2,500.8-1758.1,500.5-1756.7,500.5z M-1756.7,503.9c-0.4,0-0.7,0.1-0.9,0.3
			c-0.3,0.2-0.4,0.5-0.6,0.9c-0.1,0.4-0.2,1-0.2,1.8c0,0.7,0.1,1.3,0.2,1.8c0.1,0.4,0.3,0.7,0.6,0.9c0.3,0.2,0.6,0.3,0.9,0.3
			c0.4,0,0.7-0.1,0.9-0.3c0.2-0.2,0.4-0.5,0.6-0.9c0.1-0.4,0.2-1,0.2-1.8c0-0.7-0.1-1.3-0.2-1.8c-0.1-0.4-0.3-0.8-0.6-0.9
			C-1756,504-1756.4,503.9-1756.7,503.9z"/>
		<path class="st2" d="M-1742.6,500.5c1.3,0,2.5,0.3,3.5,0.8c1,0.5,1.8,1.2,2.3,2.2c0.6,1,0.8,2.1,0.8,3.5c0,1.3-0.3,2.5-0.8,3.5
			c-0.6,1-1.3,1.7-2.3,2.2c-1,0.5-2.2,0.8-3.5,0.8c-1.3,0-2.5-0.3-3.5-0.8c-1-0.5-1.8-1.2-2.4-2.2c-0.6-1-0.9-2.1-0.9-3.5
			c0-1.4,0.3-2.5,0.9-3.5c0.6-1,1.4-1.7,2.4-2.2C-1745.1,500.8-1743.9,500.5-1742.6,500.5z M-1742.6,503.9c-0.4,0-0.7,0.1-0.9,0.3
			c-0.3,0.2-0.4,0.5-0.6,0.9c-0.1,0.4-0.2,1-0.2,1.8c0,0.7,0.1,1.3,0.2,1.8c0.1,0.4,0.3,0.7,0.6,0.9c0.3,0.2,0.6,0.3,0.9,0.3
			c0.4,0,0.7-0.1,0.9-0.3c0.2-0.2,0.4-0.5,0.6-0.9c0.1-0.4,0.2-1,0.2-1.8c0-0.7-0.1-1.3-0.2-1.8c-0.1-0.4-0.3-0.8-0.6-0.9
			C-1741.9,504-1742.2,503.9-1742.6,503.9z"/>
		<path class="st2" d="M-1730.2,513.3c-1,0-1.9-0.3-2.6-0.8c-0.7-0.5-1.3-1.2-1.7-2.2c-0.4-1-0.6-2.1-0.6-3.4c0-1.4,0.2-2.5,0.6-3.5
			c0.4-1,1-1.7,1.7-2.2c0.7-0.5,1.6-0.8,2.6-0.8c1.2,0,2.1,0.4,2.7,1.1c0.7,0.7,1.1,1.7,1.3,2.8l-0.4,0.6v-8.3h5v16.4h-4.5l-0.3-4.6
			l0.6,0.6c-0.1,0.8-0.3,1.6-0.7,2.2c-0.4,0.6-0.9,1.2-1.5,1.5C-1728.7,513.2-1729.4,513.3-1730.2,513.3z M-1728.3,509.8
			c0.4,0,0.7-0.1,0.9-0.3c0.2-0.2,0.4-0.5,0.6-1c0.1-0.4,0.2-1,0.2-1.6c0-0.6-0.1-1.1-0.2-1.5c-0.1-0.4-0.3-0.7-0.6-0.9
			c-0.3-0.2-0.6-0.3-0.9-0.3c-0.5,0-1,0.2-1.3,0.6c-0.3,0.4-0.5,1.2-0.5,2.2s0.2,1.8,0.5,2.2
			C-1729.3,509.6-1728.9,509.8-1728.3,509.8z"/>
		<path class="st2" d="M-1705.2,496.8v3.8h-5.2v12.5h-5v-12.5h-5.2v-3.8H-1705.2z"/>
		<path class="st2" d="M-1701.4,513.3c-0.8,0-1.6-0.1-2.2-0.4c-0.6-0.3-1.1-0.7-1.4-1.4c-0.3-0.6-0.5-1.5-0.5-2.5v-8.3h5v7.1
			c0,0.6,0.1,1.1,0.3,1.3s0.6,0.4,1,0.4c0.2,0,0.4,0,0.6-0.1c0.2-0.1,0.4-0.2,0.5-0.4c0.1-0.2,0.2-0.4,0.3-0.7
			c0.1-0.3,0.1-0.6,0.1-1v-6.6h5v12.3h-4.5l-0.1-2.5c-0.4,0.9-0.9,1.6-1.6,2C-1699.6,513.1-1700.4,513.3-1701.4,513.3z"/>
		<path class="st2" d="M-1690.9,513.1v-12.3h4.5l0.2,4.8l-0.5-0.5c0.1-1,0.4-1.8,0.8-2.4c0.4-0.7,0.9-1.2,1.6-1.5
			c0.6-0.3,1.4-0.5,2.3-0.5c0.8,0,1.6,0.2,2.2,0.5c0.6,0.3,1.1,0.8,1.4,1.4c0.3,0.6,0.5,1.4,0.5,2.3v8.3h-5v-7
			c0-0.7-0.1-1.2-0.3-1.4c-0.2-0.3-0.5-0.4-0.9-0.4c-0.3,0-0.6,0.1-0.9,0.2s-0.5,0.4-0.6,0.8c-0.1,0.3-0.2,0.8-0.2,1.4v6.5H-1690.9z
			"/>
		<path class="st2" d="M-1669.9,513.3c-1.4,0-2.6-0.3-3.7-0.8s-1.8-1.2-2.4-2.2c-0.5-1-0.8-2.1-0.8-3.5s0.3-2.5,0.8-3.5
			c0.6-1,1.3-1.7,2.3-2.2c1-0.5,2.2-0.8,3.5-0.8c1.3,0,2.5,0.3,3.4,0.8c0.9,0.5,1.7,1.2,2.2,2.1c0.5,0.9,0.8,1.9,0.8,3.1
			c0,0.3,0,0.6,0,0.8c0,0.3-0.1,0.5-0.1,0.7h-9.7v-2.2h7.5l-2.4,0.9c0-0.9-0.1-1.6-0.4-2.1c-0.3-0.5-0.7-0.7-1.3-0.7
			c-0.4,0-0.8,0.1-1.1,0.3c-0.3,0.2-0.5,0.5-0.6,1c-0.1,0.5-0.2,1.1-0.2,1.8c0,0.8,0.1,1.4,0.3,1.8c0.2,0.4,0.4,0.7,0.7,0.9
			c0.3,0.2,0.7,0.2,1.2,0.2c0.5,0,0.9-0.1,1.2-0.3c0.3-0.2,0.5-0.5,0.6-0.9l4,1.2c-0.2,0.8-0.6,1.4-1.2,1.9
			c-0.6,0.5-1.3,0.9-2.1,1.1C-1668.1,513.2-1669,513.3-1669.9,513.3z"/>
		<path class="st2" d="M-1657.1,513.3c-1.2,0-2.4-0.2-3.5-0.5c-1.1-0.4-2-0.9-2.8-1.6l2-2.6c0.4,0.4,1,0.8,1.7,1.2
			c0.7,0.3,1.4,0.5,2.2,0.5c0.4,0,0.7-0.1,1-0.1c0.3-0.1,0.4-0.3,0.4-0.5c0-0.2-0.1-0.3-0.2-0.4c-0.1-0.1-0.4-0.2-0.9-0.3l-1.3-0.2
			c-1.7-0.3-2.9-0.8-3.6-1.4c-0.7-0.6-1-1.5-1-2.5c0-0.7,0.2-1.3,0.6-2c0.4-0.6,1.1-1.2,2-1.6c0.9-0.4,2.1-0.6,3.5-0.6
			c1.3,0,2.4,0.2,3.4,0.5c1,0.3,1.8,0.8,2.4,1.4l-1.9,2.6c-0.4-0.4-1-0.8-1.7-1c-0.7-0.2-1.3-0.4-1.9-0.4c-0.3,0-0.6,0-0.8,0.1
			c-0.2,0.1-0.4,0.1-0.5,0.2c-0.1,0.1-0.2,0.2-0.2,0.4c0,0.2,0.1,0.3,0.3,0.4s0.5,0.2,1,0.3l2,0.3c1.3,0.2,2.2,0.7,2.8,1.3
			c0.6,0.6,0.9,1.4,0.9,2.3c0,0.8-0.2,1.5-0.6,2.2c-0.4,0.7-1.1,1.2-2,1.6C-1654.5,513.1-1655.7,513.3-1657.1,513.3z"/>
	</g>
	<g>
		<path d="M-1648,500.6c-0.5,0-1-0.1-1.3-0.3c-0.4-0.2-0.7-0.5-0.9-0.9c-0.2-0.4-0.3-0.8-0.3-1.3c0-0.5,0.1-0.9,0.3-1.3
			c0.2-0.4,0.5-0.7,0.9-0.9c0.4-0.2,0.8-0.3,1.3-0.3c0.5,0,1,0.1,1.3,0.3c0.4,0.2,0.7,0.5,0.9,0.9c0.2,0.4,0.3,0.8,0.3,1.3
			c0,0.5-0.1,0.9-0.3,1.3c-0.2,0.4-0.5,0.7-0.9,0.9C-1647,500.5-1647.5,500.6-1648,500.6z M-1648,500.3c0.4,0,0.8-0.1,1.2-0.3
			c0.3-0.2,0.6-0.5,0.8-0.8s0.3-0.7,0.3-1.2c0-0.4-0.1-0.8-0.3-1.2s-0.4-0.6-0.8-0.8c-0.3-0.2-0.7-0.3-1.2-0.3
			c-0.4,0-0.8,0.1-1.2,0.3c-0.3,0.2-0.6,0.5-0.8,0.8s-0.3,0.7-0.3,1.2c0,0.4,0.1,0.8,0.3,1.2s0.4,0.6,0.8,0.8
			C-1648.8,500.2-1648.4,500.3-1648,500.3z M-1647.9,499.4c-0.4,0-0.8-0.1-1-0.4c-0.2-0.3-0.4-0.6-0.4-1c0-0.4,0.1-0.8,0.4-1
			c0.2-0.3,0.6-0.4,1-0.4c0.3,0,0.5,0.1,0.7,0.2c0.2,0.1,0.3,0.3,0.4,0.5l-0.3,0.1c-0.1-0.2-0.2-0.3-0.3-0.4
			c-0.1-0.1-0.3-0.1-0.6-0.1c-0.3,0-0.6,0.1-0.8,0.3c-0.2,0.2-0.3,0.5-0.3,0.8c0,0.3,0.1,0.6,0.3,0.8c0.2,0.2,0.4,0.3,0.8,0.3
			c0.2,0,0.4-0.1,0.6-0.2c0.2-0.1,0.3-0.3,0.3-0.5l0.3,0.1c-0.1,0.2-0.2,0.4-0.4,0.6C-1647.4,499.4-1647.6,499.4-1647.9,499.4z"/>
	</g>
</g>
<g>
	<path class="st4" d="M-1573.8,3.2c0.7-1.3,1.5-2.4,2.4-3.3c1.4-1.4,2.4-3.1,4.5-4.1c3.6-1.9,8.4-1.5,12.3-2.4
		c3.6-0.8,6.9-2.2,10.3-4c6.9-3.6,10-6.4,14.8-12.6c1.5-2,3.7-4.1,5.7-6.9c2-2.8,3.8-6.4,5.7-8c2.2-2,6.8-1.6,9.5-2.9
		c1,2.9,2,7.1,1.1,10c-1,3.3-2,7.5-3.1,10.1c-3.5,7.6-8.1,11.1-16.1,17.6c-3.7,3-8.3,5.7-13,7.7c-2.8,1.2-11.3,2.7-14.6,3.3
		c-7.8,1.5-11.4,0.5-18.3-1.5C-1573.2,6.1-1574.2,3.3-1573.8,3.2"/>
	<g>
		<path class="st4" d="M-1509.8-33.5c2.7-4.2,6.2-11.5,3-16.2c-1.4-2-4.5-0.8-4,1.7c1.2,5.1-1.3,9.9-4.5,13.8
			c-1.8,2.1,1.3,5.2,3.1,3.1c4.3-5.2,7.1-11.3,5.6-18c-1.3,0.6-2.6,1.1-4,1.7c2.2,3.2-1.2,9.1-3,11.8
			C-1515.1-33.4-1511.3-31.2-1509.8-33.5L-1509.8-33.5z"/>
	</g>
	<g>
		<path class="st3" d="M-1511.3-39.6c0.1,0.9,0.7,1.6,1.4,2.1c0.2,0.1,0.5-0.2,0.2-0.4c-0.7-0.4-1.1-1-1.2-1.8
			C-1510.9-40-1511.4-39.9-1511.3-39.6L-1511.3-39.6z"/>
	</g>
	<g>
		<path class="st3" d="M-1574.1,2.7c0,0.6,0,1.2,0.1,1.8c0.1,0.7,0.5,1.2,0.8,1.8c0.4,0.7,1.6,0.1,1.1-0.7c-0.3-0.5-0.6-0.9-0.7-1.5
			c-0.1-0.5-0.1-1-0.1-1.5C-1572.7,1.9-1574,1.9-1574.1,2.7L-1574.1,2.7z"/>
	</g>
</g>
<g>
	<path class="st7" d="M-1631.4-5.6c-4.1,1.9-4,2.3-8,4.4c-5.4,2.8-17.2,8.2-23.2,8.5c-0.7,0-1.4,0-2.1-0.3c-1.2-0.6-2.3-1.6-2.2-3.1
		l0,0c-0.5-0.8,0-3.1,0.8-3.7c1.7-1.4,11.2-3.9,15.2-4.9c4.6-1.2,9.1-1.9,10.8-3l14.6-6.6C-1618.6-11.1-1629-6.7-1631.4-5.6z"/>
	<path class="st1" d="M-1575.2-21.2c-9.5-0.6-29,6-38,8.3c-2.9,0.7-10.8,3.5-19.4,8.1c-2.6,1.4-3.7,2.4-5.9,3.1
		c2.8-4,1.1-5.5-2.7-5.5c8-3.9,16.1-9.5,22.7-15.3c6.1-5.4,20.1-20.7,26.3-26.1c2.2,1.7,4,2.5,3.4,4.6c-2.6,2.2-26.1,24.1-28.4,26.7
		c2.9-2,18-14.6,21.2-16.1c3.5-1.6,15.4-9.7,19.1-10.9c1.9,1.1,1.9,2.6,2.1,5.3c-3.7,1.2-15.9,9.2-19.4,11
		c-4.1,2.1-7.8,4.9-11.7,7.5c8.7-3.1,23.2-6.4,32.5-6.3C-1573.7-25.4-1574.1-23.3-1575.2-21.2z"/>
	<g>
		<path class="st3" d="M-1665.9,4.4c-0.8,0.3-1.6,0.7-2.3,1.2c-0.2,0.1,0,0.4,0.2,0.3c0.7-0.5,1.4-0.8,2.2-1.1
			C-1665.6,4.6-1665.7,4.3-1665.9,4.4L-1665.9,4.4z"/>
	</g>
	<g>
		<path class="st3" d="M-1666.9,3.5c-0.8,0.1-1.5,0.2-2.3,0.2c-0.2,0-0.2,0.4,0,0.4c0.8-0.1,1.5-0.2,2.3-0.2
			C-1666.7,3.8-1666.6,3.5-1666.9,3.5L-1666.9,3.5z"/>
	</g>
	<g>
		<path class="st3" d="M-1667,2.1c-0.7-0.2-1.4-0.5-2.1-0.7c-0.2-0.1-0.3,0.3-0.1,0.4c0.7,0.2,1.4,0.5,2.1,0.7
			C-1666.8,2.5-1666.7,2.2-1667,2.1L-1667,2.1z"/>
	</g>
	<g>
		<path class="st3" d="M-1665.3,5.9c-0.4,0.7-0.9,1.2-1.5,1.8c-0.2,0.2,0.1,0.4,0.3,0.3c0.6-0.5,1.1-1.2,1.5-1.8
			C-1664.8,5.8-1665.1,5.6-1665.3,5.9L-1665.3,5.9z"/>
	</g>
</g>
<g>
	<path class="st5" d="M-1570.2,123.9c-7.2,1.8-11.2,5.1-12.4,11.5c-1.6,11.2,3,23.2,23.9,22.9c20.9-0.3,23.1-8.3,24.3-16.3
		c0.6-4.6-0.6-9.4-1.7-11.6c-3.5-7.3-13.2-8.5-21.2-7C-1560.8,124-1567.5,122.9-1570.2,123.9"/>
	<path class="st1" d="M-1549.1,124.1c-2.5-0.7-3.8-1-5.9-0.3c-0.5,0.2-2.1,0.6-2.6,0.8c-0.9,0.5-2.5,1.2-3,1.1
		c-0.9-0.2-0.7,0.1-1.6-0.3c-0.7-0.3-2.4-1.2-3.1-1.6c-1.6-0.8-4-0.2-5.8,0c-0.8,0.1-4.1,1.2-4.4,0.6c-0.4-0.8,2.5-3.4,3.6-3.6
		c2.3-0.3,4-0.7,6.4-0.4c0.9,0.1,1.5,0.4,2.3,1c0.2,0.2,0.8,1,1,1.1c-0.1-0.2,0.1-0.6-0.5-1.3c-0.4-0.5-1.1-1.2-2.4-2.1
		c-0.9-0.6-2.4-1.5-3.6-2.4l-0.7-1.1c0-0.5,3.2,0.2,3.7,0.3c2.2,0.5,2.6,0.7,3.8,1.8c0.6,0.5,1,1.2,1.5,1.9c0.4,0.6,0.7,1.6,1.3,2.1
		c0,0,0.1,0.1,0.1,0.1c1.4-0.5,3.5-1.2,5-1.4c1.8-0.2,4.1,0.2,5.9,0.7c1,0.3,3.2,0.7,2.8,1.5
		C-1545.3,123.3-1548.3,124.3-1549.1,124.1z"/>
	<path class="st1" d="M-1560,122.3c0,0,2.2-4.8,3.4-6.7s3.9-2.7,3.9-2.7s0.5,1,0.2,2.3c-0.3,1.3-1.9,2.9-2.5,3.9
		c-0.6,0.9-3,3.9-3,3.9L-1560,122.3z"/>
</g>
<g>
	<g>
		<path class="st4" d="M-1575,39.8c0-1.5,0.2-2.9,0.3-4.1c0-0.5-0.9,0.3-0.9-1.8c0-2.1,1.4-1.3,1.3-1.9c-0.2-1.3,0.3-2.1-0.6-2.2
			c-1.4-0.1-3-0.2-3.1-2.1c-0.1-1.9,0.9-2.8,2.6-2.8c1.5,0,1-1.7,0.7-3.8l-73,15.1c0.3,1.1,0.5,2.1,0.6,3.2c0.1,1.1,0.1,2.1,0.1,3.2
			c1.1,0.6,2,2,2,3c0,2-1.2,2.4-2.2,3.2c-0.1,0.9,0,1.4,0.5,4c0.1,0.4,0.2,0.7,0.4,1c0.6,0.7,1.6,0.5,2.5,0.3c3.9-1,5.8-1.3,9.7-1.2
			c1.9,0,3.9,0.4,5.8,0.1c0.4-0.1-0.1-1.6,1.2-1.8c1.5-0.3,1.2,1.5,1.7,1.4c2.3-0.3,5-0.7,6.3-1c3.4-0.8,7.3-0.6,10.7,0
			c1.2,0.2,2.8,0.1,4.5,0c0.8-0.1,0.4-2.3,3.6-2.4c2.8-0.1,2.7,1.8,3.6,1.7c1.6-0.2,1.4-0.2,3.1-0.2c5.4-0.2,5.7-0.7,11.1-0.9
			c2.3-0.1,3.8-1.4,6.1-1.8c0.7-0.1,1.4-0.3,1.8-0.9c0.3-0.4,0.4-1,0.4-1.5C-1574.2,43.9-1575,41.5-1575,39.8z M-1641.3,51.3
			c-0.8,0-2.3,0.5-2.9,0.3c-0.6-0.2-0.5-1.3-0.1-2c0.3-0.7,1.6-0.8,1.6-0.8s2,0.1,2.4,0.5C-1640,49.8-1640.5,51.3-1641.3,51.3z
			 M-1628.6,42.3c-0.7,0-2,0.8-2.5,0.5c-0.5-0.3-2.9-1.3-2.6-2.5c0.3-1.2,3.8-2.3,3.8-2.3s1.7,0.1,2,0.9S-1627.9,42.3-1628.6,42.3z
			 M-1613.4,46.9c-1.5,0-2.6,1.3-3.7,0.9c-1.2-0.4-1.9-1.4-1.3-2.7c0.6-1.3,3.5-3,3.5-3s2.8-0.3,3.5,0.6
			C-1610.9,43.6-1611.9,46.9-1613.4,46.9z M-1598.4,36.5c-1.5,0-2.7,0.9-3.9,0.5c-1.1-0.4-1.1-3.9-0.5-5c0.6-1.2,2.9-1.4,2.9-1.4
			s3.8,0.1,4.4,0.9C-1594.7,32.4-1596.9,36.5-1598.4,36.5z M-1581,44.7c-1.5,0-4.4,0.9-5.5,0.5c-1.2-0.4-0.9-2.4-0.3-3.7
			c0.6-1.3,3-1.5,3-1.5s3.9,0.1,4.5,1C-1578.7,41.8-1579.4,44.7-1581,44.7z"/>
	</g>
	<path class="st5" d="M-1647.7,36.2c2.6-2.4,7.2-3.7,8.6-4.4c1.3-0.7,4.6-2.4,6.3-3.3c2.1-1.1,3.8-2.2,6.7-3.6
		c1.3-0.6,3.3-1,4.6-1.6c2-1,3.1-2.1,4.6-2.7c2.1-0.9,5.3-1.8,6.7-2.3c2.8-1,3.3-1.4,7.2-3.1c1-0.4,2.5-1.5,3.6-1.6
		c1.2-0.1,3.9,0.2,5,0.5c2.3,0.7,5.8,2.3,8,3.1c4.7,1.5,6.6,2.3,11.4,3.8c0.9,0.4,0.3,1.4-0.5,1.6c-2,0.4-3.8,0.1-5.5,0.4
		c-1.6,0.3-3.2,1.1-4.8,1.4c-1.8,0.3-2.7,0.5-4.7,0.9c-1.6,0.3-3.4,0.9-5.2,1.2c-1.2,0.2-3.3,0.3-4.5,0.5c-2.5,0.4-4.6,1.6-7,2
		c-1.8,0.3-3.8,0.4-7.2,1.3c-2.4,0.6-5.1,1.3-7.1,1.8c-1.3,0.3-5.5,0.5-6.3,0.6c-3,0.6-3,1.2-5.2,1.8c-2.1,0.5-4,0.4-6.2,0.9
		c-1.8,0.4-3.2,0.7-5.5,1.1C-1644.8,36.5-1647.5,36.7-1647.7,36.2z"/>
</g>
<g>
	<path class="st6" d="M-1624.1-70.6c0,0-0.2-0.2,2.2,1.8c2.2,1.8,6.8,14.5,3.9,20.6c-1.6,3.3-4.7,10-8.7,12.6c-2,1.3-14,6.8-20.1,7
		c-3.4,0.1-8.9-0.9-13.1,0.2s-10.7,2.6-15.3,3.6c-5.1,1.1-13.5-0.9-15.2-2.9c-1.7-2-2-7.7-2-7.7s12.8-8,14-8.2
		c1.2-0.2,31.1-19.9,32.2-20.8C-1645-65.4-1624.1-70.6-1624.1-70.6z"/>
	<path class="st5" d="M-1621.3-55c0.8-2.2,1.5-5.5,1.3-7.1c-0.6-4.9-2.9-9.3-6.9-11.5c-4.2-2.4-9-2.4-13.9-2.4
		c-5.1,0-10.7,1-15.3,3.2c-5.9,2.9-9.2,14.4-14.2,18.6c-5.1,4.2-14.1,6.3-16.8,8.5c-3.9,3-5.1,7.3-5.3,10.1c-0.1,1.3,2.5,2.7,4.9,4
		c2.4,1.3,5.3,1.5,8,1.5c12.1,0,16.5-5.4,28.6-4.1c7.3,0.8,15.3-3.5,20-6.6c4.7-3.1,4.8-4.8,9.1-12.9
		C-1621.7-54-1621.5-54.5-1621.3-55z"/>
	<path class="st7" d="M-1660.7-50.2c0,0,5.1-3,7.6-4.9c2.5-2,5.2-3.2,4.7-4.4c-0.5-1.2-3.2-3.2-3.8-4.1s-0.8-2.6,1.2-1.4
		c2,1.3,3.1,2.3,4.8,3.7c1.8,1.6,3.1,2.6,5.1,3.5c2.2,0.7,4.4,1.6,5.3,1.8s1,1.9-0.3,1.7c-1.3-0.2-3.4-0.5-5.1-1.1
		c-1.7-0.6-2.5-1.9-4.3-1.5c-1.8,0.4-3.5,2.5-6.3,4.1c-2.8,1.6-4.6,2.7-7.2,3.8c-2.6,1.1-5.3,3.8-6.7,2.6
		C-1666.4-46.8-1664.9-48-1660.7-50.2z"/>
</g>
<g>
	<path class="st8" d="M-1602.3,105.8c10.8-1.6,28.4-8,33.7-10.4s10.8-3.5,16.1-3.6c6.1-0.1,12.5,1.3,14.5,4.5
		c2.2,3.5,2.7,12.9,3.7,15.7c1.1,2.8,3,4.7,3.9,2.4c0.9-2.3,3.1-11.6,4.9-13.6c1.8-2,7.6-2.4,10.1-3.8c2.5-1.4,4.6-3.7-1.1-4.7
		s-14.4-0.8-15.7-2.1c-1.3-1.2-6.8-15.3-25.6-18c-8.6-1.3-8.5-0.3-7.8-1.8c1.5-3.3,3.4-4.1,2.3-5.3c-1.1-1.1-18.3,1-19.4,2
		s-4.5,4.2-4.5,4.2s-11.6,1.4-18,6.1C-1611.6,82-1603.3,92.7-1602.3,105.8z"/>
	<path class="st6" d="M-1616.4,99.5c1.6-0.4,5.8-0.1,7.1-0.2c-2.4-1.1-4.4-1.7-7.3-1.4c-2.7,0.2-3.9,1-4.8,0
		c-0.5-0.7,0.5-5.8,1.1-7.6c2.5-6.4,8-10.4,14.9-12.7c5.2-1.7,13.8,26.7,3,28.3c-10.8,1.6-16.7-2.2-16.7-2.2
		c-0.9-0.4-2.8-2.3-1.8-2.8C-1619.7,100.3-1619.8,100.2-1616.4,99.5z"/>
	<path class="st1" d="M-1608.7,90.7c1.3,0.3,2-0.9,2-1.5c0-0.6-0.5-1.5-1.4-1.5c-0.8,0-1.5,0.4-1.6,0.9
		C-1610,89.9-1609.4,90.6-1608.7,90.7z"/>
	<path class="st6" d="M-1584.5,92.8c0,0,8,0.8,12-1.7s12.4-9.5,12.4-9.5s-0.2-2.5-7.6,0.4s-12.5,3.7-14.2,4.6
		S-1587.3,92.9-1584.5,92.8z"/>
</g>
<g>
	<path class="st6" d="M-1574.1-104.6c0,0-3.3-4.2-5.3-5.5c-1.3-0.1-9.9,6.7-12.4,9.3c-2.5,2.6-8.1,5.8-9.3,6.9
		c-1.2,1.1,2.9,5.6,2.9,5.6l21.2-10.4L-1574.1-104.6z"/>
	<path class="st6" d="M-1598.2-88.3c0,0,4,15.1,4.9,16.5c0.3,0.4,1.3,1.6,6.2,7.1c2.9,3.3,7.4,7.5,10.9,11.4
		c4.2,4.6,9.4,9,13.2,13.2c6.5,7.2,12.2,12.9,12.2,12.9l15.8-6.1l0.3-20.2c0,0-40.6-40-40.3-39.4
		C-1574.6-92.4-1598.2-88.3-1598.2-88.3z"/>
	<path class="st8" d="M-1583.1-84c0,0,3.1,2.7,7.3,7.3c4.4,4.9,8.3,8.7,10.5,11c2.2,2.3,6.8,8.2,10.9,12.7c2.5,2.8,6.7,6.7,9.7,10.3
		c2.1,2.4,9.9,9.4,9.9,9.4l18.5-22.5l-43.1-45.5c0,0-13.5-4.3-15.3-4.5c-1.8-0.2-11.3,7.9-13.3,9.6s-10.2,7.9-10.2,7.9
		S-1585.2-87.1-1583.1-84z"/>
	<path class="st7" d="M-1573.1-83c0,0,6-3.7,6.8-4.7c0.8-1,4.4-3.5,5-4c0.6-0.6,1.2-1.6,1.9-1.1s1.1,1.3,0.3,2.7
		c-0.8,1.4-1.2,3-1.6,4.1c-0.3,1.1,0.1,1.7,1.4,0.8c1.2-0.9,3-1.8,4.1-2.3c1.2-0.5,2.2,1.2,1.7,1.8c-0.6,0.6-1.6,2.2-2.8,3.9
		c-1.3,1.7-4.5,5.6-5.4,6.7c-0.9,1.1-2.1,2.6-2.8,2.1s-1.4-1.5-0.2-3.2c1.3-1.7,3.6-3.9,4.1-4.4c0.5-0.5,3.4-2.4,2.4-2.7
		c-0.5-0.2-2.7,0.8-4.4,1.4c-0.9,0.3-1.4-0.6-1.2-1.2c0.3-1.3,0.7-2.6,1.2-3.8c0.4-1.2-1.9,1.2-2.7,1.9s-2,2.1-3.1,2.6
		s-1.8,1-2.9,0.6C-1572.3-82.1-1573.2-82.7-1573.1-83z"/>
	<path class="st7" d="M-1553.5-78.9c-0.2,0.3-2.1,2.3-2.4,2.7c-0.3,0.3-2.7,2.8-3.2,3.5s-1.7,2.1-1.3,2.7c0.4,0.6,1,1.1,1.8-0.2
		c0.8-1.3,2.3-3.3,2.3-3.3c1.1-1.2,2.1-2.2,3.1-3.4c1-1.2,1.5-2.1,1.3-2.7C-1552.2-80.1-1553.5-78.9-1553.5-78.9z"/>
	<path class="st7" d="M-1550.6-82.8c-0.3,0.8-0.4,1.5,0.3,2.1c0.3,0.2,1.7-0.4,1.8-0.9c0.1-0.4-0.1-1-0.9-1.5
		C-1549.8-83.3-1550.6-82.8-1550.6-82.8z"/>
	<path class="st7" d="M-1546.7-79.2c-1,0-2.9,3.9-3.4,4.4c-0.5,0.5-3.5,4.3-4,5c-0.5,0.7-2.3,2.1-1.8,3.2c0.5,1.1,1.3,2.8,1.6,3.1
		c1.1,1,1.7,0.8,2.3,0.4c0.6-0.4-0.2-1-1.6-2.3c-0.7-0.7-0.1-2.1,0.6-3.1c0.7-1,3.1-2.9,3.4-3.7c0.3-0.7,3-4,3.9-4.9
		C-1544.8-77.9-1545.5-79.1-1546.7-79.2z"/>
	<path class="st7" d="M-1543-65.7c-0.7-0.9-2.1-1-3.5-0.5c-1.4,0.5-3.2,2.1-3.5,3.6c-0.3,1.5-0.5,3.4,0,4.2c0.5,0.8,2.9,2.6,3.8,2.7
		c0.9,0.1,2.5-0.6,2.4-1.4c0-0.7-0.3-0.8-1.1-0.9c-0.8-0.1-2.3,0.6-3-0.9c-0.5-1.1-0.7-3.5,0.2-4.4c0.9-0.9,1.4-1.6,2.3-1.6
		s1.9,0.5,2.3,1.6c0.4,1.1,0.9,2.6,1.4,2.7c0.4,0.1,1.4,0.1,1.4-0.9c0.1-0.9-0.8-2-1.4-2.8C-1542.1-65-1543-65.7-1543-65.7z"/>
	<path class="st7" d="M-1534-64.6c-0.5,0.7-2.9,3.5-3.8,4.4c-0.9,1-3.2,3.5-3.9,4.2s-1.7,1.6-2.1,2.6c-0.3,1,0,2.3,0.4,2.2
		s0,0,1.1-1.1c1.1-1.1,1.2-1.4,2-2.2c0.8-0.8,1.6-1.4,2.3-1.2c0.7,0.2,1.5,1,0.8,1.9c-0.6,1-1.5,2-2.3,2.8c-0.8,0.8-1.8,1.9-1.5,2.4
		c0.3,0.6,0.5,1.7,1,1.3c0.6-0.4,1.1-1.6,2.1-2.6s1.8-1.6,2.5-2.7c0.7-1.2,1.1-1.6,1.5-2.7c0.4-1.3,0.3-1.9-1.3-2.5
		s-1.9-0.3-2.3-0.2c-0.4,0.1,4.6-4.8,4.9-5.9C-1532.1-64.9-1533.1-65.9-1534-64.6z"/>
</g>
<g>
	<path class="st1" d="M-945.2,22.5c-13.6-4.4-15.2,0.5-17.9,4.9c-2.8,4.5-2.2,10.6,0.4,15.3c1.4,2.5,3.5,3.8,5.7,5.7
		c1.9,1.6,3.7,3.9,5.8,5.1c2.1,1.2,4.4,2.4,6.7,2c1.6-0.2,3.1-1.2,4.7-1.5c2.9-0.7,3.9,1.8,6.6,0.6c1.8-0.8,5.4-3.8,6.5-5.4
		c2.7-3.8,5.1-7.9,6-12.5s2.3-10.6-0.9-13.9c-3.1-3.3-4.5-4.6-9-5.1c-2.2-0.2-6.9-0.6-9.4,1.1C-941.9,20.1-943.1,21.6-945.2,22.5"/>
	<g>
		<path class="st2" d="M-944.4,23.8c-1.3-3.1-2.5-5.8-1.5-9.2c0.3-1-1.3-1.4-1.6-0.4c-1.2,3.8,0.2,7,1.7,10.5
			C-945.4,25.6-944,24.8-944.4,23.8L-944.4,23.8z"/>
	</g>
	<g>
		<path class="st3" d="M-947.5,25.1c1,0,1.8,0.3,2.8,0c0.8-0.2,1.5-0.7,2.1-1.3c0.2-0.2-0.1-0.6-0.3-0.3c-0.6,0.7-1.4,1.1-2.3,1.2
			c-0.8,0.1-1.5-0.1-2.3-0.1C-947.8,24.7-947.8,25.1-947.5,25.1L-947.5,25.1z"/>
	</g>
</g>
<g>
	<path class="st4" d="M-1052.2,171.2c0.6-1.1,1.3-2.1,2.1-2.9c1.2-1.3,2.1-2.7,3.9-3.6c3.1-1.7,7.4-1.4,10.8-2.1
		c3.2-0.7,6.1-2,9-3.5c6.1-3.2,8.8-5.7,13-11.1c1.4-1.7,3.3-3.6,5-6c1.8-2.5,3.4-5.6,5-7.1c1.9-1.8,6-1.4,8.3-2.5
		c0.9,2.5,1.8,6.3,1,8.8c-0.9,2.9-1.7,6.6-2.7,8.9c-3.1,6.7-7.1,9.8-14.2,15.5c-3.2,2.6-7.3,5-11.4,6.8c-2.5,1.1-10,2.3-12.9,2.9
		c-6.9,1.3-10.1,0.5-16.1-1.3C-1051.7,173.7-1052.6,171.2-1052.2,171.2"/>
	<g>
		<path class="st4" d="M-995.8,138.8c2.4-3.7,5.5-10.1,2.6-14.3c-1.2-1.8-4-0.7-3.5,1.5c1,4.5-1.1,8.8-3.9,12.2
			c-1.6,1.9,1.1,4.6,2.7,2.7c3.7-4.6,6.3-9.9,4.9-15.9c-1.2,0.5-2.3,1-3.5,1.5c1.9,2.8-1.1,8-2.6,10.4
			C-1000.4,138.9-997.1,140.8-995.8,138.8L-995.8,138.8z"/>
	</g>
	<g>
		<path class="st3" d="M-997.1,133.4c0.1,0.8,0.6,1.4,1.2,1.8c0.2,0.1,0.4-0.2,0.2-0.3c-0.6-0.4-0.9-0.9-1.1-1.6
			C-996.8,133.1-997.2,133.2-997.1,133.4L-997.1,133.4z"/>
	</g>
	<g>
		<path class="st3" d="M-1052.4,170.7c0,0.5,0,1.1,0.1,1.6c0.1,0.6,0.4,1.1,0.7,1.6c0.4,0.6,1.4,0.1,1-0.6c-0.2-0.4-0.5-0.8-0.6-1.3
			c-0.1-0.4-0.1-0.9-0.1-1.3C-1051.2,170-1052.4,170-1052.4,170.7L-1052.4,170.7z"/>
	</g>
</g>
<g>
	<path class="st7" d="M-1013.1-0.2c-3.9,0.6-4,1.1-7.8,1.9c-5.2,1.1-16.5,3-21.7,1.9c-0.6-0.1-1.2-0.3-1.7-0.7
		c-0.9-0.8-1.6-1.9-1.2-3.1l0,0c-0.3-0.8,0.7-2.6,1.5-2.9c1.8-0.8,10.4-0.7,14-0.7c4.2,0,8.1,0.5,9.9-0.1l13.9-2.3
		C-1001-1.9-1010.8-0.5-1013.1-0.2z"/>
	<path class="st1" d="M-961.7-0.5c-8-2.7-26.1-1.6-34.2-1.7c-2.6,0-10,0.5-18.4,2.5c-2.5,0.6-3.7,1.2-5.7,1.3c3.3-2.8,2.2-4.4-1-5.3
		c7.7-1.5,15.9-4.3,22.9-7.8c6.5-3.2,21.9-13,28.4-16.2c1.5,2,2.8,3,1.8,4.7c-2.7,1.3-27.8,14.5-30.3,16.2c2.9-1,18.7-8.2,21.7-8.8
		c3.4-0.6,15.4-4.7,18.8-4.8c1.4,1.3,1,2.7,0.6,5c-3.5,0.2-15.6,4.2-19,4.9c-3.9,0.8-7.8,2.4-11.7,3.7c8.1-0.6,21.2-0.1,29.1,2.2
		C-959.5-3.7-960.3-2-961.7-0.5z"/>
	<g>
		<path class="st3" d="M-1044.8,0.4c-0.8,0.1-1.5,0.2-2.2,0.5c-0.2,0.1-0.1,0.4,0.1,0.3c0.7-0.2,1.4-0.4,2.1-0.4
			C-1044.6,0.7-1044.6,0.4-1044.8,0.4L-1044.8,0.4z"/>
	</g>
	<g>
		<path class="st3" d="M-1045.4-0.6c-0.7-0.1-1.3-0.2-2-0.3c-0.2,0-0.3,0.3-0.1,0.3c0.7,0.1,1.3,0.2,2,0.3
			C-1045.3-0.3-1045.2-0.6-1045.4-0.6L-1045.4-0.6z"/>
	</g>
	<g>
		<path class="st3" d="M-1045.2-1.8c-0.5-0.4-1.1-0.7-1.6-1.1c-0.2-0.1-0.3,0.2-0.2,0.3c0.5,0.4,1.1,0.7,1.6,1.1
			C-1045.2-1.4-1045-1.7-1045.2-1.8L-1045.2-1.8z"/>
	</g>
	<g>
		<path class="st3" d="M-1044.6,1.8c-0.5,0.5-1,0.9-1.6,1.2c-0.2,0.1,0,0.4,0.2,0.3c0.6-0.3,1.2-0.7,1.7-1.2
			C-1044.2,1.9-1044.4,1.6-1044.6,1.8L-1044.6,1.8z"/>
	</g>
</g>
<g>
	<path class="st5" d="M-966.6,89.7c-6.3,1.6-9.9,4.5-10.9,10.1c-1.5,9.9,2.7,20.5,21.1,20.2c18.4-0.3,20.4-7.3,21.4-14.3
		c0.6-4.1-0.6-8.3-1.5-10.2c-3.1-6.4-11.7-7.5-18.7-6.2C-958.4,89.8-964.2,88.9-966.6,89.7"/>
	<path class="st1" d="M-948.1,89.9c-2.2-0.6-3.4-0.9-5.2-0.2c-0.4,0.1-1.8,0.5-2.3,0.7c-0.8,0.4-2.2,1-2.6,1c-0.8-0.1-0.6,0-1.4-0.3
		c-0.7-0.3-2.1-1.1-2.7-1.4c-1.4-0.7-3.5-0.2-5.1,0c-0.7,0.1-3.6,1-3.9,0.5c-0.4-0.7,2.2-3,3.2-3.1c2-0.3,3.6-0.6,5.6-0.3
		c0.8,0.1,1.4,0.4,2,0.9c0.2,0.2,0.7,0.9,0.9,1c-0.1-0.2,0.1-0.6-0.4-1.2c-0.4-0.5-0.9-1.1-2.1-1.9c-0.8-0.6-2.1-1.4-3.2-2.1
		l-0.6-0.9c0-0.4,2.8,0.2,3.3,0.3c2,0.5,2.3,0.7,3.4,1.6c0.6,0.5,0.9,1.1,1.3,1.7c0.4,0.6,0.6,1.4,1.2,1.8c0,0,0.1,0.1,0.1,0.1
		c1.2-0.4,3.1-1.1,4.4-1.2c1.6-0.2,3.7,0.2,5.2,0.6c0.9,0.3,2.8,0.6,2.5,1.3C-944.7,89.2-947.3,90.1-948.1,89.9z"/>
	<path class="st1" d="M-957.6,88.3c0,0,2-4.2,3-5.9c1.1-1.7,3.5-2.4,3.5-2.4s0.5,0.9,0.2,2c-0.3,1.1-1.7,2.6-2.2,3.4
		c-0.5,0.8-2.6,3.5-2.6,3.5L-957.6,88.3z"/>
</g>
<g>
	<g>
		<path class="st4" d="M-991.6,43.1c0-1.3,0.2-2.4,0.3-3.5c0-0.4-0.8,0.2-0.8-1.5c0-1.7,1.2-1.1,1.1-1.6c-0.2-1.1,0.2-1.8-0.5-1.8
			c-1.2-0.1-2.5-0.2-2.6-1.7c-0.1-1.6,0.8-2.4,2.2-2.4c1.3,0,0.9-1.4,0.6-3.2l-61.6,12.7c0.3,0.9,0.4,1.8,0.5,2.7
			c0.1,0.9,0.1,1.8,0.1,2.7c0.9,0.5,1.7,1.7,1.7,2.5c0,1.7-1,2.1-1.8,2.7c0,0.7,0,1.2,0.4,3.4c0.1,0.3,0.1,0.6,0.3,0.9
			c0.5,0.6,1.4,0.4,2.1,0.3c3.3-0.8,4.9-1.1,8.2-1c1.6,0,3.3,0.3,4.9,0.1c0.3,0-0.1-1.3,1-1.5c1.3-0.3,1,1.3,1.4,1.2
			c1.9-0.3,4.2-0.6,5.3-0.8c2.8-0.6,6.2-0.5,9,0c1,0.2,2.3,0.1,3.8,0c0.7-0.1,0.3-1.9,3-2.1c2.4-0.1,2.3,1.5,3,1.4
			c1.3-0.1,1.1-0.1,2.6-0.2c4.6-0.1,4.8-0.6,9.4-0.8c1.9-0.1,3.2-1.2,5.1-1.5c0.6-0.1,1.2-0.3,1.5-0.7c0.3-0.4,0.3-0.8,0.3-1.3
			C-990.9,46.5-991.6,44.5-991.6,43.1z M-1047.5,52.8c-0.7,0-1.9,0.4-2.5,0.2c-0.5-0.2-0.4-1.1-0.1-1.7c0.3-0.6,1.3-0.7,1.3-0.7
			s1.7,0.1,2,0.5C-1046.5,51.5-1046.8,52.8-1047.5,52.8z M-1036.8,45.2c-0.6,0-1.7,0.7-2.1,0.4c-0.4-0.3-2.4-1.1-2.2-2.1
			c0.2-1,3.2-2,3.2-2s1.5,0.1,1.7,0.8C-1035.9,43-1036.2,45.2-1036.8,45.2z M-1024,49c-1.3,0-2.2,1.1-3.2,0.8
			c-1-0.3-1.6-1.2-1.1-2.3s2.9-2.5,2.9-2.5s2.4-0.2,2.9,0.5C-1021.9,46.3-1022.7,49-1024,49z M-1011.3,40.3c-1.3,0-2.3,0.7-3.3,0.4
			c-1-0.3-0.9-3.3-0.4-4.2c0.5-1,2.5-1.2,2.5-1.2s3.2,0.1,3.7,0.8C-1008.3,36.8-1010,40.3-1011.3,40.3z M-996.6,47.2
			c-1.3,0-3.7,0.8-4.7,0.4c-1-0.3-0.8-2.1-0.2-3.2c0.5-1.1,2.5-1.3,2.5-1.3s3.3,0.1,3.8,0.9C-994.7,44.8-995.3,47.2-996.6,47.2z"/>
	</g>
	<path class="st5" d="M-1053,40c2.2-2,6.1-3.2,7.2-3.7c1.1-0.6,3.9-2.1,5.3-2.8c1.7-0.9,3.2-1.8,5.7-3.1c1.1-0.5,2.8-0.9,3.9-1.4
		c1.7-0.8,2.6-1.8,3.9-2.3c1.8-0.8,4.5-1.5,5.7-1.9c2.4-0.9,2.8-1.2,6-2.6c0.9-0.4,2.1-1.3,3-1.3c1-0.1,3.3,0.2,4.2,0.5
		c1.9,0.6,4.9,2,6.8,2.6c4,1.3,5.6,1.9,9.6,3.2c0.7,0.3,0.3,1.2-0.4,1.3c-1.7,0.3-3.2,0.1-4.6,0.4c-1.4,0.2-2.7,1-4,1.2
		c-1.5,0.3-2.3,0.4-4,0.8c-1.4,0.3-2.9,0.7-4.3,1c-1,0.2-2.8,0.3-3.8,0.5c-2.1,0.3-3.9,1.3-5.9,1.7c-1.5,0.3-3.2,0.4-6.1,1.1
		c-2,0.5-4.3,1.1-6,1.5c-1.1,0.3-4.6,0.4-5.3,0.5c-2.6,0.5-2.5,1-4.3,1.5c-1.7,0.5-3.4,0.3-5.2,0.8c-1.5,0.4-2.7,0.6-4.7,0.9
		C-1050.4,40.3-1052.7,40.5-1053,40z"/>
</g>
<g>
	<path class="st6" d="M-986-65c0,0-0.2-0.2,1.9,1.6c1.9,1.6,6,12.8,3.5,18.1c-1.4,2.9-4.2,8.9-7.7,11.1c-1.7,1.1-12.3,6-17.7,6.1
		c-3,0.1-7.8-0.8-11.5,0.1c-3.7,1-9.5,2.3-13.4,3.2c-4.5,1-11.9-0.8-13.4-2.6c-1.5-1.8-1.8-6.7-1.8-6.7s11.3-7.1,12.4-7.3
		s27.4-17.6,28.4-18.3C-1004.4-60.5-986-65-986-65z"/>
	<path class="st5" d="M-983.6-51.3c0.7-1.9,1.3-4.8,1.2-6.3c-0.6-4.3-2.6-8.2-6.1-10.2c-3.7-2.1-7.9-2.1-12.2-2.1
		c-4.5,0-9.5,0.9-13.5,2.8c-5.2,2.5-8.1,12.7-12.6,16.4c-4.5,3.7-12.4,5.6-14.8,7.5c-3.4,2.6-4.5,6.4-4.7,8.9
		c-0.1,1.1,2.2,2.3,4.3,3.5s4.6,1.3,7.1,1.3c10.7,0,14.5-4.7,25.2-3.6c6.5,0.7,13.5-3.1,17.6-5.8c4.1-2.7,4.2-4.2,8-11.4
		C-983.9-50.5-983.7-50.8-983.6-51.3z"/>
	<path class="st7" d="M-1018.3-47.1c0,0,4.5-2.6,6.7-4.4c2.2-1.7,4.6-2.8,4.1-3.9c-0.4-1.1-2.8-2.8-3.4-3.6
		c-0.6-0.8-0.7-2.3,1.1-1.2c1.8,1.1,2.8,2,4.2,3.3c1.6,1.4,2.7,2.3,4.5,3.1c1.9,0.7,3.9,1.4,4.7,1.6c0.8,0.2,0.9,1.7-0.2,1.5
		c-1.1-0.2-3-0.4-4.5-1c-1.5-0.5-2.2-1.7-3.8-1.3c-1.6,0.4-3.1,2.2-5.5,3.7c-2.4,1.4-4.1,2.4-6.3,3.4c-2.3,1-4.7,3.4-5.9,2.3
		C-1023.3-44.1-1021.9-45.2-1018.3-47.1z"/>
</g>
<g>
	<path class="st8" d="M-1071.4,109.3c9.5-1.4,25-7,29.7-9.2s9.5-3,14.1-3.2c5.3-0.1,11,1.2,12.8,4c2,3.1,2.4,11.3,3.3,13.8
		c0.9,2.5,2.7,4.1,3.4,2.1s2.7-10.2,4.3-12c1.6-1.7,6.7-2.1,8.9-3.3s4.1-3.2-1-4.2c-5.1-0.9-12.7-0.7-13.9-1.8
		c-1.2-1.1-6-13.4-22.6-15.9c-7.5-1.1-7.4-0.2-6.8-1.6c1.3-2.9,3-3.6,2-4.6s-16.1,0.9-17.1,1.7c-1,0.9-4,3.7-4,3.7
		s-10.2,1.3-15.8,5.4C-1079.5,88.4-1072.2,97.8-1071.4,109.3z"/>
	<path class="st6" d="M-1083.8,103.7c1.4-0.3,5.1-0.1,6.3-0.2c-2.1-1-3.9-1.5-6.5-1.3c-2.4,0.2-3.5,0.9-4.2,0
		c-0.5-0.6,0.4-5.1,1-6.6c2.2-5.6,7.1-9.2,13.2-11.2c4.6-1.5,12.1,23.5,2.6,24.9c-9.5,1.4-14.7-2-14.7-2c-0.8-0.4-2.5-2-1.5-2.5
		C-1086.6,104.5-1086.8,104.4-1083.8,103.7z"/>
	<path class="st1" d="M-1076.9,96c1.1,0.3,1.8-0.8,1.8-1.3c0-0.5-0.5-1.3-1.2-1.3s-1.3,0.3-1.4,0.8
		C-1078.2,95.3-1077.6,95.9-1076.9,96z"/>
	<path class="st6" d="M-1055.7,97.9c0,0,7,0.7,10.5-1.5c3.5-2.2,10.9-8.4,10.9-8.4s-0.2-2.2-6.7,0.3c-6.6,2.5-11,3.2-12.5,4
		S-1058.1,97.9-1055.7,97.9z"/>
</g>
<g>
	<path class="st6" d="M-1082.6,134.7c0,0-0.3,2.6-0.3,3.5c0,0.9-0.2,4-0.2,4s-8.1-4.7-8.8-5.1c-0.7-0.4,1.6-6.4,1.6-6.4l8,1.3
		L-1082.6,134.7z"/>
	<path class="st6" d="M-1083.1,142.2c0,0,16.8-2.2,17.6-2.4c0.9-0.1-2-7.6-2-7.6l-9.3-1.5l-6.4,1.1L-1083.1,142.2z"/>
	<path class="st5" d="M-1088.2,132.1c0,0,1,0.4,1.5,0.7c0.5,0.2,3.7,1.6,4,2c0.3,0.3,4.6-0.6,6.3-0.8c1.7-0.2,4.9-1.1,5.8-1.3
		s2.2-0.2,3-0.4c-1.4-0.9-4-1.8-5.3-2.6c-1.3-0.9-2.4-1.3-3.5-1.6c-0.4-0.1-3.3,0.5-6.5,1.2c-3.2,0.7-7.1,1.3-7.4,1.5
		C-1090.9,131-1088.2,132.1-1088.2,132.1z"/>
	<path class="st6" d="M-1070.1,141.9c0,0,1.3,2.9,1.3,3.7c0,0.9-1.3,4.5-1.3,4.5s-8.6-5.4-9.3-5.8c-0.7-0.4,1.6-6.4,1.6-6.4l8,1.3
		L-1070.1,141.9z"/>
	<path class="st6" d="M-1070.1,150.1c0,0,15.5-4.4,16.4-4.5c0.9-0.1-1.2-6.2-1.2-6.2l-9.3-1.5l-6.4,1.1L-1070.1,150.1z"/>
	<path class="st5" d="M-1075.7,139.3c0,0,1,0.4,1.5,0.7c0.5,0.2,3.7,1.6,4,2c0.3,0.3,4.6-0.6,6.3-0.8c1.7-0.2,4.9-1.1,5.8-1.3
		s2.2-0.2,3-0.4c-1.4-0.9-4-1.8-5.3-2.6c-1.3-0.9-2.4-1.3-3.5-1.6c-0.4-0.1-3.3,0.5-6.5,1.2c-3.2,0.7-7.1,1.3-7.4,1.5
		C-1078.4,138.2-1075.7,139.3-1075.7,139.3z"/>
	<path class="st6" d="M-1101.1,139.2c0,0-0.3,2.6-0.3,3.5c0,0.9-0.2,4-0.2,4s-8.1-4.7-8.8-5.1c-0.7-0.4,2.3-6.9,2.3-6.9l7.4,1.8
		L-1101.1,139.2z"/>
	<path class="st6" d="M-1101.6,146.7c0,0,16.8-2.2,17.6-2.4c0.9-0.1-2-7.6-2-7.6l-9.3-1.5l-6.4,1.1L-1101.6,146.7z"/>
	<path class="st5" d="M-1106,136c0,0,1,0.4,1.5,0.7c0.5,0.2,3.7,1.6,4,2c0.3,0.3,4.6-0.6,6.3-0.8s4.9-1.1,5.8-1.3s2.2-0.2,3-0.4
		c-1.4-0.9-4-1.8-5.3-2.6c-1.3-0.9-2.4-1.3-3.5-1.6c-0.4-0.1-3.3,0.5-6.5,1.2c-3.2,0.7-7.1,1.3-7.4,1.5
		C-1108.8,134.9-1106,136-1106,136z"/>
	<path class="st6" d="M-1088.6,146.5c0,0,1.3,2.9,1.3,3.7c0,0.9-1.3,4.5-1.3,4.5s-8.6-5.4-9.3-5.8c-0.7-0.4,1.6-6.4,1.6-6.4l8,1.3
		L-1088.6,146.5z"/>
	<path class="st6" d="M-1088.6,154.7c0,0,15.5-4.4,16.4-4.5c0.9-0.1-1.2-6.2-1.2-6.2l-9.3-1.5l-6.4,1.1L-1088.6,154.7z"/>
	<path class="st5" d="M-1094.2,143.9c0,0,1,0.4,1.5,0.7s3.7,1.6,4,2c0.3,0.3,4.6-0.6,6.3-0.8c1.7-0.2,4.9-1.1,5.8-1.3s2.2-0.2,3-0.4
		c-1.4-0.9-4-1.8-5.3-2.6c-1.3-0.9-2.4-1.3-3.5-1.6c-0.4-0.1-3.3,0.5-6.5,1.2c-3.2,0.7-7.1,1.3-7.4,1.5
		C-1096.9,142.8-1094.2,143.9-1094.2,143.9z"/>
	<path class="st6" d="M-1119.6,143.8c0,0-0.3,2.6-0.3,3.5c0,0.9-0.2,4-0.2,4s-7.8-1.2-8.5-1.7s1.9-10.4,1.9-10.4l7.4,1.8
		L-1119.6,143.8z"/>
	<path class="st6" d="M-1120.1,151.3c0,0,16.8-2.2,17.6-2.4s-2-7.6-2-7.6l-9.3-1.5l-6.4,1.1L-1120.1,151.3z"/>
	<path class="st5" d="M-1124.5,140.5c0,0,1,0.4,1.5,0.7c0.5,0.2,3.7,1.6,4,2c0.3,0.3,4.6-0.6,6.3-0.8c1.7-0.2,4.9-1.1,5.8-1.3
		s2.2-0.2,3-0.4c-1.4-0.9-4-1.8-5.3-2.6c-1.3-0.9-2.4-1.3-3.5-1.6c-0.4-0.1-3.3,0.5-6.5,1.2s-7.1,1.3-7.4,1.5
		C-1127.3,139.4-1124.5,140.5-1124.5,140.5z"/>
	<path class="st6" d="M-1107.1,151c0,0,1.3,2.9,1.3,3.7c0,0.9-1.3,4.5-1.3,4.5s-8.6-5.4-9.3-5.8c-0.7-0.4,1.6-6.4,1.6-6.4l8,1.3
		L-1107.1,151z"/>
	<path class="st6" d="M-1107.1,159.3c0,0,15.5-4.4,16.4-4.5c0.9-0.1-1.2-6.2-1.2-6.2l-9.3-1.5l-6.4,1.1L-1107.1,159.3z"/>
	<path class="st5" d="M-1112.6,148.4c0,0,1,0.4,1.5,0.7s3.7,1.6,4,2c0.3,0.3,4.6-0.6,6.3-0.8c1.7-0.2,5-0.7,5.9-0.9s2.2-0.6,2.9-0.8
		c-1.4-0.9-4-1.8-5.3-2.6c-1.3-0.9-2.4-1.3-3.5-1.6c-0.4-0.1-3.3,0.5-6.5,1.2c-3.2,0.7-7.1,1.3-7.4,1.5
		C-1115.4,147.3-1112.6,148.4-1112.6,148.4z"/>
	<path class="st6" d="M-1107,151.7l-0.3,10.1l53.6-13.2l0.1-3.5l-5.1-2.4c0,0-42.6,11.6-43,11.8
		C-1102.1,154.6-1107,151.7-1107,151.7z"/>
	<polygon class="st6" points="-1107.2,161.8 -1128.6,149.6 -1123.7,145.8 -1102.6,156.8 	"/>
</g>
<g>
	<path class="st1" d="M-1524.7,24.6c-15.4-5-17.3,0.6-20.4,5.5c-3.2,5.2-2.6,12,0.4,17.3c1.6,2.9,4,4.3,6.5,6.5
		c2.1,1.8,4.2,4.4,6.6,5.8c2.3,1.4,4.9,2.7,7.6,2.3c1.9-0.3,3.5-1.3,5.3-1.7c3.3-0.8,4.4,2,7.5,0.7c2.1-0.9,6.1-4.3,7.4-6.1
		c3-4.3,5.7-9,6.8-14.2c1-5.2,2.6-12-1-15.8c-3.5-3.7-5.1-5.2-10.2-5.8c-2.5-0.3-7.9-0.6-10.7,1.3
		C-1521,21.8-1522.4,23.5-1524.7,24.6"/>
	<g>
		<path class="st2" d="M-1523.8,26.1c-1.5-3.5-2.9-6.6-1.7-10.4c0.3-1.2-1.4-1.6-1.8-0.5c-1.3,4.3,0.2,7.9,1.9,11.9
			C-1525,28.1-1523.4,27.2-1523.8,26.1L-1523.8,26.1z"/>
	</g>
	<g>
		<path class="st3" d="M-1527.3,27.6c1.1,0,2.1,0.3,3.2,0c0.9-0.2,1.7-0.7,2.4-1.4c0.2-0.3-0.1-0.7-0.4-0.4
			c-0.7,0.7-1.5,1.2-2.6,1.4c-0.9,0.1-1.7-0.1-2.6-0.1C-1527.7,27-1527.7,27.6-1527.3,27.6L-1527.3,27.6z"/>
	</g>
</g>
<g>
	<path class="st6" d="M-1504,167.6c0,0-0.3,2.8-0.3,3.7c0,0.9-0.2,4.2-0.2,4.2s-8.5-4.9-9.2-5.3s1.7-6.7,1.7-6.7l8.4,1.3
		L-1504,167.6z"/>
	<path class="st6" d="M-1504.5,175.5c0,0,17.5-2.3,18.4-2.5c0.9-0.1-2.1-8-2.1-8l-9.7-1.6l-6.7,1.1L-1504.5,175.5z"/>
	<path class="st5" d="M-1509.8,164.9c0,0,1,0.5,1.6,0.7c0.6,0.2,3.9,1.7,4.2,2.1c0.3,0.3,4.8-0.6,6.6-0.8c1.8-0.2,5.2-1.2,6.1-1.4
		c0.9-0.2,2.4-0.2,3.1-0.4c-1.4-0.9-4.2-1.8-5.6-2.8c-1.3-0.9-2.6-1.4-3.7-1.7c-0.4-0.1-3.4,0.5-6.8,1.3c-3.4,0.7-7.4,1.4-7.8,1.6
		C-1512.7,163.7-1509.8,164.9-1509.8,164.9z"/>
	<path class="st6" d="M-1490.9,175.2c0,0,1.4,3,1.4,3.9s-1.4,4.7-1.4,4.7s-9-5.6-9.7-6.1s1.7-6.7,1.7-6.7l8.4,1.3L-1490.9,175.2z"/>
	<path class="st6" d="M-1490.9,183.8c0,0,16.2-4.6,17.1-4.7c0.9-0.1-1.3-6.5-1.3-6.5l-9.7-1.6l-6.7,1.1L-1490.9,183.8z"/>
	<path class="st5" d="M-1496.7,172.4c0,0,1,0.5,1.6,0.7c0.6,0.2,3.9,1.7,4.2,2.1c0.3,0.3,4.8-0.6,6.6-0.8s5.2-1.2,6.1-1.4
		c0.9-0.2,2.4-0.2,3.1-0.4c-1.4-0.9-4.2-1.8-5.6-2.8c-1.3-0.9-2.6-1.4-3.7-1.7c-0.4-0.1-3.4,0.5-6.8,1.3c-3.4,0.7-7.4,1.4-7.8,1.6
		C-1499.6,171.3-1496.7,172.4-1496.7,172.4z"/>
	<path class="st6" d="M-1523.3,172.4c0,0-0.3,2.8-0.3,3.7c0,0.9-0.2,4.2-0.2,4.2s-8.5-4.9-9.2-5.3s2.4-7.3,2.4-7.3l7.7,1.9
		L-1523.3,172.4z"/>
	<path class="st6" d="M-1523.9,180.2c0,0,17.5-2.3,18.4-2.5c0.9-0.1-2.1-8-2.1-8l-9.7-1.6l-6.7,1.1L-1523.9,180.2z"/>
	<path class="st5" d="M-1528.5,168.9c0,0,1,0.5,1.6,0.7c0.6,0.2,3.9,1.7,4.2,2.1c0.3,0.3,4.8-0.6,6.6-0.8c1.8-0.2,5.2-1.2,6.1-1.4
		s2.4-0.2,3.1-0.4c-1.4-0.9-4.2-1.8-5.6-2.8c-1.3-0.9-2.6-1.4-3.7-1.7c-0.4-0.1-3.4,0.5-6.8,1.3c-3.4,0.7-7.4,1.4-7.8,1.6
		C-1531.4,167.8-1528.5,168.9-1528.5,168.9z"/>
	<path class="st6" d="M-1510.3,180c0,0,1.4,3,1.4,3.9c0,0.9-1.4,4.7-1.4,4.7s-9-5.6-9.7-6.1s1.7-6.7,1.7-6.7l8.4,1.3L-1510.3,180z"
		/>
	<path class="st6" d="M-1510.3,188.6c0,0,16.2-4.6,17.1-4.7c0.9-0.1-1.3-6.5-1.3-6.5l-9.7-1.6l-6.7,1.1L-1510.3,188.6z"/>
	<path class="st5" d="M-1516.1,177.2c0,0,1,0.5,1.6,0.7c0.6,0.2,3.9,1.7,4.2,2.1c0.3,0.3,4.8-0.6,6.6-0.8c1.8-0.2,5.2-1.2,6.1-1.4
		c0.9-0.2,2.4-0.2,3.1-0.4c-1.4-0.9-4.2-1.8-5.6-2.8c-1.3-0.9-2.6-1.4-3.7-1.7c-0.4-0.1-3.4,0.5-6.8,1.3s-7.4,1.4-7.8,1.6
		C-1518.9,176-1516.1,177.2-1516.1,177.2z"/>
	<path class="st6" d="M-1542.7,177.1c0,0-0.3,2.8-0.3,3.7c0,0.9-0.2,4.2-0.2,4.2s-8.2-1.3-8.9-1.7s2-10.9,2-10.9l7.8,1.9
		L-1542.7,177.1z"/>
	<path class="st6" d="M-1543.2,185c0,0,17.5-2.3,18.4-2.5c0.9-0.1-2.1-8-2.1-8l-9.7-1.6l-6.7,1.1L-1543.2,185z"/>
	<path class="st5" d="M-1547.8,173.7c0,0,1,0.5,1.6,0.7c0.6,0.2,3.9,1.7,4.2,2.1c0.3,0.3,4.8-0.6,6.6-0.8c1.8-0.2,5.2-1.2,6.1-1.4
		c0.9-0.2,2.4-0.2,3.1-0.4c-1.4-0.9-4.2-1.8-5.6-2.8c-1.3-0.9-2.6-1.4-3.7-1.7c-0.4-0.1-3.4,0.5-6.8,1.3c-3.4,0.7-7.4,1.4-7.8,1.6
		C-1550.7,172.6-1547.8,173.7-1547.8,173.7z"/>
	<path class="st6" d="M-1529.6,184.7c0,0,1.4,3,1.4,3.9c0,0.9-1.4,4.7-1.4,4.7s-9-5.6-9.7-6.1c-0.7-0.5,1.7-6.7,1.7-6.7l8.4,1.3
		L-1529.6,184.7z"/>
	<path class="st6" d="M-1529.6,193.3c0,0,16.2-4.6,17.1-4.7c0.9-0.1-1.3-6.5-1.3-6.5l-9.7-1.6l-6.7,1.1L-1529.6,193.3z"/>
	<path class="st5" d="M-1535.4,182c0,0,1,0.5,1.6,0.7c0.6,0.2,3.9,1.7,4.2,2.1c0.3,0.3,4.8-0.6,6.6-0.8c1.8-0.2,5.2-0.8,6.1-1
		c0.9-0.2,2.3-0.6,3.1-0.8c-1.4-0.9-4.2-1.8-5.6-2.8c-1.3-0.9-2.6-1.4-3.7-1.7c-0.4-0.1-3.4,0.5-6.8,1.3c-3.4,0.7-7.4,1.4-7.8,1.6
		C-1538.3,180.8-1535.4,182-1535.4,182z"/>
	<path class="st6" d="M-1529.5,185.4l-0.3,10.6l56.1-13.8l0.1-3.7l-5.3-2.5c0,0-44.6,12.2-45,12.3
		C-1524.4,188.5-1529.5,185.4-1529.5,185.4z"/>
	<polygon class="st6" points="-1529.7,196 -1552.1,183.3 -1547,179.3 -1524.9,190.8 	"/>
</g>
<g>
	<path class="st1" d="M-1086.8,192.8c-13.6-4.4-15.2,0.5-17.9,4.9c-2.8,4.5-2.2,10.6,0.4,15.3c1.4,2.5,3.5,3.8,5.7,5.7
		c1.9,1.6,3.7,3.9,5.8,5.1c2.1,1.2,4.4,2.4,6.7,2c1.6-0.2,3.1-1.2,4.7-1.5c2.9-0.7,3.9,1.8,6.6,0.6c1.8-0.8,5.4-3.8,6.5-5.4
		c2.7-3.8,5.1-7.9,6-12.5s2.3-10.6-0.9-13.9c-3.1-3.3-4.5-4.6-9-5.1c-2.2-0.2-6.9-0.6-9.4,1.1
		C-1083.5,190.3-1084.7,191.8-1086.8,192.8"/>
	<g>
		<path class="st2" d="M-1086,194.1c-1.3-3.1-2.5-5.8-1.5-9.2c0.3-1-1.3-1.4-1.6-0.4c-1.2,3.8,0.2,7,1.7,10.5
			C-1087,195.9-1085.6,195-1086,194.1L-1086,194.1z"/>
	</g>
	<g>
		<path class="st3" d="M-1089.1,195.4c1,0,1.8,0.3,2.8,0c0.8-0.2,1.5-0.7,2.1-1.3c0.2-0.2-0.1-0.6-0.3-0.3c-0.6,0.7-1.4,1.1-2.3,1.2
			c-0.8,0.1-1.5-0.1-2.3-0.1C-1089.4,194.9-1089.4,195.4-1089.1,195.4L-1089.1,195.4z"/>
	</g>
</g>
<g>
	<path class="st4" d="M-1199.6,188.3c2.7-3.4,6.8-9.7,11.7-11.4s14.4-4.5,18.4-5.1c4-0.6,18.5-0.6,21.5-0.3c5.8,0.4,15,4.4,19.4,9.3
		c1.7,1.9,5.4,6.8,6.4,8.8c1.7,3.4,1.6,8.5-2.4,9.9c-1.1,0.4-6.1,2.3-11.5,3.2c-7,1.2-12.4,2.5-16.1,2.7c-3.5,0.1-14.7,0.8-22.8,1
		c-7.2,0.1-14.5,1.1-17.4,0.5c-6-1.3-8.3-2.3-9.7-5.8C-1203.3,197.7-1202.2,191.7-1199.6,188.3z"/>
	<path class="st5" d="M-1183.7,175.4c0,0,5.7,3.9,7.4,6c1.7,2.2,2.6,7.2,3.2,8s1-7-1-9.2s-6.3-5.7-6.3-5.7L-1183.7,175.4z"/>
	<path class="st5" d="M-1169,171.8c0,0,5.3,4.6,7.1,6.8c1.7,2.2,2.6,7.2,3.2,8s1-7-1-9.2s-5.8-6-5.8-6L-1169,171.8z"/>
	<path class="st5" d="M-1154.1,171.4c0,0,6.3,4.6,8,6.8c1.7,2.2,2.6,7.2,3.2,8s1-7-1-9.2s-6.8-5.7-6.8-5.7L-1154.1,171.4z"/>
</g>
<g>
	<path class="st6" d="M-962.8,190.7c0,0-0.2-0.2,1.9,1.6c1.9,1.6,6,12.8,3.5,18.1c-1.4,2.9-4.2,8.9-7.7,11.1
		c-1.7,1.1-12.3,6-17.7,6.1c-3,0.1-7.8-0.8-11.5,0.1c-3.7,1-9.5,2.3-13.4,3.2c-4.5,1-11.9-0.8-13.4-2.6c-1.5-1.8-1.8-6.7-1.8-6.7
		s11.3-7.1,12.4-7.3c1.1-0.2,27.4-17.6,28.4-18.3C-981.2,195.2-962.8,190.7-962.8,190.7z"/>
	<path class="st5" d="M-960.3,204.4c0.7-1.9,1.3-4.8,1.2-6.3c-0.6-4.3-2.6-8.2-6.1-10.2c-3.7-2.1-7.9-2.1-12.2-2.1
		c-4.5,0-9.5,0.9-13.5,2.8c-5.2,2.5-8.1,12.7-12.6,16.4c-4.5,3.7-12.4,5.6-14.8,7.5c-3.4,2.6-4.5,6.4-4.7,8.9
		c-0.1,1.1,2.2,2.3,4.3,3.5c2.1,1.2,4.6,1.3,7.1,1.3c10.7,0,14.5-4.7,25.2-3.6c6.5,0.7,13.5-3.1,17.6-5.8c4.1-2.7,4.2-4.2,8-11.4
		C-960.7,205.2-960.5,204.9-960.3,204.4z"/>
	<path class="st7" d="M-995.1,208.6c0,0,4.5-2.6,6.7-4.4c2.2-1.7,4.6-2.8,4.1-3.9c-0.4-1.1-2.8-2.8-3.4-3.6s-0.7-2.3,1.1-1.2
		c1.8,1.1,2.8,2,4.2,3.3c1.6,1.4,2.7,2.3,4.5,3.1c1.9,0.7,3.9,1.4,4.7,1.6c0.8,0.2,0.9,1.7-0.2,1.5c-1.1-0.2-3-0.4-4.5-1
		c-1.5-0.5-2.2-1.7-3.8-1.3c-1.6,0.4-3.1,2.2-5.5,3.7s-4.1,2.4-6.3,3.4c-2.3,1-4.7,3.4-5.9,2.3
		C-1000.1,211.6-998.7,210.5-995.1,208.6z"/>
</g>
<g>
	<path class="st7" d="M-944.4,157.1c-3.9,0.6-4,1.1-7.8,1.9c-5.2,1.1-16.5,3-21.7,1.9c-0.6-0.1-1.2-0.3-1.7-0.7
		c-0.9-0.8-1.6-1.9-1.2-3.1l0,0c-0.3-0.8,0.7-2.6,1.5-2.9c1.8-0.8,10.4-0.7,14-0.7c4.2,0,8.1,0.5,9.9-0.1l13.9-2.3
		C-932.3,155.4-942.2,156.8-944.4,157.1z"/>
	<path class="st1" d="M-893.1,156.8c-8-2.7-26.1-1.6-34.2-1.7c-2.6,0-10,0.5-18.4,2.5c-2.5,0.6-3.7,1.2-5.7,1.3
		c3.3-2.8,2.2-4.4-1-5.3c7.7-1.5,15.9-4.3,22.9-7.8c6.5-3.2,21.9-13,28.4-16.2c1.5,2,2.8,3,1.8,4.7c-2.7,1.3-27.8,14.5-30.3,16.2
		c2.9-1,18.7-8.2,21.7-8.8c3.4-0.6,15.4-4.7,18.8-4.8c1.4,1.3,1,2.7,0.6,5c-3.5,0.2-15.6,4.2-19,4.9c-3.9,0.8-7.8,2.4-11.7,3.7
		c8.1-0.6,21.2-0.1,29.1,2.2C-890.8,153.6-891.7,155.3-893.1,156.8z"/>
	<g>
		<path class="st3" d="M-976.1,157.7c-0.8,0.1-1.5,0.2-2.2,0.5c-0.2,0.1-0.1,0.4,0.1,0.3c0.7-0.2,1.4-0.4,2.1-0.4
			C-975.9,158-975.9,157.7-976.1,157.7L-976.1,157.7z"/>
	</g>
	<g>
		<path class="st3" d="M-976.8,156.7c-0.7-0.1-1.3-0.2-2-0.3c-0.2,0-0.3,0.3-0.1,0.3c0.7,0.1,1.3,0.2,2,0.3
			C-976.6,157.1-976.5,156.7-976.8,156.7L-976.8,156.7z"/>
	</g>
	<g>
		<path class="st3" d="M-976.5,155.5c-0.5-0.4-1.1-0.7-1.6-1.1c-0.2-0.1-0.3,0.2-0.2,0.3c0.5,0.4,1.1,0.7,1.6,1.1
			C-976.5,155.9-976.3,155.6-976.5,155.5L-976.5,155.5z"/>
	</g>
	<g>
		<path class="st3" d="M-975.9,159.1c-0.5,0.5-1,0.9-1.6,1.2c-0.2,0.1,0,0.4,0.2,0.3c0.6-0.3,1.2-0.7,1.7-1.2
			C-975.5,159.2-975.8,159-975.9,159.1L-975.9,159.1z"/>
	</g>
</g>
<g>
	<g>
		<path class="st4" d="M-345.1,124.1c0-1,0.2-2,0.2-2.9c0-0.3-0.6,0.2-0.6-1.3c0-1.4,1-0.9,0.9-1.3c-0.1-0.9,0.2-1.5-0.4-1.5
			c-1-0.1-2.1-0.2-2.2-1.4c-0.1-1.4,0.6-2,1.8-2c1.1,0,0.7-1.2,0.5-2.6l-50.9,10.5c0.2,0.7,0.4,1.5,0.4,2.2c0.1,0.7,0.1,1.5,0.1,2.2
			c0.8,0.4,1.4,1.4,1.4,2.1c0,1.4-0.8,1.7-1.5,2.3c0,0.6,0,1,0.4,2.8c0.1,0.3,0.1,0.5,0.3,0.7c0.4,0.5,1.1,0.4,1.7,0.2
			c2.7-0.7,4-0.9,6.8-0.8c1.3,0,2.7,0.3,4,0.1c0.3,0-0.1-1.1,0.8-1.3c1.1-0.2,0.8,1,1.2,1c1.6-0.2,3.5-0.5,4.4-0.7
			c2.3-0.5,5.1-0.4,7.5,0c0.9,0.1,1.9,0.1,3.2,0c0.6-0.1,0.3-1.6,2.5-1.7c2-0.1,1.9,1.2,2.5,1.2c1.1-0.1,0.9-0.1,2.1-0.1
			c3.8-0.1,3.9-0.5,7.7-0.6c1.6,0,2.7-1,4.2-1.3c0.5-0.1,1-0.2,1.3-0.6c0.2-0.3,0.3-0.7,0.3-1.1C-344.5,127-345,125.3-345.1,124.1z
			 M-391.3,132.1c-0.6,0-1.6,0.3-2,0.2c-0.4-0.1-0.3-0.9-0.1-1.4c0.2-0.5,1.1-0.6,1.1-0.6s1.4,0,1.7,0.4
			C-390.4,131.1-390.7,132.1-391.3,132.1z M-382.5,125.9c-0.5,0-1.4,0.6-1.7,0.3c-0.4-0.2-2-0.9-1.8-1.7c0.2-0.8,2.6-1.6,2.6-1.6
			s1.2,0.1,1.4,0.7C-381.7,124.1-382,125.9-382.5,125.9z M-371.9,129c-1.1,0-1.8,0.9-2.6,0.6c-0.8-0.3-1.3-1-0.9-1.9
			c0.4-0.9,2.4-2.1,2.4-2.1s2-0.2,2.4,0.4C-370.1,126.8-370.8,129-371.9,129z M-361.4,121.8c-1.1,0-1.9,0.6-2.7,0.4
			c-0.8-0.2-0.8-2.7-0.3-3.5c0.4-0.8,2-1,2-1s2.7,0.1,3.1,0.7C-358.8,118.9-360.3,121.8-361.4,121.8z M-349.2,127.5
			c-1.1,0-3.1,0.6-3.9,0.4c-0.8-0.3-0.6-1.7-0.2-2.6s2.1-1.1,2.1-1.1s2.7,0.1,3.1,0.7C-347.6,125.5-348.2,127.5-349.2,127.5z"/>
	</g>
	<path class="st5" d="M-395.8,121.6c1.8-1.7,5-2.6,6-3.1c0.9-0.5,3.2-1.7,4.4-2.3c1.4-0.7,2.6-1.5,4.7-2.5c0.9-0.5,2.3-0.7,3.2-1.1
		c1.4-0.7,2.2-1.5,3.2-1.9c1.5-0.6,3.7-1.2,4.7-1.6c1.9-0.7,2.3-1,5-2.1c0.7-0.3,1.7-1,2.5-1.1c0.8,0,2.7,0.1,3.5,0.4
		c1.6,0.5,4,1.6,5.6,2.1c3.3,1.1,4.6,1.6,7.9,2.7c0.6,0.3,0.2,1-0.4,1.1c-1.4,0.3-2.6,0.1-3.8,0.3c-1.1,0.2-2.2,0.8-3.3,1
		c-1.2,0.2-1.9,0.3-3.3,0.6c-1.2,0.2-2.4,0.6-3.6,0.8c-0.8,0.1-2.3,0.2-3.1,0.4c-1.7,0.3-3.2,1.1-4.9,1.4c-1.3,0.2-2.7,0.3-5,0.9
		c-1.7,0.4-3.5,0.9-4.9,1.3c-0.9,0.2-3.8,0.3-4.4,0.4c-2.1,0.4-2.1,0.9-3.6,1.3c-1.4,0.4-2.8,0.3-4.3,0.6c-1.2,0.3-2.2,0.5-3.9,0.8
		C-393.7,121.8-395.6,121.9-395.8,121.6z"/>
</g>
<g>
	<path class="st6" d="M-364.3,0.4c0,0-0.1-0.1,1.1,1.3c1.1,1.3,2.4,9.4-0.1,12.7c-1.3,1.8-4,5.4-6.7,6.5c-1.3,0.5-9.1,2.4-12.8,1.8
		c-2.1-0.3-5.2-1.6-7.8-1.4s-6.7,0.3-9.5,0.4c-3.2,0.1-7.9-2.1-8.7-3.5c-0.8-1.4-0.3-4.8-0.3-4.8s8.6-3.3,9.3-3.3s20.9-8.2,21.6-8.6
		C-377.4,1-364.3,0.4-364.3,0.4z"/>
	<path class="st5" d="M-364.5,10c0.7-1.2,1.5-3.1,1.6-4.1c0.2-3-0.7-5.9-2.7-7.7c-2.2-1.9-5.1-2.5-8-3c-3-0.6-6.5-0.7-9.5,0.1
		c-3.9,1-7.1,7.5-10.7,9.4s-9.1,2.1-11,3.1c-2.7,1.3-3.9,3.7-4.3,5.4c-0.2,0.8,1.2,1.9,2.4,3s3,1.5,4.6,1.8
		c7.2,1.4,10.5-1.3,17.5,0.9c4.3,1.3,9.5-0.3,12.7-1.6s3.4-2.3,6.9-6.7C-364.8,10.5-364.7,10.3-364.5,10z"/>
	<path class="st7" d="M-388.6,8.2c0,0,3.4-1.2,5.1-2.1c1.7-0.9,3.5-1.3,3.3-2.1c-0.2-0.8-1.5-2.3-1.8-2.9c-0.3-0.6-0.2-1.7,0.9-0.7
		c1.1,1,1.6,1.7,2.4,2.8c0.9,1.2,1.5,1.9,2.7,2.7c1.2,0.7,2.4,1.5,2.9,1.7c0.5,0.2,0.4,1.3-0.4,1c-0.7-0.3-2-0.7-2.9-1.3
		s-1.3-1.4-2.4-1.4s-2.4,1.1-4.2,1.7c-1.8,0.7-3.1,1.1-4.7,1.4c-1.7,0.4-3.6,1.7-4.3,0.8C-392.3,9.6-391.3,9-388.6,8.2z"/>
</g>
<g>
	<path class="st8" d="M-389.6,99.6c8.1-1.3,21.4-6.1,25.4-7.9c4-1.8,8.2-2.6,12.1-2.7c4.6-0.1,9.4,1,11,3.4c1.7,2.6,2,9.7,2.8,11.9
		c0.8,2.1,2.3,3.5,3,1.8s2.3-8.8,3.7-10.3s5.7-1.8,7.6-2.9c1.9-1,3.5-2.8-0.9-3.6c-4.4-0.8-10.9-0.6-11.9-1.5
		c-1-0.9-5.2-11.5-19.4-13.6c-6.5-0.9-6.4-0.2-5.9-1.3c1.1-2.5,2.5-3.1,1.7-4c-0.8-0.9-13.8,0.8-14.7,1.5c-0.8,0.7-3.4,3.2-3.4,3.2
		s-8.7,1.1-13.6,4.6C-396.6,81.7-390.4,89.8-389.6,99.6z"/>
	<path class="st6" d="M-400.3,94.9c1.2-0.3,4.4-0.1,5.4-0.2c-1.8-0.9-3.4-1.2-5.5-1.1c-2,0.1-3,0.8-3.6,0c-0.4-0.5,0.3-4.4,0.8-5.7
		c1.9-4.8,6.1-7.9,11.3-9.6c3.9-1.3,10.4,20.1,2.3,21.4s-12.6-1.7-12.6-1.7c-0.7-0.3-2.1-1.7-1.3-2.1
		C-402.7,95.5-402.8,95.4-400.3,94.9z"/>
	<path class="st1" d="M-394.4,88.3c1,0.3,1.5-0.7,1.5-1.1c0-0.4-0.4-1.1-1-1.1c-0.6,0-1.1,0.3-1.2,0.7
		C-395.5,87.6-395,88.1-394.4,88.3z"/>
	<path class="st6" d="M-376.2,89.8c0,0,6,0.6,9-1.3c3-1.9,9.3-7.2,9.3-7.2s-0.1-1.9-5.8,0.3c-5.6,2.2-9.4,2.8-10.7,3.5
		S-378.3,89.8-376.2,89.8z"/>
</g>
<g>
	<path class="st1" d="M-379.8,184.3c-11.8-2.1-12.7,2.2-14.4,6.1c-1.8,4.1-0.7,9.1,2.1,12.7c1.5,1.9,3.4,2.8,5.4,4.1
		c1.7,1.1,3.6,2.8,5.5,3.6c1.9,0.8,3.9,1.5,5.8,0.9c1.3-0.4,2.5-1.3,3.8-1.8c2.4-0.9,3.4,1,5.6-0.3c1.5-0.9,4.1-3.8,4.8-5.3
		c1.8-3.5,3.3-7.2,3.5-11.1c0.2-3.9,0.7-9.1-2.3-11.5c-3-2.4-4.3-3.3-8.1-3.2c-1.9,0.1-5.8,0.3-7.7,2
		C-377.3,181.9-378.2,183.3-379.8,184.3"/>
	<g>
		<path class="st2" d="M-379,185.3c-1.5-2.4-2.8-4.6-2.3-7.5c0.1-0.9-1.2-1.1-1.4-0.2c-0.5,3.3,1,5.8,2.6,8.5
			C-379.7,187-378.6,186.1-379,185.3L-379,185.3z"/>
	</g>
	<g>
		<path class="st3" d="M-381.5,186.8c0.8-0.1,1.6,0,2.3-0.3c0.7-0.3,1.2-0.7,1.6-1.3c0.2-0.2-0.2-0.5-0.3-0.3
			c-0.4,0.6-1,1.1-1.7,1.3c-0.6,0.2-1.3,0.1-1.9,0.2C-381.8,186.4-381.7,186.8-381.5,186.8L-381.5,186.8z"/>
	</g>
</g>
<g>
	<path class="st6" d="M-568.5,107.4c0,0-0.2,2-0.2,2.7c0,0.7-0.1,3.1-0.1,3.1s-6.2-3.6-6.8-3.9s1.3-5,1.3-5l6.2,1L-568.5,107.4z"/>
	<path class="st6" d="M-568.9,113.1c0,0,12.9-1.7,13.6-1.8c0.7-0.1-1.6-5.9-1.6-5.9l-7.2-1.2l-5,0.8L-568.9,113.1z"/>
	<path class="st5" d="M-572.8,105.3c0,0,0.7,0.3,1.1,0.5s2.9,1.3,3.1,1.5c0.2,0.3,3.6-0.5,4.9-0.6c1.3-0.1,3.8-0.9,4.5-1
		s1.7-0.1,2.3-0.3c-1.1-0.7-3.1-1.4-4.1-2c-1-0.7-1.9-1-2.7-1.3c-0.3-0.1-2.5,0.4-5,0.9c-2.5,0.5-5.5,1-5.7,1.2
		C-574.9,104.5-572.8,105.3-572.8,105.3z"/>
	<path class="st6" d="M-558.9,112.9c0,0,1,2.2,1,2.9c0,0.7-1,3.5-1,3.5s-6.6-4.2-7.2-4.5s1.3-5,1.3-5l6.2,1L-558.9,112.9z"/>
	<path class="st6" d="M-558.9,119.3c0,0,11.9-3.4,12.6-3.5c0.7-0.1-1-4.8-1-4.8l-7.2-1.2l-5,0.8L-558.9,119.3z"/>
	<path class="st5" d="M-563.2,110.9c0,0,0.7,0.3,1.1,0.5s2.9,1.3,3.1,1.5s3.6-0.5,4.9-0.6c1.3-0.1,3.8-0.9,4.5-1s1.7-0.1,2.3-0.3
		c-1.1-0.7-3.1-1.4-4.1-2c-1-0.7-1.9-1-2.7-1.3c-0.3-0.1-2.5,0.4-5,0.9c-2.5,0.5-5.5,1-5.7,1.2
		C-565.3,110.1-563.2,110.9-563.2,110.9z"/>
	<path class="st6" d="M-582.8,110.9c0,0-0.2,2-0.2,2.7s-0.1,3.1-0.1,3.1s-6.2-3.6-6.8-3.9s1.8-5.4,1.8-5.4l5.7,1.4L-582.8,110.9z"/>
	<path class="st6" d="M-583.2,116.6c0,0,12.9-1.7,13.6-1.8c0.7-0.1-1.6-5.9-1.6-5.9l-7.2-1.2l-5,0.8L-583.2,116.6z"/>
	<path class="st5" d="M-586.6,108.3c0,0,0.7,0.3,1.1,0.5c0.4,0.2,2.9,1.3,3.1,1.5s3.6-0.5,4.9-0.6c1.3-0.1,3.8-0.9,4.5-1
		c0.7-0.2,1.7-0.1,2.3-0.3c-1.1-0.7-3.1-1.4-4.1-2c-1-0.7-1.9-1-2.7-1.3c-0.3-0.1-2.5,0.4-5,0.9c-2.5,0.5-5.5,1-5.7,1.2
		C-588.7,107.5-586.6,108.3-586.6,108.3z"/>
	<path class="st6" d="M-573.2,116.5c0,0,1,2.2,1,2.9s-1,3.5-1,3.5s-6.6-4.2-7.2-4.5s1.3-5,1.3-5l6.2,1L-573.2,116.5z"/>
	<path class="st6" d="M-573.2,122.8c0,0,11.9-3.4,12.6-3.5c0.7-0.1-1-4.8-1-4.8l-7.2-1.2l-5,0.8L-573.2,122.8z"/>
	<path class="st5" d="M-577.4,114.4c0,0,0.7,0.3,1.1,0.5s2.9,1.3,3.1,1.5s3.6-0.5,4.9-0.6c1.3-0.1,3.8-0.9,4.5-1s1.7-0.1,2.3-0.3
		c-1.1-0.7-3.1-1.4-4.1-2c-1-0.7-1.9-1-2.7-1.3c-0.3-0.1-2.5,0.4-5,0.9c-2.5,0.5-5.5,1-5.7,1.2
		C-579.6,113.6-577.4,114.4-577.4,114.4z"/>
	<path class="st6" d="M-597.1,114.4c0,0-0.2,2-0.2,2.7s-0.1,3.1-0.1,3.1s-6-0.9-6.6-1.3s1.5-8,1.5-8l5.7,1.4L-597.1,114.4z"/>
	<path class="st6" d="M-597.4,120.2c0,0,12.9-1.7,13.6-1.8c0.7-0.1-1.6-5.9-1.6-5.9l-7.2-1.2l-5,0.8L-597.4,120.2z"/>
	<path class="st5" d="M-600.8,111.9c0,0,0.7,0.3,1.1,0.5c0.4,0.2,2.9,1.3,3.1,1.5s3.6-0.5,4.9-0.6c1.3-0.1,3.8-0.9,4.5-1
		c0.7-0.2,1.7-0.1,2.3-0.3c-1.1-0.7-3.1-1.4-4.1-2c-1-0.7-1.9-1-2.7-1.3c-0.3-0.1-2.5,0.4-5,0.9c-2.5,0.5-5.5,1-5.7,1.2
		C-603,111-600.8,111.9-600.8,111.9z"/>
	<path class="st6" d="M-587.4,120c0,0,1,2.2,1,2.9s-1,3.5-1,3.5s-6.6-4.2-7.2-4.5c-0.5-0.3,1.3-5,1.3-5l6.2,1L-587.4,120z"/>
	<path class="st6" d="M-587.4,126.3c0,0,11.9-3.4,12.6-3.5c0.7-0.1-1-4.8-1-4.8l-7.2-1.2l-5,0.8L-587.4,126.3z"/>
	<path class="st5" d="M-591.7,117.9c0,0,0.7,0.3,1.1,0.5s2.9,1.3,3.1,1.5s3.6-0.5,4.9-0.6c1.3-0.1,3.9-0.6,4.5-0.7s1.7-0.4,2.3-0.6
		c-1.1-0.7-3.1-1.4-4.1-2c-1-0.7-1.9-1-2.7-1.3c-0.3-0.1-2.5,0.4-5,0.9c-2.5,0.5-5.5,1-5.7,1.2
		C-593.8,117.1-591.7,117.9-591.7,117.9z"/>
	<path class="st6" d="M-587.3,120.5l-0.2,7.8l41.3-10.2l0-2.7l-3.9-1.9c0,0-32.8,9-33.2,9.1S-587.3,120.5-587.3,120.5z"/>
	<polygon class="st6" points="-587.5,128.3 -604,118.9 -600.2,116 -583.9,124.4 	"/>
</g>
<g>
	<path class="st7" d="M-598,91.9c-3.8,1.3-3.7,1.7-7.4,3.1c-5,1.9-15.8,5.6-21.1,5.3c-0.6,0-1.3-0.1-1.8-0.4c-1-0.7-1.8-1.6-1.7-2.9
		l0,0c-0.4-0.8,0.3-2.7,1-3.2c1.7-1.1,10.2-2.4,13.7-2.9c4.1-0.7,8.1-0.8,9.8-1.7l13.4-4.5C-586.3,88.2-595.8,91.1-598,91.9z"/>
	<path class="st1" d="M-547.4,83.4c-8.3-1.4-26,2.6-34.1,3.8c-2.6,0.4-9.8,2.1-17.8,5.4c-2.4,1-3.5,1.8-5.4,2.2
		c2.8-3.3,1.5-4.7-1.9-5.1c7.3-2.7,15-6.8,21.3-11.3c5.9-4.2,19.5-16.3,25.4-20.5c1.8,1.7,3.3,2.6,2.5,4.3
		c-2.5,1.7-25.1,18.8-27.3,20.8c2.7-1.5,17.1-11.1,20-12.1c3.2-1.1,14.4-7.1,17.8-7.8c1.6,1.1,1.4,2.5,1.3,4.8
		c-3.4,0.7-14.7,6.6-18,7.9c-3.7,1.5-7.3,3.6-10.9,5.5c7.9-1.9,20.9-3.5,29.1-2.5C-545.7,79.8-546.2,81.6-547.4,83.4z"/>
	<g>
		<path class="st3" d="M-629.2,97.5c-0.7,0.2-1.4,0.5-2.1,0.8c-0.2,0.1-0.1,0.4,0.1,0.3c0.7-0.3,1.3-0.6,2-0.8
			C-629,97.8-629,97.4-629.2,97.5L-629.2,97.5z"/>
	</g>
	<g>
		<path class="st3" d="M-630,96.6c-0.7,0-1.3,0-2,0c-0.2,0-0.2,0.3,0,0.3c0.7,0,1.3,0,2,0C-629.8,96.9-629.8,96.6-630,96.6
			L-630,96.6z"/>
	</g>
	<g>
		<path class="st3" d="M-630,95.4c-0.6-0.3-1.2-0.5-1.8-0.8c-0.2-0.1-0.3,0.2-0.1,0.3c0.6,0.3,1.2,0.5,1.8,0.8
			C-629.9,95.8-629.8,95.5-630,95.4L-630,95.4z"/>
	</g>
	<g>
		<path class="st3" d="M-628.8,98.8c-0.4,0.5-0.9,1-1.4,1.4c-0.2,0.1,0,0.4,0.2,0.3c0.6-0.4,1.1-0.9,1.5-1.5
			C-628.4,98.9-628.7,98.7-628.8,98.8L-628.8,98.8z"/>
	</g>
</g>
<g>
	<path class="st5" d="M-582,177.6c-5.6,1.2-8.8,3.6-10,8.5c-1.6,8.6,1.6,18,17.7,18.5c16.1,0.4,18.1-5.6,19.3-11.8
		c0.7-3.5-0.2-7.3-0.9-9c-2.5-5.7-9.9-7-16.1-6.1C-574.8,178-579.8,177-582,177.6"/>
	<path class="st1" d="M-565.7,178.4c-1.9-0.6-2.9-0.9-4.5-0.4c-0.4,0.1-1.6,0.4-2,0.6c-0.7,0.3-1.9,0.8-2.3,0.7
		c-0.7-0.1-0.5,0-1.2-0.3c-0.6-0.3-1.8-1-2.3-1.3c-1.2-0.7-3.1-0.3-4.4-0.2c-0.6,0.1-3.2,0.8-3.4,0.3c-0.3-0.6,2-2.5,2.9-2.6
		c1.8-0.2,3.1-0.4,4.9-0.1c0.7,0.1,1.2,0.4,1.7,0.8c0.2,0.1,0.6,0.8,0.8,0.9c-0.1-0.1,0.1-0.5-0.3-1c-0.3-0.4-0.8-1-1.8-1.7
		c-0.7-0.5-1.8-1.3-2.7-1.9l-0.5-0.9c0-0.4,2.5,0.2,2.9,0.4c1.7,0.5,2,0.7,2.9,1.5c0.5,0.4,0.7,1,1.1,1.5c0.3,0.5,0.5,1.2,1,1.6
		c0,0,0.1,0.1,0.1,0.1c1.1-0.3,2.7-0.8,3.9-0.9c1.4-0.1,3.2,0.3,4.5,0.7c0.8,0.3,2.4,0.7,2.1,1.2
		C-562.8,178-565.1,178.6-565.7,178.4z"/>
	<path class="st1" d="M-574,176.7c0,0,1.9-3.6,2.9-5.1c1-1.4,3.1-2,3.1-2s0.4,0.8,0.1,1.8c-0.3,1-1.6,2.2-2,2.9
		c-0.5,0.7-2.5,2.9-2.5,2.9L-574,176.7z"/>
</g>
<g>
	<path class="st4" d="M-603.1,7.9c1.8-2.3,4.7-6.6,8-7.7s9.8-3,12.6-3.4s12.6-0.3,14.7-0.2c4,0.3,10.2,3.1,13.2,6.4
		c1.1,1.3,3.7,4.7,4.4,6c1.1,2.3,1.1,5.8-1.6,6.7c-0.8,0.3-4.2,1.6-7.8,2.1c-4.8,0.8-8.4,1.7-10.9,1.8c-2.4,0.1-10,0.5-15.5,0.6
		c-4.9,0.1-9.9,0.7-11.8,0.3c-4.1-0.9-5.7-1.6-6.6-4S-604.9,10.2-603.1,7.9z"/>
	<path class="st5" d="M-592.2-0.8c0,0,3.9,2.7,5,4.1c1.2,1.5,1.8,4.9,2.2,5.4c0.4,0.5,0.7-4.8-0.7-6.2s-4.3-3.9-4.3-3.9L-592.2-0.8z
		"/>
	<path class="st5" d="M-582.2-3.2c0,0,3.6,3.2,4.8,4.6c1.2,1.5,1.8,4.9,2.2,5.4c0.4,0.5,0.7-4.8-0.7-6.2s-3.9-4.1-3.9-4.1
		L-582.2-3.2z"/>
	<path class="st5" d="M-572.1-3.4c0,0,4.3,3.2,5.4,4.7c1.2,1.5,1.8,4.9,2.2,5.4s0.7-4.8-0.7-6.2s-4.6-3.9-4.6-3.9L-572.1-3.4z"/>
</g>
<path class="st9" d="M-664.1,706.7c0,0-3.2-33.7,2.3-46.6c5.4-13,33.3-22.1,51.1-16.3c16.9,5.5,26.4,9.9,30.2,56.7
	c1.1,13.6,0,22.6,0,22.6h-21.7c0,0,8.4-46.6-6.4-59.4c-9-7.8-31.5-7.6-36.1,4c-4.6,11.6-3.4,42.4-1.1,56.8
	c-5.7,5.7-16.7,5.4-16.7,5.4L-664.1,706.7z"/>
<polygon class="st9" points="-714.8,711.3 -554.2,695.2 -475.9,723.5 -504.3,783.5 -666,787.4 "/>
<path class="st10" d="M-714.8,711.3c-0.2,1.3-1.1,23.5-1.5,43.3c-0.3,11.8,0.5,28.3,0.2,42.4c-0.3,16.7,1.3,35,1,50.1
	c-0.5,25.9,0,47.7,0,47.7L-661,930l29.8-39.9c0,0-4.1-153.1-4.5-151.3c-0.2,0.9-14.7,11.8-25.5,3.2
	C-674.6,735.3-699.6,714.1-714.8,711.3z"/>
<g>
	<path class="st5" d="M-645.2,685.8c-10.9,2.8-17.1,7.8-18.9,17.5c-2.5,17.2,4.6,35.4,36.5,34.9s35.3-12.7,37-24.8
		c1-7-1-14.3-2.6-17.7c-5.3-11.1-20.2-13-32.3-10.7C-630.9,686-641,684.4-645.2,685.8"/>
	<path class="st1" d="M-613,686.1c-3.8-1-5.8-1.5-8.9-0.4c-0.7,0.3-3.2,0.8-4,1.3c-1.3,0.7-3.7,1.8-4.5,1.7
		c-1.4-0.2-1.1,0.1-2.4-0.5c-1.1-0.5-3.7-1.9-4.7-2.4c-2.5-1.3-6.1-0.3-8.8,0.1c-1.2,0.2-6.2,1.8-6.7,0.9c-0.6-1.2,3.8-5.2,5.5-5.4
		c3.5-0.5,6.2-1,9.7-0.6c1.4,0.2,2.3,0.6,3.5,1.5c0.4,0.3,1.2,1.5,1.6,1.7c-0.2-0.3,0.1-1-0.7-2c-0.7-0.8-1.6-1.9-3.7-3.3
		c-1.4-1-3.6-2.4-5.5-3.6l-1-1.6c0-0.8,4.9,0.3,5.7,0.5c3.4,0.8,4,1.1,5.8,2.7c1,0.8,1.5,1.9,2.2,3c0.7,1,1.1,2.4,2.1,3.1
		c0.1,0.1,0.1,0.1,0.2,0.2c2.1-0.8,5.3-1.9,7.6-2.1c2.7-0.3,6.3,0.4,8.9,1.1c1.6,0.4,4.8,1.1,4.3,2.3
		C-607.2,685-611.7,686.4-613,686.1z"/>
	<path class="st1" d="M-629.6,683.4c0,0,3.4-7.3,5.2-10.2c1.8-2.9,6-4.2,6-4.2s0.8,1.6,0.3,3.5c-0.5,2-2.9,4.5-3.8,5.9s-4.6,6-4.6,6
		L-629.6,683.4z"/>
</g>
<g>
	<path class="st8" d="M-690.9,711.9c11.8,10.4,35.1,24,42.8,27.7c7.6,3.7,13.9,8.8,18.9,14.5c5.8,6.6,10.1,15.1,8.4,20.3
		c-1.8,5.7-11.8,14.9-14,18.7c-2.2,3.8-2.4,7.7,0.9,6.6c3.3-1.1,15.7-7.4,19.6-7.2c3.9,0.2,9.7,6.2,13.5,7.7
		c3.8,1.5,8.4,1.8,4.2-5.6c-4.2-7.4-12.5-16.8-12.3-19.3c0.1-2.6,10.6-21.7-3.8-45.1c-6.5-10.6-7.5-9.6-5.2-10.2
		c5.1-1.4,7.7-0.1,7.9-2.4s-18.1-19.4-20.2-19.7c-2.1-0.3-8.9-1.1-8.9-1.1s-12.3-11.5-23.4-14.3
		C-673.1,679.6-677.4,698.7-690.9,711.9z"/>
	<path class="st6" d="M-697,690.4c1.9,1.5,5.5,6.3,6.8,7.7c-0.9-3.7-2.3-6.5-5.2-9.5c-2.7-2.8-4.8-3.4-4.4-5.3
		c0.2-1.2,6.9-4.9,9.4-5.7c9.4-3.2,19-0.8,28,4.8c6.8,4.2-16.8,40-28.6,29.6c-11.8-10.4-13-20.6-13-20.6c-0.4-1.4-0.1-5.3,1.5-4.5
		C-700.9,687.6-700.9,687.3-697,690.4z"/>
	<path class="st1" d="M-680.1,690.9c0.8,1.8,2.9,1.4,3.5,0.9c0.6-0.6,1.1-2,0.4-2.9c-0.8-0.9-1.8-1.3-2.5-1
		C-680.5,688.6-680.6,689.9-680.1,690.9z"/>
	<path class="st6" d="M-660,719.6c0,0,6.6,9.6,13,11.7s22,4.9,22,4.9s2.6-2.5-7.5-8.1c-10.1-5.6-15.7-10.4-18.2-11.6
		C-653.3,715.5-662.7,716.6-660,719.6z"/>
</g>
<g>
	<path class="st4" d="M-585.5,769.6c-1.1-8.2-4.1-22.3,0.1-31.2c4.2-8.9,13.2-25.8,17.8-32.1c4.6-6.3,24.1-26.2,28.5-30
		c8.4-7.4,26.2-14.6,38.8-14c4.9,0.2,16.7,1.7,20.8,3c6.8,2.2,13.7,9.2,10.4,16.6c-1,2.1-5,11.5-11.1,20.1
		c-7.8,11.1-13.2,20.3-17.9,25.6c-4.4,4.9-18.7,21.3-29.3,32.5c-9.5,10-18,21.4-22.6,24.5c-9.9,6.5-14.3,8.3-21,5.6
		C-577.7,787.3-584.4,777.8-585.5,769.6z"/>
	<path class="st5" d="M-581.7,730.4c0,0,12.9-2.6,18.2-2s13.5,6.1,15.2,6.3s-8.3-10.8-13.9-10.9c-5.6-0.2-16.3,0.9-16.3,0.9
		L-581.7,730.4z"/>
	<path class="st5" d="M-567,705.5c0,0,13.5-1.1,18.8-0.6s13.5,6.1,15.2,6.3c1.8,0.2-8.3-10.8-13.9-10.9c-5.6-0.2-15.9-0.1-15.9-0.1
		L-567,705.5z"/>
	<path class="st5" d="M-547.6,684.5c0,0,14.8-2.4,20.1-1.8c5.3,0.6,13.5,6.1,15.2,6.3c1.8,0.2-8.3-10.8-13.9-10.9
		c-5.6-0.2-17,1.7-17,1.7L-547.6,684.5z"/>
</g>
<path class="st1" d="M-661.2,741.9c0,0,0.8,10.9,0.4,27.7c-0.4,17.7,0.1,32.2,0,40.8c-0.1,8.6-1.5,28.5-1.7,44.9
	c-0.2,10.1,0.5,25.5,0,38.1c-0.3,8.7,1.4,36.5,1.4,36.5l184.8-34.5l0.2-172C-475.9,723.5-630.3,739.7-661.2,741.9z"/>
<path class="st1" d="M-613.1,735.1c0,0-3.1-38,2.3-52.6c5.4-14.7,33.2-24.9,51-18.3c16.8,6.2,26.3,11.1,30.1,64
	c1.1,15.4,0,25.4,0,25.4h-21.6c0,0,8.4-52.6-6.4-66.9c-9-8.8-31.4-8.6-36,4.5c-4.6,13.1-3.4,47.9-1.1,64.1
	c-5.7,6.4-16.6,6.1-16.6,6.1L-613.1,735.1z"/>
<g>
	<path class="st9" d="M-575.8,563.5c0,0-6-2.6-10.2,3.4c-4.3,6,0,11.1,6.8,7.7C-572.4,571.1-572.4,564.3-575.8,563.5z"/>
	<path class="st9" d="M-555.7,564.4c0,0-5.8-2.9-10.4,2.8c-4.6,5.7-0.7,11.1,6.4,8.1C-552.8,572.3-552.3,565.5-555.7,564.4z"/>
	<polygon class="st9" points="-577.6,563.2 -577.5,535.9 -574.7,535.9 -574.5,566.6 	"/>
	<polygon class="st9" points="-557.5,563.7 -555,536.4 -552.2,536.6 -554.6,567.3 	"/>
	<polygon class="st9" points="-577.5,543.9 -552.7,542.1 -552.2,536.6 -577.5,535.9 	"/>
</g>
<g>
	<path class="st9" d="M-417.6,697.4c0,0-6.5-0.5-8.6,6.6s3.6,10.5,9,5C-411.8,703.6-414.1,697.1-417.6,697.4z"/>
	<path class="st9" d="M-398.3,691.8c0,0-6.4-0.9-8.9,6.1c-2.5,6.9,3,10.7,8.6,5.6C-393,698.3-394.8,691.7-398.3,691.8z"/>
	<polygon class="st9" points="-419.4,697.8 -428.2,671.9 -425.6,671 -415.4,700 	"/>
	<polygon class="st9" points="-400.3,691.7 -406.8,665.1 -404.1,664.4 -396.4,694.1 	"/>
	<polygon class="st9" points="-425.6,679.5 -402.8,669.7 -404.1,664.4 -428.2,671.9 	"/>
</g>
<g>
	<path class="st9" d="M-755.8,681.3c0,0-6-2.6-10.2,3.4c-4.3,6,0,11.1,6.8,7.7C-752.4,689-752.4,682.2-755.8,681.3z"/>
	<path class="st9" d="M-735.7,682.2c0,0-5.8-2.9-10.4,2.8c-4.6,5.7-0.7,11.1,6.4,8.1S-732.4,683.3-735.7,682.2z"/>
	<polygon class="st9" points="-757.6,681 -757.5,653.7 -754.7,653.7 -754.5,684.4 	"/>
	<polygon class="st9" points="-737.5,681.5 -735,654.3 -732.3,654.4 -734.6,685.1 	"/>
	<polygon class="st9" points="-757.5,661.7 -732.7,660 -732.3,654.4 -757.5,653.7 	"/>
</g>
<g>
	<path class="st9" d="M-469.2,569.4c0,0-6.4,0.9-7,8.2c-0.6,7.3,5.7,9.5,9.8,3.1C-462.3,574.2-465.8,568.4-469.2,569.4z"/>
	<polygon class="st9" points="-470.9,570.1 -484.8,546.6 -482.5,545.2 -466.5,571.4 	"/>
	<polygon class="st9" points="-480.8,553.5 -468.1,543.6 -470.5,538.6 -484.8,546.6 	"/>
</g>
<g>
	<path class="st9" d="M-674.2,594.6c0,0-5.3-3.8-10.7,1.2c-5.4,4.9-2.3,10.8,5,8.9C-672.5,602.8-671,596.2-674.2,594.6z"/>
	<polygon class="st9" points="-675.9,593.9 -670,567.3 -667.3,567.9 -673.6,597.9 	"/>
	<polygon class="st9" points="-671.7,575.1 -655.7,576.5 -654,571.3 -670,567.3 	"/>
</g>
<g>
	<path class="st9" d="M-500.7,637.2c0,0-5.9-2.7-10.3,3.2c-4.4,5.9-0.2,11.1,6.7,7.8S-497.3,638.1-500.7,637.2z"/>
	<polygon class="st9" points="-502.6,636.9 -502,609.6 -499.2,609.7 -499.5,640.3 	"/>
</g>
<path d="M-12.8,704c0,0-3.7-39.7,2.7-55S29,623,50,629.8c19.9,6.5,31.1,11.6,35.6,66.9c1.3,16.1,0,26.6,0,26.6H60.1
	c0,0,9.9-54.9-7.6-70c-10.6-9.2-37.1-9-42.6,4.7c-5.5,13.7-4.1,50-1.3,67c-6.7,6.7-19.6,6.4-19.6,6.4L-12.8,704z"/>
<polygon class="st11" points="-72.5,709.4 116.7,690.4 209,723.7 175.6,794.5 -15,799.1 "/>
<g>
	<g>
		<g>
			<path class="st4" d="M-6.2,820.2c3.5-1.1,6.8-1.5,9.9-2.1c1.2-0.2-1.2-1.9,3.6-3.3s4,2.3,5.4,1.7c3-1.4,5.1-0.9,4.7-3
				c-0.7-3.4-1.5-7.1,2.7-8.6c4.4-1.6,7.2,0.1,8.4,4c1.1,3.6,4.6,1.3,9.3-0.9l-85.4-159.3c-2.2,1.5-4.6,2.6-6.9,3.6
				c-2.4,0.9-4.9,1.7-7.4,2.4c-0.7,3-3.4,6.1-5.5,6.7c-4.7,1.4-6.5-1-9-2.9c-2,0.5-3.3,1-9,3.9c-0.8,0.4-1.6,0.9-2.1,1.7
				c-1.2,1.8-0.1,4.2,1,6c4.9,8.3,7,12.5,9.5,21.8c1.2,4.5,1.8,9.2,3.7,13.5c0.4,0.9,3.5-1.3,5,1.5c1.8,3.4-2.7,3.8-2.2,4.9
				c2.3,5.1,5,11.1,6.6,14c4.1,7.3,6.3,16.6,7.5,24.8c0.4,3,1.6,6.5,3.2,10.5c0.7,1.8,5.6-0.7,8.1,6.6c2.3,6.5-2.3,7.4-1.4,9.5
				c1.5,3.6,1.3,3,2.6,7c4.1,12.6,5.6,12.6,9.7,25.2c1.7,5.3,6,7.9,8.4,12.8c0.7,1.5,1.7,3.1,3.2,3.6c1.2,0.5,2.6,0.2,3.8-0.1
				C-15.2,824.9-10.3,821.4-6.2,820.2z M-78.7,674.1c-0.6-1.9-2.7-5-2.7-6.6c0.1-1.6,2.7-2,4.5-1.7c1.8,0.3,3,3.1,3,3.1
				s1.2,4.8,0.4,5.9C-74.4,675.9-78.1,676-78.7,674.1z M-49.2,697.3c-0.5-1.6-3.3-4-2.8-5.5c0.4-1.5,1.1-7.5,4-7.7
				c2.9-0.1,8,7.2,8,7.2s0.9,4.1-0.8,5.4C-42.4,697.9-48.7,698.9-49.2,697.3z M-49.1,735.7c-1.1-3.6-4.8-5.1-4.7-8.1
				c0.1-3,2-5.5,5.4-4.9c3.4,0.6,9.3,6,9.3,6s2.5,6.4,0.9,8.5C-39.9,739.4-48.1,739.3-49.1,735.7z M-14.8,763.6
				c-1-3.5-3.9-5.7-3.9-8.6c0-2.9,8.2-5.3,11.4-4.6c3.2,0.7,5.3,5.8,5.3,5.8s2.4,8.9,0.9,11C-2.6,769.2-13.7,767.1-14.8,763.6z
				 M-21.7,809.6c-1.1-3.6-5.1-9.6-5-12.5c0.1-3,5.1-3.8,8.5-3.2c3.4,0.6,5.6,5.8,5.6,5.8s2.4,9.1,0.7,11.2
				C-13.5,813.1-20.6,813.2-21.7,809.6z"/>
		</g>
	</g>
	<g>
		<path class="st5" d="M-46.9,649c5.6,4.3,14.8,17.5,14.6,17.2c-3.2-3.4,9.3,8.2,12.6,11.6c3.9,4.1,7.6,7.3,13.1,13.2
			c2.4,2.5,4.7,7.1,7,9.6c3.6,4,7.1,5.7,9.6,8.8c3.6,4.3,7.7,11.1,10,14.1c4.3,5.8,5.6,6.8,12.1,14.5c1.7,2.1,5.2,4.7,6.1,7.2
			c0.9,2.6,2.2,9.1,2.2,11.9c-0.1,5.7-1.4,15-1.6,20.8c-0.3,12.1-0.7,17-1,29.1c-0.3,2.3-3,1.7-4-0.2c-2.2-4.3-2.9-8.6-4.8-12.4
			c-1.8-3.6-4.8-6.6-6.6-10.1c-2-3.9-3-5.9-5.3-10.4c-1.9-3.6-4.4-7.4-6.3-11.2c-1.3-2.7-3-7.4-4.4-10.1c-2.7-5.4-6.9-9.7-9.5-14.8
			c-2.1-3.9-3.6-8.6-8-15.9c-3-5.1-6.6-10.9-9.1-15.2c-1.7-2.9-4.9-12.4-5.9-14.2c-3.4-6.6-4.9-6-7.7-10.7
			c-2.7-4.4-3.6-9.1-6.4-13.8c-2.3-3.8-6.6-9.1-9.2-14.2C-49.5,653.6-51.4,645.5-46.9,649z"/>
	</g>
</g>
<path class="st12" d="M-72.5,709.4c-0.2,1.5-1.3,27.7-1.8,51c-0.3,14,0.5,33.3,0.2,50c-0.4,19.7,1.6,41.3,1.2,59.1
	c-0.6,30.6,0,56.2,0,56.2l63.7,41.4L26,920.1c0,0-4.8-179-5.3-176.9c-0.2,1.1-17.3,12.4-30,2.3C-25.1,737.7-54.6,712.8-72.5,709.4z"
	/>
<g>
	<g>
		<path class="st7" d="M10.6,697.3c5.2,11.9,4.2,12.8,8.8,24.9c6.3,16.3,21.3,50.8,33.7,63.2c1.4,1.4,3,2.8,5,3.3
			c3.9,1,8,0.9,10.8-2.4l0,0c2.7-0.7,5.9-6.7,5.4-9.4c-1.1-6.4-16.7-30-23.2-39.9c-7.5-11.6-15.9-21.6-17.5-27.5L15,667
			C-6.2,660.7,7.6,690.3,10.6,697.3z"/>
	</g>
	<path class="st1" d="M-80.4,555.1c21.7,17.1,51,69.1,66,91.3c4.8,7.2,16.4,28.4,26.2,55.1c2.9,7.9,3.4,12.4,6.7,18
		c1.8-14,8.3-14,16.6-6.7c-9.6-23.9-16.5-51.5-19.5-77c-2.8-23.5-3.3-83.6-6.2-107.1c-8.2-0.6-13.4-2.3-16.2,3.4
		c1.2,9.8,9.7,102.4,9.6,112.4c-2.4-10-10.7-66.3-14.7-75.6c-4.4-10.3-14.6-50.7-20.2-60.4c-6.2-1.4-9.2,1.9-14.8,7.4
		c5.8,9.8,16.4,50.5,20.5,61.1c4.7,12.3,7.3,25.8,10.7,38.7c-12.8-23.3-37.6-58.8-58-76.4C-75.4,543.2-78.7,548.5-80.4,555.1z"/>
	<g>
		<g>
			<path class="st2" d="M62.8,784.2c1.1,2.1,2,4.4,2.6,6.7c0.2,0.7,1.2,0.4,1-0.3c-0.7-2.4-1.6-4.7-2.7-6.9
				C63.4,783,62.5,783.6,62.8,784.2L62.8,784.2z"/>
		</g>
	</g>
	<g>
		<g>
			<path class="st2" d="M66.9,784.4c1.5,1.6,3,3.3,4.4,4.9c0.5,0.5,1.2-0.2,0.8-0.8c-1.5-1.6-3-3.3-4.4-4.9
				C67.2,783.1,66.4,783.9,66.9,784.4L66.9,784.4z"/>
		</g>
	</g>
	<g>
		<g>
			<path class="st2" d="M69.9,781.8c2,0.9,4,1.7,6,2.6c0.6,0.3,1.2-0.7,0.6-1c-2-0.9-4-1.7-6-2.6C69.8,780.6,69.3,781.5,69.9,781.8
				L69.9,781.8z"/>
		</g>
	</g>
	<g>
		<g>
			<path class="st2" d="M58.5,785.4c-0.4,2.3-0.5,4.6-0.3,6.9c0.1,0.7,1.2,0.7,1.1,0c-0.2-2.2-0.1-4.4,0.3-6.6
				C59.7,785,58.6,784.7,58.5,785.4L58.5,785.4z"/>
		</g>
	</g>
</g>
<g>
	<g>
		<path class="st5" d="M109.4,654.2c-13.1,7.7-18.8,16.4-17.9,29.8c0.2,2.8,5.1,15.3,8.5,19.8c5,6.6,16.8,12,21,12.6
			c11,1.5,21.6,1.9,30.7-0.9c8.4-2.5,15.9-6.8,22.7-12.7c9.5-8.4,18.4-16.9,15.9-33.2c-0.6-3.9-6.6-18.2-10-21.9
			c-11-12.4-31-9.2-45.8-1.7C127.9,649.1,114.3,650.7,109.4,654.2"/>
	</g>
	<path class="st1" d="M151.1,642.5c-5.3,0.1-8.1,0.2-11.7,2.8c-0.8,0.6-3.8,2.3-4.7,3.1c-1.5,1.4-4.2,3.7-5.2,3.8
		c-1.9,0.2-1.4,0.5-3.2,0.3c-1.6-0.2-5.4-1.1-7-1.3c-3.7-0.7-7.9,1.8-11.3,3.4c-1.5,0.7-7.4,4.7-8.3,3.7c-1.3-1.4,3-8.1,5.1-9.1
		c4.3-2,7.6-3.6,12.3-4.4c1.9-0.3,3.3,0,5,0.6c0.6,0.2,2.2,1.5,2.7,1.6c-0.3-0.3-0.2-1.3-1.7-2.4c-1.2-0.8-2.8-1.8-6-2.9
		c-2.2-0.7-5.5-1.7-8.5-2.6l-2-1.7c-0.3-1,6.5-1.5,7.5-1.5c4.7-0.3,5.6,0,8.5,1.3c1.6,0.7,2.7,1.9,4,3c1.2,1,2.3,2.7,3.8,3.3
		c0.1,0,0.2,0.1,0.3,0.1c2.5-1.8,6.2-4.4,9-5.6c3.4-1.5,8.3-1.9,12-1.9c2.2,0,6.6-0.4,6.4,1.3C158.2,638.9,152.9,642.4,151.1,642.5z
		"/>
	<path class="st1" d="M128.7,645.2c0,0,1.7-10.8,3-15.2c1.3-4.4,6.2-7.7,6.2-7.7s1.6,1.7,1.7,4.5c0.1,2.7-2.1,6.8-2.7,9
		c-0.6,2.2-3.7,9.5-3.7,9.5L128.7,645.2z"/>
</g>
<g>
	<path class="st4" d="M138.2,786.6c-3.9-8.1-11.9-21.5-10.6-32.1c1.3-10.6,4.6-31,7.2-39.1s15.8-35.1,18.9-40.5
		c6.1-10.5,21.9-24,35.1-27.7c5.1-1.4,17.7-4,22.4-4c7.8-0.1,17.3,4.7,16.4,13.4c-0.3,2.5-1.2,13.5-4.5,24.4
		c-4.2,14.1-6.5,25.4-9.6,32.4c-2.9,6.6-11.9,28.3-18.9,43.4c-6.3,13.6-11.1,28.2-14.8,32.9c-7.9,10-11.8,13.5-19.6,13
		S142.1,794.6,138.2,786.6z"/>
	<path class="st13" d="M128.6,745.1c0,0,12.4-7.1,18-8.3c5.6-1.2,15.9,1.6,17.8,1.2c1.9-0.4-12.2-8.2-18-6.5
		c-5.8,1.7-16.4,6.5-16.4,6.5L128.6,745.1z"/>
	<path class="st5" d="M135.1,714.4c0,0,13.5-5.8,19.1-7c5.6-1.2,15.9,1.6,17.8,1.2s-12.2-8.2-18-6.5c-5.8,1.7-16.4,5.4-16.4,5.4
		L135.1,714.4z"/>
	<path class="st5" d="M147.8,686.2c0,0,14.4-7.5,20-8.8c5.6-1.2,15.9,1.6,17.8,1.2c1.9-0.4-12.2-8.2-18-6.5
		c-5.8,1.7-16.8,7.5-16.8,7.5L147.8,686.2z"/>
</g>
<g>
	<path class="st8" d="M137.9,771.9c-4.3-26.1-20.3-68.6-26.3-81.4c-6-12.8-8.7-26.2-9.2-38.9c-0.5-14.7,2.9-30.4,10.5-35.3
		c8.4-5.5,31.2-6.9,38-9.6s11.2-7.5,5.7-9.5s-28.3-7-33.2-11.5c-4.8-4.4-6.1-18.3-9.5-24.4c-3.4-6-9-11.2-11.5,2.9
		c-2.4,14-1.6,35-4.5,38.2c-2.9,3.2-36.8,17-42.9,62.7c-2.8,20.8-0.4,20.5-4.1,18.9c-8-3.6-10.1-8.1-12.9-5.3
		c-2.7,2.7,3,44.4,5.4,47.1C46,728.6,54,736.7,54,736.7s3.9,28,15.3,43.4C80.5,795.1,106.2,774.7,137.9,771.9z"/>
	<path class="st14" d="M122.9,806.4c-0.9-3.9-0.4-14-0.7-17.3c-2.7,5.8-3.9,10.8-3.3,17.9c0.5,6.5,2.6,9.5,0.2,11.5
		c-1.6,1.3-14.2-1-18.3-2.5c-15.6-5.8-25.6-19.2-31.4-35.8c-4.4-12.6,64.2-34.3,68.6-8.2c4.3,26.1-4.9,40.6-4.9,40.6
		c-1,2.2-5.5,6.9-6.7,4.4C125,814.1,124.8,814.6,122.9,806.4z"/>
	<path class="st15" d="M101.5,787.8c0.8-3.2-2.3-4.9-3.7-4.8c-1.4,0.1-3.6,1.3-3.5,3.4s0.9,3.6,2.2,3.9
		C99.6,791.2,101.1,789.6,101.5,787.8z"/>
	<path class="st14" d="M105.7,729.2c0,0,1.6-19.4-4.5-29c-6.1-9.6-23.4-29.8-23.4-29.8s-6.1,0.5,1.1,18.5c7.2,18,9.3,30.2,11.5,34.4
		C92.6,727.5,106.1,735.9,105.7,729.2z"/>
</g>
<g>
	<path class="st1" d="M-9.4,745.5c0,0,1,12.8,0.5,32.7c-0.5,20.8,0.1,38,0.1,48.1s-1.7,33.6-2,52.9c-0.2,12,0.5,30.1,0,44.9
		c-0.4,10.2,1.7,43.1,1.7,43.1l217.8-40.6l0.3-202.8C209,723.7,27,742.9-9.4,745.5z"/>
	<path class="st1" d="M47.3,737.5c0,0-3.7-44.7,2.7-62S89,646.1,110,653.9c19.9,7.3,31,13.1,35.4,75.4c1.3,18.1,0,30,0,30H120
		c0,0,9.9-61.9-7.6-78.9c-10.6-10.3-37-10.2-42.4,5.3s-4,56.4-1.3,75.5c-6.7,7.6-19.6,7.2-19.6,7.2L47.3,737.5z"/>
</g>
<g>
	<path d="M84.7,519.7c0,0-7-3-12.1,4c-5,7,0,13.1,8,9.1C88.7,528.8,88.7,520.7,84.7,519.7z"/>
	<path d="M108.3,520.8c0,0-6.8-3.4-12.3,3.3c-5.4,6.7-0.8,13.1,7.5,9.5C111.8,530.1,112.3,522.1,108.3,520.8z"/>
	<polygon points="82.5,519.4 82.7,487.2 85.9,487.2 86.2,523.4 	"/>
	<polygon points="106.2,519.9 109.2,487.9 112.4,488.1 109.6,524.2 	"/>
	<polygon points="82.7,496.6 111.9,494.6 112.4,488.1 82.7,487.2 	"/>
</g>
<g>
	<path d="M277.8,693.1c0,0-7.6-0.6-10.1,7.7c-2.5,8.3,4.3,12.4,10.6,5.9S281.9,692.7,277.8,693.1z"/>
	<path d="M300.5,686.4c0,0-7.6-1-10.5,7.1c-2.9,8.1,3.5,12.6,10.2,6.5C306.8,694,304.6,686.3,300.5,686.4z"/>
	<polygon points="275.6,693.4 265.3,663 268.3,662 280.4,696.1 	"/>
	<polygon points="298.2,686.3 290.5,655 293.7,654.1 302.8,689.2 	"/>
	<polygon points="268.3,671.9 295.2,660.4 293.7,654.1 265.3,663 	"/>
</g>
<g>
	<path d="M-140.9,654c0,0-7-3-12.1,4c-5,7,0,13.1,8,9.1C-136.9,663.1-136.9,655-140.9,654z"/>
	<path d="M-117.2,655.2c0,0-6.8-3.4-12.3,3.3c-5.4,6.7-0.8,13.1,7.5,9.5C-113.8,664.4-113.3,656.4-117.2,655.2z"/>
	<polygon points="-143,653.7 -142.9,621.5 -139.6,621.5 -139.4,657.7 	"/>
	<polygon points="-119.4,654.3 -116.4,622.2 -113.1,622.4 -116,658.5 	"/>
	<polygon points="-142.9,630.9 -113.7,628.9 -113.1,622.4 -142.9,621.5 	"/>
</g>
<g>
	<path d="M217,542.1c0,0-7.6,1.1-8.3,9.7s6.7,11.2,11.6,3.6C225.1,547.8,220.9,540.9,217,542.1z"/>
	<polygon points="214.9,542.9 198.5,515.3 201.3,513.6 220.1,544.5 	"/>
	<polygon points="203.3,523.4 218.2,511.7 215.4,505.8 198.5,515.3 	"/>
</g>
<g>
	<path d="M-43.2,552.5c0,0-6.2-4.4-12.6,1.4c-6.4,5.8-2.8,12.8,6,10.5C-41.2,562.2-39.5,554.4-43.2,552.5z"/>
	<polygon points="-45.3,551.7 -38.3,520.4 -35.2,521.1 -42.6,556.5 	"/>
	<polygon points="-40.3,529.5 -21.5,531.3 -19.5,525 -38.3,520.4 	"/>
</g>
<g>
	<path d="M206,650.1c0,0-7-3.1-12.1,3.8c-5.1,7-0.2,13.1,7.9,9.2C209.9,659.2,210,651.2,206,650.1z"/>
	<polygon points="203.9,649.7 204.6,617.6 207.8,617.6 207.4,653.8 	"/>
</g>
<path d="M172.9,215.7c0,0-1-11,0.7-15.2c1.8-4.2,10.8-7.2,16.7-5.3c5.5,1.8,8.6,3.2,9.8,18.5c0.4,4.4,0,7.4,0,7.4H193
	c0,0,2.7-15.2-2.1-19.4c-2.9-2.5-10.3-2.5-11.8,1.3c-1.5,3.8-1.1,13.8-0.4,18.5c-1.9,1.9-5.4,1.8-5.4,1.8L172.9,215.7z"/>
<polygon class="st11" points="156.3,217.2 208.7,212 234.3,221.2 225,240.8 172.3,242.1 "/>
<g>
	<g>
		<g>
			<path class="st4" d="M174.7,247.9c1-0.3,1.9-0.4,2.7-0.6c0.3-0.1-0.3-0.5,1-0.9s1.1,0.6,1.5,0.5c0.8-0.4,1.4-0.2,1.3-0.8
				c-0.2-0.9-0.4-2,0.7-2.4c1.2-0.5,2,0,2.3,1.1c0.3,1,1.3,0.4,2.6-0.2l-23.6-44.1c-0.6,0.4-1.3,0.7-1.9,1c-0.7,0.3-1.3,0.5-2,0.7
				c-0.2,0.8-0.9,1.7-1.5,1.9c-1.3,0.4-1.8-0.3-2.5-0.8c-0.6,0.1-0.9,0.3-2.5,1.1c-0.2,0.1-0.4,0.3-0.6,0.5c-0.3,0.5,0,1.2,0.3,1.7
				c1.4,2.3,1.9,3.5,2.6,6c0.3,1.2,0.5,2.6,1,3.7c0.1,0.2,1-0.4,1.4,0.4c0.5,0.9-0.7,1-0.6,1.4c0.6,1.4,1.4,3.1,1.8,3.9
				c1.1,2,1.8,4.6,2.1,6.9c0.1,0.8,0.5,1.8,0.9,2.9c0.2,0.5,1.5-0.2,2.2,1.8c0.6,1.8-0.6,2.1-0.4,2.6c0.4,1,0.4,0.8,0.7,1.9
				c1.1,3.5,1.6,3.5,2.7,7c0.5,1.5,1.7,2.2,2.3,3.6c0.2,0.4,0.5,0.8,0.9,1c0.3,0.1,0.7,0.1,1.1,0
				C172.2,249.2,173.6,248.3,174.7,247.9z M154.6,207.5c-0.2-0.5-0.7-1.4-0.7-1.8c0-0.4,0.7-0.6,1.2-0.5c0.5,0.1,0.8,0.8,0.8,0.8
				s0.3,1.3,0.1,1.6C155.8,208,154.8,208,154.6,207.5z M162.8,213.9c-0.1-0.4-0.9-1.1-0.8-1.5c0.1-0.4,0.3-2.1,1.1-2.1
				c0.8,0,2.2,2,2.2,2s0.3,1.1-0.2,1.5C164.7,214.1,162.9,214.3,162.8,213.9z M162.8,224.5c-0.3-1-1.3-1.4-1.3-2.2
				c0-0.8,0.5-1.5,1.5-1.3c1,0.2,2.6,1.7,2.6,1.7s0.7,1.8,0.2,2.4C165.4,225.6,163.1,225.5,162.8,224.5z M172.3,232.2
				c-0.3-1-1.1-1.6-1.1-2.4c0-0.8,2.3-1.5,3.1-1.3c0.9,0.2,1.5,1.6,1.5,1.6s0.7,2.5,0.2,3C175.7,233.8,172.6,233.2,172.3,232.2z
				 M170.4,245c-0.3-1-1.4-2.6-1.4-3.5c0-0.8,1.4-1,2.4-0.9c1,0.2,1.6,1.6,1.6,1.6s0.7,2.5,0.2,3.1C172.7,245.9,170.7,246,170.4,245
				z"/>
		</g>
	</g>
	<g>
		<path class="st5" d="M163.4,200.5c1.6,1.2,4.1,4.8,4,4.8c-0.9-0.9,2.6,2.3,3.5,3.2c1.1,1.1,2.1,2,3.6,3.6c0.7,0.7,1.3,2,1.9,2.6
			c1,1.1,2,1.6,2.6,2.4c1,1.2,2.1,3.1,2.8,3.9c1.2,1.6,1.6,1.9,3.3,4c0.5,0.6,1.4,1.3,1.7,2c0.3,0.7,0.6,2.5,0.6,3.3
			c0,1.6-0.4,4.2-0.4,5.8c-0.1,3.3-0.2,4.7-0.3,8c-0.1,0.6-0.8,0.5-1.1,0c-0.6-1.2-0.8-2.4-1.3-3.4c-0.5-1-1.3-1.8-1.8-2.8
			c-0.5-1.1-0.8-1.6-1.5-2.9c-0.5-1-1.2-2-1.7-3.1c-0.4-0.7-0.8-2.1-1.2-2.8c-0.7-1.5-1.9-2.7-2.6-4.1c-0.6-1.1-1-2.4-2.2-4.4
			c-0.8-1.4-1.8-3-2.5-4.2c-0.5-0.8-1.4-3.4-1.6-3.9c-1-1.8-1.4-1.7-2.1-3c-0.7-1.2-1-2.5-1.8-3.8c-0.6-1.1-1.8-2.5-2.6-3.9
			C162.7,201.8,162.2,199.6,163.4,200.5z"/>
	</g>
</g>
<path class="st12" d="M173.9,288.6l9.7-13c0,0-1.3-49.5-1.5-48.9c-0.1,0.3-4.8,3.4-8.3,0.6c-4.4-2.2-12.5-9.1-17.5-10
	c-0.1,0.4-0.4,7.7-0.5,14.1c-0.1,3.9,0.1,9.2,0.1,13.8c-0.1,5.5,0.4,11.4,0.3,16.4c-0.2,8.5,0,15.6,0,15.6L173.9,288.6"/>
<g>
	<g>
		<path class="st7" d="M179.4,213.9c1.4,3.3,1.2,3.5,2.4,6.9c1.7,4.5,5.9,14.1,9.3,17.5c0.4,0.4,0.8,0.8,1.4,0.9
			c1.1,0.3,2.2,0.3,3-0.7l0,0c0.8-0.2,1.6-1.8,1.5-2.6c-0.3-1.8-4.6-8.3-6.4-11.1c-2.1-3.2-4.4-6-4.8-7.6l-5.2-11.8
			C174.7,203.8,178.5,212,179.4,213.9z"/>
	</g>
	<path class="st1" d="M154.2,174.5c6,4.7,14.1,19.1,18.3,25.3c1.3,2,4.5,7.9,7.2,15.2c0.8,2.2,0.9,3.4,1.9,5
		c0.5-3.9,2.3-3.9,4.6-1.8c-2.6-6.6-4.6-14.3-5.4-21.3c-0.8-6.5-0.9-23.1-1.7-29.6c-2.3-0.2-3.7-0.6-4.5,0.9
		c0.3,2.7,2.7,28.4,2.7,31.1c-0.7-2.8-3-18.4-4.1-20.9c-1.2-2.9-4-14-5.6-16.7c-1.7-0.4-2.6,0.5-4.1,2c1.6,2.7,4.5,14,5.7,16.9
		c1.3,3.4,2,7.1,3,10.7c-3.5-6.5-10.4-16.3-16.1-21.1C155.5,171.2,154.6,172.7,154.2,174.5z"/>
	<g>
		<g>
			<path class="st2" d="M193.5,238.1c0.3,0.6,0.5,1.1,0.7,1.8c0.2,0.7,1.2,0.4,1-0.3c-0.2-0.7-0.5-1.4-0.8-2
				C194.1,237,193.2,237.5,193.5,238.1L193.5,238.1z"/>
		</g>
	</g>
	<g>
		<g>
			<path class="st2" d="M194.7,238.3c0.4,0.5,0.8,0.9,1.2,1.4c0.5,0.5,1.2-0.2,0.8-0.8c-0.4-0.5-0.8-0.9-1.2-1.4
				C194.9,237,194.2,237.8,194.7,238.3L194.7,238.3z"/>
		</g>
	</g>
	<g>
		<g>
			<path class="st2" d="M195.6,237.6c0.6,0.2,1.1,0.5,1.7,0.7c0.3,0.1,0.6,0.1,0.8-0.2c0.1-0.2,0.1-0.6-0.2-0.8
				c-0.6-0.2-1.1-0.5-1.7-0.7c-0.3-0.1-0.6-0.1-0.8,0.2C195.2,237.1,195.3,237.5,195.6,237.6L195.6,237.6z"/>
		</g>
	</g>
	<g>
		<g>
			<path class="st2" d="M192.2,238.2c-0.1,0.7-0.2,1.3-0.1,2c0.1,0.7,1.2,0.7,1.1,0c0-0.6,0-1.2,0.1-1.7
				C193.4,237.8,192.3,237.5,192.2,238.2L192.2,238.2z"/>
		</g>
	</g>
</g>
<g>
	<g>
		<path class="st5" d="M206.7,202c-3.6,2.1-5.2,4.5-5,8.2c0.1,0.8,1.4,4.2,2.4,5.5c1.4,1.8,4.6,3.3,5.8,3.5c3.1,0.4,6,0.5,8.5-0.2
			c2.3-0.7,4.4-1.9,6.3-3.5c2.6-2.3,5.1-4.7,4.4-9.2c-0.2-1.1-1.8-5-2.8-6.1c-3.1-3.4-8.6-2.5-12.7-0.5
			C211.8,200.6,208,201,206.7,202"/>
	</g>
	<path class="st1" d="M218.2,198.7c-1.5,0-2.2,0.1-3.2,0.8c-0.2,0.2-1.1,0.6-1.3,0.9c-0.4,0.4-1.2,1-1.5,1.1
		c-0.5,0.1-0.4,0.1-0.9,0.1c-0.5-0.1-1.5-0.3-1.9-0.4c-1-0.2-2.2,0.5-3.1,0.9c-0.4,0.2-2,1.3-2.3,1c-0.4-0.4,0.8-2.2,1.4-2.5
		c1.2-0.5,2.1-1,3.4-1.2c0.5-0.1,0.9,0,1.4,0.2c0.2,0.1,0.6,0.4,0.7,0.4c-0.1-0.1-0.1-0.4-0.5-0.7c-0.3-0.2-0.8-0.5-1.7-0.8
		c-0.6-0.2-1.5-0.5-2.3-0.7l-0.5-0.5c-0.1-0.3,1.8-0.4,2.1-0.4c1.3-0.1,1.5,0,2.4,0.4c0.4,0.2,0.7,0.5,1.1,0.8
		c0.3,0.3,0.6,0.7,1.1,0.9c0,0,0.1,0,0.1,0c0.7-0.5,1.7-1.2,2.5-1.5c0.9-0.4,2.3-0.5,3.3-0.5c0.6,0,1.8-0.1,1.8,0.4
		C220.2,197.7,218.7,198.7,218.2,198.7z"/>
	<path class="st1" d="M212,199.5c0,0,0.5-3,0.8-4.2c0.4-1.2,1.7-2.1,1.7-2.1s0.4,0.5,0.5,1.2c0,0.8-0.6,1.9-0.7,2.5
		c-0.2,0.6-1,2.6-1,2.6L212,199.5z"/>
</g>
<g>
	<path class="st4" d="M214.7,238.6c-1.1-2.2-3.3-6-2.9-8.9c0.4-2.9,1.3-8.6,2-10.8s4.4-9.7,5.2-11.2c1.7-2.9,6.1-6.6,9.7-7.7
		c1.4-0.4,4.9-1.1,6.2-1.1c2.2,0,4.8,1.3,4.5,3.7c-0.1,0.7-0.3,3.7-1.2,6.8c-1.2,3.9-1.8,7-2.7,9c-0.8,1.8-3.3,7.8-5.2,12
		c-1.7,3.8-3.1,7.8-4.1,9.1c-2.2,2.8-3.3,3.7-5.4,3.6S215.7,240.8,214.7,238.6z"/>
	<path class="st13" d="M212,227.1c0,0,3.4-2,5-2.3c1.6-0.3,4.4,0.5,4.9,0.3c0.5-0.1-3.4-2.3-5-1.8c-1.6,0.5-4.6,1.8-4.6,1.8
		L212,227.1z"/>
	<path class="st5" d="M213.8,218.6c0,0,3.7-1.6,5.3-1.9c1.6-0.3,4.4,0.5,4.9,0.3c0.5-0.1-3.4-2.3-5-1.8c-1.6,0.5-4.5,1.5-4.5,1.5
		L213.8,218.6z"/>
	<path class="st5" d="M217.3,210.8c0,0,4-2.1,5.5-2.4s4.4,0.5,4.9,0.3c0.5-0.1-3.4-2.3-5-1.8s-4.7,2.1-4.7,2.1L217.3,210.8z"/>
</g>
<g>
	<path class="st8" d="M214.6,234.5c-1.2-7.2-5.6-19-7.3-22.5c-1.7-3.6-2.4-7.2-2.5-10.8c-0.1-4.1,0.8-8.4,2.9-9.8
		c2.3-1.5,8.6-1.9,10.5-2.6s3.1-2.1,1.6-2.6c-1.5-0.6-7.8-2-9.2-3.2c-1.3-1.2-1.7-5.1-2.6-6.7c-0.9-1.7-2.5-3.1-3.2,0.8
		c-0.7,3.9-0.4,9.7-1.2,10.6s-10.2,4.7-11.9,17.4c-0.8,5.7-0.1,5.7-1.1,5.2c-2.2-1-2.8-2.2-3.6-1.5c-0.8,0.8,0.8,12.3,1.5,13
		c0.7,0.7,2.9,3,2.9,3s1.1,7.7,4.2,12C198.7,241,205.8,235.3,214.6,234.5z"/>
	<path class="st14" d="M210.4,244.1c-0.3-1.1-0.1-3.9-0.2-4.8c-0.7,1.6-1.1,3-0.9,4.9c0.2,1.8,0.7,2.6,0,3.2
		c-0.5,0.4-3.9-0.3-5.1-0.7c-4.3-1.6-7.1-5.3-8.7-9.9c-1.2-3.5,17.8-9.5,19-2.3c1.2,7.2-1.3,11.2-1.3,11.2c-0.3,0.6-1.5,1.9-1.9,1.2
		C211,246.2,211,246.3,210.4,244.1z"/>
	<path class="st15" d="M204.5,238.9c0.2-0.9-0.6-1.4-1-1.3c-0.4,0-1,0.4-1,0.9s0.2,1,0.6,1.1C204,239.9,204.4,239.4,204.5,238.9z"/>
	<path class="st14" d="M205.7,222.7c0,0,0.4-5.4-1.2-8s-6.5-8.2-6.5-8.2s-1.7,0.1,0.3,5.1s2.6,8.4,3.2,9.5
		C202.1,222.2,205.8,224.6,205.7,222.7z"/>
</g>
<path class="st1" d="M173.9,288.6l60.3-11.2l0.1-56.1c0,0-50.4,5.3-60.4,6c0,0,0.3,3.6,0.1,9c-0.1,5.8,0,10.5,0,13.3
	c0,2.8-0.5,9.3-0.6,14.6c-0.1,3.3,0.2,8.3,0,12.4C173.3,279.5,173.9,288.6,173.9,288.6"/>
<path class="st1" d="M189.5,225c0,0-1-12.4,0.7-17.2s10.8-8.1,16.6-6c5.5,2,8.6,3.6,9.8,20.9c0.4,5,0,8.3,0,8.3h-7
	c0,0,2.7-17.1-2.1-21.8c-2.9-2.9-10.2-2.8-11.7,1.5s-1.1,15.6-0.4,20.9c-1.9,2.1-5.4,2-5.4,2L189.5,225z"/>
<g>
	<path d="M199.9,164.7c0,0-1.9-0.8-3.3,1.1c-1.4,1.9,0,3.6,2.2,2.5C201,167.2,201,165,199.9,164.7z"/>
	<path d="M206.4,165.1c0,0-1.9-0.9-3.4,0.9c-1.5,1.9-0.2,3.6,2.1,2.6C207.4,167.6,207.5,165.4,206.4,165.1z"/>
	<polygon points="199.3,164.6 199.3,155.8 200.2,155.8 200.3,165.8 	"/>
	<polygon points="205.8,164.8 206.6,155.9 207.5,156 206.8,166 	"/>
	<polygon points="199.3,158.3 207.4,157.8 207.5,156 199.3,155.8 	"/>
</g>
<g>
	<path d="M253.3,212.7c0,0-2.1-0.2-2.8,2.1c-0.7,2.3,1.2,3.4,2.9,1.6C255.2,214.7,254.4,212.6,253.3,212.7z"/>
	<path d="M259.6,210.9c0,0-2.1-0.3-2.9,2s1,3.5,2.8,1.8C261.3,213,260.7,210.8,259.6,210.9z"/>
	<polygon points="252.7,212.8 249.8,204.4 250.7,204.1 254,213.6 	"/>
	<polygon points="258.9,210.8 256.8,202.2 257.7,201.9 260.2,211.6 	"/>
	<polygon points="250.7,206.9 258.1,203.7 257.7,201.9 249.8,204.4 	"/>
</g>
<g>
	<path d="M137.4,201.9c0,0-1.9-0.8-3.3,1.1c-1.4,1.9,0,3.6,2.2,2.5C138.5,204.4,138.5,202.2,137.4,201.9z"/>
	<path d="M144,202.2c0,0-1.9-0.9-3.4,0.9s-0.2,3.6,2.1,2.6S145.1,202.6,144,202.2z"/>
	<polygon points="136.8,201.8 136.9,192.9 137.8,192.9 137.8,202.9 	"/>
	<polygon points="143.4,202 144.2,193.1 145.1,193.2 144.3,203.2 	"/>
	<polygon points="136.9,195.5 144.9,195 145.1,193.2 136.9,192.9 	"/>
</g>
<g>
	<path d="M236.5,170.9c0,0-2.1,0.3-2.3,2.7c-0.2,2.4,1.9,3.1,3.2,1C238.7,172.5,237.6,170.6,236.5,170.9z"/>
	<polygon points="235.9,171.2 231.4,163.5 232.1,163.1 237.3,171.6 	"/>
	<polygon points="232.7,165.8 236.8,162.5 236,160.9 231.4,163.5 	"/>
</g>
<g>
	<path d="M164.4,173.8c0,0-1.7-1.2-3.5,0.4c-1.8,1.6-0.8,3.5,1.6,2.9C165,176.5,165.5,174.3,164.4,173.8z"/>
	<polygon points="163.9,173.6 165.8,164.9 166.7,165.1 164.6,174.9 	"/>
	<polygon points="165.3,167.5 170.5,167.9 171,166.2 165.8,164.9 	"/>
</g>
<g>
	<path d="M233.4,200.8c0,0-1.9-0.9-3.4,1.1s-0.1,3.6,2.2,2.5C234.5,203.4,234.6,201.1,233.4,200.8z"/>
	<polygon points="232.8,200.7 233,191.8 233.9,191.8 233.8,201.9 	"/>
</g>
<g>
</g>
<g>
</g>
<g>
</g>
<g>
</g>
<g>
</g>
<g>
</g>
</svg>
