<?xml version="1.0" encoding="utf-8"?>
<!-- Generator: Adobe Illustrator 24.1.3, SVG Export Plug-In . SVG Version: 6.00 Build 0)  -->
<svg version="1.1" id="Ebene_1" xmlns="http://www.w3.org/2000/svg" xmlns:xlink="http://www.w3.org/1999/xlink" x="0px" y="0px"
	 viewBox="0 0 390.5 394.3" style="enable-background:new 0 0 390.5 394.3;" xml:space="preserve">
<style type="text/css">
	.st0{fill:#F2C0C8;}
	.st1{fill:#6BF178;}
	.st2{fill:#1D1D1B;}
	.st3{fill:#432918;}
	.st4{fill:#FFE400;}
	.st5{fill:#FB5607;}
	.st6{fill:#0E1116;}
	.st7{fill:#F6F6F6;}
	.st8{fill:#3A86FF;}
</style>
<rect x="10.5" y="447.2" class="st0" width="377.6" height="216.7"/>
<g>
	<path class="st1" d="M276.3,461.4c-18.3-6-20.6,0.7-24.2,6.6c-3.8,6.1-3,14.3,0.5,20.6c1.9,3.4,4.7,5.2,7.7,7.7
		c2.5,2.2,5.1,5.2,7.9,6.9c2.8,1.7,5.9,3.2,9.1,2.8c2.2-0.3,4.2-1.6,6.4-2.1c3.9-0.9,5.2,2.4,9,0.8c2.5-1.1,7.3-5.1,8.8-7.3
		c3.6-5.2,6.8-10.7,8-16.9c1.2-6.2,3.1-14.3-1.2-18.8c-4.2-4.4-6.1-6.2-12.1-6.9c-3-0.3-9.3-0.7-12.7,1.5
		C280.8,458.1,279.1,460.1,276.3,461.4"/>
	<g>
		<path class="st2" d="M277.4,463.2c-1.8-4.2-3.4-7.8-2-12.4c0.4-1.4-1.7-2-2.1-0.6c-1.6,5.2,0.2,9.4,2.3,14.1
			C276,465.6,277.9,464.5,277.4,463.2L277.4,463.2z"/>
	</g>
	<g>
		<path class="st3" d="M273.2,465c1.3-0.1,2.5,0.3,3.8,0c1.1-0.3,2.1-0.9,2.8-1.7c0.3-0.3-0.2-0.8-0.5-0.5c-0.8,0.9-1.8,1.5-3,1.6
			c-1,0.1-2-0.2-3.1-0.1C272.8,464.3,272.8,465,273.2,465L273.2,465z"/>
	</g>
</g>
<g>
	<path class="st4" d="M327.7,500c0.8-1.5,1.8-2.8,2.8-3.9c1.6-1.7,2.9-3.7,5.3-4.9c4.2-2.2,10-1.8,14.6-2.8
		c4.3-0.9,8.2-2.7,12.2-4.7c8.2-4.3,11.9-7.6,17.6-15c1.8-2.4,4.4-4.8,6.8-8.2c2.4-3.4,4.5-7.6,6.7-9.6c2.6-2.4,8.1-1.9,11.3-3.4
		c1.2,3.4,2.4,8.4,1.4,11.9c-1.2,3.9-2.3,9-3.7,12c-4.1,9-9.7,13.3-19.2,20.9c-4.4,3.5-9.9,6.8-15.5,9.1c-3.4,1.4-13.5,3.2-17.4,3.9
		c-9.3,1.8-13.6,0.7-21.7-1.8C328.4,503.4,327.2,500.1,327.7,500"/>
	<g>
		<path class="st4" d="M403.9,456.2c3.2-5,7.4-13.6,3.6-19.3c-1.6-2.4-5.4-0.9-4.7,2c1.4,6.1-1.5,11.8-5.3,16.4
			c-2.1,2.6,1.5,6.2,3.7,3.7c5.1-6.1,8.5-13.4,6.6-21.5c-1.6,0.7-3.2,1.3-4.7,2c2.6,3.8-1.5,10.8-3.6,14
			C397.6,456.4,402.1,459,403.9,456.2L403.9,456.2z"/>
	</g>
	<g>
		<path class="st3" d="M402.1,449c0.2,1,0.8,1.9,1.7,2.5c0.3,0.2,0.5-0.3,0.3-0.4c-0.8-0.5-1.3-1.2-1.4-2.1
			C402.5,448.5,402,448.6,402.1,449L402.1,449z"/>
	</g>
	<g>
		<path class="st3" d="M327.4,499.3c0,0.7,0,1.5,0.1,2.2c0.2,0.8,0.6,1.5,1,2.1c0.5,0.9,1.8,0.1,1.3-0.8c-0.3-0.6-0.7-1.1-0.8-1.8
			c-0.1-0.6-0.1-1.2-0.1-1.8C329,498.3,327.4,498.4,327.4,499.3L327.4,499.3z"/>
	</g>
</g>
<path class="st5" d="M332.9,544.2c-8.5,2.2-13.1,6.1-14.8,13.7c-0.4,1.6,0.4,9.3,1.6,12.4c1.7,4.5,7.4,9.4,9.7,10.4
	c5.9,2.6,11.7,4.5,17.2,4.5c5.1-0.1,10-1.2,14.7-3.4c6.7-3.1,13-6.4,14.2-15.9c0.3-2.2-0.8-11.2-2-13.8c-4.2-8.7-15.8-10.1-25.2-8.3
	C344,544.4,336.1,543.1,332.9,544.2"/>
<path class="st1" d="M357.9,544.4c-2.9-0.8-4.6-1.2-7-0.3c-0.6,0.2-2.5,0.7-3.1,1c-1.1,0.6-2.9,1.4-3.5,1.3
	c-1.1-0.2-0.8,0.1-1.9-0.4c-0.9-0.4-2.8-1.5-3.7-1.9c-1.9-1-4.7-0.3-6.9,0.1c-1,0.1-4.9,1.4-5.2,0.7c-0.5-1,3-4,4.3-4.2
	c2.7-0.4,4.8-0.8,7.6-0.5c1.1,0.1,1.8,0.5,2.7,1.2c0.3,0.2,1,1.2,1.2,1.3c-0.1-0.2,0.1-0.8-0.6-1.6c-0.5-0.7-1.3-1.5-2.9-2.6
	c-1.1-0.8-2.8-1.8-4.3-2.8l-0.8-1.3c0-0.6,3.8,0.2,4.4,0.4c2.7,0.6,3.1,0.9,4.5,2.1c0.8,0.6,1.2,1.5,1.7,2.3
	c0.5,0.8,0.9,1.9,1.6,2.5c0.1,0,0.1,0.1,0.2,0.1c1.7-0.6,4.1-1.4,5.9-1.7c2.1-0.3,4.9,0.3,7,0.8c1.2,0.3,3.8,0.8,3.4,1.8
	C362.5,543.6,359,544.7,357.9,544.4z"/>
<path class="st1" d="M344.7,543.4c0,0,2.7-5.7,4.1-8c1.4-2.2,4.7-3.3,4.7-3.3s0.6,1.2,0.2,2.8c-0.4,1.5-2.2,3.5-3,4.6
	c-0.7,1.1-3.6,4.7-3.6,4.7L344.7,543.4z"/>
<g>
	<path class="st4" d="M344.3,642.9c0-1.8,0.3-3.4,0.4-4.9c0.1-0.6-1.1,0.3-1.1-2.1s1.6-1.6,1.5-2.3c-0.2-1.6,0.3-2.5-0.8-2.6
		c-1.7-0.2-3.5-0.3-3.7-2.5c-0.2-2.3,1.1-3.4,3.1-3.4c1.8,0,1.2-2,0.9-4.5l-86.9,17.9c0.4,1.3,0.6,2.5,0.7,3.8
		c0.1,1.3,0.1,2.5,0.1,3.8c1.3,0.8,2.4,2.4,2.4,3.5c0,2.4-1.4,2.9-2.6,3.8c-0.1,1,0,1.7,0.6,4.8c0.1,0.4,0.2,0.9,0.5,1.2
		c0.7,0.8,1.9,0.6,3,0.4c4.6-1.1,6.9-1.5,11.6-1.4c2.3,0.1,4.6,0.5,6.9,0.1c0.5-0.1-0.1-1.8,1.4-2.2c1.8-0.4,1.4,1.8,2,1.7
		c2.7-0.4,5.9-0.8,7.5-1.2c4-0.9,8.7-0.7,12.7,0c1.5,0.2,3.3,0.1,5.4-0.1c1-0.1,0.4-2.7,4.3-2.9c3.4-0.2,3.2,2.1,4.3,2
		c1.9-0.2,1.6-0.2,3.7-0.3c6.5-0.2,6.7-0.9,13.2-1.1c2.7-0.1,4.5-1.7,7.2-2.2c0.8-0.1,1.7-0.4,2.2-1c0.4-0.5,0.5-1.2,0.5-1.8
		C345.3,647.8,344.4,645,344.3,642.9z M265.5,656.6c-1,0-2.7,0.6-3.5,0.3c-0.7-0.2-0.6-1.5-0.2-2.3c0.4-0.8,1.9-1,1.9-1
		s2.4,0.1,2.8,0.6C266.9,654.8,266.4,656.6,265.5,656.6z M280.5,646c-0.8,0-2.4,1-3,0.6c-0.6-0.4-3.4-1.6-3-3
		c0.4-1.4,4.5-2.8,4.5-2.8s2.1,0.1,2.4,1.1C281.8,642.9,281.4,646,280.5,646z M298.6,651.3c-1.8,0-3.1,1.5-4.4,1.1
		c-1.4-0.5-2.3-1.7-1.5-3.2c0.8-1.5,4.1-3.5,4.1-3.5s3.4-0.3,4.1,0.8C301.7,647.5,300.4,651.3,298.6,651.3z M316.5,639.1
		c-1.8,0-3.2,1-4.6,0.6s-1.3-4.6-0.6-6c0.8-1.4,3.5-1.7,3.5-1.7s4.5,0.1,5.3,1.1C320.8,634.1,318.3,639.1,316.5,639.1z M337.2,648.7
		c-1.8,0-5.2,1.1-6.6,0.6c-1.4-0.5-1.1-2.9-0.3-4.4s3.5-1.8,3.5-1.8s4.6,0.2,5.4,1.2C340,645.3,339.1,648.7,337.2,648.7z"/>
</g>
<path class="st5" d="M257.5,637.4c2.8-2,10.3-4.5,10.1-4.4c-2.1,1,5.2-3.2,7.2-4.3c2.4-1.3,4.5-2.6,8-4.3c1.5-0.8,4-1.2,5.5-1.9
	c2.4-1.2,3.7-2.5,5.5-3.3c2.5-1.1,6.3-2.1,8-2.7c3.3-1.2,4-1.7,8.5-3.7c1.2-0.5,2.9-1.8,4.3-1.9c1.4-0.1,4.6,0.2,5.9,0.6
	c2.7,0.9,6.9,2.8,9.6,3.6c5.6,1.8,7.9,2.7,13.5,4.5c1,0.5,0.4,1.6-0.6,1.8c-2.3,0.5-4.5,0.2-6.5,0.5c-1.9,0.3-3.8,1.4-5.7,1.7
	c-2.1,0.4-3.2,0.6-5.6,1.1c-2,0.4-4.1,1-6.1,1.4c-1.4,0.2-3.9,0.4-5.4,0.6c-2.9,0.5-5.5,1.9-8.3,2.4c-2.1,0.4-4.5,0.5-8.6,1.5
	c-2.8,0.7-6,1.6-8.4,2.1c-1.6,0.4-6.5,0.6-7.5,0.8c-3.6,0.7-3.5,1.5-6.1,2.1c-2.4,0.6-4.8,0.4-7.4,1.1c-2.1,0.5-5.2,1.8-8,2.4
	C259.3,639.3,255.2,639,257.5,637.4z"/>
<g>
	<path class="st6" d="M134.2,446c0,0-0.2-0.3,2.2,2.6c2.2,2.6,4.8,18.4,0.1,24.9c-2.6,3.5-7.8,10.7-13,12.8c-2.6,1-17.8,4.9-25,3.7
		c-4-0.7-10.2-3.1-15.3-2.7c-5.1,0.4-13.1,0.6-18.6,0.8c-6.2,0.2-15.6-4-17.2-6.8c-1.6-2.7-0.6-9.4-0.6-9.4s16.8-6.5,18.2-6.5
		c1.5,0,40.8-16.4,42.3-17.1C108.7,447.4,134.2,446,134.2,446z"/>
	<path class="st5" d="M134.1,464.9c1.4-2.3,3-6.1,3.1-8.1c0.3-5.9-1.4-11.5-5.5-15c-4.4-3.7-10-4.8-15.7-5.8
		c-5.9-1.1-12.8-1.2-18.6,0.4c-7.6,2-13.9,14.8-20.8,18.6s-15,4.6-21.5,6.2c-6.9,4.4-5.8,5.4-7.3,8.4c-1.5,2.9,1.2,5.9,3.7,8
		c2.5,2.1,5.8,2.9,9,3.5c14.2,2.7,20.5-2.6,34.3,1.6c8.4,2.6,18.6-0.7,24.8-3.3c6.2-2.6,6.6-4.6,13.5-13.1
		C133.4,465.9,133.7,465.4,134.1,464.9z"/>
	<path class="st7" d="M86.9,461.7c0,0,6.6-2.3,10-4.1c3.4-1.7,6.8-2.6,6.4-4.1c-0.3-1.5-3.1-4.4-3.6-5.6c-0.5-1.2-0.3-3.3,1.7-1.3
		s3.2,3.3,4.8,5.4c1.8,2.3,3,3.7,5.2,5.2c2.4,1.3,4.8,2.9,5.8,3.3c1,0.4,0.7,2.5-0.7,1.9c-1.4-0.5-3.9-1.3-5.8-2.4s-2.6-2.8-4.7-2.7
		c-2.2,0.1-4.6,2.2-8.2,3.5c-3.6,1.3-6,2.1-9.3,2.9c-3.3,0.7-7,3.3-8.4,1.6C79.5,464.4,81.6,463.3,86.9,461.7z"/>
</g>
<g>
	<path class="st4" d="M136.5,646.4l9.9,21.8c0,0,1.5,4.5,5.4,2.7c2.8-1.2,2.8-2.2,0.8-6.5c-1.9-4.3-9.1-20.2-9.1-20.2L136.5,646.4z"
		/>
	<path class="st7" d="M131.2,655.4c0,0-3.7,2.1-8.7-7.8c-3.1-6.2-13.8-34.5-13.8-38.7c0-4.2,1.5-12.9,9-15.3
		c10.3-3.3,15.8,1.8,19.9,8.8c4.1,7,14.4,28.6,15.9,33.1c1.5,4.5,3.3,9.3-1.8,11.6C146.7,649.3,131.2,655.4,131.2,655.4z"/>
	<path class="st1" d="M122.5,647.6c-3.1-6.2-13.8-34.5-13.8-38.7c0-4.2,1.5-12.9,9-15.3c10.3-3.3,15.8,1.8,19.9,8.8
		c4.1,7,14.4,28.6,15.9,33.1C146.5,638.9,132.5,646,122.5,647.6z"/>
</g>
<g>
	<path class="st6" d="M49,619.3c0,0-0.3,3.1-0.4,4.1c0,1-0.2,4.6-0.2,4.6s-9.4-5.4-10.2-5.9c-0.8-0.5,1.9-7.5,1.9-7.5l9.3,1.5
		L49,619.3z"/>
	<path class="st6" d="M48.4,628c0,0,19.4-2.6,20.4-2.7c1-0.2-2.3-8.8-2.3-8.8l-10.8-1.8l-7.5,1.2L48.4,628z"/>
	<path class="st5" d="M42.6,616.3c0,0,1.1,0.5,1.7,0.8s4.3,1.9,4.7,2.3c0.4,0.4,5.3-0.7,7.3-0.9c2-0.2,5.7-1.3,6.7-1.5
		c1-0.2,2.6-0.2,3.5-0.5c-1.6-1-4.7-2-6.2-3.1c-1.5-1-2.8-1.5-4.1-1.9c-0.5-0.2-3.8,0.6-7.6,1.4c-3.8,0.8-8.2,1.6-8.6,1.7
		C39.4,615,42.6,616.3,42.6,616.3z"/>
	<path class="st6" d="M63.5,627.7c0,0,1.6,3.3,1.6,4.3s-1.6,5.2-1.6,5.2s-10-6.3-10.8-6.8c-0.8-0.5,1.9-7.5,1.9-7.5l9.3,1.5
		L63.5,627.7z"/>
	<path class="st6" d="M63.5,637.3c0,0,18-5.1,19-5.2c1-0.2-1.4-7.2-1.4-7.2l-10.8-1.8l-7.5,1.2L63.5,637.3z"/>
	<path class="st5" d="M57.1,624.7c0,0,1.1,0.5,1.7,0.8c0.6,0.3,4.3,1.9,4.7,2.3c0.4,0.4,5.3-0.7,7.3-0.9c2-0.2,5.7-1.3,6.7-1.5
		c1-0.2,2.6-0.2,3.5-0.5c-1.6-1-4.7-2-6.2-3.1c-1.5-1-2.8-1.5-4.1-1.9c-0.5-0.2-3.8,0.6-7.6,1.4s-8.2,1.6-8.6,1.7
		C53.9,623.4,57.1,624.7,57.1,624.7z"/>
	<path class="st6" d="M27.6,624.6c0,0-0.3,3.1-0.4,4.1s-0.2,4.6-0.2,4.6s-9.4-5.4-10.2-5.9c-0.8-0.5,1.9-7.5,1.9-7.5l9.3,1.5
		L27.6,624.6z"/>
	<path class="st6" d="M27,633.3c0,0,19.4-2.6,20.4-2.7s-2.3-8.8-2.3-8.8L34.3,620l-7.5,1.2L27,633.3z"/>
	<path class="st5" d="M21.9,620.8c0,0,1.1,0.5,1.7,0.8c0.6,0.3,4.3,1.9,4.7,2.3s5.3-0.7,7.3-0.9c2-0.2,5.7-1.3,6.7-1.5
		c1-0.2,2.6-0.2,3.5-0.5c-1.6-1-4.7-2-6.2-3.1c-1.5-1-2.8-1.5-4.1-1.9c-0.5-0.2-3.8,0.6-7.6,1.4c-3.8,0.8-8.2,1.6-8.6,1.7
		C18.7,619.5,21.9,620.8,21.9,620.8z"/>
	<path class="st6" d="M42.1,633c0,0,1.6,3.3,1.6,4.3s-1.6,5.2-1.6,5.2s-10-6.3-10.8-6.8c-0.8-0.5,1.9-7.5,1.9-7.5l9.3,1.5L42.1,633z
		"/>
	<path class="st6" d="M42.1,642.5c0,0,18-5.1,19-5.2s-1.4-7.2-1.4-7.2l-10.8-1.8l-7.5,1.2L42.1,642.5z"/>
	<path class="st5" d="M35.7,630c0,0,1.1,0.5,1.7,0.8s4.3,1.9,4.7,2.3c0.4,0.4,5.3-0.7,7.3-0.9c2-0.2,5.7-1.3,6.7-1.5
		c1-0.2,2.6-0.2,3.5-0.5c-1.6-1-4.7-2-6.2-3.1c-1.5-1-2.8-1.5-4.1-1.9c-0.5-0.2-3.8,0.6-7.6,1.4c-3.8,0.8-8.2,1.6-8.6,1.7
		C32.4,628.7,35.7,630,35.7,630z"/>
	<path class="st6" d="M6.1,629.9c0,0-0.3,3.1-0.4,4.1c0,1-0.2,4.6-0.2,4.6s-9-1.4-9.9-1.9c-0.8-0.5,1.6-11.5,1.6-11.5l9.3,1.5
		L6.1,629.9z"/>
	<path class="st6" d="M5.5,638.6c0,0,19.4-2.6,20.4-2.7c1-0.2-2.3-8.8-2.3-8.8l-10.8-1.8l-7.5,1.2L5.5,638.6z"/>
	<path class="st5" d="M0.4,626.1c0,0,1.1,0.5,1.7,0.8c0.6,0.3,4.3,1.9,4.7,2.3s5.3-0.7,7.3-0.9s5.7-1.3,6.7-1.5
		c1-0.2,2.6-0.2,3.5-0.5c-1.6-1-4.7-2-6.2-3.1c-1.5-1-2.8-1.5-4.1-1.9c-0.5-0.2-3.8,0.6-7.6,1.4s-8.2,1.6-8.6,1.7
		C-2.8,624.8,0.4,626.1,0.4,626.1z"/>
	<path class="st6" d="M20.6,638.3c0,0,1.6,3.3,1.6,4.3s-1.6,5.2-1.6,5.2s-10-6.3-10.8-6.8c-0.8-0.5,1.9-7.5,1.9-7.5l9.3,1.5
		L20.6,638.3z"/>
	<path class="st6" d="M20.6,647.8c0,0,18-5.1,19-5.2c1-0.2-1.4-7.2-1.4-7.2l-10.8-1.8l-7.5,1.2L20.6,647.8z"/>
	<path class="st5" d="M14.2,635.2c0,0,1.1,0.5,1.7,0.8c0.6,0.3,4.3,1.9,4.7,2.3c0.4,0.4,5.3-0.7,7.3-0.9s5.7-1.3,6.7-1.5
		c1-0.2,2.6-0.2,3.5-0.5c-1.6-1-4.7-2-6.2-3.1c-1.5-1-2.8-1.5-4.1-1.9c-0.5-0.2-3.8,0.6-7.6,1.4c-3.8,0.8-8.2,1.6-8.6,1.7
		C11,634,14.2,635.2,14.2,635.2z"/>
	<path class="st6" d="M20.8,639.1l-0.3,11.8l62.2-15.3l-0.1-5.1l-5.8-1.8c0,0-49.4,13.5-49.9,13.7C26.4,642.4,20.8,639.1,20.8,639.1
		z"/>
	<polygon class="st6" points="20.5,650.8 -4.3,636.7 1.4,632.3 25.8,645 	"/>
</g>
<g>
	<path class="st8" d="M-8.7,558.2c12.8-2,33.8-9.5,40.1-12.4s12.9-4.1,19.1-4.3c7.2-0.2,14.9,1.6,17.3,5.4
		c2.6,4.2,3.2,15.3,4.4,18.7c1.3,3.4,3.6,5.6,4.6,2.9c1-2.7,3.6-13.9,5.8-16.2c2.2-2.3,9-2.9,12-4.5s5.5-4.4-1.3-5.6
		c-6.9-1.3-17.2-1-18.7-2.4c-1.6-1.5-8.1-18.2-30.5-21.5c-10.2-1.5-10.1-0.3-9.2-2.1c1.8-3.9,4-4.9,2.7-6.3
		c-1.3-1.3-21.8,1.2-23.1,2.3c-1.3,1.2-5.4,5-5.4,5s-13.7,1.7-21.4,7.3C-19.7,529.8-9.9,542.6-8.7,558.2z"/>
	<path class="st6" d="M-25.5,550.6c1.9-0.4,6.9-0.1,8.5-0.2c-2.8-1.4-5.3-2-8.7-1.7c-3.2,0.2-4.7,1.2-5.7,0c-0.6-0.8,0.6-6.9,1.4-9
		c3-7.6,9.6-12.4,17.8-15.2c6.2-2.1,16.4,31.7,3.6,33.7s-19.9-2.7-19.9-2.7c-1.1-0.5-3.4-2.7-2.1-3.3
		C-29.3,551.6-29.6,551.5-25.5,550.6z"/>
	<path class="st1" d="M-16.3,540.2c1.6,0.4,2.4-1.1,2.4-1.8c0-0.7-0.6-1.8-1.6-1.8s-1.7,0.4-2,1.1C-17.9,539.2-17.1,540-16.3,540.2z
		"/>
	<path class="st6" d="M12.5,542.6c0,0,9.5,0.9,14.3-2s14.8-11.3,14.8-11.3s-0.2-3-9.1,0.4s-14.9,4.4-16.9,5.4
		C13.4,536.2,9.2,542.8,12.5,542.6z"/>
</g>
<g>
	<g>
		<path class="st2" d="M155.8,555.7h-8.1v2.8h6.5v3.8h-6.5v5.9h-5v-16.3h13.1V555.7z"/>
		<path class="st2" d="M161.9,555.6c1.3,0,2.5,0.3,3.5,0.8c1,0.5,1.8,1.2,2.3,2.2c0.6,1,0.8,2.1,0.8,3.5c0,1.3-0.3,2.5-0.8,3.5
			c-0.6,1-1.3,1.7-2.3,2.2c-1,0.5-2.2,0.8-3.5,0.8c-1.3,0-2.5-0.3-3.5-0.8c-1-0.5-1.8-1.2-2.4-2.2c-0.6-1-0.8-2.1-0.8-3.5
			c0-1.4,0.3-2.5,0.8-3.5c0.6-1,1.4-1.7,2.4-2.2S160.5,555.6,161.9,555.6z M161.9,559c-0.4,0-0.7,0.1-0.9,0.3s-0.4,0.5-0.6,0.9
			c-0.1,0.4-0.2,1-0.2,1.8c0,0.7,0.1,1.3,0.2,1.8c0.1,0.4,0.3,0.7,0.6,0.9c0.3,0.2,0.6,0.3,0.9,0.3c0.4,0,0.7-0.1,0.9-0.3
			c0.2-0.2,0.4-0.5,0.6-0.9c0.1-0.4,0.2-1,0.2-1.8c0-0.7-0.1-1.3-0.2-1.8c-0.1-0.4-0.3-0.8-0.6-0.9C162.5,559.1,162.2,559,161.9,559
			z"/>
		<path class="st2" d="M176,555.6c1.3,0,2.5,0.3,3.5,0.8c1,0.5,1.8,1.2,2.3,2.2c0.6,1,0.8,2.1,0.8,3.5c0,1.3-0.3,2.5-0.8,3.5
			c-0.6,1-1.3,1.7-2.3,2.2c-1,0.5-2.2,0.8-3.5,0.8c-1.3,0-2.5-0.3-3.5-0.8c-1-0.5-1.8-1.2-2.4-2.2c-0.6-1-0.9-2.1-0.9-3.5
			c0-1.4,0.3-2.5,0.9-3.5c0.6-1,1.4-1.7,2.4-2.2C173.5,555.8,174.7,555.6,176,555.6z M176,559c-0.4,0-0.7,0.1-0.9,0.3
			c-0.3,0.2-0.4,0.5-0.6,0.9c-0.1,0.4-0.2,1-0.2,1.8c0,0.7,0.1,1.3,0.2,1.8c0.1,0.4,0.3,0.7,0.6,0.9c0.3,0.2,0.6,0.3,0.9,0.3
			c0.4,0,0.7-0.1,0.9-0.3c0.2-0.2,0.4-0.5,0.6-0.9c0.1-0.4,0.2-1,0.2-1.8c0-0.7-0.1-1.3-0.2-1.8c-0.1-0.4-0.3-0.8-0.6-0.9
			C176.7,559.1,176.4,559,176,559z"/>
		<path class="st2" d="M188.4,568.4c-1,0-1.9-0.3-2.6-0.8c-0.7-0.5-1.3-1.2-1.7-2.2c-0.4-1-0.6-2.1-0.6-3.4c0-1.4,0.2-2.5,0.6-3.5
			c0.4-1,1-1.7,1.7-2.2c0.7-0.5,1.6-0.8,2.6-0.8c1.2,0,2.1,0.4,2.7,1.1c0.7,0.7,1.1,1.7,1.3,2.8l-0.4,0.6v-8.3h5v16.4h-4.5l-0.3-4.6
			l0.6,0.6c-0.1,0.8-0.3,1.6-0.7,2.2c-0.4,0.6-0.9,1.2-1.5,1.5C189.9,568.2,189.2,568.4,188.4,568.4z M190.3,564.8
			c0.4,0,0.7-0.1,0.9-0.3c0.2-0.2,0.4-0.5,0.6-1c0.1-0.4,0.2-1,0.2-1.6c0-0.6-0.1-1.1-0.2-1.5c-0.1-0.4-0.3-0.7-0.6-0.9
			c-0.3-0.2-0.6-0.3-0.9-0.3c-0.5,0-1,0.2-1.3,0.6c-0.3,0.4-0.5,1.2-0.5,2.2c0,1.1,0.2,1.8,0.5,2.2
			C189.3,564.6,189.7,564.8,190.3,564.8z"/>
		<path class="st2" d="M213.4,551.9v3.8h-5.2v12.5h-5v-12.5H198v-3.8H213.4z"/>
		<path class="st2" d="M217.1,568.4c-0.8,0-1.6-0.1-2.2-0.4c-0.6-0.3-1.1-0.7-1.4-1.4c-0.3-0.6-0.5-1.5-0.5-2.5v-8.3h5v7.1
			c0,0.6,0.1,1.1,0.3,1.3c0.2,0.3,0.6,0.4,1,0.4c0.2,0,0.4,0,0.6-0.1c0.2-0.1,0.4-0.2,0.5-0.4c0.1-0.2,0.2-0.4,0.3-0.7
			c0.1-0.3,0.1-0.6,0.1-1v-6.6h5v12.3h-4.5l-0.1-2.5c-0.4,0.9-0.9,1.6-1.6,2C219,568.2,218.1,568.4,217.1,568.4z"/>
		<path class="st2" d="M227.7,568.1v-12.3h4.5l0.2,4.8l-0.5-0.5c0.1-1,0.4-1.8,0.8-2.4c0.4-0.7,0.9-1.2,1.6-1.5
			c0.6-0.3,1.4-0.5,2.3-0.5c0.8,0,1.6,0.2,2.2,0.5c0.6,0.3,1.1,0.8,1.4,1.4c0.3,0.6,0.5,1.4,0.5,2.3v8.3h-5v-7
			c0-0.7-0.1-1.2-0.3-1.4c-0.2-0.3-0.5-0.4-0.9-0.4c-0.3,0-0.6,0.1-0.9,0.2c-0.3,0.2-0.5,0.4-0.6,0.8c-0.1,0.3-0.2,0.8-0.2,1.4v6.5
			H227.7z"/>
		<path class="st2" d="M248.7,568.4c-1.4,0-2.6-0.3-3.7-0.8c-1-0.5-1.8-1.2-2.4-2.2c-0.5-1-0.8-2.1-0.8-3.5c0-1.4,0.3-2.5,0.8-3.5
			c0.6-1,1.3-1.7,2.3-2.2c1-0.5,2.2-0.8,3.5-0.8c1.3,0,2.5,0.3,3.4,0.8c0.9,0.5,1.7,1.2,2.2,2.1c0.5,0.9,0.8,1.9,0.8,3.1
			c0,0.3,0,0.6,0,0.8c0,0.3-0.1,0.5-0.1,0.7H245v-2.2h7.5l-2.4,0.9c0-0.9-0.1-1.6-0.4-2.1s-0.7-0.7-1.3-0.7c-0.4,0-0.8,0.1-1.1,0.3
			c-0.3,0.2-0.5,0.5-0.6,1c-0.1,0.5-0.2,1.1-0.2,1.8s0.1,1.4,0.3,1.8c0.2,0.4,0.4,0.7,0.7,0.9c0.3,0.2,0.7,0.2,1.2,0.2
			c0.5,0,0.9-0.1,1.2-0.3c0.3-0.2,0.5-0.5,0.6-0.9l4,1.2c-0.2,0.8-0.6,1.4-1.2,1.9c-0.6,0.5-1.3,0.9-2.1,1.1
			C250.4,568.3,249.6,568.4,248.7,568.4z"/>
		<path class="st2" d="M261.5,568.4c-1.2,0-2.4-0.2-3.5-0.5c-1.1-0.4-2-0.9-2.8-1.6l2-2.6c0.4,0.4,1,0.8,1.7,1.2
			c0.7,0.3,1.4,0.5,2.2,0.5c0.4,0,0.7-0.1,1-0.1c0.3-0.1,0.4-0.3,0.4-0.5c0-0.2-0.1-0.3-0.2-0.4c-0.1-0.1-0.4-0.2-0.9-0.3l-1.3-0.2
			c-1.7-0.3-2.9-0.8-3.6-1.4c-0.7-0.6-1-1.5-1-2.5c0-0.7,0.2-1.3,0.6-2c0.4-0.6,1.1-1.2,2-1.6c0.9-0.4,2.1-0.6,3.5-0.6
			c1.3,0,2.4,0.2,3.4,0.5c1,0.3,1.8,0.8,2.4,1.4l-1.9,2.6c-0.4-0.4-1-0.8-1.7-1c-0.7-0.2-1.3-0.4-1.9-0.4c-0.3,0-0.6,0-0.8,0.1
			c-0.2,0.1-0.4,0.1-0.5,0.2c-0.1,0.1-0.2,0.2-0.2,0.4c0,0.2,0.1,0.3,0.3,0.4s0.5,0.2,1,0.3l2,0.3c1.3,0.2,2.2,0.7,2.8,1.3
			c0.6,0.6,0.9,1.4,0.9,2.3c0,0.8-0.2,1.5-0.6,2.2c-0.4,0.7-1.1,1.2-2,1.6C264.1,568.2,262.9,568.4,261.5,568.4z"/>
	</g>
	<g>
		<path d="M270.6,555.7c-0.5,0-1-0.1-1.3-0.3c-0.4-0.2-0.7-0.5-0.9-0.9c-0.2-0.4-0.3-0.8-0.3-1.3c0-0.5,0.1-0.9,0.3-1.3
			c0.2-0.4,0.5-0.7,0.9-0.9c0.4-0.2,0.8-0.3,1.3-0.3c0.5,0,1,0.1,1.3,0.3c0.4,0.2,0.7,0.5,0.9,0.9c0.2,0.4,0.3,0.8,0.3,1.3
			c0,0.5-0.1,0.9-0.3,1.3c-0.2,0.4-0.5,0.7-0.9,0.9C271.5,555.5,271.1,555.7,270.6,555.7z M270.6,555.4c0.4,0,0.8-0.1,1.2-0.3
			c0.3-0.2,0.6-0.5,0.8-0.8c0.2-0.3,0.3-0.7,0.3-1.2c0-0.4-0.1-0.8-0.3-1.2c-0.2-0.3-0.4-0.6-0.8-0.8c-0.3-0.2-0.7-0.3-1.2-0.3
			c-0.4,0-0.8,0.1-1.2,0.3c-0.3,0.2-0.6,0.5-0.8,0.8c-0.2,0.3-0.3,0.7-0.3,1.2c0,0.4,0.1,0.8,0.3,1.2c0.2,0.3,0.4,0.6,0.8,0.8
			C269.8,555.3,270.2,555.4,270.6,555.4z M270.7,554.5c-0.4,0-0.8-0.1-1-0.4c-0.2-0.3-0.4-0.6-0.4-1c0-0.4,0.1-0.8,0.4-1
			c0.2-0.3,0.6-0.4,1-0.4c0.3,0,0.5,0.1,0.7,0.2c0.2,0.1,0.3,0.3,0.4,0.5l-0.3,0.1c-0.1-0.2-0.2-0.3-0.3-0.4
			c-0.1-0.1-0.3-0.1-0.6-0.1c-0.3,0-0.6,0.1-0.8,0.3c-0.2,0.2-0.3,0.5-0.3,0.8c0,0.3,0.1,0.6,0.3,0.8c0.2,0.2,0.4,0.3,0.8,0.3
			c0.2,0,0.4-0.1,0.6-0.2c0.2-0.1,0.3-0.3,0.3-0.5l0.3,0.1c-0.1,0.2-0.2,0.4-0.4,0.6C271.2,554.4,271,554.5,270.7,554.5z"/>
	</g>
</g>
<g>
	<path class="st4" d="M344.8,58.3c0.7-1.3,1.5-2.4,2.4-3.3c1.4-1.4,2.4-3.1,4.5-4.1c3.6-1.9,8.4-1.5,12.3-2.4
		c3.6-0.8,6.9-2.2,10.3-4c6.9-3.6,10-6.4,14.8-12.6c1.5-2,3.7-4.1,5.7-6.9c2-2.8,3.8-6.4,5.7-8c2.2-2,6.8-1.6,9.5-2.9
		c1,2.9,2,7.1,1.1,10c-1,3.3-2,7.5-3.1,10.1c-3.5,7.6-8.1,11.1-16.1,17.6c-3.7,3-8.3,5.7-13,7.7c-2.8,1.2-11.3,2.7-14.6,3.3
		c-7.8,1.5-11.4,0.5-18.3-1.5C345.3,61.1,344.4,58.4,344.8,58.3"/>
	<g>
		<path class="st4" d="M408.8,21.5c2.7-4.2,6.2-11.5,3-16.2c-1.4-2-4.5-0.8-4,1.7c1.2,5.1-1.3,9.9-4.5,13.8
			c-1.8,2.1,1.3,5.2,3.1,3.1c4.3-5.2,7.1-11.3,5.6-18c-1.3,0.6-2.6,1.1-4,1.7c2.2,3.2-1.2,9.1-3,11.8
			C403.5,21.7,407.3,23.9,408.8,21.5L408.8,21.5z"/>
	</g>
	<g>
		<path class="st3" d="M407.3,15.4c0.1,0.9,0.7,1.6,1.4,2.1c0.2,0.1,0.5-0.2,0.2-0.4c-0.7-0.4-1.1-1-1.2-1.8
			C407.7,15,407.2,15.2,407.3,15.4L407.3,15.4z"/>
	</g>
	<g>
		<path class="st3" d="M344.5,57.8c0,0.6,0,1.2,0.1,1.8c0.1,0.7,0.5,1.2,0.8,1.8c0.4,0.7,1.6,0.1,1.1-0.7c-0.3-0.5-0.6-0.9-0.7-1.5
			c-0.1-0.5-0.1-1-0.1-1.5C345.9,56.9,344.6,56.9,344.5,57.8L344.5,57.8z"/>
	</g>
</g>
<g>
	<path class="st7" d="M287.2,49.4c-4.1,1.9-4,2.3-8,4.4c-5.4,2.8-17.2,8.2-23.2,8.5c-0.7,0-1.4,0-2.1-0.3c-1.2-0.6-2.3-1.6-2.2-3.1
		l0,0c-0.5-0.8,0-3.1,0.8-3.7c1.7-1.4,11.2-3.9,15.2-4.9c4.6-1.2,9.1-1.9,10.8-3l14.6-6.6C300,43.9,289.6,48.3,287.2,49.4z"/>
	<path class="st1" d="M343.4,33.9c-9.5-0.6-29,6-38,8.3c-2.9,0.7-10.8,3.5-19.4,8.1c-2.6,1.4-3.7,2.4-5.9,3.1c2.8-4,1.1-5.5-2.7-5.5
		c8-3.9,16.1-9.5,22.7-15.3c6.1-5.4,20.1-20.7,26.3-26.1c2.2,1.7,4,2.5,3.4,4.6c-2.6,2.2-26.1,24.1-28.4,26.7
		c2.9-2,18-14.6,21.2-16.1c3.5-1.6,15.4-9.7,19.1-10.9c1.9,1.1,1.9,2.6,2.1,5.3c-3.7,1.2-15.9,9.2-19.4,11
		c-4.1,2.1-7.8,4.9-11.7,7.5c8.7-3.1,23.2-6.4,32.5-6.3C344.9,29.6,344.5,31.7,343.4,33.9z"/>
	<g>
		<path class="st3" d="M252.7,59.4c-0.8,0.3-1.6,0.7-2.3,1.2c-0.2,0.1,0,0.4,0.2,0.3c0.7-0.5,1.4-0.8,2.2-1.1
			C253,59.7,252.9,59.3,252.7,59.4L252.7,59.4z"/>
	</g>
	<g>
		<path class="st3" d="M251.7,58.5c-0.8,0.1-1.5,0.2-2.3,0.2c-0.2,0-0.2,0.4,0,0.4c0.8-0.1,1.5-0.2,2.3-0.2
			C251.9,58.9,251.9,58.5,251.7,58.5L251.7,58.5z"/>
	</g>
	<g>
		<path class="st3" d="M251.6,57.2c-0.7-0.2-1.4-0.5-2.1-0.7c-0.2-0.1-0.3,0.3-0.1,0.4c0.7,0.2,1.4,0.5,2.1,0.7
			C251.8,57.6,251.9,57.2,251.6,57.2L251.6,57.2z"/>
	</g>
	<g>
		<path class="st3" d="M253.3,60.9c-0.4,0.7-0.9,1.2-1.5,1.8c-0.2,0.2,0.1,0.4,0.3,0.3c0.6-0.5,1.1-1.2,1.5-1.8
			C253.8,60.9,253.5,60.7,253.3,60.9L253.3,60.9z"/>
	</g>
</g>
<g>
	<path class="st5" d="M348.4,179c-7.2,1.8-11.2,5.1-12.4,11.5c-1.6,11.2,3,23.2,23.9,22.9c20.9-0.3,23.1-8.3,24.3-16.3
		c0.6-4.6-0.6-9.4-1.7-11.6c-3.5-7.3-13.2-8.5-21.2-7C357.8,179.1,351.1,178,348.4,179"/>
	<path class="st1" d="M369.5,179.1c-2.5-0.7-3.8-1-5.9-0.3c-0.5,0.2-2.1,0.6-2.6,0.8c-0.9,0.5-2.5,1.2-3,1.1
		c-0.9-0.2-0.7,0.1-1.6-0.3c-0.7-0.3-2.4-1.2-3.1-1.6c-1.6-0.8-4-0.2-5.8,0c-0.8,0.1-4.1,1.2-4.4,0.6c-0.4-0.8,2.5-3.4,3.6-3.6
		c2.3-0.3,4-0.7,6.4-0.4c0.9,0.1,1.5,0.4,2.3,1c0.2,0.2,0.8,1,1,1.1c-0.1-0.2,0.1-0.6-0.5-1.3c-0.4-0.5-1.1-1.2-2.4-2.1
		c-0.9-0.6-2.4-1.5-3.6-2.4l-0.7-1.1c0-0.5,3.2,0.2,3.7,0.3c2.2,0.5,2.6,0.7,3.8,1.8c0.6,0.5,1,1.2,1.5,1.9c0.4,0.6,0.7,1.6,1.3,2.1
		c0,0,0.1,0.1,0.1,0.1c1.4-0.5,3.5-1.2,5-1.4c1.8-0.2,4.1,0.2,5.9,0.7c1,0.3,3.2,0.7,2.8,1.5C373.3,178.4,370.3,179.4,369.5,179.1z"
		/>
	<path class="st1" d="M358.6,177.4c0,0,2.2-4.8,3.4-6.7c1.2-1.9,3.9-2.7,3.9-2.7s0.5,1,0.2,2.3c-0.3,1.3-1.9,2.9-2.5,3.9
		c-0.6,0.9-3,3.9-3,3.9L358.6,177.4z"/>
</g>
<g>
	<g>
		<path class="st4" d="M343.6,94.9c0-1.5,0.2-2.9,0.3-4.1c0-0.5-0.9,0.3-0.9-1.8s1.4-1.3,1.3-1.9c-0.2-1.3,0.3-2.1-0.6-2.2
			c-1.4-0.1-3-0.2-3.1-2.1c-0.1-1.9,0.9-2.8,2.6-2.8c1.5,0,1-1.7,0.7-3.8l-73,15.1c0.3,1.1,0.5,2.1,0.6,3.2c0.1,1.1,0.1,2.1,0.1,3.2
			c1.1,0.6,2,2,2,3c0,2-1.2,2.4-2.2,3.2c-0.1,0.9,0,1.4,0.5,4c0.1,0.4,0.2,0.7,0.4,1c0.6,0.7,1.6,0.5,2.5,0.3c3.9-1,5.8-1.3,9.7-1.2
			c1.9,0,3.9,0.4,5.8,0.1c0.4-0.1-0.1-1.6,1.2-1.8c1.5-0.3,1.2,1.5,1.7,1.4c2.3-0.3,5-0.7,6.3-1c3.4-0.8,7.3-0.6,10.7,0
			c1.2,0.2,2.8,0.1,4.5,0c0.8-0.1,0.4-2.3,3.6-2.4c2.8-0.1,2.7,1.8,3.6,1.7c1.6-0.2,1.4-0.2,3.1-0.2c5.4-0.2,5.7-0.7,11.1-0.9
			c2.3-0.1,3.8-1.4,6.1-1.8c0.7-0.1,1.4-0.3,1.8-0.9c0.3-0.4,0.4-1,0.4-1.5C344.4,99,343.6,96.6,343.6,94.9z M277.3,106.4
			c-0.8,0-2.3,0.5-2.9,0.3c-0.6-0.2-0.5-1.3-0.1-2c0.3-0.7,1.6-0.8,1.6-0.8s2,0.1,2.4,0.5C278.5,104.9,278.1,106.4,277.3,106.4z
			 M290,97.4c-0.7,0-2,0.8-2.5,0.5c-0.5-0.3-2.9-1.3-2.6-2.5c0.3-1.2,3.8-2.3,3.8-2.3s1.7,0.1,2,0.9C291,94.8,290.7,97.4,290,97.4z
			 M305.1,101.9c-1.5,0-2.6,1.3-3.7,0.9c-1.2-0.4-1.9-1.4-1.3-2.7c0.6-1.3,3.5-3,3.5-3s2.8-0.3,3.5,0.6
			C307.7,98.7,306.7,101.9,305.1,101.9z M320.2,91.6c-1.5,0-2.7,0.9-3.9,0.5c-1.1-0.4-1.1-3.9-0.5-5c0.6-1.2,2.9-1.4,2.9-1.4
			s3.8,0.1,4.4,0.9C323.8,87.4,321.7,91.6,320.2,91.6z M337.6,99.7c-1.5,0-4.4,0.9-5.5,0.5c-1.2-0.4-0.9-2.4-0.3-3.7
			c0.6-1.3,3-1.5,3-1.5s3.9,0.1,4.5,1C339.9,96.9,339.2,99.7,337.6,99.7z"/>
	</g>
	<path class="st5" d="M270.9,91.2c2.6-2.4,7.2-3.7,8.6-4.4c1.3-0.7,4.6-2.4,6.3-3.3c2.1-1.1,3.8-2.2,6.7-3.6c1.3-0.6,3.3-1,4.6-1.6
		c2-1,3.1-2.1,4.6-2.7c2.1-0.9,5.3-1.8,6.7-2.3c2.8-1,3.3-1.4,7.2-3.1c1-0.4,2.5-1.5,3.6-1.6c1.2-0.1,3.9,0.2,5,0.5
		c2.3,0.7,5.8,2.3,8,3.1c4.7,1.5,6.6,2.3,11.4,3.8c0.9,0.4,0.3,1.4-0.5,1.6c-2,0.4-3.8,0.1-5.5,0.4c-1.6,0.3-3.2,1.1-4.8,1.4
		c-1.8,0.3-2.7,0.5-4.7,0.9c-1.6,0.3-3.4,0.9-5.2,1.2c-1.2,0.2-3.3,0.3-4.5,0.5c-2.5,0.4-4.6,1.6-7,2c-1.8,0.3-3.8,0.4-7.2,1.3
		c-2.4,0.6-5.1,1.3-7.1,1.8c-1.3,0.3-5.5,0.5-6.3,0.6c-3,0.6-3,1.2-5.2,1.8c-2.1,0.5-4,0.4-6.2,0.9c-1.8,0.4-3.2,0.7-5.5,1.1
		C273.8,91.6,271.1,91.8,270.9,91.2z"/>
</g>
<g>
	<path class="st6" d="M294.5-15.5c0,0-0.2-0.2,2.2,1.8c2.2,1.8,6.8,14.5,3.9,20.6c-1.6,3.3-4.7,10-8.7,12.6c-2,1.3-14,6.8-20.1,7
		c-3.4,0.1-8.9-0.9-13.1,0.2s-10.7,2.6-15.3,3.6c-5.1,1.1-13.5-0.9-15.2-2.9c-1.7-2-2-7.7-2-7.7s12.8-8,14-8.2
		c1.2-0.2,31.1-19.9,32.2-20.8S294.5-15.5,294.5-15.5z"/>
	<path class="st5" d="M297.3,0.1c0.8-2.2,1.5-5.5,1.3-7.1c-0.6-4.9-2.9-9.3-6.9-11.5c-4.2-2.4-9-2.4-13.9-2.4
		c-5.1,0-10.7,1-15.3,3.2c-5.9,2.9-9.2,14.4-14.2,18.6s-14.1,6.3-16.8,8.5c-3.9,3-5.1,7.3-5.3,10.1c-0.1,1.3,2.5,2.7,4.9,4
		s5.3,1.5,8,1.5c12.1,0,16.5-5.4,28.6-4.1c7.3,0.8,15.3-3.5,20-6.6s4.8-4.8,9.1-12.9C296.9,1,297.1,0.6,297.3,0.1z"/>
	<path class="st7" d="M257.8,4.9c0,0,5.1-3,7.6-4.9c2.5-2,5.2-3.2,4.7-4.4s-3.2-3.2-3.8-4.1c-0.6-0.9-0.8-2.6,1.2-1.4
		s3.1,2.3,4.8,3.7c1.8,1.6,3.1,2.6,5.1,3.5c2.2,0.7,4.4,1.6,5.3,1.8c0.9,0.2,1,1.9-0.3,1.7c-1.3-0.2-3.4-0.5-5.1-1.1
		s-2.5-1.9-4.3-1.5s-3.5,2.5-6.3,4.1c-2.8,1.6-4.6,2.7-7.2,3.8c-2.6,1.1-5.3,3.8-6.7,2.6C252.2,8.2,253.7,7,257.8,4.9z"/>
</g>
<g>
	<path class="st8" d="M316.3,160.9c10.8-1.6,28.4-8,33.7-10.4c5.3-2.4,10.8-3.5,16.1-3.6c6.1-0.1,12.5,1.3,14.5,4.5
		c2.2,3.5,2.7,12.9,3.7,15.7c1.1,2.8,3,4.7,3.9,2.4c0.9-2.3,3.1-11.6,4.9-13.6s7.6-2.4,10.1-3.8c2.5-1.4,4.6-3.7-1.1-4.7
		c-5.8-1.1-14.4-0.8-15.7-2.1c-1.3-1.2-6.8-15.3-25.6-18c-8.6-1.3-8.5-0.3-7.8-1.8c1.5-3.3,3.4-4.1,2.3-5.3c-1.1-1.1-18.3,1-19.4,2
		s-4.5,4.2-4.5,4.2s-11.6,1.4-18,6.1C307,137.1,315.3,147.8,316.3,160.9z"/>
	<path class="st6" d="M302.1,154.5c1.6-0.4,5.8-0.1,7.1-0.2c-2.4-1.1-4.4-1.7-7.3-1.4c-2.7,0.2-3.9,1-4.8,0
		c-0.5-0.7,0.5-5.8,1.1-7.6c2.5-6.4,8-10.4,14.9-12.7c5.2-1.7,13.8,26.7,3,28.3c-10.8,1.6-16.7-2.2-16.7-2.2
		c-0.9-0.4-2.8-2.3-1.8-2.8C298.9,155.4,298.8,155.3,302.1,154.5z"/>
	<path class="st1" d="M309.9,145.8c1.3,0.3,2-0.9,2-1.5c0-0.6-0.5-1.5-1.4-1.5c-0.8,0-1.5,0.4-1.6,0.9
		C308.5,145,309.2,145.6,309.9,145.8z"/>
	<path class="st6" d="M334.1,147.9c0,0,8,0.8,12-1.7c4-2.4,12.4-9.5,12.4-9.5s-0.2-2.5-7.6,0.4s-12.5,3.7-14.2,4.6
		C334.8,142.5,331.3,148,334.1,147.9z"/>
</g>
<g>
	<path class="st6" d="M344.5-49.5c0,0-3.3-4.2-5.3-5.5c-1.3-0.1-9.9,6.7-12.4,9.3c-2.5,2.6-8.1,5.8-9.3,6.9s2.9,5.6,2.9,5.6
		l21.2-10.4L344.5-49.5z"/>
	<path class="st6" d="M320.4-33.3c0,0,4,15.1,4.9,16.5c0.3,0.4,1.3,1.6,6.2,7.1c2.9,3.3,7.4,7.5,10.9,11.4c4.2,4.6,9.4,9,13.2,13.2
		c6.5,7.2,12.2,12.9,12.2,12.9l15.8-6.1L384,1.5c0,0-40.6-40-40.3-39.4S320.4-33.3,320.4-33.3z"/>
	<path class="st8" d="M335.5-29c0,0,3.1,2.7,7.3,7.3c4.4,4.9,8.3,8.7,10.5,11c2.2,2.3,6.8,8.2,10.9,12.7c2.5,2.8,6.7,6.7,9.7,10.3
		c2.1,2.4,9.9,9.4,9.9,9.4l18.5-22.5l-43.1-45.5c0,0-13.5-4.3-15.3-4.5s-11.3,7.9-13.3,9.6c-2,1.7-10.1,7.9-10.1,7.9
		S333.4-32,335.5-29z"/>
	<path class="st7" d="M345.5-27.9c0,0,6-3.7,6.8-4.7c0.8-1,4.4-3.5,5-4s1.2-1.6,1.9-1.1c0.7,0.5,1.1,1.3,0.3,2.7
		c-0.8,1.4-1.2,3-1.6,4.1s0.1,1.7,1.4,0.8c1.2-0.9,3-1.8,4.1-2.3c1.2-0.5,2.2,1.2,1.7,1.8c-0.6,0.6-1.6,2.2-2.8,3.9
		c-1.3,1.7-4.5,5.6-5.4,6.7c-0.9,1.1-2.1,2.6-2.8,2.1c-0.6-0.5-1.4-1.5-0.2-3.2s3.6-3.9,4.1-4.4s3.4-2.4,2.4-2.7
		c-0.5-0.2-2.7,0.8-4.4,1.4c-0.9,0.3-1.4-0.6-1.2-1.2c0.3-1.3,0.7-2.6,1.2-3.8c0.4-1.2-1.9,1.2-2.7,1.9c-0.8,0.7-2,2.1-3.1,2.6
		s-1.8,1-2.9,0.6S345.4-27.6,345.5-27.9z"/>
	<path class="st7" d="M365.1-23.8c-0.2,0.3-2.1,2.3-2.4,2.7c-0.3,0.3-2.7,2.8-3.2,3.5c-0.6,0.8-1.7,2.1-1.3,2.7
		c0.4,0.6,1,1.1,1.8-0.2c0.8-1.3,2.3-3.3,2.3-3.3c1.1-1.2,2.1-2.2,3.1-3.4c1-1.2,1.5-2.1,1.3-2.7C366.4-25,365.1-23.8,365.1-23.8z"
		/>
	<path class="st7" d="M368-27.7c-0.3,0.8-0.4,1.5,0.3,2.1c0.3,0.2,1.7-0.4,1.8-0.9c0.1-0.4-0.1-1-0.9-1.5
		C368.8-28.2,368-27.7,368-27.7z"/>
	<path class="st7" d="M371.9-24.1c-1,0-2.9,3.9-3.4,4.4c-0.5,0.5-3.5,4.3-4,5s-2.3,2.1-1.8,3.2s1.3,2.8,1.6,3.1
		c1.1,1,1.7,0.8,2.3,0.4c0.6-0.4-0.2-1-1.6-2.3c-0.7-0.7-0.1-2.1,0.6-3.1s3.1-2.9,3.4-3.7c0.3-0.7,3-4,3.9-4.9S373.1-24,371.9-24.1z
		"/>
	<path class="st7" d="M375.6-10.6c-0.7-0.9-2.1-1-3.5-0.5c-1.4,0.5-3.2,2.1-3.5,3.6s-0.5,3.4,0,4.2s2.9,2.6,3.8,2.7
		c0.9,0.1,2.5-0.6,2.4-1.4c0-0.7-0.3-0.8-1.1-0.9c-0.8-0.1-2.3,0.6-3-0.9c-0.5-1.1-0.7-3.5,0.2-4.4c0.9-0.9,1.4-1.6,2.3-1.6
		s1.9,0.5,2.3,1.6s0.9,2.6,1.4,2.7s1.4,0.1,1.4-0.9s-0.8-2-1.4-2.8C376.5-9.9,375.6-10.6,375.6-10.6z"/>
	<path class="st7" d="M384.6-9.6c-0.5,0.7-2.9,3.5-3.8,4.4s-3.2,3.5-3.9,4.2s-1.7,1.6-2.1,2.6c-0.3,1,0,2.3,0.4,2.2s0,0,1.1-1.1
		s1.2-1.4,2-2.2s1.6-1.4,2.3-1.2s1.5,1,0.8,1.9c-0.6,1-1.5,2-2.3,2.8c-0.8,0.8-1.8,1.9-1.5,2.4s0.5,1.7,1,1.3s1.1-1.6,2.1-2.6
		c1-1,1.8-1.6,2.5-2.7s1.1-1.6,1.5-2.7c0.4-1.3,0.3-1.9-1.3-2.5s-1.9-0.3-2.3-0.2c-0.4,0.1,4.6-4.8,4.9-5.9S385.5-10.8,384.6-9.6z"
		/>
</g>
<g>
	<path class="st1" d="M968.4,81.1c-13.6-4.4-15.2,0.5-17.9,4.9c-2.8,4.5-2.2,10.6,0.4,15.3c1.4,2.5,3.5,3.8,5.7,5.7
		c1.9,1.6,3.7,3.9,5.8,5.1c2.1,1.2,4.4,2.4,6.7,2c1.6-0.2,3.1-1.2,4.7-1.5c2.9-0.7,3.9,1.8,6.6,0.6c1.8-0.8,5.4-3.8,6.5-5.4
		c2.7-3.8,5.1-7.9,6-12.5s2.3-10.6-0.9-13.9c-3.1-3.3-4.5-4.6-9-5.1c-2.2-0.2-6.9-0.6-9.4,1.1C971.7,78.7,970.5,80.2,968.4,81.1"/>
	<g>
		<path class="st2" d="M969.2,82.4c-1.3-3.1-2.5-5.8-1.5-9.2c0.3-1-1.3-1.4-1.6-0.4c-1.2,3.8,0.2,7,1.7,10.5
			C968.2,84.2,969.6,83.4,969.2,82.4L969.2,82.4z"/>
	</g>
	<g>
		<path class="st3" d="M966.1,83.7c1,0,1.8,0.3,2.8,0c0.8-0.2,1.5-0.7,2.1-1.3c0.2-0.2-0.1-0.6-0.3-0.3c-0.6,0.7-1.4,1.1-2.3,1.2
			c-0.8,0.1-1.5-0.1-2.3-0.1C965.8,83.2,965.8,83.7,966.1,83.7L966.1,83.7z"/>
	</g>
</g>
<g>
	<path class="st4" d="M866.4,226.3c0.6-1.1,1.3-2.1,2.1-2.9c1.2-1.3,2.1-2.7,3.9-3.6c3.1-1.7,7.4-1.4,10.8-2.1c3.2-0.7,6.1-2,9-3.5
		c6.1-3.2,8.8-5.7,13-11.1c1.4-1.7,3.3-3.6,5-6c1.8-2.5,3.4-5.6,5-7.1c1.9-1.8,6-1.4,8.3-2.5c0.9,2.5,1.8,6.3,1,8.8
		c-0.9,2.9-1.7,6.6-2.7,8.9c-3.1,6.7-7.1,9.8-14.2,15.5c-3.2,2.6-7.3,5-11.4,6.8c-2.5,1.1-10,2.3-12.9,2.9
		c-6.9,1.3-10.1,0.5-16.1-1.3C866.9,228.8,866,226.3,866.4,226.3"/>
	<g>
		<path class="st4" d="M922.8,193.8c2.4-3.7,5.5-10.1,2.6-14.3c-1.2-1.8-4-0.7-3.5,1.5c1,4.5-1.1,8.8-3.9,12.2
			c-1.6,1.9,1.1,4.6,2.7,2.7c3.7-4.6,6.3-9.9,4.9-15.9c-1.2,0.5-2.3,1-3.5,1.5c1.9,2.8-1.1,8-2.6,10.4
			C918.2,194,921.5,195.9,922.8,193.8L922.8,193.8z"/>
	</g>
	<g>
		<path class="st3" d="M921.5,188.5c0.1,0.8,0.6,1.4,1.2,1.8c0.2,0.1,0.4-0.2,0.2-0.3c-0.6-0.4-0.9-0.9-1.1-1.6
			C921.8,188.1,921.4,188.2,921.5,188.5L921.5,188.5z"/>
	</g>
	<g>
		<path class="st3" d="M866.2,225.8c0,0.5,0,1.1,0.1,1.6c0.1,0.6,0.4,1.1,0.7,1.6c0.4,0.6,1.4,0.1,1-0.6c-0.2-0.4-0.5-0.8-0.6-1.3
			c-0.1-0.4-0.1-0.9-0.1-1.3C867.4,225,866.2,225,866.2,225.8L866.2,225.8z"/>
	</g>
</g>
<g>
	<path class="st7" d="M905.5,54.9c-3.9,0.6-4,1.1-7.8,1.9c-5.2,1.1-16.5,3-21.7,1.9c-0.6-0.1-1.2-0.3-1.7-0.7
		c-0.9-0.8-1.6-1.9-1.2-3.1l0,0c-0.3-0.8,0.7-2.6,1.5-2.9c1.8-0.8,10.4-0.7,14-0.7c4.2,0,8.1,0.5,9.9-0.1l13.9-2.3
		C917.6,53.1,907.8,54.5,905.5,54.9z"/>
	<path class="st1" d="M956.9,54.6c-8-2.7-26.1-1.6-34.2-1.7c-2.6,0-10,0.5-18.4,2.5c-2.5,0.6-3.7,1.2-5.7,1.3c3.3-2.8,2.2-4.4-1-5.3
		c7.7-1.5,15.9-4.3,22.9-7.8c6.5-3.2,21.9-13,28.4-16.2c1.5,2,2.8,3,1.8,4.7c-2.7,1.3-27.8,14.5-30.3,16.2c2.9-1,18.7-8.2,21.7-8.8
		c3.4-0.6,15.4-4.7,18.8-4.8c1.4,1.3,1,2.7,0.6,5c-3.5,0.2-15.6,4.2-19,4.9c-3.9,0.8-7.8,2.4-11.7,3.7c8.1-0.6,21.2-0.1,29.1,2.2
		C959.1,51.3,958.3,53,956.9,54.6z"/>
	<g>
		<path class="st3" d="M873.8,55.4c-0.8,0.1-1.5,0.2-2.2,0.5c-0.2,0.1-0.1,0.4,0.1,0.3c0.7-0.2,1.4-0.4,2.1-0.4
			C874,55.7,874,55.4,873.8,55.4L873.8,55.4z"/>
	</g>
	<g>
		<path class="st3" d="M873.2,54.5c-0.7-0.1-1.3-0.2-2-0.3c-0.2,0-0.3,0.3-0.1,0.3c0.7,0.1,1.3,0.2,2,0.3
			C873.3,54.8,873.4,54.5,873.2,54.5L873.2,54.5z"/>
	</g>
	<g>
		<path class="st3" d="M873.4,53.3c-0.5-0.4-1.1-0.7-1.6-1.1c-0.2-0.1-0.3,0.2-0.2,0.3c0.5,0.4,1.1,0.7,1.6,1.1
			C873.4,53.7,873.6,53.4,873.4,53.3L873.4,53.3z"/>
	</g>
	<g>
		<path class="st3" d="M874,56.8c-0.5,0.5-1,0.9-1.6,1.2c-0.2,0.1,0,0.4,0.2,0.3c0.6-0.3,1.2-0.7,1.7-1.2
			C874.4,56.9,874.2,56.7,874,56.8L874,56.8z"/>
	</g>
</g>
<g>
	<path class="st5" d="M952,144.8c-6.3,1.6-9.9,4.5-10.9,10.1c-1.5,9.9,2.7,20.5,21.1,20.2c18.4-0.3,20.4-7.3,21.4-14.3
		c0.6-4.1-0.6-8.3-1.5-10.2c-3.1-6.4-11.7-7.5-18.7-6.2C960.2,144.9,954.4,143.9,952,144.8"/>
	<path class="st1" d="M970.5,144.9c-2.2-0.6-3.4-0.9-5.2-0.2c-0.4,0.1-1.8,0.5-2.3,0.7c-0.8,0.4-2.2,1-2.6,1c-0.8-0.1-0.6,0-1.4-0.3
		c-0.7-0.3-2.1-1.1-2.7-1.4c-1.4-0.7-3.5-0.2-5.1,0c-0.7,0.1-3.6,1-3.9,0.5c-0.4-0.7,2.2-3,3.2-3.1c2-0.3,3.6-0.6,5.6-0.3
		c0.8,0.1,1.4,0.4,2,0.9c0.2,0.2,0.7,0.9,0.9,1c-0.1-0.2,0.1-0.6-0.4-1.2c-0.4-0.5-0.9-1.1-2.1-1.9c-0.8-0.6-2.1-1.4-3.2-2.1
		l-0.6-0.9c0-0.4,2.8,0.2,3.3,0.3c2,0.5,2.3,0.7,3.4,1.6c0.6,0.5,0.9,1.1,1.3,1.7c0.4,0.6,0.6,1.4,1.2,1.8c0,0,0.1,0.1,0.1,0.1
		c1.2-0.4,3.1-1.1,4.4-1.2c1.6-0.2,3.7,0.2,5.2,0.6c0.9,0.3,2.8,0.6,2.5,1.3C973.9,144.3,971.3,145.1,970.5,144.9z"/>
	<path class="st1" d="M961,143.4c0,0,2-4.2,3-5.9c1.1-1.7,3.5-2.4,3.5-2.4s0.5,0.9,0.2,2c-0.3,1.1-1.7,2.6-2.2,3.4s-2.6,3.5-2.6,3.5
		L961,143.4z"/>
</g>
<g>
	<g>
		<path class="st4" d="M927,98.1c0-1.3,0.2-2.4,0.3-3.5c0-0.4-0.8,0.2-0.8-1.5c0-1.7,1.2-1.1,1.1-1.6c-0.2-1.1,0.2-1.8-0.5-1.8
			c-1.2-0.1-2.5-0.2-2.6-1.7c-0.1-1.6,0.8-2.4,2.2-2.4c1.3,0,0.9-1.4,0.6-3.2L865.7,95c0.3,0.9,0.4,1.8,0.5,2.7
			c0.1,0.9,0.1,1.8,0.1,2.7c0.9,0.5,1.7,1.7,1.7,2.5c0,1.7-1,2.1-1.8,2.7c0,0.7,0,1.2,0.4,3.4c0.1,0.3,0.1,0.6,0.3,0.9
			c0.5,0.6,1.4,0.4,2.1,0.3c3.3-0.8,4.9-1.1,8.2-1c1.6,0,3.3,0.3,4.9,0.1c0.3,0-0.1-1.3,1-1.5c1.3-0.3,1,1.3,1.4,1.2
			c1.9-0.3,4.2-0.6,5.3-0.8c2.8-0.6,6.2-0.5,9,0c1,0.2,2.3,0.1,3.8,0c0.7-0.1,0.3-1.9,3-2.1c2.4-0.1,2.3,1.5,3,1.4
			c1.3-0.1,1.1-0.1,2.6-0.2c4.6-0.1,4.8-0.6,9.4-0.8c1.9-0.1,3.2-1.2,5.1-1.5c0.6-0.1,1.2-0.3,1.5-0.7c0.3-0.4,0.3-0.8,0.3-1.3
			C927.7,101.6,927,99.6,927,98.1z M871.1,107.8c-0.7,0-1.9,0.4-2.5,0.2c-0.5-0.2-0.4-1.1-0.1-1.7c0.3-0.6,1.3-0.7,1.3-0.7
			s1.7,0.1,2,0.5C872.1,106.6,871.8,107.8,871.1,107.8z M881.8,100.3c-0.6,0-1.7,0.7-2.1,0.4c-0.4-0.3-2.4-1.1-2.2-2.1
			c0.2-1,3.2-2,3.2-2s1.5,0.1,1.7,0.8S882.4,100.3,881.8,100.3z M894.6,104.1c-1.3,0-2.2,1.1-3.2,0.8c-1-0.3-1.6-1.2-1.1-2.3
			c0.5-1.1,2.9-2.5,2.9-2.5s2.4-0.2,2.9,0.5C896.7,101.4,895.9,104.1,894.6,104.1z M907.3,95.4c-1.3,0-2.3,0.7-3.3,0.4
			c-1-0.3-0.9-3.3-0.4-4.2c0.5-1,2.5-1.2,2.5-1.2s3.2,0.1,3.7,0.8C910.3,91.9,908.6,95.4,907.3,95.4z M921.9,102.2
			c-1.3,0-3.7,0.8-4.7,0.4c-1-0.3-0.8-2.1-0.2-3.2c0.5-1.1,2.5-1.3,2.5-1.3s3.3,0.1,3.8,0.9C923.9,99.8,923.2,102.2,921.9,102.2z"/>
	</g>
	<path class="st5" d="M865.6,95.1c2.2-2,6.1-3.2,7.2-3.7s3.9-2.1,5.3-2.8c1.7-0.9,3.2-1.8,5.7-3.1c1.1-0.5,2.8-0.9,3.9-1.4
		c1.7-0.8,2.6-1.8,3.9-2.3c1.8-0.8,4.5-1.5,5.7-1.9c2.4-0.9,2.8-1.2,6-2.6c0.9-0.4,2.1-1.3,3-1.3c1-0.1,3.3,0.2,4.2,0.5
		c1.9,0.6,4.9,2,6.8,2.6c4,1.3,5.6,1.9,9.6,3.2c0.7,0.3,0.3,1.2-0.4,1.3c-1.7,0.3-3.2,0.1-4.6,0.4c-1.4,0.2-2.7,1-4,1.2
		c-1.5,0.3-2.3,0.4-4,0.8c-1.4,0.3-2.9,0.7-4.3,1c-1,0.2-2.8,0.3-3.8,0.5c-2.1,0.3-3.9,1.3-5.9,1.7c-1.5,0.3-3.2,0.4-6.1,1.1
		c-2,0.5-4.3,1.1-6,1.5c-1.1,0.3-4.6,0.4-5.3,0.5c-2.6,0.5-2.5,1-4.3,1.5c-1.7,0.5-3.4,0.3-5.2,0.8c-1.5,0.4-2.7,0.6-4.7,0.9
		C868.2,95.4,865.9,95.5,865.6,95.1z"/>
</g>
<g>
	<path class="st6" d="M932.6-10c0,0-0.2-0.2,1.9,1.6c1.9,1.6,6,12.8,3.5,18.1c-1.4,2.9-4.2,8.9-7.7,11.1c-1.7,1.1-12.3,6-17.7,6.1
		c-3,0.1-7.8-0.8-11.5,0.1c-3.7,1-9.5,2.3-13.4,3.2c-4.5,1-11.9-0.8-13.4-2.6c-1.5-1.8-1.8-6.7-1.8-6.7s11.3-7.1,12.4-7.3
		s27.4-17.6,28.4-18.3S932.6-10,932.6-10z"/>
	<path class="st5" d="M935,3.8c0.7-1.9,1.3-4.8,1.2-6.3c-0.6-4.3-2.6-8.2-6.1-10.2c-3.7-2.1-7.9-2.1-12.2-2.1
		c-4.5,0-9.5,0.9-13.5,2.8c-5.2,2.5-8.1,12.7-12.6,16.4c-4.5,3.7-12.4,5.6-14.8,7.5c-3.4,2.6-4.5,6.4-4.7,8.9
		c-0.1,1.1,2.2,2.3,4.3,3.5s4.6,1.3,7.1,1.3c10.7,0,14.5-4.7,25.2-3.6c6.5,0.7,13.5-3.1,17.6-5.8s4.2-4.2,8-11.4
		C934.7,4.6,934.9,4.2,935,3.8z"/>
	<path class="st7" d="M900.3,8c0,0,4.5-2.6,6.7-4.4c2.2-1.7,4.6-2.8,4.1-3.9c-0.4-1.1-2.8-2.8-3.4-3.6s-0.7-2.3,1.1-1.2
		s2.8,2,4.2,3.3c1.6,1.4,2.7,2.3,4.5,3.1c1.9,0.7,3.9,1.4,4.7,1.6c0.8,0.2,0.9,1.7-0.2,1.5c-1.1-0.2-3-0.4-4.5-1s-2.2-1.7-3.8-1.3
		s-3.1,2.2-5.5,3.7c-2.4,1.4-4.1,2.4-6.3,3.4c-2.3,1-4.7,3.4-5.9,2.3C895.3,11,896.7,9.9,900.3,8z"/>
</g>
<g>
	<path class="st8" d="M847.2,164.4c9.5-1.4,25-7,29.7-9.2s9.5-3,14.1-3.2c5.3-0.1,11,1.2,12.8,4c2,3.1,2.4,11.3,3.3,13.8
		c0.9,2.5,2.7,4.1,3.4,2.1s2.7-10.2,4.3-12s6.7-2.1,8.9-3.3c2.2-1.2,4.1-3.2-1-4.2c-5.1-0.9-12.7-0.7-13.9-1.8
		c-1.2-1.1-6-13.4-22.6-15.9c-7.5-1.1-7.4-0.2-6.8-1.6c1.3-2.9,3-3.6,2-4.6s-16.1,0.9-17.1,1.7s-4,3.7-4,3.7s-10.2,1.3-15.8,5.4
		C839.1,143.4,846.4,152.9,847.2,164.4z"/>
	<path class="st6" d="M834.8,158.8c1.4-0.3,5.1-0.1,6.3-0.2c-2.1-1-3.9-1.5-6.5-1.3c-2.4,0.2-3.5,0.9-4.2,0c-0.5-0.6,0.4-5.1,1-6.6
		c2.2-5.6,7.1-9.2,13.2-11.2c4.6-1.5,12.1,23.5,2.6,24.9c-9.5,1.4-14.7-2-14.7-2c-0.8-0.4-2.5-2-1.5-2.5
		C832,159.5,831.8,159.4,834.8,158.8z"/>
	<path class="st1" d="M841.7,151.1c1.1,0.3,1.8-0.8,1.8-1.3c0-0.5-0.5-1.3-1.2-1.3c-0.7,0-1.3,0.3-1.4,0.8
		C840.4,150.4,841,150.9,841.7,151.1z"/>
	<path class="st6" d="M862.9,152.9c0,0,7,0.7,10.5-1.5c3.5-2.2,10.9-8.4,10.9-8.4s-0.2-2.2-6.7,0.3c-6.6,2.5-11,3.2-12.5,4
		S860.5,153,862.9,152.9z"/>
</g>
<g>
	<path class="st6" d="M836,189.8c0,0-0.3,2.6-0.3,3.5c0,0.9-0.2,4-0.2,4s-8.1-4.7-8.8-5.1c-0.7-0.4,1.6-6.4,1.6-6.4l8,1.3L836,189.8
		z"/>
	<path class="st6" d="M835.5,197.2c0,0,16.8-2.2,17.6-2.4s-2-7.6-2-7.6l-9.3-1.5l-6.4,1.1L835.5,197.2z"/>
	<path class="st5" d="M830.4,187.1c0,0,1,0.4,1.5,0.7c0.5,0.2,3.7,1.6,4,2c0.3,0.3,4.6-0.6,6.3-0.8s4.9-1.1,5.8-1.3s2.2-0.2,3-0.4
		c-1.4-0.9-4-1.8-5.3-2.6c-1.3-0.9-2.4-1.3-3.5-1.6c-0.4-0.1-3.3,0.5-6.5,1.2c-3.2,0.7-7.1,1.3-7.4,1.5
		C827.7,186,830.4,187.1,830.4,187.1z"/>
	<path class="st6" d="M848.5,197c0,0,1.3,2.9,1.3,3.7c0,0.9-1.3,4.5-1.3,4.5s-8.6-5.4-9.3-5.8c-0.7-0.4,1.6-6.4,1.6-6.4l8,1.3
		L848.5,197z"/>
	<path class="st6" d="M848.5,205.2c0,0,15.5-4.4,16.4-4.5s-1.2-6.2-1.2-6.2l-9.3-1.5l-6.4,1.1L848.5,205.2z"/>
	<path class="st5" d="M842.9,194.4c0,0,1,0.4,1.5,0.7c0.5,0.2,3.7,1.6,4,2c0.3,0.3,4.6-0.6,6.3-0.8s4.9-1.1,5.8-1.3s2.2-0.2,3-0.4
		c-1.4-0.9-4-1.8-5.3-2.6c-1.3-0.9-2.4-1.3-3.5-1.6c-0.4-0.1-3.3,0.5-6.5,1.2c-3.2,0.7-7.1,1.3-7.4,1.5
		C840.2,193.3,842.9,194.4,842.9,194.4z"/>
	<path class="st6" d="M817.5,194.3c0,0-0.3,2.6-0.3,3.5c0,0.9-0.2,4-0.2,4s-8.1-4.7-8.8-5.1s2.3-6.9,2.3-6.9l7.4,1.8L817.5,194.3z"
		/>
	<path class="st6" d="M817,201.8c0,0,16.8-2.2,17.6-2.4c0.9-0.1-2-7.6-2-7.6l-9.3-1.5l-6.4,1.1L817,201.8z"/>
	<path class="st5" d="M812.6,191c0,0,1,0.4,1.5,0.7c0.5,0.2,3.7,1.6,4,2s4.6-0.6,6.3-0.8s4.9-1.1,5.8-1.3s2.2-0.2,3-0.4
		c-1.4-0.9-4-1.8-5.3-2.6c-1.3-0.9-2.4-1.3-3.5-1.6c-0.4-0.1-3.3,0.5-6.5,1.2c-3.2,0.7-7.1,1.3-7.4,1.5
		C809.8,189.9,812.6,191,812.6,191z"/>
	<path class="st6" d="M830,201.6c0,0,1.3,2.9,1.3,3.7c0,0.9-1.3,4.5-1.3,4.5s-8.6-5.4-9.3-5.8s1.6-6.4,1.6-6.4l8,1.3L830,201.6z"/>
	<path class="st6" d="M830,209.8c0,0,15.5-4.4,16.4-4.5s-1.2-6.2-1.2-6.2l-9.3-1.5l-6.4,1.1L830,209.8z"/>
	<path class="st5" d="M824.4,198.9c0,0,1,0.4,1.5,0.7c0.5,0.2,3.7,1.6,4,2s4.6-0.6,6.3-0.8c1.7-0.2,4.9-1.1,5.8-1.3
		c0.9-0.2,2.2-0.2,3-0.4c-1.4-0.9-4-1.8-5.3-2.6c-1.3-0.9-2.4-1.3-3.5-1.6c-0.4-0.1-3.3,0.5-6.5,1.2c-3.2,0.7-7.1,1.3-7.4,1.5
		C821.7,197.8,824.4,198.9,824.4,198.9z"/>
	<path class="st6" d="M799,198.9c0,0-0.3,2.6-0.3,3.5c0,0.9-0.2,4-0.2,4s-7.8-1.2-8.5-1.7c-0.7-0.4,1.9-10.4,1.9-10.4l7.4,1.8
		L799,198.9z"/>
	<path class="st6" d="M798.5,206.4c0,0,16.8-2.2,17.6-2.4c0.9-0.1-2-7.6-2-7.6l-9.3-1.5l-6.4,1.1L798.5,206.4z"/>
	<path class="st5" d="M794.1,195.6c0,0,1,0.4,1.5,0.7c0.5,0.2,3.7,1.6,4,2s4.6-0.6,6.3-0.8s4.9-1.1,5.8-1.3s2.2-0.2,3-0.4
		c-1.4-0.9-4-1.8-5.3-2.6c-1.3-0.9-2.4-1.3-3.5-1.6c-0.4-0.1-3.3,0.5-6.5,1.2c-3.2,0.7-7.1,1.3-7.4,1.5
		C791.3,194.5,794.1,195.6,794.1,195.6z"/>
	<path class="st6" d="M811.5,206.1c0,0,1.3,2.9,1.3,3.7c0,0.9-1.3,4.5-1.3,4.5s-8.6-5.4-9.3-5.8c-0.7-0.4,1.6-6.4,1.6-6.4l8,1.3
		L811.5,206.1z"/>
	<path class="st6" d="M811.5,214.3c0,0,15.5-4.4,16.4-4.5c0.9-0.1-1.2-6.2-1.2-6.2l-9.3-1.5l-6.4,1.1L811.5,214.3z"/>
	<path class="st5" d="M805.9,203.5c0,0,1,0.4,1.5,0.7c0.5,0.2,3.7,1.6,4,2c0.3,0.3,4.6-0.6,6.3-0.8s5-0.7,5.9-0.9
		c0.9-0.2,2.2-0.6,2.9-0.8c-1.4-0.9-4-1.8-5.3-2.6c-1.3-0.9-2.4-1.3-3.5-1.6c-0.4-0.1-3.3,0.5-6.5,1.2c-3.2,0.7-7.1,1.3-7.4,1.5
		C803.2,202.4,805.9,203.5,805.9,203.5z"/>
	<path class="st6" d="M811.6,206.8l-0.3,10.1l53.6-13.2l0.1-3.5l-5.1-2.4c0,0-42.6,11.6-43,11.8
		C816.4,209.7,811.6,206.8,811.6,206.8z"/>
	<polygon class="st6" points="811.4,216.9 790,204.7 794.9,200.9 816,211.9 	"/>
</g>
<g>
	<path class="st1" d="M393.9,79.7c-15.4-5-17.3,0.6-20.4,5.5c-3.2,5.2-2.6,12,0.4,17.3c1.6,2.9,4,4.3,6.5,6.5
		c2.1,1.8,4.2,4.4,6.6,5.8c2.3,1.4,4.9,2.7,7.6,2.3c1.9-0.3,3.5-1.3,5.3-1.7c3.3-0.8,4.4,2,7.5,0.7c2.1-0.9,6.1-4.3,7.4-6.1
		c3-4.3,5.7-9,6.8-14.2c1-5.2,2.6-12-1-15.8c-3.5-3.7-5.1-5.2-10.2-5.8c-2.5-0.3-7.9-0.6-10.7,1.3C397.6,76.9,396.2,78.6,393.9,79.7
		"/>
	<g>
		<path class="st2" d="M394.7,81.2c-1.5-3.5-2.9-6.6-1.7-10.4c0.3-1.2-1.4-1.6-1.8-0.5c-1.3,4.3,0.2,7.9,1.9,11.9
			C393.6,83.2,395.2,82.3,394.7,81.2L394.7,81.2z"/>
	</g>
	<g>
		<path class="st3" d="M391.3,82.6c1.1,0,2.1,0.3,3.2,0c0.9-0.2,1.7-0.7,2.4-1.4c0.2-0.3-0.1-0.7-0.4-0.4c-0.7,0.7-1.5,1.2-2.6,1.4
			c-0.9,0.1-1.7-0.1-2.6-0.1C390.9,82.1,390.9,82.7,391.3,82.6L391.3,82.6z"/>
	</g>
</g>
<g>
	<path class="st6" d="M414.6,222.7c0,0-0.3,2.8-0.3,3.7c0,0.9-0.2,4.2-0.2,4.2s-8.5-4.9-9.2-5.3s1.7-6.7,1.7-6.7l8.4,1.3
		L414.6,222.7z"/>
	<path class="st6" d="M414.1,230.5c0,0,17.5-2.3,18.4-2.5c0.9-0.1-2.1-8-2.1-8l-9.7-1.6l-6.7,1.1L414.1,230.5z"/>
	<path class="st5" d="M408.8,219.9c0,0,1,0.5,1.6,0.7c0.6,0.2,3.9,1.7,4.2,2.1c0.3,0.3,4.8-0.6,6.6-0.8c1.8-0.2,5.2-1.2,6.1-1.4
		c0.9-0.2,2.4-0.2,3.1-0.4c-1.4-0.9-4.2-1.8-5.6-2.8c-1.3-0.9-2.6-1.4-3.7-1.7c-0.4-0.1-3.4,0.5-6.8,1.3c-3.4,0.7-7.4,1.4-7.8,1.6
		C405.9,218.8,408.8,219.9,408.8,219.9z"/>
	<path class="st6" d="M427.7,230.3c0,0,1.4,3,1.4,3.9c0,0.9-1.4,4.7-1.4,4.7s-9-5.6-9.7-6.1s1.7-6.7,1.7-6.7l8.4,1.3L427.7,230.3z"
		/>
	<path class="st6" d="M427.7,238.8c0,0,16.2-4.6,17.1-4.7c0.9-0.1-1.3-6.5-1.3-6.5l-9.7-1.6l-6.7,1.1L427.7,238.8z"/>
	<path class="st5" d="M421.9,227.5c0,0,1,0.5,1.6,0.7c0.6,0.2,3.9,1.7,4.2,2.1c0.3,0.3,4.8-0.6,6.6-0.8c1.8-0.2,5.2-1.2,6.1-1.4
		c0.9-0.2,2.4-0.2,3.1-0.4c-1.4-0.9-4.2-1.8-5.6-2.8c-1.3-0.9-2.6-1.4-3.7-1.7c-0.4-0.1-3.4,0.5-6.8,1.3s-7.4,1.4-7.8,1.6
		C419,226.3,421.9,227.5,421.9,227.5z"/>
	<path class="st6" d="M395.2,227.4c0,0-0.3,2.8-0.3,3.7c0,0.9-0.2,4.2-0.2,4.2s-8.5-4.9-9.2-5.3c-0.7-0.5,2.4-7.3,2.4-7.3l7.7,1.9
		L395.2,227.4z"/>
	<path class="st6" d="M394.7,235.3c0,0,17.5-2.3,18.4-2.5c0.9-0.1-2.1-8-2.1-8l-9.7-1.6l-6.7,1.1L394.7,235.3z"/>
	<path class="st5" d="M390.1,224c0,0,1,0.5,1.6,0.7c0.6,0.2,3.9,1.7,4.2,2.1c0.3,0.3,4.8-0.6,6.6-0.8c1.8-0.2,5.2-1.2,6.1-1.4
		c0.9-0.2,2.4-0.2,3.1-0.4c-1.4-0.9-4.2-1.8-5.6-2.8c-1.3-0.9-2.6-1.4-3.7-1.7c-0.4-0.1-3.4,0.5-6.8,1.3c-3.4,0.7-7.4,1.4-7.8,1.6
		C387.2,222.9,390.1,224,390.1,224z"/>
	<path class="st6" d="M408.3,235c0,0,1.4,3,1.4,3.9c0,0.9-1.4,4.7-1.4,4.7s-9-5.6-9.7-6.1c-0.7-0.5,1.7-6.7,1.7-6.7l8.4,1.3
		L408.3,235z"/>
	<path class="st6" d="M408.3,243.6c0,0,16.2-4.6,17.1-4.7c0.9-0.1-1.3-6.5-1.3-6.5l-9.7-1.6l-6.7,1.1L408.3,243.6z"/>
	<path class="st5" d="M402.5,232.3c0,0,1,0.5,1.6,0.7c0.6,0.2,3.9,1.7,4.2,2.1c0.3,0.3,4.8-0.6,6.6-0.8c1.8-0.2,5.2-1.2,6.1-1.4
		c0.9-0.2,2.4-0.2,3.1-0.4c-1.4-0.9-4.2-1.8-5.6-2.8c-1.3-0.9-2.6-1.4-3.7-1.7c-0.4-0.1-3.4,0.5-6.8,1.3c-3.4,0.7-7.4,1.4-7.8,1.6
		C399.6,231.1,402.5,232.3,402.5,232.3z"/>
	<path class="st6" d="M375.9,232.2c0,0-0.3,2.8-0.3,3.7c0,0.9-0.2,4.2-0.2,4.2s-8.2-1.3-8.9-1.7c-0.7-0.5,2-10.9,2-10.9l7.8,1.9
		L375.9,232.2z"/>
	<path class="st6" d="M375.4,240.1c0,0,17.5-2.3,18.4-2.5c0.9-0.1-2.1-8-2.1-8L382,228l-6.7,1.1L375.4,240.1z"/>
	<path class="st5" d="M370.8,228.8c0,0,1,0.5,1.6,0.7c0.6,0.2,3.9,1.7,4.2,2.1c0.3,0.3,4.8-0.6,6.6-0.8c1.8-0.2,5.2-1.2,6.1-1.4
		c0.9-0.2,2.4-0.2,3.1-0.4c-1.4-0.9-4.2-1.8-5.6-2.8c-1.3-0.9-2.6-1.4-3.7-1.7c-0.4-0.1-3.4,0.5-6.8,1.3c-3.4,0.7-7.4,1.4-7.8,1.6
		C367.9,227.6,370.8,228.8,370.8,228.8z"/>
	<path class="st6" d="M389,239.8c0,0,1.4,3,1.4,3.9c0,0.9-1.4,4.7-1.4,4.7s-9-5.6-9.7-6.1c-0.7-0.5,1.7-6.7,1.7-6.7l8.4,1.3
		L389,239.8z"/>
	<path class="st6" d="M389,248.4c0,0,16.2-4.6,17.1-4.7c0.9-0.1-1.3-6.5-1.3-6.5l-9.7-1.6l-6.7,1.1L389,248.4z"/>
	<path class="st5" d="M383.2,237c0,0,1,0.5,1.6,0.7c0.6,0.2,3.9,1.7,4.2,2.1s4.8-0.6,6.6-0.8c1.8-0.2,5.2-0.8,6.1-1
		c0.9-0.2,2.3-0.6,3.1-0.8c-1.4-0.9-4.2-1.8-5.6-2.8c-1.3-0.9-2.6-1.4-3.7-1.7c-0.4-0.1-3.4,0.5-6.8,1.3c-3.4,0.7-7.4,1.4-7.8,1.6
		C380.3,235.9,383.2,237,383.2,237z"/>
	<path class="st6" d="M389.1,240.5l-0.3,10.6l56.1-13.8l0.1-3.7l-5.3-2.5c0,0-44.6,12.2-45,12.3
		C394.2,243.5,389.1,240.5,389.1,240.5z"/>
	<polygon class="st6" points="388.8,251.1 366.5,238.3 371.6,234.4 393.7,245.8 	"/>
</g>
<g>
	<path class="st1" d="M831.8,247.8c-13.6-4.4-15.2,0.5-17.9,4.9c-2.8,4.5-2.2,10.6,0.4,15.3c1.4,2.5,3.5,3.8,5.7,5.7
		c1.9,1.6,3.7,3.9,5.8,5.1c2.1,1.2,4.4,2.4,6.7,2c1.6-0.2,3.1-1.2,4.7-1.5c2.9-0.7,3.9,1.8,6.6,0.6c1.8-0.8,5.4-3.8,6.5-5.4
		c2.7-3.8,5.1-7.9,6-12.5s2.3-10.6-0.9-13.9c-3.1-3.3-4.5-4.6-9-5.1c-2.2-0.2-6.9-0.6-9.4,1.1C835.1,245.4,833.9,246.8,831.8,247.8"
		/>
	<g>
		<path class="st2" d="M832.6,249.1c-1.3-3.1-2.5-5.8-1.5-9.2c0.3-1-1.3-1.4-1.6-0.4c-1.2,3.8,0.2,7,1.7,10.5
			C831.6,250.9,833,250.1,832.6,249.1L832.6,249.1z"/>
	</g>
	<g>
		<path class="st3" d="M829.5,250.4c1,0,1.8,0.3,2.8,0c0.8-0.2,1.5-0.7,2.1-1.3c0.2-0.2-0.1-0.6-0.3-0.3c-0.6,0.7-1.4,1.1-2.3,1.2
			c-0.8,0.1-1.5-0.1-2.3-0.1C829.2,249.9,829.2,250.4,829.5,250.4L829.5,250.4z"/>
	</g>
</g>
<g>
	<path class="st4" d="M719,243.4c2.7-3.4,6.8-9.7,11.7-11.4c4.9-1.7,14.4-4.5,18.4-5.1c4-0.6,18.5-0.6,21.5-0.3
		c5.8,0.4,15,4.4,19.4,9.3c1.7,1.9,5.4,6.8,6.4,8.8c1.7,3.4,1.6,8.5-2.4,9.9c-1.1,0.4-6.1,2.3-11.5,3.2c-7,1.2-12.4,2.5-16.1,2.7
		c-3.5,0.1-14.7,0.8-22.8,1c-7.2,0.1-14.5,1.1-17.4,0.5c-6-1.3-8.3-2.3-9.7-5.8C715.3,252.7,716.4,246.8,719,243.4z"/>
	<path class="st5" d="M734.9,230.5c0,0,5.7,3.9,7.4,6c1.7,2.2,2.6,7.2,3.2,8s1-7-1-9.2s-6.3-5.7-6.3-5.7L734.9,230.5z"/>
	<path class="st5" d="M749.6,226.9c0,0,5.3,4.6,7.1,6.8c1.7,2.2,2.6,7.2,3.2,8s1-7-1-9.2s-5.8-6-5.8-6L749.6,226.9z"/>
	<path class="st5" d="M764.5,226.4c0,0,6.3,4.6,8,6.8c1.7,2.2,2.6,7.2,3.2,8c0.6,0.7,1-7-1-9.2c-2-2.2-6.8-5.7-6.8-5.7L764.5,226.4z
		"/>
</g>
<g>
	<path class="st6" d="M955.8,245.7c0,0-0.2-0.2,1.9,1.6c1.9,1.6,6,12.8,3.5,18.1c-1.4,2.9-4.2,8.9-7.7,11.1
		c-1.7,1.1-12.3,6-17.7,6.1c-3,0.1-7.8-0.8-11.5,0.1s-9.5,2.3-13.4,3.2c-4.5,1-11.9-0.8-13.4-2.6c-1.5-1.8-1.8-6.7-1.8-6.7
		s11.3-7.1,12.4-7.3c1.1-0.2,27.4-17.6,28.4-18.3C937.4,250.3,955.8,245.7,955.8,245.7z"/>
	<path class="st5" d="M958.2,259.5c0.7-1.9,1.3-4.8,1.2-6.3c-0.6-4.3-2.6-8.2-6.1-10.2c-3.7-2.1-7.9-2.1-12.2-2.1
		c-4.5,0-9.5,0.9-13.5,2.8c-5.2,2.5-8.1,12.7-12.6,16.4c-4.5,3.7-12.4,5.6-14.8,7.5c-3.4,2.6-4.5,6.4-4.7,8.9
		c-0.1,1.1,2.2,2.3,4.3,3.5c2.1,1.2,4.6,1.3,7.1,1.3c10.7,0,14.5-4.7,25.2-3.6c6.5,0.7,13.5-3.1,17.6-5.8c4.1-2.7,4.2-4.2,8-11.4
		C957.9,260.3,958.1,259.9,958.2,259.5z"/>
	<path class="st7" d="M923.5,263.7c0,0,4.5-2.6,6.7-4.4s4.6-2.8,4.1-3.9c-0.4-1.1-2.8-2.8-3.4-3.6c-0.6-0.8-0.7-2.3,1.1-1.2
		s2.8,2,4.2,3.3c1.6,1.4,2.7,2.3,4.5,3.1c1.9,0.7,3.9,1.4,4.7,1.6c0.8,0.2,0.9,1.7-0.2,1.5s-3-0.4-4.5-1c-1.5-0.5-2.2-1.7-3.8-1.3
		c-1.6,0.4-3.1,2.2-5.5,3.7c-2.4,1.4-4.1,2.4-6.3,3.4c-2.3,1-4.7,3.4-5.9,2.3C918.5,266.7,919.9,265.6,923.5,263.7z"/>
</g>
<g>
	<path class="st7" d="M969.2,215.7c-3.9,0.6-4,1.1-7.8,1.9c-5.2,1.1-16.5,3-21.7,1.9c-0.6-0.1-1.2-0.3-1.7-0.7
		c-0.9-0.8-1.6-1.9-1.2-3.1l0,0c-0.3-0.8,0.7-2.6,1.5-2.9c1.8-0.8,10.4-0.7,14-0.7c4.2,0,8.1,0.5,9.9-0.1l13.9-2.3
		C981.3,214,971.4,215.4,969.2,215.7z"/>
	<path class="st1" d="M1020.5,215.4c-8-2.7-26.1-1.6-34.2-1.7c-2.6,0-10,0.5-18.4,2.5c-2.5,0.6-3.7,1.2-5.7,1.3
		c3.3-2.8,2.2-4.4-1-5.3c7.7-1.5,15.9-4.3,22.9-7.8c6.5-3.2,21.9-13,28.4-16.2c1.5,2,2.8,3,1.8,4.7c-2.7,1.3-27.8,14.5-30.3,16.2
		c2.9-1,18.7-8.2,21.7-8.8c3.4-0.6,15.4-4.7,18.8-4.8c1.4,1.3,1,2.7,0.6,5c-3.5,0.2-15.6,4.2-19,4.9c-3.9,0.8-7.8,2.4-11.7,3.7
		c8.1-0.6,21.2-0.1,29.1,2.2C1022.7,212.2,1021.9,213.9,1020.5,215.4z"/>
	<g>
		<path class="st3" d="M937.5,216.3c-0.8,0.1-1.5,0.2-2.2,0.5c-0.2,0.1-0.1,0.4,0.1,0.3c0.7-0.2,1.4-0.4,2.1-0.4
			C937.7,216.6,937.7,216.3,937.5,216.3L937.5,216.3z"/>
	</g>
	<g>
		<path class="st3" d="M936.8,215.3c-0.7-0.1-1.3-0.2-2-0.3c-0.2,0-0.3,0.3-0.1,0.3c0.7,0.1,1.3,0.2,2,0.3
			C937,215.6,937.1,215.3,936.8,215.3L936.8,215.3z"/>
	</g>
	<g>
		<path class="st3" d="M937.1,214.1c-0.5-0.4-1.1-0.7-1.6-1.1c-0.2-0.1-0.3,0.2-0.2,0.3c0.5,0.4,1.1,0.7,1.6,1.1
			C937.1,214.5,937.3,214.2,937.1,214.1L937.1,214.1z"/>
	</g>
	<g>
		<path class="st3" d="M937.7,217.7c-0.5,0.5-1,0.9-1.6,1.2c-0.2,0.1,0,0.4,0.2,0.3c0.6-0.3,1.2-0.7,1.7-1.2
			C938.1,217.8,937.8,217.5,937.7,217.7L937.7,217.7z"/>
	</g>
</g>
<g>
</g>
<g>
</g>
<g>
</g>
<g>
</g>
<g>
</g>
<g>
</g>
</svg>
