<?xml version="1.0" encoding="utf-8"?>
<!-- Generator: Adobe Illustrator 24.1.3, SVG Export Plug-In . SVG Version: 6.00 Build 0)  -->
<svg version="1.1" id="Ebene_1" xmlns="http://www.w3.org/2000/svg" xmlns:xlink="http://www.w3.org/1999/xlink" x="0px" y="0px"
	 viewBox="0 0 206.6 346.9" style="enable-background:new 0 0 206.6 346.9;" xml:space="preserve">
<style type="text/css">
	.st0{fill:#F2C0C8;}
	.st1{fill:#6BF178;}
	.st2{fill:#1D1D1B;}
	.st3{fill:#432918;}
	.st4{fill:#FFE400;}
	.st5{fill:#FB5607;}
	.st6{fill:#0E1116;}
	.st7{fill:#F6F6F6;}
	.st8{fill:#3A86FF;}
</style>
<rect x="-1325.1" y="451" class="st0" width="377.6" height="216.7"/>
<g>
	<path class="st1" d="M-1059.3,465.3c-18.3-6-20.6,0.7-24.2,6.6c-3.8,6.1-3,14.3,0.5,20.6c1.9,3.4,4.7,5.2,7.7,7.7
		c2.5,2.2,5.1,5.2,7.9,6.9c2.8,1.7,5.9,3.2,9.1,2.8c2.2-0.3,4.2-1.6,6.4-2.1c3.9-0.9,5.2,2.4,9,0.8c2.5-1.1,7.3-5.1,8.8-7.3
		c3.6-5.2,6.8-10.7,8-16.9c1.2-6.2,3.1-14.3-1.2-18.8c-4.2-4.4-6.1-6.2-12.1-6.9c-3-0.3-9.3-0.7-12.7,1.5
		C-1054.8,462-1056.5,464-1059.3,465.3"/>
	<g>
		<path class="st2" d="M-1058.3,467.1c-1.8-4.2-3.4-7.8-2-12.4c0.4-1.4-1.7-2-2.1-0.6c-1.6,5.2,0.2,9.4,2.3,14.1
			C-1059.6,469.5-1057.7,468.4-1058.3,467.1L-1058.3,467.1z"/>
	</g>
	<g>
		<path class="st3" d="M-1062.4,468.8c1.3-0.1,2.5,0.3,3.8,0c1.1-0.3,2.1-0.9,2.8-1.7c0.3-0.3-0.2-0.8-0.5-0.5
			c-0.8,0.9-1.8,1.5-3,1.6c-1,0.1-2-0.2-3.1-0.1C-1062.9,468.2-1062.9,468.9-1062.4,468.8L-1062.4,468.8z"/>
	</g>
</g>
<g>
	<path class="st4" d="M-1008,503.9c0.8-1.5,1.8-2.8,2.8-3.9c1.6-1.7,2.9-3.7,5.3-4.9c4.2-2.2,10-1.8,14.6-2.8
		c4.3-0.9,8.2-2.7,12.2-4.7c8.2-4.3,11.9-7.6,17.6-15c1.8-2.4,4.4-4.8,6.8-8.2c2.4-3.4,4.5-7.6,6.7-9.6c2.6-2.4,8.1-1.9,11.3-3.4
		c1.2,3.4,2.4,8.4,1.4,11.9c-1.2,3.9-2.3,9-3.7,12c-4.1,9-9.7,13.3-19.2,20.9c-4.4,3.5-9.9,6.8-15.5,9.1c-3.4,1.4-13.5,3.2-17.4,3.9
		c-9.3,1.8-13.6,0.7-21.7-1.8C-1007.3,507.2-1008.5,503.9-1008,503.9"/>
	<g>
		<path class="st4" d="M-931.7,460.1c3.2-5,7.4-13.6,3.6-19.3c-1.6-2.4-5.4-0.9-4.7,2c1.4,6.1-1.5,11.8-5.3,16.4
			c-2.1,2.6,1.5,6.2,3.7,3.7c5.1-6.1,8.5-13.4,6.6-21.5c-1.6,0.7-3.2,1.3-4.7,2c2.6,3.8-1.5,10.8-3.6,14
			C-938,460.3-933.5,462.9-931.7,460.1L-931.7,460.1z"/>
	</g>
	<g>
		<path class="st3" d="M-933.6,452.8c0.2,1,0.8,1.9,1.7,2.5c0.3,0.2,0.5-0.3,0.3-0.4c-0.8-0.5-1.3-1.2-1.4-2.1
			C-933.1,452.4-933.6,452.5-933.6,452.8L-933.6,452.8z"/>
	</g>
	<g>
		<path class="st3" d="M-1008.2,503.2c0,0.7,0,1.5,0.1,2.2c0.2,0.8,0.6,1.5,1,2.1c0.5,0.9,1.8,0.1,1.3-0.8c-0.3-0.6-0.7-1.1-0.8-1.8
			c-0.1-0.6-0.1-1.2-0.1-1.8C-1006.6,502.2-1008.2,502.2-1008.2,503.2L-1008.2,503.2z"/>
	</g>
</g>
<path class="st5" d="M-1002.8,548.1c-8.5,2.2-13.1,6.1-14.8,13.7c-0.4,1.6,0.4,9.3,1.6,12.4c1.7,4.5,7.4,9.4,9.7,10.4
	c5.9,2.6,11.7,4.5,17.2,4.5c5.1-0.1,10-1.2,14.7-3.4c6.7-3.1,13-6.4,14.2-15.9c0.3-2.2-0.8-11.2-2-13.8c-4.2-8.7-15.8-10.1-25.2-8.3
	C-991.7,548.3-999.5,547-1002.8,548.1"/>
<path class="st1" d="M-977.7,548.3c-2.9-0.8-4.6-1.2-7-0.3c-0.6,0.2-2.5,0.7-3.1,1c-1.1,0.6-2.9,1.4-3.5,1.3
	c-1.1-0.2-0.8,0.1-1.9-0.4c-0.9-0.4-2.8-1.5-3.7-1.9c-1.9-1-4.7-0.3-6.9,0.1c-1,0.1-4.9,1.4-5.2,0.7c-0.5-1,3-4,4.3-4.2
	c2.7-0.4,4.8-0.8,7.6-0.5c1.1,0.1,1.8,0.5,2.7,1.2c0.3,0.2,1,1.2,1.2,1.3c-0.1-0.2,0.1-0.8-0.6-1.6c-0.5-0.7-1.3-1.5-2.9-2.6
	c-1.1-0.8-2.8-1.8-4.3-2.8l-0.8-1.3c0-0.6,3.8,0.2,4.4,0.4c2.7,0.6,3.1,0.9,4.5,2.1c0.8,0.6,1.2,1.5,1.7,2.3
	c0.5,0.8,0.9,1.9,1.6,2.5c0.1,0,0.1,0.1,0.2,0.1c1.7-0.6,4.1-1.4,5.9-1.7c2.1-0.3,4.9,0.3,7,0.8c1.2,0.3,3.8,0.8,3.4,1.8
	C-973.2,547.4-976.7,548.6-977.7,548.3z"/>
<path class="st1" d="M-990.9,547.2c0,0,2.7-5.7,4.1-8s4.7-3.3,4.7-3.3s0.6,1.2,0.2,2.8s-2.2,3.5-3,4.6c-0.7,1.1-3.6,4.7-3.6,4.7
	L-990.9,547.2z"/>
<g>
	<path class="st4" d="M-991.3,646.8c0-1.8,0.3-3.4,0.4-4.9c0.1-0.6-1.1,0.3-1.1-2.1s1.6-1.6,1.5-2.3c-0.2-1.6,0.3-2.5-0.8-2.6
		c-1.7-0.2-3.5-0.3-3.7-2.5c-0.2-2.3,1.1-3.4,3.1-3.4c1.8,0,1.2-2,0.9-4.5l-86.9,17.9c0.4,1.3,0.6,2.5,0.7,3.8
		c0.1,1.3,0.1,2.5,0.1,3.8c1.3,0.8,2.4,2.4,2.4,3.5c0,2.4-1.4,2.9-2.6,3.8c-0.1,1,0,1.7,0.6,4.8c0.1,0.4,0.2,0.9,0.5,1.2
		c0.7,0.8,1.9,0.6,3,0.4c4.6-1.1,6.9-1.5,11.6-1.4c2.3,0.1,4.6,0.5,6.9,0.1c0.5-0.1-0.1-1.8,1.4-2.2c1.8-0.4,1.4,1.8,2,1.7
		c2.7-0.4,5.9-0.8,7.5-1.2c4-0.9,8.7-0.7,12.7,0c1.5,0.2,3.3,0.1,5.4-0.1c1-0.1,0.4-2.7,4.3-2.9c3.4-0.2,3.2,2.1,4.3,2
		c1.9-0.2,1.6-0.2,3.7-0.3c6.5-0.2,6.7-0.9,13.2-1.1c2.7-0.1,4.5-1.7,7.2-2.2c0.8-0.1,1.7-0.4,2.2-1c0.4-0.5,0.5-1.2,0.5-1.8
		C-990.3,651.7-991.3,648.9-991.3,646.8z M-1070.2,660.5c-1,0-2.7,0.6-3.5,0.3c-0.7-0.2-0.6-1.5-0.2-2.3c0.4-0.8,1.9-1,1.9-1
		s2.4,0.1,2.8,0.6C-1068.7,658.7-1069.2,660.5-1070.2,660.5z M-1055.1,649.8c-0.8,0-2.4,1-3,0.6c-0.6-0.4-3.4-1.6-3-3
		c0.4-1.4,4.5-2.8,4.5-2.8s2.1,0.1,2.4,1.1C-1053.9,646.8-1054.3,649.8-1055.1,649.8z M-1037,655.2c-1.8,0-3.1,1.5-4.4,1.1
		c-1.4-0.5-2.3-1.7-1.5-3.2s4.1-3.5,4.1-3.5s3.4-0.3,4.1,0.8C-1034,651.4-1035.2,655.2-1037,655.2z M-1019.1,642.9
		c-1.8,0-3.2,1-4.6,0.6c-1.4-0.4-1.3-4.6-0.6-6c0.8-1.4,3.5-1.7,3.5-1.7s4.5,0.1,5.3,1.1C-1014.8,638-1017.3,642.9-1019.1,642.9z
		 M-998.4,652.6c-1.8,0-5.2,1.1-6.6,0.6c-1.4-0.5-1.1-2.9-0.3-4.4s3.5-1.8,3.5-1.8s4.6,0.2,5.4,1.2
		C-995.7,649.2-996.6,652.6-998.4,652.6z"/>
</g>
<path class="st5" d="M-1078.1,641.2c2.8-2,10.3-4.5,10.1-4.4c-2.1,1,5.2-3.2,7.2-4.3c2.4-1.3,4.5-2.6,8-4.3c1.5-0.8,4-1.2,5.5-1.9
	c2.4-1.2,3.7-2.5,5.5-3.3c2.5-1.1,6.3-2.1,8-2.7c3.3-1.2,4-1.7,8.5-3.7c1.2-0.5,2.9-1.8,4.3-1.9c1.4-0.1,4.6,0.2,5.9,0.6
	c2.7,0.9,6.9,2.8,9.6,3.6c5.6,1.8,7.9,2.7,13.5,4.5c1,0.5,0.4,1.6-0.6,1.8c-2.3,0.5-4.5,0.2-6.5,0.5c-1.9,0.3-3.8,1.4-5.7,1.7
	c-2.1,0.4-3.2,0.6-5.6,1.1c-2,0.4-4.1,1-6.1,1.4c-1.4,0.2-3.9,0.4-5.4,0.6c-2.9,0.5-5.5,1.9-8.3,2.4c-2.1,0.4-4.5,0.5-8.6,1.5
	c-2.8,0.7-6,1.6-8.4,2.1c-1.6,0.4-6.5,0.6-7.5,0.8c-3.6,0.7-3.5,1.5-6.1,2.1c-2.4,0.6-4.8,0.4-7.4,1.1c-2.1,0.5-5.2,1.8-8,2.4
	C-1076.3,643.1-1080.4,642.9-1078.1,641.2z"/>
<g>
	<path class="st6" d="M-1201.4,449.8c0,0-0.2-0.3,2.2,2.6c2.2,2.6,4.8,18.4,0.1,24.9c-2.6,3.5-7.8,10.7-13,12.8
		c-2.6,1-17.8,4.9-25,3.7c-4-0.7-10.2-3.1-15.3-2.7c-5.1,0.4-13.1,0.6-18.6,0.8c-6.2,0.2-15.6-4-17.2-6.8c-1.6-2.7-0.6-9.4-0.6-9.4
		s16.8-6.5,18.2-6.5c1.5,0,40.8-16.4,42.3-17.1C-1226.9,451.3-1201.4,449.8-1201.4,449.8z"/>
	<path class="st5" d="M-1201.6,468.7c1.4-2.3,3-6.1,3.1-8.1c0.3-5.9-1.4-11.5-5.5-15c-4.4-3.7-10-4.8-15.7-5.8
		c-5.9-1.1-12.8-1.2-18.6,0.4c-7.6,2-13.9,14.8-20.8,18.6s-15,4.6-21.5,6.2c-6.9,4.4-5.8,5.4-7.3,8.4c-1.5,2.9,1.2,5.9,3.7,8
		s5.8,2.9,9,3.5c14.2,2.7,20.5-2.6,34.3,1.6c8.4,2.6,18.6-0.7,24.8-3.3s6.6-4.6,13.5-13.1C-1202.2,469.7-1201.9,469.3-1201.6,468.7z
		"/>
	<path class="st7" d="M-1248.7,465.6c0,0,6.6-2.3,10-4.1c3.4-1.7,6.8-2.6,6.4-4.1c-0.3-1.5-3.1-4.4-3.6-5.6
		c-0.5-1.2-0.3-3.3,1.7-1.3c2.1,2,3.2,3.3,4.8,5.4c1.8,2.3,3,3.7,5.2,5.2c2.4,1.3,4.8,2.9,5.8,3.3c1,0.4,0.7,2.5-0.7,1.9
		s-3.9-1.3-5.8-2.4c-1.9-1.1-2.6-2.8-4.7-2.7c-2.2,0.1-4.6,2.2-8.2,3.5c-3.6,1.3-6,2.1-9.3,2.9c-3.3,0.7-7,3.3-8.4,1.6
		C-1256.1,468.3-1254,467.2-1248.7,465.6z"/>
</g>
<g>
	<path class="st4" d="M-1199.1,650.3l9.9,21.8c0,0,1.5,4.5,5.4,2.7c2.8-1.2,2.8-2.2,0.8-6.5c-1.9-4.3-9.1-20.2-9.1-20.2
		L-1199.1,650.3z"/>
	<path class="st7" d="M-1204.4,659.3c0,0-3.7,2.1-8.7-7.8c-3.1-6.2-13.8-34.5-13.8-38.7c0-4.2,1.5-12.9,9-15.3
		c10.3-3.3,15.8,1.8,19.9,8.8s14.4,28.6,15.9,33.1c1.5,4.5,3.3,9.3-1.8,11.6C-1188.9,653.2-1204.4,659.3-1204.4,659.3z"/>
	<path class="st1" d="M-1213.1,651.5c-3.1-6.2-13.8-34.5-13.8-38.7c0-4.2,1.5-12.9,9-15.3c10.3-3.3,15.8,1.8,19.9,8.8
		s14.4,28.6,15.9,33.1C-1189.1,642.8-1203.2,649.8-1213.1,651.5z"/>
</g>
<g>
	<path class="st6" d="M-1286.6,623.2c0,0-0.3,3.1-0.4,4.1c0,1-0.2,4.6-0.2,4.6s-9.4-5.4-10.2-5.9c-0.8-0.5,1.9-7.5,1.9-7.5l9.3,1.5
		L-1286.6,623.2z"/>
	<path class="st6" d="M-1287.2,631.9c0,0,19.4-2.6,20.4-2.7c1-0.2-2.3-8.8-2.3-8.8l-10.8-1.8l-7.5,1.2L-1287.2,631.9z"/>
	<path class="st5" d="M-1293,620.1c0,0,1.1,0.5,1.7,0.8c0.6,0.3,4.3,1.9,4.7,2.3c0.4,0.4,5.3-0.7,7.3-0.9c2-0.2,5.7-1.3,6.7-1.5
		c1-0.2,2.6-0.2,3.5-0.5c-1.6-1-4.7-2-6.2-3.1c-1.5-1-2.8-1.5-4.1-1.9c-0.5-0.2-3.8,0.6-7.6,1.4c-3.8,0.8-8.2,1.6-8.6,1.7
		C-1296.2,618.9-1293,620.1-1293,620.1z"/>
	<path class="st6" d="M-1272.1,631.6c0,0,1.6,3.3,1.6,4.3c0,1-1.6,5.2-1.6,5.2s-10-6.3-10.8-6.8c-0.8-0.5,1.9-7.5,1.9-7.5l9.3,1.5
		L-1272.1,631.6z"/>
	<path class="st6" d="M-1272.1,641.1c0,0,18-5.1,19-5.2c1-0.2-1.4-7.2-1.4-7.2l-10.8-1.8l-7.5,1.2L-1272.1,641.1z"/>
	<path class="st5" d="M-1278.5,628.5c0,0,1.1,0.5,1.7,0.8c0.6,0.3,4.3,1.9,4.7,2.3c0.4,0.4,5.3-0.7,7.3-0.9s5.7-1.3,6.7-1.5
		c1-0.2,2.6-0.2,3.5-0.5c-1.6-1-4.7-2-6.2-3.1c-1.5-1-2.8-1.5-4.1-1.9c-0.5-0.2-3.8,0.6-7.6,1.4c-3.8,0.8-8.2,1.6-8.6,1.7
		C-1281.7,627.3-1278.5,628.5-1278.5,628.5z"/>
	<path class="st6" d="M-1308.1,628.5c0,0-0.3,3.1-0.4,4.1c0,1-0.2,4.6-0.2,4.6s-9.4-5.4-10.2-5.9c-0.8-0.5,1.9-7.5,1.9-7.5l9.3,1.5
		L-1308.1,628.5z"/>
	<path class="st6" d="M-1308.7,637.2c0,0,19.4-2.6,20.4-2.7c1-0.2-2.3-8.8-2.3-8.8l-10.8-1.8l-7.5,1.2L-1308.7,637.2z"/>
	<path class="st5" d="M-1313.7,624.7c0,0,1.1,0.5,1.7,0.8c0.6,0.3,4.3,1.9,4.7,2.3s5.3-0.7,7.3-0.9s5.7-1.3,6.7-1.5
		c1-0.2,2.6-0.2,3.5-0.5c-1.6-1-4.7-2-6.2-3.1c-1.5-1-2.8-1.5-4.1-1.9c-0.5-0.2-3.8,0.6-7.6,1.4c-3.8,0.8-8.2,1.6-8.6,1.7
		C-1317,623.4-1313.7,624.7-1313.7,624.7z"/>
	<path class="st6" d="M-1293.6,636.9c0,0,1.6,3.3,1.6,4.3c0,1-1.6,5.2-1.6,5.2s-10-6.3-10.8-6.8c-0.8-0.5,1.9-7.5,1.9-7.5l9.3,1.5
		L-1293.6,636.9z"/>
	<path class="st6" d="M-1293.6,646.4c0,0,18-5.1,19-5.2c1-0.2-1.4-7.2-1.4-7.2l-10.8-1.8l-7.5,1.2L-1293.6,646.4z"/>
	<path class="st5" d="M-1300,633.8c0,0,1.1,0.5,1.7,0.8c0.6,0.3,4.3,1.9,4.7,2.3s5.3-0.7,7.3-0.9c2-0.2,5.7-1.3,6.7-1.5
		c1-0.2,2.6-0.2,3.5-0.5c-1.6-1-4.7-2-6.2-3.1c-1.5-1-2.8-1.5-4.1-1.9c-0.5-0.2-3.8,0.6-7.6,1.4c-3.8,0.8-8.2,1.6-8.6,1.7
		C-1303.2,632.6-1300,633.8-1300,633.8z"/>
	<path class="st6" d="M-1329.5,633.8c0,0-0.3,3.1-0.4,4.1c0,1-0.2,4.6-0.2,4.6s-9-1.4-9.9-1.9c-0.8-0.5,1.6-11.5,1.6-11.5l9.3,1.5
		L-1329.5,633.8z"/>
	<path class="st6" d="M-1330.1,642.5c0,0,19.4-2.6,20.4-2.7c1-0.2-2.3-8.8-2.3-8.8l-10.8-1.8l-7.5,1.2L-1330.1,642.5z"/>
	<path class="st5" d="M-1335.2,630c0,0,1.1,0.5,1.7,0.8c0.6,0.3,4.3,1.9,4.7,2.3c0.4,0.4,5.3-0.7,7.3-0.9s5.7-1.3,6.7-1.5
		c1-0.2,2.6-0.2,3.5-0.5c-1.6-1-4.7-2-6.2-3.1c-1.5-1-2.8-1.5-4.1-1.9c-0.5-0.2-3.8,0.6-7.6,1.4c-3.8,0.8-8.2,1.6-8.6,1.7
		C-1338.4,628.7-1335.2,630-1335.2,630z"/>
	<path class="st6" d="M-1315,642.2c0,0,1.6,3.3,1.6,4.3c0,1-1.6,5.2-1.6,5.2s-10-6.3-10.8-6.8c-0.8-0.5,1.9-7.5,1.9-7.5l9.3,1.5
		L-1315,642.2z"/>
	<path class="st6" d="M-1315,651.7c0,0,18-5.1,19-5.2c1-0.2-1.4-7.2-1.4-7.2l-10.8-1.8l-7.5,1.2L-1315,651.7z"/>
	<path class="st5" d="M-1321.4,639.1c0,0,1.1,0.5,1.7,0.8c0.6,0.3,4.3,1.9,4.7,2.3c0.4,0.4,5.3-0.7,7.3-0.9s5.7-1.3,6.7-1.5
		s2.6-0.2,3.5-0.5c-1.6-1-4.7-2-6.2-3.1c-1.5-1-2.8-1.5-4.1-1.9c-0.5-0.2-3.8,0.6-7.6,1.4c-3.8,0.8-8.2,1.6-8.6,1.7
		C-1324.7,637.8-1321.4,639.1-1321.4,639.1z"/>
	<path class="st6" d="M-1314.9,642.9l-0.3,11.8l62.2-15.3l-0.1-5.1l-5.8-1.8c0,0-49.4,13.5-49.9,13.7S-1314.9,642.9-1314.9,642.9z"
		/>
	<polygon class="st6" points="-1315.2,654.7 -1340,640.5 -1334.3,636.1 -1309.8,648.9 	"/>
</g>
<g>
	<path class="st8" d="M-1344.4,562c12.8-2,33.8-9.5,40.1-12.4c6.3-2.9,12.9-4.1,19.1-4.3c7.2-0.2,14.9,1.6,17.3,5.4
		c2.6,4.2,3.2,15.3,4.4,18.7s3.6,5.6,4.6,2.9s3.6-13.9,5.8-16.2c2.2-2.3,9-2.9,12-4.5c3-1.6,5.5-4.4-1.3-5.6s-17.2-1-18.7-2.4
		c-1.6-1.5-8.1-18.2-30.5-21.5c-10.2-1.5-10.1-0.3-9.2-2.1c1.8-3.9,4-4.9,2.7-6.3c-1.3-1.3-21.8,1.2-23.1,2.3c-1.3,1.2-5.4,5-5.4,5
		s-13.7,1.7-21.4,7.3C-1355.4,533.7-1345.5,546.5-1344.4,562z"/>
	<path class="st6" d="M-1361.2,554.5c1.9-0.4,6.9-0.1,8.5-0.2c-2.8-1.4-5.3-2-8.7-1.7c-3.2,0.2-4.7,1.2-5.7,0
		c-0.6-0.8,0.6-6.9,1.4-9c3-7.6,9.6-12.4,17.8-15.2c6.2-2.1,16.4,31.7,3.6,33.7c-12.8,2-19.9-2.7-19.9-2.7c-1.1-0.5-3.4-2.7-2.1-3.3
		C-1365,555.4-1365.2,555.3-1361.2,554.5z"/>
	<path class="st1" d="M-1351.9,544.1c1.6,0.4,2.4-1.1,2.4-1.8c0-0.7-0.6-1.8-1.6-1.8c-1,0-1.7,0.4-2,1.1
		C-1353.5,543.1-1352.8,543.9-1351.9,544.1z"/>
	<path class="st6" d="M-1323.2,546.5c0,0,9.5,0.9,14.3-2c4.7-2.9,14.8-11.3,14.8-11.3s-0.2-3-9.1,0.4c-8.9,3.4-14.9,4.4-16.9,5.4
		S-1326.5,546.6-1323.2,546.5z"/>
</g>
<g>
	<g>
		<path class="st2" d="M-1179.9,559.5h-8.1v2.8h6.5v3.8h-6.5v5.9h-5v-16.3h13.1V559.5z"/>
		<path class="st2" d="M-1173.8,559.5c1.3,0,2.5,0.3,3.5,0.8s1.8,1.2,2.3,2.2c0.6,1,0.8,2.1,0.8,3.5c0,1.3-0.3,2.5-0.8,3.5
			c-0.6,1-1.3,1.7-2.3,2.2s-2.2,0.8-3.5,0.8c-1.3,0-2.5-0.3-3.5-0.8s-1.8-1.2-2.4-2.2c-0.6-1-0.8-2.1-0.8-3.5c0-1.4,0.3-2.5,0.8-3.5
			c0.6-1,1.4-1.7,2.4-2.2S-1175.1,559.5-1173.8,559.5z M-1173.8,562.9c-0.4,0-0.7,0.1-0.9,0.3s-0.4,0.5-0.6,0.9
			c-0.1,0.4-0.2,1-0.2,1.8c0,0.7,0.1,1.3,0.2,1.8c0.1,0.4,0.3,0.7,0.6,0.9c0.3,0.2,0.6,0.3,0.9,0.3c0.4,0,0.7-0.1,0.9-0.3
			c0.2-0.2,0.4-0.5,0.6-0.9c0.1-0.4,0.2-1,0.2-1.8c0-0.7-0.1-1.3-0.2-1.8c-0.1-0.4-0.3-0.8-0.6-0.9
			C-1173.1,563-1173.4,562.9-1173.8,562.9z"/>
		<path class="st2" d="M-1159.7,559.5c1.3,0,2.5,0.3,3.5,0.8c1,0.5,1.8,1.2,2.3,2.2c0.6,1,0.8,2.1,0.8,3.5c0,1.3-0.3,2.5-0.8,3.5
			c-0.6,1-1.3,1.7-2.3,2.2c-1,0.5-2.2,0.8-3.5,0.8c-1.3,0-2.5-0.3-3.5-0.8c-1-0.5-1.8-1.2-2.4-2.2c-0.6-1-0.9-2.1-0.9-3.5
			c0-1.4,0.3-2.5,0.9-3.5c0.6-1,1.4-1.7,2.4-2.2C-1162.1,559.7-1161,559.5-1159.7,559.5z M-1159.7,562.9c-0.4,0-0.7,0.1-0.9,0.3
			c-0.3,0.2-0.4,0.5-0.6,0.9c-0.1,0.4-0.2,1-0.2,1.8c0,0.7,0.1,1.3,0.2,1.8c0.1,0.4,0.3,0.7,0.6,0.9c0.3,0.2,0.6,0.3,0.9,0.3
			c0.4,0,0.7-0.1,0.9-0.3c0.2-0.2,0.4-0.5,0.6-0.9c0.1-0.4,0.2-1,0.2-1.8c0-0.7-0.1-1.3-0.2-1.8c-0.1-0.4-0.3-0.8-0.6-0.9
			C-1159,563-1159.3,562.9-1159.7,562.9z"/>
		<path class="st2" d="M-1147.3,572.3c-1,0-1.9-0.3-2.6-0.8c-0.7-0.5-1.3-1.2-1.7-2.2c-0.4-1-0.6-2.1-0.6-3.4c0-1.4,0.2-2.5,0.6-3.5
			c0.4-1,1-1.7,1.7-2.2c0.7-0.5,1.6-0.8,2.6-0.8c1.2,0,2.1,0.4,2.7,1.1c0.7,0.7,1.1,1.7,1.3,2.8l-0.4,0.6v-8.3h5V572h-4.5l-0.3-4.6
			l0.6,0.6c-0.1,0.8-0.3,1.6-0.7,2.2c-0.4,0.6-0.9,1.2-1.5,1.5C-1145.7,572.1-1146.5,572.3-1147.3,572.3z M-1145.4,568.7
			c0.4,0,0.7-0.1,0.9-0.3c0.2-0.2,0.4-0.5,0.6-1c0.1-0.4,0.2-1,0.2-1.6c0-0.6-0.1-1.1-0.2-1.5c-0.1-0.4-0.3-0.7-0.6-0.9
			c-0.3-0.2-0.6-0.3-0.9-0.3c-0.5,0-1,0.2-1.3,0.6c-0.3,0.4-0.5,1.2-0.5,2.2s0.2,1.8,0.5,2.2
			C-1146.3,568.5-1145.9,568.7-1145.4,568.7z"/>
		<path class="st2" d="M-1122.2,555.8v3.8h-5.2V572h-5v-12.5h-5.2v-3.8H-1122.2z"/>
		<path class="st2" d="M-1118.5,572.3c-0.8,0-1.6-0.1-2.2-0.4c-0.6-0.3-1.1-0.7-1.4-1.4c-0.3-0.6-0.5-1.5-0.5-2.5v-8.3h5v7.1
			c0,0.6,0.1,1.1,0.3,1.3s0.6,0.4,1,0.4c0.2,0,0.4,0,0.6-0.1c0.2-0.1,0.4-0.2,0.5-0.4s0.2-0.4,0.3-0.7c0.1-0.3,0.1-0.6,0.1-1v-6.6h5
			V572h-4.5l-0.1-2.5c-0.4,0.9-0.9,1.6-1.6,2C-1116.6,572-1117.5,572.3-1118.5,572.3z"/>
		<path class="st2" d="M-1107.9,572v-12.3h4.5l0.2,4.8l-0.5-0.5c0.1-1,0.4-1.8,0.8-2.4c0.4-0.7,0.9-1.2,1.6-1.5
			c0.6-0.3,1.4-0.5,2.3-0.5c0.8,0,1.6,0.2,2.2,0.5c0.6,0.3,1.1,0.8,1.4,1.4c0.3,0.6,0.5,1.4,0.5,2.3v8.3h-5v-7
			c0-0.7-0.1-1.2-0.3-1.4s-0.5-0.4-0.9-0.4c-0.3,0-0.6,0.1-0.9,0.2c-0.3,0.2-0.5,0.4-0.6,0.8c-0.1,0.3-0.2,0.8-0.2,1.4v6.5H-1107.9z
			"/>
		<path class="st2" d="M-1087,572.3c-1.4,0-2.6-0.3-3.7-0.8s-1.8-1.2-2.4-2.2c-0.5-1-0.8-2.1-0.8-3.5c0-1.4,0.3-2.5,0.8-3.5
			c0.6-1,1.3-1.7,2.3-2.2c1-0.5,2.2-0.8,3.5-0.8c1.3,0,2.5,0.3,3.4,0.8s1.7,1.2,2.2,2.1c0.5,0.9,0.8,1.9,0.8,3.1c0,0.3,0,0.6,0,0.8
			c0,0.3-0.1,0.5-0.1,0.7h-9.7v-2.2h7.5l-2.4,0.9c0-0.9-0.1-1.6-0.4-2.1s-0.7-0.7-1.3-0.7c-0.4,0-0.8,0.1-1.1,0.3
			c-0.3,0.2-0.5,0.5-0.6,1c-0.1,0.5-0.2,1.1-0.2,1.8c0,0.8,0.1,1.4,0.3,1.8c0.2,0.4,0.4,0.7,0.7,0.9c0.3,0.2,0.7,0.2,1.2,0.2
			c0.5,0,0.9-0.1,1.2-0.3c0.3-0.2,0.5-0.5,0.6-0.9l4,1.2c-0.2,0.8-0.6,1.4-1.2,1.9c-0.6,0.5-1.3,0.9-2.1,1.1
			C-1085.2,572.1-1086.1,572.3-1087,572.3z"/>
		<path class="st2" d="M-1074.1,572.3c-1.2,0-2.4-0.2-3.5-0.5c-1.1-0.4-2-0.9-2.8-1.6l2-2.6c0.4,0.4,1,0.8,1.7,1.2
			c0.7,0.3,1.4,0.5,2.2,0.5c0.4,0,0.7-0.1,1-0.1c0.3-0.1,0.4-0.3,0.4-0.5c0-0.2-0.1-0.3-0.2-0.4c-0.1-0.1-0.4-0.2-0.9-0.3l-1.3-0.2
			c-1.7-0.3-2.9-0.8-3.6-1.4c-0.7-0.6-1-1.5-1-2.5c0-0.7,0.2-1.3,0.6-2c0.4-0.6,1.1-1.2,2-1.6c0.9-0.4,2.1-0.6,3.5-0.6
			c1.3,0,2.4,0.2,3.4,0.5c1,0.3,1.8,0.8,2.4,1.4l-1.9,2.6c-0.4-0.4-1-0.8-1.7-1c-0.7-0.2-1.3-0.4-1.9-0.4c-0.3,0-0.6,0-0.8,0.1
			c-0.2,0.1-0.4,0.1-0.5,0.2c-0.1,0.1-0.2,0.2-0.2,0.4c0,0.2,0.1,0.3,0.3,0.4s0.5,0.2,1,0.3l2,0.3c1.3,0.2,2.2,0.7,2.8,1.3
			s0.9,1.4,0.9,2.3c0,0.8-0.2,1.5-0.6,2.2c-0.4,0.7-1.1,1.2-2,1.6C-1071.6,572.1-1072.7,572.3-1074.1,572.3z"/>
	</g>
	<g>
		<path d="M-1065,559.5c-0.5,0-1-0.1-1.3-0.3c-0.4-0.2-0.7-0.5-0.9-0.9c-0.2-0.4-0.3-0.8-0.3-1.3c0-0.5,0.1-0.9,0.3-1.3
			c0.2-0.4,0.5-0.7,0.9-0.9c0.4-0.2,0.8-0.3,1.3-0.3c0.5,0,1,0.1,1.3,0.3c0.4,0.2,0.7,0.5,0.9,0.9c0.2,0.4,0.3,0.8,0.3,1.3
			c0,0.5-0.1,0.9-0.3,1.3c-0.2,0.4-0.5,0.7-0.9,0.9C-1064.1,559.4-1064.5,559.5-1065,559.5z M-1065,559.2c0.4,0,0.8-0.1,1.2-0.3
			c0.3-0.2,0.6-0.5,0.8-0.8s0.3-0.7,0.3-1.2c0-0.4-0.1-0.8-0.3-1.2s-0.4-0.6-0.8-0.8c-0.3-0.2-0.7-0.3-1.2-0.3
			c-0.4,0-0.8,0.1-1.2,0.3c-0.3,0.2-0.6,0.5-0.8,0.8s-0.3,0.7-0.3,1.2c0,0.4,0.1,0.8,0.3,1.2s0.4,0.6,0.8,0.8
			C-1065.9,559.1-1065.5,559.2-1065,559.2z M-1065,558.4c-0.4,0-0.8-0.1-1-0.4c-0.2-0.3-0.4-0.6-0.4-1c0-0.4,0.1-0.8,0.4-1
			c0.2-0.3,0.6-0.4,1-0.4c0.3,0,0.5,0.1,0.7,0.2c0.2,0.1,0.3,0.3,0.4,0.5l-0.3,0.1c-0.1-0.2-0.2-0.3-0.3-0.4
			c-0.1-0.1-0.3-0.1-0.6-0.1c-0.3,0-0.6,0.1-0.8,0.3c-0.2,0.2-0.3,0.5-0.3,0.8c0,0.3,0.1,0.6,0.3,0.8c0.2,0.2,0.4,0.3,0.8,0.3
			c0.2,0,0.4-0.1,0.6-0.2c0.2-0.1,0.3-0.3,0.3-0.5l0.3,0.1c-0.1,0.2-0.2,0.4-0.4,0.6C-1064.4,558.3-1064.7,558.4-1065,558.4z"/>
	</g>
</g>
<g>
	<path class="st4" d="M-990.9,62.2c0.7-1.3,1.5-2.4,2.4-3.3c1.4-1.4,2.4-3.1,4.5-4.1c3.6-1.9,8.4-1.5,12.3-2.4
		c3.6-0.8,6.9-2.2,10.3-4c6.9-3.6,10-6.4,14.8-12.6c1.5-2,3.7-4.1,5.7-6.9c2-2.8,3.8-6.4,5.7-8c2.2-2,6.8-1.6,9.5-2.9
		c1,2.9,2,7.1,1.1,10c-1,3.3-2,7.5-3.1,10.1c-3.5,7.6-8.1,11.1-16.1,17.6c-3.7,3-8.3,5.7-13,7.7c-2.8,1.2-11.3,2.7-14.6,3.3
		c-7.8,1.5-11.4,0.5-18.3-1.5C-990.3,65-991.3,62.2-990.9,62.2"/>
	<g>
		<path class="st4" d="M-926.8,25.4c2.7-4.2,6.2-11.5,3-16.2c-1.4-2-4.5-0.8-4,1.7c1.2,5.1-1.3,9.9-4.5,13.8
			c-1.8,2.1,1.3,5.2,3.1,3.1c4.3-5.2,7.1-11.3,5.6-18c-1.3,0.6-2.6,1.1-4,1.7c2.2,3.2-1.2,9.1-3,11.8
			C-932.1,25.6-928.3,27.7-926.8,25.4L-926.8,25.4z"/>
	</g>
	<g>
		<path class="st3" d="M-928.4,19.3c0.1,0.9,0.7,1.6,1.4,2.1c0.2,0.1,0.5-0.2,0.2-0.4c-0.7-0.4-1.1-1-1.2-1.8
			C-928,18.9-928.4,19-928.4,19.3L-928.4,19.3z"/>
	</g>
	<g>
		<path class="st3" d="M-991.1,61.6c0,0.6,0,1.2,0.1,1.8c0.1,0.7,0.5,1.2,0.8,1.8c0.4,0.7,1.6,0.1,1.1-0.7c-0.3-0.5-0.6-0.9-0.7-1.5
			c-0.1-0.5-0.1-1-0.1-1.5C-989.8,60.8-991.1,60.8-991.1,61.6L-991.1,61.6z"/>
	</g>
</g>
<g>
	<path class="st7" d="M-1048.4,53.3c-4.1,1.9-4,2.3-8,4.4c-5.4,2.8-17.2,8.2-23.2,8.5c-0.7,0-1.4,0-2.1-0.3
		c-1.2-0.6-2.3-1.6-2.2-3.1l0,0c-0.5-0.8,0-3.1,0.8-3.7c1.7-1.4,11.2-3.9,15.2-4.9c4.6-1.2,9.1-1.9,10.8-3l14.6-6.6
		C-1035.6,47.8-1046,52.2-1048.4,53.3z"/>
	<path class="st1" d="M-992.2,37.7c-9.5-0.6-29,6-38,8.3c-2.9,0.7-10.8,3.5-19.4,8.1c-2.6,1.4-3.7,2.4-5.9,3.1
		c2.8-4,1.1-5.5-2.7-5.5c8-3.9,16.1-9.5,22.7-15.3c6.1-5.4,20.1-20.7,26.3-26.1c2.2,1.7,4,2.5,3.4,4.6c-2.6,2.2-26.1,24.1-28.4,26.7
		c2.9-2,18-14.6,21.2-16.1c3.5-1.6,15.4-9.7,19.1-10.9c1.9,1.1,1.9,2.6,2.1,5.3c-3.7,1.2-15.9,9.2-19.4,11
		c-4.1,2.1-7.8,4.9-11.7,7.5c8.7-3.1,23.2-6.4,32.5-6.3C-990.8,33.5-991.2,35.6-992.2,37.7z"/>
	<g>
		<path class="st3" d="M-1082.9,63.3c-0.8,0.3-1.6,0.7-2.3,1.2c-0.2,0.1,0,0.4,0.2,0.3c0.7-0.5,1.4-0.8,2.2-1.1
			C-1082.6,63.6-1082.7,63.2-1082.9,63.3L-1082.9,63.3z"/>
	</g>
	<g>
		<path class="st3" d="M-1083.9,62.4c-0.8,0.1-1.5,0.2-2.3,0.2c-0.2,0-0.2,0.4,0,0.4c0.8-0.1,1.5-0.2,2.3-0.2
			C-1083.7,62.8-1083.7,62.4-1083.9,62.4L-1083.9,62.4z"/>
	</g>
	<g>
		<path class="st3" d="M-1084,61c-0.7-0.2-1.4-0.5-2.1-0.7c-0.2-0.1-0.3,0.3-0.1,0.4c0.7,0.2,1.4,0.5,2.1,0.7
			C-1083.9,61.5-1083.8,61.1-1084,61L-1084,61z"/>
	</g>
	<g>
		<path class="st3" d="M-1082.3,64.8c-0.4,0.7-0.9,1.2-1.5,1.8c-0.2,0.2,0.1,0.4,0.3,0.3c0.6-0.5,1.1-1.2,1.5-1.8
			C-1081.9,64.8-1082.2,64.6-1082.3,64.8L-1082.3,64.8z"/>
	</g>
</g>
<g>
	<path class="st5" d="M-987.2,182.8c-7.2,1.8-11.2,5.1-12.4,11.5c-1.6,11.2,3,23.2,23.9,22.9c20.9-0.3,23.1-8.3,24.3-16.3
		c0.6-4.6-0.6-9.4-1.7-11.6c-3.5-7.3-13.2-8.5-21.2-7C-977.9,183-984.5,181.9-987.2,182.8"/>
	<path class="st1" d="M-966.2,183c-2.5-0.7-3.8-1-5.9-0.3c-0.5,0.2-2.1,0.6-2.6,0.8c-0.9,0.5-2.5,1.2-3,1.1
		c-0.9-0.2-0.7,0.1-1.6-0.3c-0.7-0.3-2.4-1.2-3.1-1.6c-1.6-0.8-4-0.2-5.8,0c-0.8,0.1-4.1,1.2-4.4,0.6c-0.4-0.8,2.5-3.4,3.6-3.6
		c2.3-0.3,4-0.7,6.4-0.4c0.9,0.1,1.5,0.4,2.3,1c0.2,0.2,0.8,1,1,1.1c-0.1-0.2,0.1-0.6-0.5-1.3c-0.4-0.5-1.1-1.2-2.4-2.1
		c-0.9-0.6-2.4-1.5-3.6-2.4l-0.7-1.1c0-0.5,3.2,0.2,3.7,0.3c2.2,0.5,2.6,0.7,3.8,1.8c0.6,0.5,1,1.2,1.5,1.9c0.4,0.6,0.7,1.6,1.3,2.1
		c0,0,0.1,0.1,0.1,0.1c1.4-0.5,3.5-1.2,5-1.4c1.8-0.2,4.1,0.2,5.9,0.7c1,0.3,3.2,0.7,2.8,1.5C-962.4,182.3-965.3,183.2-966.2,183z"
		/>
	<path class="st1" d="M-977,181.3c0,0,2.2-4.8,3.4-6.7c1.2-1.9,3.9-2.7,3.9-2.7s0.5,1,0.2,2.3s-1.9,2.9-2.5,3.9s-3,3.9-3,3.9
		L-977,181.3z"/>
</g>
<g>
	<g>
		<path class="st4" d="M-992.1,98.7c0-1.5,0.2-2.9,0.3-4.1c0-0.5-0.9,0.3-0.9-1.8s1.4-1.3,1.3-1.9c-0.2-1.3,0.3-2.1-0.6-2.2
			c-1.4-0.1-3-0.2-3.1-2.1c-0.1-1.9,0.9-2.8,2.6-2.8c1.5,0,1-1.7,0.7-3.8l-73,15.1c0.3,1.1,0.5,2.1,0.6,3.2c0.1,1.1,0.1,2.1,0.1,3.2
			c1.1,0.6,2,2,2,3c0,2-1.2,2.4-2.2,3.2c-0.1,0.9,0,1.4,0.5,4c0.1,0.4,0.2,0.7,0.4,1c0.6,0.7,1.6,0.5,2.5,0.3c3.9-1,5.8-1.3,9.7-1.2
			c1.9,0,3.9,0.4,5.8,0.1c0.4-0.1-0.1-1.6,1.2-1.8c1.5-0.3,1.2,1.5,1.7,1.4c2.3-0.3,5-0.7,6.3-1c3.4-0.8,7.3-0.6,10.7,0
			c1.2,0.2,2.8,0.1,4.5,0c0.8-0.1,0.4-2.3,3.6-2.4c2.8-0.1,2.7,1.8,3.6,1.7c1.6-0.2,1.4-0.2,3.1-0.2c5.4-0.2,5.7-0.7,11.1-0.9
			c2.3-0.1,3.8-1.4,6.1-1.8c0.7-0.1,1.4-0.3,1.8-0.9c0.3-0.4,0.4-1,0.4-1.5C-991.2,102.8-992,100.5-992.1,98.7z M-1058.3,110.2
			c-0.8,0-2.3,0.5-2.9,0.3c-0.6-0.2-0.5-1.3-0.1-2c0.3-0.7,1.6-0.8,1.6-0.8s2,0.1,2.4,0.5C-1057.1,108.7-1057.5,110.2-1058.3,110.2z
			 M-1045.7,101.3c-0.7,0-2,0.8-2.5,0.5c-0.5-0.3-2.8-1.3-2.6-2.5c0.3-1.2,3.8-2.3,3.8-2.3s1.7,0.1,2,0.9
			C-1044.6,98.7-1045,101.3-1045.7,101.3z M-1030.5,105.8c-1.5,0-2.6,1.3-3.7,0.9c-1.2-0.4-1.9-1.4-1.3-2.7c0.6-1.3,3.5-3,3.5-3
			s2.8-0.3,3.5,0.6C-1027.9,102.6-1028.9,105.8-1030.5,105.8z M-1015.4,95.5c-1.5,0-2.7,0.9-3.9,0.5c-1.1-0.4-1.1-3.9-0.5-5
			c0.6-1.2,2.9-1.4,2.9-1.4s3.8,0.1,4.4,0.9C-1011.8,91.3-1013.9,95.5-1015.4,95.5z M-998,103.6c-1.5,0-4.4,0.9-5.5,0.5
			c-1.2-0.4-0.9-2.4-0.3-3.7c0.6-1.3,3-1.5,3-1.5s3.9,0.1,4.5,1C-995.7,100.8-996.5,103.6-998,103.6z"/>
	</g>
	<path class="st5" d="M-1064.8,95.1c2.6-2.4,7.2-3.7,8.6-4.4c1.3-0.7,4.6-2.4,6.3-3.3c2.1-1.1,3.8-2.2,6.7-3.6
		c1.3-0.6,3.3-1,4.6-1.6c2-1,3.1-2.1,4.6-2.7c2.1-0.9,5.3-1.8,6.7-2.3c2.8-1,3.3-1.4,7.2-3.1c1-0.4,2.5-1.5,3.6-1.6
		c1.2-0.1,3.9,0.2,5,0.5c2.3,0.7,5.8,2.3,8,3.1c4.7,1.5,6.6,2.3,11.4,3.8c0.9,0.4,0.3,1.4-0.5,1.6c-2,0.4-3.8,0.1-5.5,0.4
		c-1.6,0.3-3.2,1.1-4.8,1.4c-1.8,0.3-2.7,0.5-4.7,0.9c-1.6,0.3-3.4,0.9-5.2,1.2c-1.2,0.2-3.3,0.3-4.5,0.5c-2.5,0.4-4.6,1.6-7,2
		c-1.8,0.3-3.8,0.4-7.2,1.3c-2.4,0.6-5.1,1.3-7.1,1.8c-1.3,0.3-5.5,0.5-6.3,0.6c-3,0.6-3,1.2-5.2,1.8c-2.1,0.5-4,0.4-6.2,0.9
		c-1.8,0.4-3.2,0.7-5.5,1.1C-1061.8,95.4-1064.5,95.6-1064.8,95.1z"/>
</g>
<g>
	<path class="st6" d="M-1041.2-11.6c0,0-0.2-0.2,2.2,1.8c2.2,1.8,6.8,14.5,3.9,20.6c-1.6,3.3-4.7,10-8.7,12.6c-2,1.3-14,6.8-20.1,7
		c-3.4,0.1-8.9-0.9-13.1,0.2s-10.7,2.6-15.3,3.6c-5.1,1.1-13.5-0.9-15.2-2.9c-1.7-2-2-7.7-2-7.7s12.8-8,14-8.2
		c1.2-0.2,31.1-19.9,32.2-20.8S-1041.2-11.6-1041.2-11.6z"/>
	<path class="st5" d="M-1038.4,4c0.8-2.2,1.5-5.5,1.3-7.1c-0.6-4.9-2.9-9.3-6.9-11.5c-4.2-2.4-9-2.4-13.9-2.4
		c-5.1,0-10.7,1-15.3,3.2c-5.9,2.9-9.2,14.4-14.2,18.6s-14.1,6.3-16.8,8.5c-3.9,3-5.1,7.3-5.3,10.1c-0.1,1.3,2.5,2.7,4.9,4
		c2.4,1.3,5.3,1.5,8,1.5c12.1,0,16.5-5.4,28.6-4.1c7.3,0.8,15.3-3.5,20-6.6s4.8-4.8,9.1-12.9C-1038.7,4.9-1038.6,4.5-1038.4,4z"/>
	<path class="st7" d="M-1077.8,8.7c0,0,5.1-3,7.6-4.9c2.5-2,5.2-3.2,4.7-4.4c-0.5-1.2-3.2-3.2-3.8-4.1s-0.8-2.6,1.2-1.4
		c2,1.3,3.1,2.3,4.8,3.7c1.8,1.6,3.1,2.6,5.1,3.5c2.2,0.7,4.4,1.6,5.3,1.8c0.9,0.2,1,1.9-0.3,1.7c-1.3-0.2-3.4-0.5-5.1-1.1
		s-2.5-1.9-4.3-1.5c-1.8,0.4-3.5,2.5-6.3,4.1c-2.8,1.6-4.6,2.7-7.2,3.8c-2.6,1.1-5.3,3.8-6.7,2.6
		C-1083.5,12.1-1081.9,10.9-1077.8,8.7z"/>
</g>
<g>
	<path class="st8" d="M-1019.4,164.8c10.8-1.6,28.4-8,33.7-10.4c5.3-2.4,10.8-3.5,16.1-3.6c6.1-0.1,12.5,1.3,14.5,4.5
		c2.2,3.5,2.7,12.9,3.7,15.7c1.1,2.8,3,4.7,3.9,2.4c0.9-2.3,3.1-11.6,4.9-13.6c1.8-2,7.6-2.4,10.1-3.8s4.6-3.7-1.1-4.7
		c-5.8-1.1-14.4-0.8-15.7-2.1c-1.3-1.2-6.8-15.3-25.6-18c-8.6-1.3-8.5-0.3-7.8-1.8c1.5-3.3,3.4-4.1,2.3-5.3c-1.1-1.1-18.3,1-19.4,2
		c-1.1,1-4.5,4.2-4.5,4.2s-11.6,1.4-18,6.1C-1028.6,141-1020.4,151.7-1019.4,164.8z"/>
	<path class="st6" d="M-1033.5,158.4c1.6-0.4,5.8-0.1,7.1-0.2c-2.4-1.1-4.4-1.7-7.3-1.4c-2.7,0.2-3.9,1-4.8,0
		c-0.5-0.7,0.5-5.8,1.1-7.6c2.5-6.4,8-10.4,14.9-12.7c5.2-1.7,13.8,26.7,3,28.3c-10.8,1.6-16.7-2.2-16.7-2.2
		c-0.9-0.4-2.8-2.3-1.8-2.8C-1036.7,159.2-1036.9,159.1-1033.5,158.4z"/>
	<path class="st1" d="M-1025.7,149.7c1.3,0.3,2-0.9,2-1.5c0-0.6-0.5-1.5-1.4-1.5s-1.5,0.4-1.6,0.9
		C-1027.1,148.9-1026.4,149.5-1025.7,149.7z"/>
	<path class="st6" d="M-1001.6,151.7c0,0,8,0.8,12-1.7c4-2.4,12.4-9.5,12.4-9.5s-0.2-2.5-7.6,0.4c-7.5,2.9-12.5,3.7-14.2,4.6
		S-1004.3,151.8-1001.6,151.7z"/>
</g>
<g>
	<path class="st6" d="M-991.1-45.6c0,0-3.3-4.2-5.3-5.5c-1.3-0.1-9.9,6.7-12.4,9.3c-2.5,2.6-8.1,5.8-9.3,6.9
		c-1.2,1.1,2.9,5.6,2.9,5.6l21.2-10.4L-991.1-45.6z"/>
	<path class="st6" d="M-1015.2-29.4c0,0,4,15.1,4.9,16.5c0.3,0.4,1.3,1.6,6.2,7.1c2.9,3.3,7.4,7.5,10.9,11.4
		c4.2,4.6,9.4,9,13.2,13.2c6.5,7.2,12.2,12.9,12.2,12.9l15.8-6.1l0.3-20.2c0,0-40.6-40-40.3-39.4S-1015.2-29.4-1015.2-29.4z"/>
	<path class="st8" d="M-1000.1-25.1c0,0,3.1,2.7,7.3,7.3c4.4,4.9,8.3,8.7,10.5,11s6.8,8.2,10.9,12.7c2.5,2.8,6.7,6.7,9.7,10.3
		c2.1,2.4,9.9,9.4,9.9,9.4l18.5-22.5l-43.1-45.5c0,0-13.5-4.3-15.3-4.5c-1.8-0.2-11.3,7.9-13.3,9.6c-2,1.7-10.1,7.9-10.1,7.9
		S-1002.2-28.1-1000.1-25.1z"/>
	<path class="st7" d="M-990.1-24.1c0,0,6-3.7,6.8-4.7c0.8-1,4.4-3.5,5-4c0.6-0.6,1.2-1.6,1.9-1.1c0.7,0.5,1.1,1.3,0.3,2.7
		c-0.8,1.4-1.2,3-1.6,4.1c-0.3,1.1,0.1,1.7,1.4,0.8s3-1.8,4.1-2.3c1.2-0.5,2.2,1.2,1.7,1.8c-0.6,0.6-1.6,2.2-2.8,3.9
		c-1.3,1.7-4.5,5.6-5.4,6.7s-2.1,2.6-2.8,2.1c-0.6-0.5-1.4-1.5-0.2-3.2s3.6-3.9,4.1-4.4c0.5-0.5,3.4-2.4,2.4-2.7
		c-0.5-0.2-2.7,0.8-4.4,1.4c-0.9,0.3-1.4-0.6-1.2-1.2c0.3-1.3,0.7-2.6,1.2-3.8c0.4-1.2-1.9,1.2-2.7,1.9c-0.8,0.7-2,2.1-3.1,2.6
		c-1.1,0.6-1.8,1-2.9,0.6S-990.3-23.7-990.1-24.1z"/>
	<path class="st7" d="M-970.6-20c-0.2,0.3-2.1,2.3-2.4,2.7c-0.3,0.3-2.7,2.8-3.2,3.5c-0.6,0.8-1.7,2.1-1.3,2.7s1,1.1,1.8-0.2
		s2.3-3.3,2.3-3.3c1.1-1.2,2.1-2.2,3.1-3.4c1-1.2,1.5-2.1,1.3-2.7S-970.6-20-970.6-20z"/>
	<path class="st7" d="M-967.7-23.8c-0.3,0.8-0.4,1.5,0.3,2.1c0.3,0.2,1.7-0.4,1.8-0.9c0.1-0.4-0.1-1-0.9-1.5
		C-966.9-24.3-967.7-23.8-967.7-23.8z"/>
	<path class="st7" d="M-963.8-20.2c-1,0-2.9,3.9-3.4,4.4c-0.5,0.5-3.5,4.3-4,5c-0.5,0.7-2.3,2.1-1.8,3.2s1.3,2.8,1.6,3.1
		c1.1,1,1.7,0.8,2.3,0.4c0.6-0.4-0.2-1-1.6-2.3c-0.7-0.7-0.1-2.1,0.6-3.1c0.7-1,3.1-2.9,3.4-3.7c0.3-0.7,3-4,3.9-4.9
		C-961.9-18.9-962.5-20.2-963.8-20.2z"/>
	<path class="st7" d="M-960.1-6.7c-0.7-0.9-2.1-1-3.5-0.5c-1.4,0.5-3.2,2.1-3.5,3.6s-0.5,3.4,0,4.2s2.9,2.6,3.8,2.7s2.5-0.6,2.4-1.4
		s-0.3-0.8-1.1-0.9c-0.8-0.1-2.3,0.6-3-0.9c-0.5-1.1-0.7-3.5,0.2-4.4c0.9-0.9,1.4-1.6,2.3-1.6c0.9,0.1,1.9,0.5,2.3,1.6
		c0.4,1.1,0.9,2.6,1.4,2.7c0.4,0.1,1.4,0.1,1.4-0.9s-0.8-2-1.4-2.8S-960.1-6.7-960.1-6.7z"/>
	<path class="st7" d="M-951.1-5.7c-0.5,0.7-2.9,3.5-3.8,4.4c-0.9,1-3.2,3.5-3.9,4.2s-1.7,1.6-2.1,2.6s0,2.3,0.4,2.2s0,0,1.1-1.1
		c1.1-1.1,1.2-1.4,2-2.2s1.6-1.4,2.3-1.2c0.7,0.2,1.5,1,0.8,1.9c-0.6,1-1.5,2-2.3,2.8s-1.8,1.9-1.5,2.4c0.3,0.6,0.5,1.7,1,1.3
		c0.6-0.4,1.1-1.6,2.1-2.6c1-1,1.8-1.6,2.5-2.7s1.1-1.6,1.5-2.7c0.4-1.3,0.3-1.9-1.3-2.5c-1.5-0.6-1.9-0.3-2.3-0.2
		c-0.4,0.1,4.6-4.8,4.9-5.9S-950.2-6.9-951.1-5.7z"/>
</g>
<g>
	<path class="st1" d="M-362.3,81.5c-13.6-4.4-15.2,0.5-17.9,4.9c-2.8,4.5-2.2,10.6,0.4,15.3c1.4,2.5,3.5,3.8,5.7,5.7
		c1.9,1.6,3.7,3.9,5.8,5.1c2.1,1.2,4.4,2.4,6.7,2c1.6-0.2,3.1-1.2,4.7-1.5c2.9-0.7,3.9,1.8,6.6,0.6c1.8-0.8,5.4-3.8,6.5-5.4
		c2.7-3.8,5.1-7.9,6-12.5c0.9-4.6,2.3-10.6-0.9-13.9c-3.1-3.3-4.5-4.6-9-5.1c-2.2-0.2-6.9-0.6-9.4,1.1
		C-358.9,79-360.2,80.5-362.3,81.5"/>
	<g>
		<path class="st2" d="M-361.5,82.8c-1.3-3.1-2.5-5.8-1.5-9.2c0.3-1-1.3-1.4-1.6-0.4c-1.2,3.8,0.2,7,1.7,10.5
			C-362.5,84.6-361,83.7-361.5,82.8L-361.5,82.8z"/>
	</g>
	<g>
		<path class="st3" d="M-364.5,84.1c1,0,1.8,0.3,2.8,0c0.8-0.2,1.5-0.7,2.1-1.3c0.2-0.2-0.1-0.6-0.3-0.3c-0.6,0.7-1.4,1.1-2.3,1.2
			c-0.8,0.1-1.5-0.1-2.3-0.1C-364.9,83.6-364.9,84.1-364.5,84.1L-364.5,84.1z"/>
	</g>
</g>
<g>
	<path class="st4" d="M-469.3,230.1c0.6-1.1,1.3-2.1,2.1-2.9c1.2-1.3,2.1-2.7,3.9-3.6c3.1-1.7,7.4-1.4,10.8-2.1c3.2-0.7,6.1-2,9-3.5
		c6.1-3.2,8.8-5.7,13-11.1c1.4-1.7,3.3-3.6,5-6c1.8-2.5,3.4-5.6,5-7.1c1.9-1.8,6-1.4,8.3-2.5c0.9,2.5,1.8,6.3,1,8.8
		c-0.9,2.9-1.7,6.6-2.7,8.9c-3.1,6.7-7.1,9.8-14.2,15.5c-3.2,2.6-7.3,5-11.4,6.8c-2.5,1.1-10,2.3-12.9,2.9
		c-6.9,1.3-10.1,0.5-16.1-1.3C-468.7,232.6-469.6,230.2-469.3,230.1"/>
	<g>
		<path class="st4" d="M-412.8,197.7c2.4-3.7,5.5-10.1,2.6-14.3c-1.2-1.8-4-0.7-3.5,1.5c1,4.5-1.1,8.8-3.9,12.2
			c-1.6,1.9,1.1,4.6,2.7,2.7c3.7-4.6,6.3-9.9,4.9-15.9c-1.2,0.5-2.3,1-3.5,1.5c1.9,2.8-1.1,8-2.6,10.4
			C-417.5,197.8-414.2,199.8-412.8,197.7L-412.8,197.7z"/>
	</g>
	<g>
		<path class="st3" d="M-414.2,192.3c0.1,0.8,0.6,1.4,1.2,1.8c0.2,0.1,0.4-0.2,0.2-0.3c-0.6-0.4-0.9-0.9-1.1-1.6
			C-413.8,192-414.2,192.1-414.2,192.3L-414.2,192.3z"/>
	</g>
	<g>
		<path class="st3" d="M-469.5,229.7c0,0.5,0,1.1,0.1,1.6c0.1,0.6,0.4,1.1,0.7,1.6c0.4,0.6,1.4,0.1,1-0.6c-0.2-0.4-0.5-0.8-0.6-1.3
			c-0.1-0.4-0.1-0.9-0.1-1.3C-468.3,228.9-469.4,228.9-469.5,229.7L-469.5,229.7z"/>
	</g>
</g>
<g>
	<path class="st7" d="M-430.1,58.8c-3.9,0.6-4,1.1-7.8,1.9c-5.2,1.1-16.5,3-21.7,1.9c-0.6-0.1-1.2-0.3-1.7-0.7
		c-0.9-0.8-1.6-1.9-1.2-3.1l0,0c-0.3-0.8,0.7-2.6,1.5-2.9c1.8-0.8,10.4-0.7,14-0.7c4.2,0,8.1,0.5,9.9-0.1l13.9-2.3
		C-418,57-427.9,58.4-430.1,58.8z"/>
	<path class="st1" d="M-378.8,58.5c-8-2.7-26.1-1.6-34.2-1.7c-2.6,0-10,0.5-18.4,2.5c-2.5,0.6-3.7,1.2-5.7,1.3
		c3.3-2.8,2.2-4.4-1-5.3c7.7-1.5,15.9-4.3,22.9-7.8c6.5-3.2,21.9-13,28.4-16.2c1.5,2,2.8,3,1.8,4.7c-2.7,1.3-27.8,14.5-30.3,16.2
		c2.9-1,18.7-8.2,21.7-8.8c3.4-0.6,15.4-4.7,18.8-4.8c1.4,1.3,1,2.7,0.6,5c-3.5,0.2-15.6,4.2-19,4.9c-3.9,0.8-7.8,2.4-11.7,3.7
		c8.1-0.6,21.2-0.1,29.1,2.2C-376.5,55.2-377.4,56.9-378.8,58.5z"/>
	<g>
		<path class="st3" d="M-461.8,59.3c-0.8,0.1-1.5,0.2-2.2,0.5c-0.2,0.1-0.1,0.4,0.1,0.3c0.7-0.2,1.4-0.4,2.1-0.4
			C-461.6,59.6-461.6,59.3-461.8,59.3L-461.8,59.3z"/>
	</g>
	<g>
		<path class="st3" d="M-462.4,58.3c-0.7-0.1-1.3-0.2-2-0.3c-0.2,0-0.3,0.3-0.1,0.3c0.7,0.1,1.3,0.2,2,0.3
			C-462.3,58.7-462.2,58.4-462.4,58.3L-462.4,58.3z"/>
	</g>
	<g>
		<path class="st3" d="M-462.2,57.1c-0.5-0.4-1.1-0.7-1.6-1.1c-0.2-0.1-0.3,0.2-0.2,0.3c0.5,0.4,1.1,0.7,1.6,1.1
			C-462.2,57.5-462,57.3-462.2,57.1L-462.2,57.1z"/>
	</g>
	<g>
		<path class="st3" d="M-461.6,60.7c-0.5,0.5-1,0.9-1.6,1.2c-0.2,0.1,0,0.4,0.2,0.3c0.6-0.3,1.2-0.7,1.7-1.2
			C-461.2,60.8-461.5,60.6-461.6,60.7L-461.6,60.7z"/>
	</g>
</g>
<g>
	<path class="st5" d="M-383.7,148.7c-6.3,1.6-9.9,4.5-10.9,10.1c-1.5,9.9,2.7,20.5,21.1,20.2c18.4-0.3,20.4-7.3,21.4-14.3
		c0.6-4.1-0.6-8.3-1.5-10.2c-3.1-6.4-11.7-7.5-18.7-6.2C-375.5,148.8-381.3,147.8-383.7,148.7"/>
	<path class="st1" d="M-365.1,148.8c-2.2-0.6-3.4-0.9-5.2-0.2c-0.4,0.1-1.8,0.5-2.3,0.7c-0.8,0.4-2.2,1-2.6,1
		c-0.8-0.1-0.6,0-1.4-0.3c-0.7-0.3-2.1-1.1-2.7-1.4c-1.4-0.7-3.5-0.2-5.1,0c-0.7,0.1-3.6,1-3.9,0.5c-0.4-0.7,2.2-3,3.2-3.1
		c2-0.3,3.6-0.6,5.6-0.3c0.8,0.1,1.4,0.4,2,0.9c0.2,0.2,0.7,0.9,0.9,1c-0.1-0.2,0.1-0.6-0.4-1.2c-0.4-0.5-0.9-1.1-2.1-1.9
		c-0.8-0.6-2.1-1.4-3.2-2.1l-0.6-0.9c0-0.4,2.8,0.2,3.3,0.3c2,0.5,2.3,0.7,3.4,1.6c0.6,0.5,0.9,1.1,1.3,1.7c0.4,0.6,0.6,1.4,1.2,1.8
		c0,0,0.1,0.1,0.1,0.1c1.2-0.4,3.1-1.1,4.4-1.2c1.6-0.2,3.7,0.2,5.2,0.6c0.9,0.3,2.8,0.6,2.5,1.3
		C-361.8,148.2-364.4,149-365.1,148.8z"/>
	<path class="st1" d="M-374.7,147.3c0,0,2-4.2,3-5.9c1.1-1.7,3.5-2.4,3.5-2.4s0.5,0.9,0.2,2s-1.7,2.6-2.2,3.4
		c-0.5,0.8-2.6,3.5-2.6,3.5L-374.7,147.3z"/>
</g>
<g>
	<g>
		<path class="st4" d="M-408.7,102c0-1.3,0.2-2.4,0.3-3.5c0-0.4-0.8,0.2-0.8-1.5c0-1.7,1.2-1.1,1.1-1.6c-0.2-1.1,0.2-1.8-0.5-1.8
			c-1.2-0.1-2.5-0.2-2.6-1.7c-0.1-1.6,0.8-2.4,2.2-2.4c1.3,0,0.9-1.4,0.6-3.2L-470,98.9c0.3,0.9,0.4,1.8,0.5,2.7
			c0.1,0.9,0.1,1.8,0.1,2.7c0.9,0.5,1.7,1.7,1.7,2.5c0,1.7-1,2.1-1.8,2.7c0,0.7,0,1.2,0.4,3.4c0.1,0.3,0.1,0.6,0.3,0.9
			c0.5,0.6,1.4,0.4,2.1,0.3c3.3-0.8,4.9-1.1,8.2-1c1.6,0,3.3,0.3,4.9,0.1c0.3,0-0.1-1.3,1-1.5c1.3-0.3,1,1.3,1.4,1.2
			c1.9-0.3,4.2-0.6,5.3-0.8c2.8-0.6,6.2-0.5,9,0c1,0.2,2.3,0.1,3.8,0c0.7-0.1,0.3-1.9,3-2.1c2.4-0.1,2.3,1.5,3,1.4
			c1.3-0.1,1.1-0.1,2.6-0.2c4.6-0.1,4.8-0.6,9.4-0.8c1.9-0.1,3.2-1.2,5.1-1.5c0.6-0.1,1.2-0.3,1.5-0.7c0.3-0.4,0.3-0.8,0.3-1.3
			C-408,105.5-408.6,103.5-408.7,102z M-464.5,111.7c-0.7,0-1.9,0.4-2.5,0.2c-0.5-0.2-0.4-1.1-0.1-1.7c0.3-0.6,1.3-0.7,1.3-0.7
			s1.7,0.1,2,0.5C-463.5,110.5-463.9,111.7-464.5,111.7z M-453.9,104.2c-0.6,0-1.7,0.7-2.1,0.4c-0.4-0.3-2.4-1.1-2.2-2.1
			c0.2-1,3.2-2,3.2-2s1.5,0.1,1.7,0.8C-453,102-453.3,104.2-453.9,104.2z M-441.1,108c-1.3,0-2.2,1.1-3.2,0.8
			c-1-0.3-1.6-1.2-1.1-2.3c0.5-1.1,2.9-2.5,2.9-2.5s2.4-0.2,2.9,0.5C-438.9,105.2-439.8,108-441.1,108z M-428.4,99.3
			c-1.3,0-2.3,0.7-3.3,0.4c-1-0.3-0.9-3.3-0.4-4.2c0.5-1,2.5-1.2,2.5-1.2s3.2,0.1,3.7,0.8C-425.3,95.8-427.1,99.3-428.4,99.3z
			 M-413.7,106.1c-1.3,0-3.7,0.8-4.7,0.4c-1-0.3-0.8-2.1-0.2-3.2s2.5-1.3,2.5-1.3s3.3,0.1,3.8,0.9
			C-411.7,103.7-412.4,106.1-413.7,106.1z"/>
	</g>
	<path class="st5" d="M-470,98.9c2.2-2,6.1-3.2,7.2-3.7c1.1-0.6,3.9-2.1,5.3-2.8c1.7-0.9,3.2-1.8,5.7-3.1c1.1-0.5,2.8-0.9,3.9-1.4
		c1.7-0.8,2.6-1.8,3.9-2.3c1.8-0.8,4.5-1.5,5.7-1.9c2.4-0.9,2.8-1.2,6-2.6c0.9-0.4,2.1-1.3,3-1.3c1-0.1,3.3,0.2,4.2,0.5
		c1.9,0.6,4.9,2,6.8,2.6c4,1.3,5.6,1.9,9.6,3.2c0.7,0.3,0.3,1.2-0.4,1.3c-1.7,0.3-3.2,0.1-4.6,0.4c-1.4,0.2-2.7,1-4,1.2
		c-1.5,0.3-2.3,0.4-4,0.8c-1.4,0.3-2.9,0.7-4.3,1c-1,0.2-2.8,0.3-3.8,0.5c-2.1,0.3-3.9,1.3-5.9,1.7c-1.5,0.3-3.2,0.4-6.1,1.1
		c-2,0.5-4.3,1.1-6,1.5c-1.1,0.3-4.6,0.4-5.3,0.5c-2.6,0.5-2.5,1-4.3,1.5c-1.7,0.5-3.4,0.3-5.2,0.8c-1.5,0.4-2.7,0.6-4.7,0.9
		C-467.5,99.2-469.8,99.4-470,98.9z"/>
</g>
<g>
	<path class="st6" d="M-403.1-6.1c0,0-0.2-0.2,1.9,1.6c1.9,1.6,6,12.8,3.5,18.1c-1.4,2.9-4.2,8.9-7.7,11.1c-1.7,1.1-12.3,6-17.7,6.1
		c-3,0.1-7.8-0.8-11.5,0.1c-3.7,1-9.5,2.3-13.4,3.2c-4.5,1-11.9-0.8-13.4-2.6c-1.5-1.8-1.8-6.7-1.8-6.7s11.3-7.1,12.4-7.3
		c1.1-0.2,27.4-17.6,28.4-18.3S-403.1-6.1-403.1-6.1z"/>
	<path class="st5" d="M-400.6,7.7c0.7-1.9,1.3-4.8,1.2-6.3C-400-3-402-6.8-405.5-8.8c-3.7-2.1-7.9-2.1-12.2-2.1
		c-4.5,0-9.5,0.9-13.5,2.8c-5.2,2.5-8.1,12.7-12.6,16.4s-12.4,5.6-14.8,7.5c-3.4,2.6-4.5,6.4-4.7,8.9c-0.1,1.1,2.2,2.3,4.3,3.5
		s4.6,1.3,7.1,1.3c10.7,0,14.5-4.7,25.2-3.6c6.5,0.7,13.5-3.1,17.6-5.8s4.2-4.2,8-11.4C-400.9,8.5-400.8,8.1-400.6,7.7z"/>
	<path class="st7" d="M-435.3,11.8c0,0,4.5-2.6,6.7-4.4c2.2-1.7,4.6-2.8,4.1-3.9s-2.8-2.8-3.4-3.6c-0.6-0.8-0.7-2.3,1.1-1.2
		s2.8,2,4.2,3.3c1.6,1.4,2.7,2.3,4.5,3.1c1.9,0.7,3.9,1.4,4.7,1.6c0.8,0.2,0.9,1.7-0.2,1.5c-1.1-0.2-3-0.4-4.5-1
		c-1.5-0.5-2.2-1.7-3.8-1.3s-3.1,2.2-5.5,3.7c-2.4,1.4-4.1,2.4-6.3,3.4c-2.3,1-4.7,3.4-5.9,2.3C-440.3,14.8-439,13.8-435.3,11.8z"/>
</g>
<g>
	<path class="st8" d="M-488.4,168.3c9.5-1.4,25-7,29.7-9.2c4.7-2.1,9.5-3,14.1-3.2c5.3-0.1,11,1.2,12.8,4c2,3.1,2.4,11.3,3.3,13.8
		c0.9,2.5,2.7,4.1,3.4,2.1s2.7-10.2,4.3-12s6.7-2.1,8.9-3.3c2.2-1.2,4.1-3.2-1-4.2c-5.1-0.9-12.7-0.7-13.9-1.8s-6-13.4-22.6-15.9
		c-7.5-1.1-7.4-0.2-6.8-1.6c1.3-2.9,3-3.6,2-4.6s-16.1,0.9-17.1,1.7s-4,3.7-4,3.7s-10.2,1.3-15.8,5.4
		C-496.6,147.3-489.3,156.7-488.4,168.3z"/>
	<path class="st6" d="M-500.8,162.7c1.4-0.3,5.1-0.1,6.3-0.2c-2.1-1-3.9-1.5-6.5-1.3c-2.4,0.2-3.5,0.9-4.2,0c-0.5-0.6,0.4-5.1,1-6.6
		c2.2-5.6,7.1-9.2,13.2-11.2c4.6-1.5,12.1,23.5,2.6,24.9s-14.7-2-14.7-2c-0.8-0.4-2.5-2-1.5-2.5
		C-503.7,163.4-503.8,163.3-500.8,162.7z"/>
	<path class="st1" d="M-494,155c1.1,0.3,1.8-0.8,1.8-1.3c0-0.5-0.5-1.3-1.2-1.3s-1.3,0.3-1.4,0.8C-495.2,154.3-494.6,154.8-494,155z
		"/>
	<path class="st6" d="M-472.7,156.8c0,0,7,0.7,10.5-1.5c3.5-2.2,10.9-8.4,10.9-8.4s-0.2-2.2-6.7,0.3c-6.6,2.5-11,3.2-12.5,4
		C-472.1,152.1-475.2,156.9-472.7,156.8z"/>
</g>
<g>
	<path class="st6" d="M-499.7,193.6c0,0-0.3,2.6-0.3,3.5c0,0.9-0.2,4-0.2,4s-8.1-4.7-8.8-5.1c-0.7-0.4,1.6-6.4,1.6-6.4l8,1.3
		L-499.7,193.6z"/>
	<path class="st6" d="M-500.2,201.1c0,0,16.8-2.2,17.6-2.4c0.9-0.1-2-7.6-2-7.6l-9.3-1.5l-6.4,1.1L-500.2,201.1z"/>
	<path class="st5" d="M-505.2,191c0,0,1,0.4,1.5,0.7s3.7,1.6,4,2c0.3,0.3,4.6-0.6,6.3-0.8c1.7-0.2,4.9-1.1,5.8-1.3s2.2-0.2,3-0.4
		c-1.4-0.9-4-1.8-5.3-2.6c-1.3-0.9-2.4-1.3-3.5-1.6c-0.4-0.1-3.3,0.5-6.5,1.2c-3.2,0.7-7.1,1.3-7.4,1.5
		C-508,189.9-505.2,191-505.2,191z"/>
	<path class="st6" d="M-487.2,200.9c0,0,1.3,2.9,1.3,3.7c0,0.9-1.3,4.5-1.3,4.5s-8.6-5.4-9.3-5.8c-0.7-0.4,1.6-6.4,1.6-6.4l8,1.3
		L-487.2,200.9z"/>
	<path class="st6" d="M-487.2,209.1c0,0,15.5-4.4,16.4-4.5c0.9-0.1-1.2-6.2-1.2-6.2l-9.3-1.5l-6.4,1.1L-487.2,209.1z"/>
	<path class="st5" d="M-492.7,198.2c0,0,1,0.4,1.5,0.7s3.7,1.6,4,2c0.3,0.3,4.6-0.6,6.3-0.8c1.7-0.2,4.9-1.1,5.8-1.3s2.2-0.2,3-0.4
		c-1.4-0.9-4-1.8-5.3-2.6c-1.3-0.9-2.4-1.3-3.5-1.6c-0.4-0.1-3.3,0.5-6.5,1.2c-3.2,0.7-7.1,1.3-7.4,1.5
		C-495.5,197.1-492.7,198.2-492.7,198.2z"/>
	<path class="st6" d="M-518.2,198.2c0,0-0.3,2.6-0.3,3.5c0,0.9-0.2,4-0.2,4s-8.1-4.7-8.8-5.1c-0.7-0.4,2.3-6.9,2.3-6.9l7.4,1.8
		L-518.2,198.2z"/>
	<path class="st6" d="M-518.7,205.7c0,0,16.8-2.2,17.6-2.4s-2-7.6-2-7.6l-9.3-1.5l-6.4,1.1L-518.7,205.7z"/>
	<path class="st5" d="M-523.1,194.9c0,0,1,0.4,1.5,0.7c0.5,0.2,3.7,1.6,4,2s4.6-0.6,6.3-0.8s4.9-1.1,5.8-1.3s2.2-0.2,3-0.4
		c-1.4-0.9-4-1.8-5.3-2.6c-1.3-0.9-2.4-1.3-3.5-1.6c-0.4-0.1-3.3,0.5-6.5,1.2c-3.2,0.7-7.1,1.3-7.4,1.5
		C-525.8,193.8-523.1,194.9-523.1,194.9z"/>
	<path class="st6" d="M-505.7,205.4c0,0,1.3,2.9,1.3,3.7c0,0.9-1.3,4.5-1.3,4.5s-8.6-5.4-9.3-5.8c-0.7-0.4,1.6-6.4,1.6-6.4l8,1.3
		L-505.7,205.4z"/>
	<path class="st6" d="M-505.7,213.6c0,0,15.5-4.4,16.4-4.5c0.9-0.1-1.2-6.2-1.2-6.2l-9.3-1.5l-6.4,1.1L-505.7,213.6z"/>
	<path class="st5" d="M-511.2,202.8c0,0,1,0.4,1.5,0.7c0.5,0.2,3.7,1.6,4,2s4.6-0.6,6.3-0.8c1.7-0.2,4.9-1.1,5.8-1.3
		c0.9-0.2,2.2-0.2,3-0.4c-1.4-0.9-4-1.8-5.3-2.6c-1.3-0.9-2.4-1.3-3.5-1.6c-0.4-0.1-3.3,0.5-6.5,1.2s-7.1,1.3-7.4,1.5
		C-514,201.7-511.2,202.8-511.2,202.8z"/>
	<path class="st6" d="M-536.7,202.7c0,0-0.3,2.6-0.3,3.5c0,0.9-0.2,4-0.2,4s-7.8-1.2-8.5-1.7c-0.7-0.4,1.9-10.4,1.9-10.4l7.4,1.8
		L-536.7,202.7z"/>
	<path class="st6" d="M-537.2,210.2c0,0,16.8-2.2,17.6-2.4c0.9-0.1-2-7.6-2-7.6l-9.3-1.5l-6.4,1.1L-537.2,210.2z"/>
	<path class="st5" d="M-541.5,199.5c0,0,1,0.4,1.5,0.7c0.5,0.2,3.7,1.6,4,2c0.3,0.3,4.6-0.6,6.3-0.8s4.9-1.1,5.8-1.3
		c0.9-0.2,2.2-0.2,3-0.4c-1.4-0.9-4-1.8-5.3-2.6c-1.3-0.9-2.4-1.3-3.5-1.6c-0.4-0.1-3.3,0.5-6.5,1.2c-3.2,0.7-7.1,1.3-7.4,1.5
		C-544.3,198.4-541.5,199.5-541.5,199.5z"/>
	<path class="st6" d="M-524.2,210c0,0,1.3,2.9,1.3,3.7c0,0.9-1.3,4.5-1.3,4.5s-8.6-5.4-9.3-5.8s1.6-6.4,1.6-6.4l8,1.3L-524.2,210z"
		/>
	<path class="st6" d="M-524.2,218.2c0,0,15.5-4.4,16.4-4.5c0.9-0.1-1.2-6.2-1.2-6.2l-9.3-1.5l-6.4,1.1L-524.2,218.2z"/>
	<path class="st5" d="M-529.7,207.3c0,0,1,0.4,1.5,0.7c0.5,0.2,3.7,1.6,4,2s4.6-0.6,6.3-0.8s5-0.7,5.9-0.9c0.9-0.2,2.2-0.6,2.9-0.8
		c-1.4-0.9-4-1.8-5.3-2.6c-1.3-0.9-2.4-1.3-3.5-1.6c-0.4-0.1-3.3,0.5-6.5,1.2c-3.2,0.7-7.1,1.3-7.4,1.5
		C-532.5,206.2-529.7,207.3-529.7,207.3z"/>
	<path class="st6" d="M-524,210.6l-0.3,10.1l53.6-13.2l0.1-3.5l-5.1-2.4c0,0-42.6,11.6-43,11.8S-524,210.6-524,210.6z"/>
	<polygon class="st6" points="-524.3,220.8 -545.7,208.6 -540.7,204.8 -519.7,215.8 	"/>
</g>
<g>
	<path class="st1" d="M-941.8,83.6c-15.4-5-17.3,0.6-20.4,5.5c-3.2,5.2-2.6,12,0.4,17.3c1.6,2.9,4,4.3,6.5,6.5
		c2.1,1.8,4.2,4.4,6.6,5.8c2.3,1.4,4.9,2.7,7.6,2.3c1.9-0.3,3.5-1.3,5.3-1.7c3.3-0.8,4.4,2,7.5,0.7c2.1-0.9,6.1-4.3,7.4-6.1
		c3-4.3,5.7-9,6.8-14.2c1-5.2,2.6-12-1-15.8c-3.5-3.7-5.1-5.2-10.2-5.8c-2.5-0.3-7.9-0.6-10.7,1.3C-938,80.8-939.4,82.5-941.8,83.6"
		/>
	<g>
		<path class="st2" d="M-940.9,85c-1.5-3.5-2.9-6.6-1.7-10.4c0.3-1.2-1.4-1.6-1.8-0.5c-1.3,4.3,0.2,7.9,1.9,11.9
			C-942,87.1-940.4,86.1-940.9,85L-940.9,85z"/>
	</g>
	<g>
		<path class="st3" d="M-944.4,86.5c1.1,0,2.1,0.3,3.2,0c0.9-0.2,1.7-0.7,2.4-1.4c0.2-0.3-0.1-0.7-0.4-0.4c-0.7,0.7-1.5,1.2-2.6,1.4
			c-0.9,0.1-1.7-0.1-2.6-0.1C-944.7,86-944.7,86.5-944.4,86.5L-944.4,86.5z"/>
	</g>
</g>
<g>
	<path class="st6" d="M-921,226.6c0,0-0.3,2.8-0.3,3.7c0,0.9-0.2,4.2-0.2,4.2s-8.5-4.9-9.2-5.3c-0.7-0.5,1.7-6.7,1.7-6.7l8.4,1.3
		L-921,226.6z"/>
	<path class="st6" d="M-921.6,234.4c0,0,17.5-2.3,18.4-2.5c0.9-0.1-2.1-8-2.1-8l-9.7-1.6l-6.7,1.1L-921.6,234.4z"/>
	<path class="st5" d="M-926.8,223.8c0,0,1,0.5,1.6,0.7c0.6,0.2,3.9,1.7,4.2,2.1c0.3,0.3,4.8-0.6,6.6-0.8c1.8-0.2,5.2-1.2,6.1-1.4
		c0.9-0.2,2.4-0.2,3.1-0.4c-1.4-0.9-4.2-1.8-5.6-2.8c-1.3-0.9-2.6-1.4-3.7-1.7c-0.4-0.1-3.4,0.5-6.8,1.3c-3.4,0.7-7.4,1.4-7.8,1.6
		C-929.7,222.6-926.8,223.8-926.8,223.8z"/>
	<path class="st6" d="M-908,234.1c0,0,1.4,3,1.4,3.9c0,0.9-1.4,4.7-1.4,4.7s-9-5.6-9.7-6.1s1.7-6.7,1.7-6.7l8.4,1.3L-908,234.1z"/>
	<path class="st6" d="M-908,242.7c0,0,16.2-4.6,17.1-4.7c0.9-0.1-1.3-6.5-1.3-6.5l-9.7-1.6l-6.7,1.1L-908,242.7z"/>
	<path class="st5" d="M-913.7,231.4c0,0,1,0.5,1.6,0.7c0.6,0.2,3.9,1.7,4.2,2.1c0.3,0.3,4.8-0.6,6.6-0.8c1.8-0.2,5.2-1.2,6.1-1.4
		c0.9-0.2,2.4-0.2,3.1-0.4c-1.4-0.9-4.2-1.8-5.6-2.8c-1.3-0.9-2.6-1.4-3.7-1.7c-0.4-0.1-3.4,0.5-6.8,1.3c-3.4,0.7-7.4,1.4-7.8,1.6
		C-916.6,230.2-913.7,231.4-913.7,231.4z"/>
	<path class="st6" d="M-940.4,231.3c0,0-0.3,2.8-0.3,3.7c0,0.9-0.2,4.2-0.2,4.2s-8.5-4.9-9.2-5.3s2.4-7.3,2.4-7.3l7.7,1.9
		L-940.4,231.3z"/>
	<path class="st6" d="M-940.9,239.2c0,0,17.5-2.3,18.4-2.5c0.9-0.1-2.1-8-2.1-8l-9.7-1.6l-6.7,1.1L-940.9,239.2z"/>
	<path class="st5" d="M-945.5,227.9c0,0,1,0.5,1.6,0.7c0.6,0.2,3.9,1.7,4.2,2.1c0.3,0.3,4.8-0.6,6.6-0.8c1.8-0.2,5.2-1.2,6.1-1.4
		c0.9-0.2,2.4-0.2,3.1-0.4c-1.4-0.9-4.2-1.8-5.6-2.8c-1.3-0.9-2.6-1.4-3.7-1.7c-0.4-0.1-3.4,0.5-6.8,1.3s-7.4,1.4-7.8,1.6
		C-948.4,226.7-945.5,227.9-945.5,227.9z"/>
	<path class="st6" d="M-927.3,238.9c0,0,1.4,3,1.4,3.9c0,0.9-1.4,4.7-1.4,4.7s-9-5.6-9.7-6.1c-0.7-0.5,1.7-6.7,1.7-6.7l8.4,1.3
		L-927.3,238.9z"/>
	<path class="st6" d="M-927.3,247.5c0,0,16.2-4.6,17.1-4.7c0.9-0.1-1.3-6.5-1.3-6.5l-9.7-1.6l-6.7,1.1L-927.3,247.5z"/>
	<path class="st5" d="M-933.1,236.1c0,0,1,0.5,1.6,0.7c0.6,0.2,3.9,1.7,4.2,2.1c0.3,0.3,4.8-0.6,6.6-0.8c1.8-0.2,5.2-1.2,6.1-1.4
		s2.4-0.2,3.1-0.4c-1.4-0.9-4.2-1.8-5.6-2.8c-1.3-0.9-2.6-1.4-3.7-1.7c-0.4-0.1-3.4,0.5-6.8,1.3c-3.4,0.7-7.4,1.4-7.8,1.6
		C-936,235-933.1,236.1-933.1,236.1z"/>
	<path class="st6" d="M-959.7,236.1c0,0-0.3,2.8-0.3,3.7c0,0.9-0.2,4.2-0.2,4.2s-8.2-1.3-8.9-1.7c-0.7-0.5,2-10.9,2-10.9l7.8,1.9
		L-959.7,236.1z"/>
	<path class="st6" d="M-960.3,243.9c0,0,17.5-2.3,18.4-2.5c0.9-0.1-2.1-8-2.1-8l-9.7-1.6l-6.7,1.1L-960.3,243.9z"/>
	<path class="st5" d="M-964.9,232.7c0,0,1,0.5,1.6,0.7c0.6,0.2,3.9,1.7,4.2,2.1c0.3,0.3,4.8-0.6,6.6-0.8c1.8-0.2,5.2-1.2,6.1-1.4
		c0.9-0.2,2.4-0.2,3.1-0.4c-1.4-0.9-4.2-1.8-5.6-2.8c-1.3-0.9-2.6-1.4-3.7-1.7c-0.4-0.1-3.4,0.5-6.8,1.3c-3.4,0.7-7.4,1.4-7.8,1.6
		C-967.8,231.5-964.9,232.7-964.9,232.7z"/>
	<path class="st6" d="M-946.7,243.7c0,0,1.4,3,1.4,3.9c0,0.9-1.4,4.7-1.4,4.7s-9-5.6-9.7-6.1s1.7-6.7,1.7-6.7l8.4,1.3L-946.7,243.7z
		"/>
	<path class="st6" d="M-946.7,252.3c0,0,16.2-4.6,17.1-4.7c0.9-0.1-1.3-6.5-1.3-6.5l-9.7-1.6l-6.7,1.1L-946.7,252.3z"/>
	<path class="st5" d="M-952.5,240.9c0,0,1,0.5,1.6,0.7c0.6,0.2,3.9,1.7,4.2,2.1c0.3,0.3,4.8-0.6,6.6-0.8c1.8-0.2,5.2-0.8,6.1-1
		c0.9-0.2,2.3-0.6,3.1-0.8c-1.4-0.9-4.2-1.8-5.6-2.8c-1.3-0.9-2.6-1.4-3.7-1.7c-0.4-0.1-3.4,0.5-6.8,1.3c-3.4,0.7-7.4,1.4-7.8,1.6
		C-955.3,239.8-952.5,240.9-952.5,240.9z"/>
	<path class="st6" d="M-946.5,244.3l-0.3,10.6l56.1-13.8l0.1-3.7l-5.3-2.5c0,0-44.6,12.2-45,12.3
		C-941.5,247.4-946.5,244.3-946.5,244.3z"/>
	<polygon class="st6" points="-946.8,255 -969.2,242.2 -964,238.2 -941.9,249.7 	"/>
</g>
<g>
	<path class="st1" d="M-503.9,251.7c-13.6-4.4-15.2,0.5-17.9,4.9c-2.8,4.5-2.2,10.6,0.4,15.3c1.4,2.5,3.5,3.8,5.7,5.7
		c1.9,1.6,3.7,3.9,5.8,5.1c2.1,1.2,4.4,2.4,6.7,2c1.6-0.2,3.1-1.2,4.7-1.5c2.9-0.7,3.9,1.8,6.6,0.6c1.8-0.8,5.4-3.8,6.5-5.4
		c2.7-3.8,5.1-7.9,6-12.5s2.3-10.6-0.9-13.9c-3.1-3.3-4.5-4.6-9-5.1c-2.2-0.2-6.9-0.6-9.4,1.1C-500.5,249.2-501.8,250.7-503.9,251.7
		"/>
	<g>
		<path class="st2" d="M-503.1,253c-1.3-3.1-2.5-5.8-1.5-9.2c0.3-1-1.3-1.4-1.6-0.4c-1.2,3.8,0.2,7,1.7,10.5
			C-504.1,254.8-502.7,254-503.1,253L-503.1,253z"/>
	</g>
	<g>
		<path class="st3" d="M-506.2,254.3c1,0,1.8,0.3,2.8,0c0.8-0.2,1.5-0.7,2.1-1.3c0.2-0.2-0.1-0.6-0.3-0.3c-0.6,0.7-1.4,1.1-2.3,1.2
			c-0.8,0.1-1.5-0.1-2.3-0.1C-506.5,253.8-506.5,254.3-506.2,254.3L-506.2,254.3z"/>
	</g>
</g>
<g>
	<path class="st4" d="M-616.6,247.2c2.7-3.4,6.8-9.7,11.7-11.4s14.4-4.5,18.4-5.1c4-0.6,18.5-0.6,21.5-0.3c5.8,0.4,15,4.4,19.4,9.3
		c1.7,1.9,5.4,6.8,6.4,8.8c1.7,3.4,1.6,8.5-2.4,9.9c-1.1,0.4-6.1,2.3-11.5,3.2c-7,1.2-12.4,2.5-16.1,2.7c-3.5,0.1-14.7,0.8-22.8,1
		c-7.2,0.1-14.5,1.1-17.4,0.5c-6-1.3-8.3-2.3-9.7-5.8C-620.4,256.6-619.3,250.6-616.6,247.2z"/>
	<path class="st5" d="M-600.7,234.4c0,0,5.7,3.9,7.4,6c1.7,2.2,2.6,7.2,3.2,8s1-7-1-9.2c-2-2.2-6.3-5.7-6.3-5.7L-600.7,234.4z"/>
	<path class="st5" d="M-586,230.7c0,0,5.3,4.6,7.1,6.8s2.6,7.2,3.2,8s1-7-1-9.2s-5.8-6-5.8-6L-586,230.7z"/>
	<path class="st5" d="M-571.2,230.3c0,0,6.3,4.6,8,6.8c1.7,2.2,2.6,7.2,3.2,8c0.6,0.7,1-7-1-9.2c-2-2.2-6.8-5.7-6.8-5.7
		L-571.2,230.3z"/>
</g>
<g>
	<path class="st6" d="M-379.9,249.6c0,0-0.2-0.2,1.9,1.6c1.9,1.6,6,12.8,3.5,18.1c-1.4,2.9-4.2,8.9-7.7,11.1
		c-1.7,1.1-12.3,6-17.7,6.1c-3,0.1-7.8-0.8-11.5,0.1c-3.7,1-9.5,2.3-13.4,3.2c-4.5,1-11.9-0.8-13.4-2.6c-1.5-1.8-1.8-6.7-1.8-6.7
		s11.3-7.1,12.4-7.3c1.1-0.2,27.4-17.6,28.4-18.3C-398.2,254.2-379.9,249.6-379.9,249.6z"/>
	<path class="st5" d="M-377.4,263.4c0.7-1.9,1.3-4.8,1.2-6.3c-0.6-4.3-2.6-8.2-6.1-10.2c-3.7-2.1-7.9-2.1-12.2-2.1
		c-4.5,0-9.5,0.9-13.5,2.8c-5.2,2.5-8.1,12.7-12.6,16.4c-4.5,3.7-12.4,5.6-14.8,7.5c-3.4,2.6-4.5,6.4-4.7,8.9
		c-0.1,1.1,2.2,2.3,4.3,3.5s4.6,1.3,7.1,1.3c10.7,0,14.5-4.7,25.2-3.6c6.5,0.7,13.5-3.1,17.6-5.8c4.1-2.7,4.2-4.2,8-11.4
		C-377.7,264.2-377.6,263.8-377.4,263.4z"/>
	<path class="st7" d="M-412.1,267.5c0,0,4.5-2.6,6.7-4.4s4.6-2.8,4.1-3.9s-2.8-2.8-3.4-3.6c-0.6-0.8-0.7-2.3,1.1-1.2
		c1.8,1.1,2.8,2,4.2,3.3c1.6,1.4,2.7,2.3,4.5,3.1c1.9,0.7,3.9,1.4,4.7,1.6c0.8,0.2,0.9,1.7-0.2,1.5c-1.1-0.2-3-0.4-4.5-1
		c-1.5-0.5-2.2-1.7-3.8-1.3c-1.6,0.4-3.1,2.2-5.5,3.7c-2.4,1.4-4.1,2.4-6.3,3.4c-2.3,1-4.7,3.4-5.9,2.3
		C-417.1,270.5-415.8,269.5-412.1,267.5z"/>
</g>
<g>
	<path class="st7" d="M-361.5,216.1c-3.9,0.6-4,1.1-7.8,1.9c-5.2,1.1-16.5,3-21.7,1.9c-0.6-0.1-1.2-0.3-1.7-0.7
		c-0.9-0.8-1.6-1.9-1.2-3.1l0,0c-0.3-0.8,0.7-2.6,1.5-2.9c1.8-0.8,10.4-0.7,14-0.7c4.2,0,8.1,0.5,9.9-0.1l13.9-2.3
		C-349.4,214.3-359.2,215.7-361.5,216.1z"/>
	<path class="st1" d="M-310.1,215.8c-8-2.7-26.1-1.6-34.2-1.7c-2.6,0-10,0.5-18.4,2.5c-2.5,0.6-3.7,1.2-5.7,1.3
		c3.3-2.8,2.2-4.4-1-5.3c7.7-1.5,15.9-4.3,22.9-7.8c6.5-3.2,21.9-13,28.4-16.2c1.5,2,2.8,3,1.8,4.7c-2.7,1.3-27.8,14.5-30.3,16.2
		c2.9-1,18.7-8.2,21.7-8.8c3.4-0.6,15.4-4.7,18.8-4.8c1.4,1.3,1,2.7,0.6,5c-3.5,0.2-15.6,4.2-19,4.9c-3.9,0.8-7.8,2.4-11.7,3.7
		c8.1-0.6,21.2-0.1,29.1,2.2C-307.9,212.5-308.7,214.2-310.1,215.8z"/>
	<g>
		<path class="st3" d="M-393.2,216.6c-0.8,0.1-1.5,0.2-2.2,0.5c-0.2,0.1-0.1,0.4,0.1,0.3c0.7-0.2,1.4-0.4,2.1-0.4
			C-393,216.9-392.9,216.6-393.2,216.6L-393.2,216.6z"/>
	</g>
	<g>
		<path class="st3" d="M-393.8,215.6c-0.7-0.1-1.3-0.2-2-0.3c-0.2,0-0.3,0.3-0.1,0.3c0.7,0.1,1.3,0.2,2,0.3
			C-393.7,216-393.6,215.7-393.8,215.6L-393.8,215.6z"/>
	</g>
	<g>
		<path class="st3" d="M-393.6,214.5c-0.5-0.4-1.1-0.7-1.6-1.1c-0.2-0.1-0.3,0.2-0.2,0.3c0.5,0.4,1.1,0.7,1.6,1.1
			C-393.5,214.9-393.4,214.6-393.6,214.5L-393.6,214.5z"/>
	</g>
	<g>
		<path class="st3" d="M-393,218c-0.5,0.5-1,0.9-1.6,1.2c-0.2,0.1,0,0.4,0.2,0.3c0.6-0.3,1.2-0.7,1.7-1.2
			C-392.6,218.1-392.8,217.9-393,218L-393,218z"/>
	</g>
</g>
<g>
	<g>
		<path class="st4" d="M231.3,196.7c0-1,0.2-2,0.2-2.9c0-0.3-0.6,0.2-0.6-1.3s1-0.9,0.9-1.3c-0.1-0.9,0.2-1.5-0.4-1.5
			c-1-0.1-2.1-0.2-2.2-1.4c-0.1-1.4,0.6-2,1.8-2c1.1,0,0.7-1.2,0.5-2.6l-50.9,10.5c0.2,0.7,0.4,1.5,0.4,2.2c0.1,0.7,0.1,1.5,0.1,2.2
			c0.8,0.4,1.4,1.4,1.4,2.1c0,1.4-0.8,1.7-1.5,2.3c0,0.6,0,1,0.4,2.8c0.1,0.3,0.1,0.5,0.3,0.7c0.4,0.5,1.1,0.4,1.7,0.2
			c2.7-0.7,4-0.9,6.8-0.8c1.3,0,2.7,0.3,4,0.1c0.3,0-0.1-1.1,0.8-1.3c1.1-0.2,0.8,1,1.2,1c1.6-0.2,3.5-0.5,4.4-0.7
			c2.3-0.5,5.1-0.4,7.5,0c0.9,0.1,1.9,0.1,3.2,0c0.6-0.1,0.3-1.6,2.5-1.7c2-0.1,1.9,1.2,2.5,1.2c1.1-0.1,0.9-0.1,2.1-0.1
			c3.8-0.1,3.9-0.5,7.7-0.6c1.6,0,2.7-1,4.2-1.3c0.5-0.1,1-0.2,1.3-0.6c0.2-0.3,0.3-0.7,0.3-1.1C231.8,199.6,231.3,198,231.3,196.7z
			 M185.1,204.8c-0.6,0-1.6,0.3-2,0.2c-0.4-0.1-0.3-0.9-0.1-1.4c0.2-0.5,1.1-0.6,1.1-0.6s1.4,0,1.7,0.4
			C185.9,203.7,185.6,204.8,185.1,204.8z M193.9,198.5c-0.5,0-1.4,0.6-1.7,0.3c-0.4-0.2-2-0.9-1.8-1.7c0.2-0.8,2.6-1.6,2.6-1.6
			s1.2,0.1,1.4,0.7C194.6,196.7,194.4,198.5,193.9,198.5z M204.5,201.7c-1.1,0-1.8,0.9-2.6,0.6c-0.8-0.3-1.3-1-0.9-1.9
			s2.4-2.1,2.4-2.1s2-0.2,2.4,0.4C206.3,199.4,205.5,201.7,204.5,201.7z M215,194.5c-1.1,0-1.9,0.6-2.7,0.4
			c-0.8-0.2-0.8-2.7-0.3-3.5c0.4-0.8,2-1,2-1s2.7,0.1,3.1,0.7C217.5,191.6,216,194.5,215,194.5z M227.1,200.1
			c-1.1,0-3.1,0.6-3.9,0.4c-0.8-0.3-0.6-1.7-0.2-2.6c0.4-0.9,2.1-1.1,2.1-1.1s2.7,0.1,3.1,0.7C228.7,198.2,228.2,200.1,227.1,200.1z
			"/>
	</g>
	<path class="st5" d="M180.5,194.2c1.8-1.7,5-2.6,6-3.1s3.2-1.7,4.4-2.3c1.4-0.7,2.6-1.5,4.7-2.5c0.9-0.5,2.3-0.7,3.2-1.1
		c1.4-0.7,2.2-1.5,3.2-1.9c1.5-0.6,3.7-1.2,4.7-1.6c1.9-0.7,2.3-1,5-2.1c0.7-0.3,1.7-1,2.5-1.1c0.8,0,2.7,0.1,3.5,0.4
		c1.6,0.5,4,1.6,5.6,2.1c3.3,1.1,4.6,1.6,7.9,2.7c0.6,0.3,0.2,1-0.4,1.1c-1.4,0.3-2.6,0.1-3.8,0.3c-1.1,0.2-2.2,0.8-3.3,1
		c-1.2,0.2-1.9,0.3-3.3,0.6c-1.2,0.2-2.4,0.6-3.6,0.8c-0.8,0.1-2.3,0.2-3.1,0.4c-1.7,0.3-3.2,1.1-4.9,1.4c-1.3,0.2-2.7,0.3-5,0.9
		c-1.7,0.4-3.5,0.9-4.9,1.3c-0.9,0.2-3.8,0.3-4.4,0.4c-2.1,0.4-2.1,0.9-3.6,1.3c-1.4,0.4-2.8,0.3-4.3,0.6c-1.2,0.3-2.2,0.5-3.9,0.8
		C182.6,194.5,180.7,194.6,180.5,194.2z"/>
</g>
<g>
	<path class="st6" d="M218.6,59.3c0,0-0.1-0.1,1.1,1.3c1.1,1.3,2.4,9.4-0.1,12.7c-1.3,1.8-4,5.4-6.7,6.5c-1.3,0.5-9.1,2.4-12.8,1.8
		c-2.1-0.3-5.2-1.6-7.8-1.4c-2.6,0.2-6.7,0.3-9.5,0.4c-3.2,0.1-7.9-2.1-8.7-3.5c-0.8-1.4-0.3-4.8-0.3-4.8s8.6-3.3,9.3-3.3
		c0.7,0,20.9-8.2,21.6-8.6C205.6,60,218.6,59.3,218.6,59.3z"/>
	<path class="st5" d="M218.4,69c0.7-1.2,1.5-3.1,1.6-4.1c0.2-3-0.7-5.9-2.7-7.7c-2.2-1.9-5.1-2.5-8-3c-3-0.6-6.5-0.7-9.5,0.1
		c-3.9,1-7.1,7.5-10.7,9.4s-9.1,2.1-11,3.1c-2.7,1.3-3.9,3.7-4.3,5.4c-0.2,0.8,1.2,1.9,2.4,3c1.3,1.1,3,1.5,4.6,1.8
		c7.2,1.4,10.5-1.3,17.5,0.9c4.3,1.3,9.5-0.3,12.7-1.6s3.4-2.3,6.9-6.7C218.1,69.5,218.3,69.2,218.4,69z"/>
	<path class="st7" d="M194.4,67.2c0,0,3.4-1.2,5.1-2.1c1.7-0.9,3.5-1.3,3.3-2.1c-0.2-0.8-1.5-2.3-1.8-2.9c-0.3-0.6-0.2-1.7,0.9-0.7
		c1.1,1,1.6,1.7,2.4,2.8c0.9,1.2,1.5,1.9,2.7,2.7c1.2,0.7,2.4,1.5,2.9,1.7c0.5,0.2,0.4,1.3-0.4,1c-0.7-0.3-2-0.7-2.9-1.3
		c-0.9-0.6-1.3-1.4-2.4-1.4c-1.1,0-2.4,1.1-4.2,1.7c-1.8,0.7-3.1,1.1-4.7,1.4c-1.7,0.4-3.6,1.7-4.3,0.8
		C190.6,68.5,191.7,68,194.4,67.2z"/>
</g>
<g>
	<path class="st8" d="M186.7,172.3c8.1-1.3,21.4-6.1,25.4-7.9c4-1.8,8.2-2.6,12.1-2.7c4.6-0.1,9.4,1,11,3.4c1.7,2.6,2,9.7,2.8,11.9
		c0.8,2.1,2.3,3.5,3,1.8c0.7-1.7,2.3-8.8,3.7-10.3c1.4-1.5,5.7-1.8,7.6-2.9s3.5-2.8-0.9-3.6s-10.9-0.6-11.9-1.5
		c-1-0.9-5.2-11.5-19.4-13.6c-6.5-0.9-6.4-0.2-5.9-1.3c1.1-2.5,2.5-3.1,1.7-4c-0.8-0.9-13.8,0.8-14.7,1.5c-0.8,0.7-3.4,3.2-3.4,3.2
		s-8.7,1.1-13.6,4.6C179.7,154.3,186,162.4,186.7,172.3z"/>
	<path class="st6" d="M176.1,167.5c1.2-0.3,4.4-0.1,5.4-0.2c-1.8-0.9-3.4-1.2-5.5-1.1c-2,0.1-3,0.8-3.6,0c-0.4-0.5,0.3-4.4,0.8-5.7
		c1.9-4.8,6.1-7.9,11.3-9.6c3.9-1.3,10.4,20.1,2.3,21.4c-8.1,1.3-12.6-1.7-12.6-1.7c-0.7-0.3-2.1-1.7-1.3-2.1
		C173.6,168.1,173.5,168.1,176.1,167.5z"/>
	<path class="st1" d="M181.9,160.9c1,0.3,1.5-0.7,1.5-1.1c0-0.4-0.4-1.1-1-1.1c-0.6,0-1.1,0.3-1.2,0.7
		C180.9,160.3,181.4,160.8,181.9,160.9z"/>
	<path class="st6" d="M200.2,162.4c0,0,6,0.6,9-1.3c3-1.9,9.3-7.2,9.3-7.2s-0.1-1.9-5.8,0.3c-5.6,2.2-9.4,2.8-10.7,3.5
		C200.7,158.3,198.1,162.5,200.2,162.4z"/>
</g>
<g>
	<path class="st1" d="M203.1,243.3c-11.8-2.1-12.7,2.2-14.4,6.1c-1.8,4.1-0.7,9.1,2.1,12.7c1.5,1.9,3.4,2.8,5.4,4.1
		c1.7,1.1,3.6,2.8,5.5,3.6c1.9,0.8,3.9,1.5,5.8,0.9c1.3-0.4,2.5-1.3,3.8-1.8c2.4-0.9,3.4,1,5.6-0.3c1.5-0.9,4.1-3.8,4.8-5.3
		c1.8-3.5,3.3-7.2,3.5-11.1c0.2-3.9,0.7-9.1-2.3-11.5c-3-2.4-4.3-3.3-8.1-3.2c-1.9,0.1-5.8,0.3-7.7,2
		C205.6,240.8,204.7,242.2,203.1,243.3"/>
	<g>
		<path class="st2" d="M203.9,244.3c-1.5-2.4-2.8-4.6-2.3-7.5c0.1-0.9-1.2-1.1-1.4-0.2c-0.5,3.3,1,5.8,2.6,8.5
			C203.3,245.9,204.4,245,203.9,244.3L203.9,244.3z"/>
	</g>
	<g>
		<path class="st3" d="M201.5,245.7c0.8-0.1,1.6,0,2.3-0.3c0.7-0.3,1.2-0.7,1.6-1.3c0.2-0.2-0.2-0.5-0.3-0.3c-0.4,0.6-1,1.1-1.7,1.3
			c-0.6,0.2-1.3,0.1-1.9,0.2C201.2,245.3,201.2,245.8,201.5,245.7L201.5,245.7z"/>
	</g>
</g>
<g>
	<path class="st6" d="M14.4,166.3c0,0-0.2,2-0.2,2.7c0,0.7-0.1,3.1-0.1,3.1s-6.2-3.6-6.8-3.9c-0.5-0.3,1.3-5,1.3-5l6.2,1L14.4,166.3
		z"/>
	<path class="st6" d="M14,172.1c0,0,12.9-1.7,13.6-1.8c0.7-0.1-1.6-5.9-1.6-5.9l-7.2-1.2l-5,0.8L14,172.1z"/>
	<path class="st5" d="M10.1,164.3c0,0,0.7,0.3,1.1,0.5c0.4,0.2,2.9,1.3,3.1,1.5c0.2,0.3,3.6-0.5,4.9-0.6s3.8-0.9,4.5-1
		c0.7-0.2,1.7-0.1,2.3-0.3c-1.1-0.7-3.1-1.4-4.1-2c-1-0.7-1.9-1-2.7-1.3c-0.3-0.1-2.5,0.4-5,0.9s-5.5,1-5.7,1.2
		C8,163.4,10.1,164.3,10.1,164.3z"/>
	<path class="st6" d="M24,171.9c0,0,1,2.2,1,2.9c0,0.7-1,3.5-1,3.5s-6.6-4.2-7.2-4.5c-0.5-0.3,1.3-5,1.3-5l6.2,1L24,171.9z"/>
	<path class="st6" d="M24,178.2c0,0,11.9-3.4,12.6-3.5c0.7-0.1-1-4.8-1-4.8l-7.2-1.2l-5,0.8L24,178.2z"/>
	<path class="st5" d="M19.8,169.8c0,0,0.7,0.3,1.1,0.5c0.4,0.2,2.9,1.3,3.1,1.5c0.2,0.3,3.6-0.5,4.9-0.6s3.8-0.9,4.5-1
		c0.7-0.2,1.7-0.1,2.3-0.3c-1.1-0.7-3.1-1.4-4.1-2c-1-0.7-1.9-1-2.7-1.3c-0.3-0.1-2.5,0.4-5,0.9s-5.5,1-5.7,1.2
		C17.6,169,19.8,169.8,19.8,169.8z"/>
	<path class="st6" d="M0.1,169.8c0,0-0.2,2-0.2,2.7s-0.1,3.1-0.1,3.1s-6.2-3.6-6.8-3.9c-0.5-0.3,1.7-5.4,1.7-5.4l5.7,1.4L0.1,169.8z
		"/>
	<path class="st6" d="M-0.2,175.6c0,0,12.9-1.7,13.6-1.8c0.7-0.1-1.6-5.9-1.6-5.9l-7.2-1.2l-5,0.8L-0.2,175.6z"/>
	<path class="st5" d="M-3.6,167.3c0,0,0.7,0.3,1.1,0.5c0.4,0.2,2.9,1.3,3.1,1.5c0.2,0.3,3.6-0.5,4.9-0.6s3.8-0.9,4.5-1
		c0.7-0.2,1.7-0.1,2.3-0.3c-1.1-0.7-3.1-1.4-4.1-2c-1-0.7-1.9-1-2.7-1.3c-0.3-0.1-2.5,0.4-5,0.9s-5.5,1-5.7,1.2
		C-5.7,166.4-3.6,167.3-3.6,167.3z"/>
	<path class="st6" d="M9.8,175.4c0,0,1,2.2,1,2.9c0,0.7-1,3.5-1,3.5s-6.6-4.2-7.2-4.5c-0.5-0.3,1.3-5,1.3-5l6.2,1L9.8,175.4z"/>
	<path class="st6" d="M9.8,181.7c0,0,11.9-3.4,12.6-3.5s-1-4.8-1-4.8l-7.2-1.2l-5,0.8L9.8,181.7z"/>
	<path class="st5" d="M5.5,173.4c0,0,0.7,0.3,1.1,0.5c0.4,0.2,2.9,1.3,3.1,1.5c0.2,0.3,3.6-0.5,4.9-0.6s3.8-0.9,4.5-1
		c0.7-0.2,1.7-0.1,2.3-0.3c-1.1-0.7-3.1-1.4-4.1-2c-1-0.7-1.9-1-2.7-1.3c-0.3-0.1-2.5,0.4-5,0.9c-2.5,0.5-5.5,1-5.7,1.2
		C3.4,172.5,5.5,173.4,5.5,173.4z"/>
	<path class="st6" d="M-14.1,173.3c0,0-0.2,2-0.2,2.7c0,0.7-0.1,3.1-0.1,3.1s-6-0.9-6.6-1.3c-0.5-0.3,1.5-8,1.5-8l5.7,1.4
		L-14.1,173.3z"/>
	<path class="st6" d="M-14.5,179.1c0,0,12.9-1.7,13.6-1.8s-1.6-5.9-1.6-5.9l-7.2-1.2l-5,0.8L-14.5,179.1z"/>
	<path class="st5" d="M-17.9,170.8c0,0,0.7,0.3,1.1,0.5c0.4,0.2,2.9,1.3,3.1,1.5c0.2,0.3,3.6-0.5,4.9-0.6s3.8-0.9,4.5-1
		c0.7-0.2,1.7-0.1,2.3-0.3c-1.1-0.7-3.1-1.4-4.1-2c-1-0.7-1.9-1-2.7-1.3c-0.3-0.1-2.5,0.4-5,0.9c-2.5,0.5-5.5,1-5.7,1.2
		C-20,169.9-17.9,170.8-17.9,170.8z"/>
	<path class="st6" d="M-4.5,178.9c0,0,1,2.2,1,2.9c0,0.7-1,3.5-1,3.5s-6.6-4.2-7.2-4.5c-0.5-0.3,1.3-5,1.3-5l6.2,1L-4.5,178.9z"/>
	<path class="st6" d="M-4.5,185.2c0,0,11.9-3.4,12.6-3.5c0.7-0.1-1-4.8-1-4.8L0,175.8l-5,0.8L-4.5,185.2z"/>
	<path class="st5" d="M-8.7,176.9c0,0,0.7,0.3,1.1,0.5c0.4,0.2,2.9,1.3,3.1,1.5c0.2,0.3,3.6-0.5,4.9-0.6c1.3-0.1,3.9-0.6,4.5-0.7
		s1.7-0.4,2.3-0.6c-1.1-0.7-3.1-1.4-4.1-2c-1-0.7-1.9-1-2.7-1.3c-0.3-0.1-2.5,0.4-5,0.9s-5.5,1-5.7,1.2
		C-10.9,176-8.7,176.9-8.7,176.9z"/>
	<path class="st6" d="M-4.4,179.4l-0.2,7.8l41.3-10.2l0-2.7l-3.9-1.9c0,0-32.8,9-33.2,9.1S-4.4,179.4-4.4,179.4z"/>
	<polygon class="st6" points="-4.6,187.2 -21,177.8 -17.3,174.9 -1,183.4 	"/>
</g>
<g>
	<path class="st7" d="M-15.1,150.8c-3.8,1.3-3.7,1.7-7.4,3.1c-5,1.9-15.8,5.6-21.1,5.3c-0.6,0-1.3-0.1-1.8-0.4
		c-1-0.7-1.8-1.6-1.7-2.9l0,0c-0.4-0.8,0.3-2.7,1-3.2c1.7-1.1,10.2-2.4,13.7-2.9c4.1-0.7,8.1-0.8,9.8-1.7l13.4-4.5
		C-3.4,147.2-12.9,150.1-15.1,150.8z"/>
	<path class="st1" d="M35.6,142.3c-8.3-1.4-26,2.6-34.1,3.8c-2.6,0.4-9.8,2.1-17.8,5.4c-2.4,1-3.5,1.8-5.4,2.2
		c2.8-3.3,1.5-4.7-1.9-5.1c7.3-2.7,15-6.8,21.3-11.3c5.9-4.2,19.5-16.3,25.4-20.5c1.8,1.7,3.3,2.6,2.5,4.3
		c-2.5,1.7-25.1,18.8-27.3,20.8c2.7-1.5,17.1-11.1,20-12.1c3.2-1.1,14.4-7.1,17.8-7.8c1.6,1.1,1.4,2.5,1.3,4.8
		c-3.4,0.7-14.7,6.6-18,7.9c-3.7,1.5-7.3,3.6-10.9,5.5c7.9-1.9,20.9-3.5,29.1-2.5C37.2,138.7,36.7,140.5,35.6,142.3z"/>
	<g>
		<path class="st3" d="M-46.3,156.4c-0.7,0.2-1.4,0.5-2.1,0.8c-0.2,0.1-0.1,0.4,0.1,0.3c0.7-0.3,1.3-0.6,2-0.8
			C-46,156.7-46.1,156.4-46.3,156.4L-46.3,156.4z"/>
	</g>
	<g>
		<path class="st3" d="M-47.1,155.6c-0.7,0-1.3,0-2,0c-0.2,0-0.2,0.3,0,0.3c0.7,0,1.3,0,2,0C-46.9,155.9-46.8,155.6-47.1,155.6
			L-47.1,155.6z"/>
	</g>
	<g>
		<path class="st3" d="M-47,154.3c-0.6-0.3-1.2-0.5-1.8-0.8c-0.2-0.1-0.3,0.2-0.1,0.3c0.6,0.3,1.2,0.5,1.8,0.8
			C-46.9,154.7-46.8,154.4-47,154.3L-47,154.3z"/>
	</g>
	<g>
		<path class="st3" d="M-45.9,157.8c-0.4,0.5-0.9,1-1.4,1.4c-0.2,0.1,0,0.4,0.2,0.3c0.6-0.4,1.1-0.9,1.5-1.5
			C-45.5,157.8-45.7,157.6-45.9,157.8L-45.9,157.8z"/>
	</g>
</g>
<g>
	<path class="st5" d="M1,236.5c-5.6,1.2-8.8,3.6-10,8.5c-1.6,8.6,1.6,18,17.7,18.5s18.1-5.6,19.3-11.8c0.7-3.5-0.2-7.3-0.9-9
		c-2.5-5.7-9.9-7-16.1-6.1C8.2,237,3.1,235.9,1,236.5"/>
	<path class="st1" d="M17.2,237.4c-1.9-0.6-2.9-0.9-4.5-0.4c-0.4,0.1-1.6,0.4-2,0.6c-0.7,0.3-1.9,0.8-2.3,0.7
		c-0.7-0.1-0.5,0-1.2-0.3c-0.6-0.3-1.8-1-2.3-1.3c-1.2-0.7-3.1-0.3-4.4-0.2c-0.6,0.1-3.2,0.8-3.4,0.3c-0.3-0.6,2-2.5,2.9-2.6
		c1.8-0.2,3.1-0.4,4.9-0.1c0.7,0.1,1.2,0.4,1.7,0.8c0.2,0.1,0.6,0.8,0.8,0.9c-0.1-0.1,0.1-0.5-0.3-1c-0.3-0.4-0.8-1-1.8-1.7
		c-0.7-0.5-1.8-1.3-2.7-1.9L2,230.3c0-0.4,2.5,0.2,2.9,0.4c1.7,0.5,2,0.7,2.9,1.5c0.5,0.4,0.7,1,1.1,1.5c0.3,0.5,0.5,1.2,1,1.6
		c0,0,0.1,0.1,0.1,0.1c1.1-0.3,2.7-0.8,3.9-0.9c1.4-0.1,3.2,0.3,4.5,0.7c0.8,0.3,2.4,0.7,2.1,1.2C20.2,236.9,17.9,237.6,17.2,237.4z
		"/>
	<path class="st1" d="M8.9,235.7c0,0,1.9-3.6,2.9-5.1s3.1-2,3.1-2s0.4,0.8,0.1,1.8s-1.6,2.2-2,2.9c-0.5,0.7-2.5,2.9-2.5,2.9
		L8.9,235.7z"/>
</g>
<g>
	<path class="st4" d="M-20.2,66.9c1.8-2.3,4.7-6.6,8-7.7s9.8-3,12.6-3.4C3.1,55.4,13,55.5,15,55.6c4,0.3,10.2,3.1,13.2,6.4
		c1.1,1.3,3.7,4.7,4.4,6c1.1,2.3,1.1,5.8-1.6,6.7c-0.8,0.3-4.2,1.6-7.8,2.1c-4.8,0.8-8.4,1.7-10.9,1.8c-2.4,0.1-10,0.5-15.5,0.6
		c-4.9,0.1-9.9,0.7-11.8,0.3c-4.1-0.9-5.7-1.6-6.6-4C-22.8,73.2-22,69.2-20.2,66.9z"/>
	<path class="st5" d="M-9.3,58.2c0,0,3.9,2.7,5,4.1c1.2,1.5,1.8,4.9,2.2,5.4s0.7-4.8-0.7-6.2S-7,57.6-7,57.6L-9.3,58.2z"/>
	<path class="st5" d="M0.7,55.7c0,0,3.6,3.2,4.8,4.6s1.8,4.9,2.2,5.4C8.1,66.3,8.3,61,7,59.6c-1.3-1.5-3.9-4.1-3.9-4.1L0.7,55.7z"/>
	<path class="st5" d="M10.8,55.5c0,0,4.3,3.2,5.4,4.7c1.2,1.5,1.8,4.9,2.2,5.4c0.4,0.5,0.7-4.8-0.7-6.2c-1.3-1.5-4.6-3.9-4.6-3.9
		L10.8,55.5z"/>
</g>
<g>
</g>
<g>
</g>
<g>
</g>
<g>
</g>
<g>
</g>
<g>
</g>
</svg>
