<?xml version="1.0" encoding="utf-8"?>
<!-- Generator: Adobe Illustrator 24.1.3, SVG Export Plug-In . SVG Version: 6.00 Build 0)  -->
<svg version="1.1" id="Ebene_1" xmlns="http://www.w3.org/2000/svg" xmlns:xlink="http://www.w3.org/1999/xlink" x="0px" y="0px"
	 viewBox="0 0 400 400" style="enable-background:new 0 0 400 400;" xml:space="preserve">
<style type="text/css">
	.st0{fill:#FFE400;}
	.st1{fill:#432918;}
</style>
<g>
	<path class="st0" d="M24.2,363.5c2.9-7.8,6.3-14.4,10.5-20.2c6.5-9.1,11.2-19,21.6-26.5c18.4-13.2,45.4-15.1,66.3-22.8
		c19.6-7.2,36.7-17.8,53.9-30.2C212,238,227,220.1,248.9,182c7-12.2,17.5-25.5,26.3-42.7c8.9-17.3,16.2-38.4,25.3-49.3
		c10.7-12.9,36.5-14,50.4-23.5c7.9,15.3,16.9,38,14.2,55c-3.1,19-5,43.5-9.4,58.6c-13.4,45.1-36.4,68.5-75.8,110.5
		c-18.2,19.4-41.9,38.2-66.2,53c-14.8,8.9-60.8,23.6-78.8,29.8c-42.2,14.4-63,11.9-102.8,5.8C29.7,378.9,21.9,364.1,24.2,363.5"/>
	<g>
		<path class="st0" d="M351.6,108.3c11.8-25.4,25.6-68.8,4.1-92.7c-9.2-10.3-25.8-0.9-20.8,12.4c10.4,27.8,0.7,56.4-14,80.6
			c-8.1,13.3,11.3,28.2,19.5,14.8c19.6-32.1,30.7-68.3,17-105.1c-6.9,4.1-13.9,8.3-20.8,12.4C351.1,47,336.8,82.3,329,99
			C322.4,113.4,345,122.6,351.6,108.3L351.6,108.3z"/>
	</g>
	<g>
		<path class="st1" d="M338.4,75.6c1.5,4.7,4.9,8.4,9.4,10.4c1.4,0.6,2.4-1.6,0.9-2.3c-4-1.8-6.8-5-8.1-9.1
			C340.1,73.1,337.9,74.1,338.4,75.6L338.4,75.6z"/>
	</g>
	<g>
		<path class="st1" d="M22.4,360.6c0.3,3.5,1,6.8,2.1,10.1c1.2,3.6,3.6,6.4,6,9.4c2.9,3.7,8.7-0.8,5.7-4.5c-1.9-2.5-4-4.7-5-7.7
			c-0.9-2.7-1.3-5.4-1.6-8.2C29.3,354.9,22,355.9,22.4,360.6L22.4,360.6z"/>
	</g>
</g>
<g>
</g>
<g>
</g>
<g>
</g>
<g>
</g>
<g>
</g>
<g>
</g>
<g>
</g>
<g>
</g>
<g>
</g>
<g>
</g>
<g>
</g>
<g>
</g>
<g>
</g>
<g>
</g>
<g>
</g>
</svg>
