<?xml version="1.0" encoding="utf-8"?>
<!-- Generator: Adobe Illustrator 24.1.3, SVG Export Plug-In . SVG Version: 6.00 Build 0)  -->
<svg version="1.1" id="Ebene_1" xmlns="http://www.w3.org/2000/svg" xmlns:xlink="http://www.w3.org/1999/xlink" x="0px" y="0px"
	 viewBox="0 0 400 400" style="enable-background:new 0 0 400 400;" xml:space="preserve">
<style type="text/css">
	.st0{fill:#FFE400;}
	.st1{fill:#FB5607;}
</style>
<g>
	<path class="st0" d="M15.1,212.3C26.5,195,43.8,163.1,66.5,153s67.3-27.4,86.4-31.9s88.7-10.1,103.2-10.3
		c28.1-0.3,73.8,15.2,96.8,37c8.9,8.5,28.8,30.5,34.5,39.8c9.4,15.4,11.1,40-7.3,48.5c-5.3,2.5-28.4,13.5-53.9,20
		c-33.1,8.3-58.3,17-76,19.3c-16.5,2.1-70.4,9.8-108.8,13.7c-34.5,3.5-69.3,11.3-83.2,9.4C28.7,294.8,17.2,291,9,274.9
		S3.7,229.6,15.1,212.3z"/>
	<path class="st1" d="M86.3,144.1c0,0,28.8,16.3,37.9,26c9.1,9.7,15.6,33.7,18.6,36.9c3,3.2,1.8-34.1-8.5-43.6
		c-10.3-9.5-32.5-25-32.5-25L86.3,144.1z"/>
	<path class="st1" d="M155.2,120.8c0,0,27.5,20,36.6,29.8c9.1,9.7,15.6,33.7,18.6,36.9c3,3.2,1.8-34.1-8.5-43.6
		c-10.3-9.5-30.2-26.2-30.2-26.2L155.2,120.8z"/>
	<path class="st1" d="M226.4,112.7c0,0,32,19.7,41.2,29.4s15.6,33.7,18.6,36.9c3,3.2,1.8-34.1-8.5-43.6s-34.9-24.6-34.9-24.6
		L226.4,112.7z"/>
</g>
<g>
</g>
<g>
</g>
<g>
</g>
<g>
</g>
<g>
</g>
<g>
</g>
<g>
</g>
<g>
</g>
<g>
</g>
<g>
</g>
<g>
</g>
<g>
</g>
<g>
</g>
<g>
</g>
<g>
</g>
</svg>
