<?xml version="1.0" encoding="utf-8"?>
<!-- Generator: Adobe Illustrator 24.1.3, SVG Export Plug-In . SVG Version: 6.00 Build 0)  -->
<svg version="1.1" id="Ebene_1" xmlns="http://www.w3.org/2000/svg" xmlns:xlink="http://www.w3.org/1999/xlink" x="0px" y="0px"
	 viewBox="0 0 400 400" style="enable-background:new 0 0 400 400;" xml:space="preserve">
<style type="text/css">
	.st0{fill:#FFE400;}
	.st1{fill:#FB5607;}
</style>
<g>
	<g>
		<path class="st0" d="M389,227.8c-0.1-7.9,1.2-15,1.8-21.8c0.2-2.5-4.7,1.4-4.7-9.5c0-10.9,7.2-6.9,6.8-10.2
			c-1-7,1.4-11.1-3.4-11.5c-7.5-0.7-15.6-1.3-16.3-10.8c-0.7-10.2,4.7-14.9,13.6-14.9c8,0,5.5-8.7,3.9-19.9L6.3,208.4
			c1.7,5.6,2.7,11.1,3.2,16.7c0.5,5.6,0.5,11.1,0.4,16.8c5.9,3.4,10.6,10.8,10.6,15.6c0,10.6-6.1,12.9-11.5,17
			c-0.3,4.5,0,7.4,2.7,21.1c0.4,1.9,0.9,3.9,2.2,5.4c3,3.5,8.6,2.8,13.1,1.7c20.3-5.1,30.3-6.8,51.2-6.3c10.1,0.2,20.3,2,30.4,0.5
			c2-0.3-0.5-8.2,6.2-9.5c8.1-1.6,6.2,7.9,8.8,7.5c11.9-1.6,26.2-3.5,33.2-5.1c17.6-4,38.4-2.9,56.3-0.2c6.5,1,14.6,0.6,23.9-0.3
			c4.3-0.4,1.9-12,18.9-12.8c14.9-0.7,14.1,9.3,19,8.8c8.4-0.9,7.1-0.9,16.2-1.1c28.7-0.8,29.7-3.9,58.4-4.7c12-0.3,20-7.6,31.9-9.6
			c3.5-0.6,7.4-1.6,9.6-4.5c1.7-2.3,2-5.3,2.1-8.1C393.3,249.4,389.1,237,389,227.8z M40.2,288.3c-4.3,0-12.2,2.5-15.4,1.4
			c-3.2-1.1-2.5-6.8-0.7-10.4c1.8-3.6,8.2-4.3,8.2-4.3s10.7,0.4,12.5,2.9C46.6,280.5,44.5,288.3,40.2,288.3z M106.8,241.2
			c-3.7,0-10.4,4.3-13.2,2.5c-2.8-1.8-15-6.9-13.5-13.1c1.6-6.2,19.9-12.2,19.9-12.2s9.2,0.6,10.7,4.9
			C112.3,227.7,110.4,241.2,106.8,241.2z M186.6,265c-8.1,0-13.6,6.8-19.7,4.8c-6.1-2-10.2-7.5-6.8-14.3
			c3.4-6.8,18.3-15.6,18.3-15.6s14.9-1.3,18.3,3.4C200.2,248,194.8,265,186.6,265z M266,210.7c-8,0-14.3,4.6-20.3,2.7
			c-6-1.9-5.9-20.3-2.6-26.5c3.3-6.2,15.3-7.4,15.3-7.4s20,0.6,23.4,4.9C285.1,188.8,274,210.7,266,210.7z M357.5,253.4
			c-8.1,0-23.1,4.7-29.1,2.7c-6.1-2-4.8-12.9-1.4-19.7c3.4-6.8,15.6-8.1,15.6-8.1s20.3,0.7,23.7,5.4
			C369.7,238.5,365.6,253.4,357.5,253.4z"/>
	</g>
	<path class="st1" d="M6.1,208.7c13.7-12.7,38.1-19.7,45-23.2s24.1-12.8,33.1-17.5c10.8-5.5,19.9-11.4,35.5-19.2
		c6.7-3.4,17.6-5.4,24.2-8.6c10.5-5.1,16.3-11.1,24.2-14.4c11.2-4.7,27.9-9.2,35.5-12c14.7-5.3,17.6-7.5,37.7-16.2
		c5.3-2.3,13-7.9,18.8-8.2c6.1-0.3,20.3,1,26.1,2.9c11.9,3.8,30.4,12.3,42.3,16.1c24.9,8,34.9,12,59.9,20c4.6,2.1,1.7,7.3-2.8,8.2
		c-10.4,2-19.8,0.7-28.8,2.4c-8.5,1.5-16.7,6-25.2,7.5c-9.4,1.7-14.1,2.6-25,4.7c-8.7,1.7-18,4.5-27.1,6.1
		c-6.3,1.1-17.3,1.7-23.7,2.8c-12.9,2.2-24.4,8.4-36.6,10.7c-9.5,1.8-20.1,2.3-38,6.8c-12.5,3.2-26.7,6.9-37.3,9.5
		c-7,1.7-28.9,2.5-33.2,3.4c-15.9,3.1-15.5,6.4-27.1,9.5c-10.8,2.8-21.2,1.9-32.5,4.7c-9.4,2.4-16.9,3.5-29.2,5.9
		C21.9,210.5,7.5,211.5,6.1,208.7z"/>
</g>
<g>
</g>
<g>
</g>
<g>
</g>
<g>
</g>
<g>
</g>
<g>
</g>
<g>
</g>
<g>
</g>
<g>
</g>
<g>
</g>
<g>
</g>
<g>
</g>
<g>
</g>
<g>
</g>
<g>
</g>
</svg>
