<?xml version="1.0" encoding="utf-8"?>
<!-- Generator: Adobe Illustrator 24.1.3, SVG Export Plug-In . SVG Version: 6.00 Build 0)  -->
<svg version="1.1" id="Ebene_1" xmlns="http://www.w3.org/2000/svg" xmlns:xlink="http://www.w3.org/1999/xlink" x="0px" y="0px"
	 viewBox="0 0 665.9 546.6" style="enable-background:new 0 0 665.9 546.6;" xml:space="preserve">
<style type="text/css">
	.st0{fill:#F2C0C8;}
	.st1{fill:#6BF178;}
	.st2{fill:#1D1D1B;}
	.st3{fill:#432918;}
	.st4{fill:#FFE400;}
	.st5{fill:#FB5607;}
	.st6{fill:#0E1116;}
	.st7{fill:#F6F6F6;}
	.st8{fill:#3A86FF;}
	.st9{fill:#0C0F14;}
	.st10{fill:#F4F4F4;}
	.st11{fill:#0D0F14;}
	.st12{fill:#FFFFFF;}
	.st13{fill:#E45F12;}
	.st14{fill:#0E1115;}
	.st15{fill:#4C7ABB;}
</style>
<rect x="-1641.8" y="-79.1" class="st0" width="377.6" height="216.7"/>
<g>
	<path class="st1" d="M-1376-64.8c-18.3-6-20.6,0.7-24.2,6.6c-3.8,6.1-3,14.3,0.5,20.6c1.9,3.4,4.7,5.2,7.7,7.7
		c2.5,2.2,5.1,5.2,7.9,6.9c2.8,1.7,5.9,3.2,9.1,2.8c2.2-0.3,4.2-1.6,6.4-2.1c3.9-0.9,5.2,2.4,9,0.8c2.5-1.1,7.3-5.1,8.8-7.3
		c3.6-5.2,6.8-10.7,8-16.9s3.1-14.3-1.2-18.8c-4.2-4.4-6.1-6.2-12.1-6.9c-3-0.3-9.3-0.7-12.7,1.5
		C-1371.5-68.1-1373.2-66.1-1376-64.8"/>
	<g>
		<path class="st2" d="M-1375-63.1c-1.8-4.2-3.4-7.8-2-12.4c0.4-1.4-1.7-2-2.1-0.6c-1.6,5.2,0.2,9.4,2.3,14.1
			C-1376.3-60.6-1374.4-61.8-1375-63.1L-1375-63.1z"/>
	</g>
	<g>
		<path class="st3" d="M-1379.1-61.3c1.3-0.1,2.5,0.3,3.8,0c1.1-0.3,2.1-0.9,2.8-1.7c0.3-0.3-0.2-0.8-0.5-0.5
			c-0.8,0.9-1.8,1.5-3,1.6c-1,0.1-2-0.2-3.1-0.1C-1379.6-62-1379.6-61.3-1379.1-61.3L-1379.1-61.3z"/>
	</g>
</g>
<g>
	<path class="st4" d="M-1324.7-26.3c0.8-1.5,1.8-2.8,2.8-3.9c1.6-1.7,2.9-3.7,5.3-4.9c4.2-2.2,10-1.8,14.6-2.8
		c4.3-0.9,8.2-2.7,12.2-4.7c8.2-4.3,11.9-7.6,17.6-15c1.8-2.4,4.4-4.8,6.8-8.2c2.4-3.4,4.5-7.6,6.7-9.6c2.6-2.4,8.1-1.9,11.3-3.4
		c1.2,3.4,2.4,8.4,1.4,11.9c-1.2,3.9-2.3,9-3.7,12c-4.1,9-9.7,13.3-19.2,20.9c-4.4,3.5-9.9,6.8-15.5,9.1c-3.4,1.4-13.5,3.2-17.4,3.9
		c-9.3,1.8-13.6,0.7-21.7-1.8C-1324-22.9-1325.2-26.2-1324.7-26.3"/>
	<g>
		<path class="st4" d="M-1248.4-70.1c3.2-5,7.4-13.6,3.6-19.3c-1.6-2.4-5.4-0.9-4.7,2c1.4,6.1-1.5,11.8-5.3,16.4
			c-2.1,2.6,1.5,6.2,3.7,3.7c5.1-6.1,8.5-13.4,6.6-21.5c-1.6,0.7-3.2,1.3-4.7,2c2.6,3.8-1.5,10.8-3.6,14
			C-1254.7-69.9-1250.3-67.3-1248.4-70.1L-1248.4-70.1z"/>
	</g>
	<g>
		<path class="st3" d="M-1250.3-77.3c0.2,1,0.8,1.9,1.7,2.5c0.3,0.2,0.5-0.3,0.3-0.4c-0.8-0.5-1.3-1.2-1.4-2.1
			C-1249.8-77.8-1250.3-77.6-1250.3-77.3L-1250.3-77.3z"/>
	</g>
	<g>
		<path class="st3" d="M-1325-26.9c0,0.7,0,1.5,0.1,2.2c0.2,0.8,0.6,1.5,1,2.1c0.5,0.9,1.8,0.1,1.3-0.8c-0.3-0.6-0.7-1.1-0.8-1.8
			c-0.1-0.6-0.1-1.2-0.1-1.8C-1323.3-27.9-1324.9-27.9-1325-26.9L-1325-26.9z"/>
	</g>
</g>
<path class="st5" d="M-1319.5,17.9c-8.5,2.2-13.1,6.1-14.8,13.7c-0.4,1.6,0.4,9.3,1.6,12.4c1.7,4.5,7.4,9.4,9.7,10.4
	c5.9,2.6,11.7,4.5,17.2,4.5c5.1-0.1,10-1.2,14.7-3.4c6.7-3.1,13-6.4,14.2-15.9c0.3-2.2-0.8-11.2-2-13.8c-4.2-8.7-15.8-10.1-25.2-8.3
	C-1308.4,18.1-1316.2,16.8-1319.5,17.9"/>
<path class="st1" d="M-1294.4,18.1c-2.9-0.8-4.6-1.2-7-0.3c-0.6,0.2-2.5,0.7-3.1,1c-1.1,0.6-2.9,1.4-3.5,1.3
	c-1.1-0.2-0.8,0.1-1.9-0.4c-0.9-0.4-2.8-1.5-3.7-1.9c-1.9-1-4.7-0.3-6.9,0.1c-1,0.1-4.9,1.4-5.2,0.7c-0.5-1,3-4,4.3-4.2
	c2.7-0.4,4.8-0.8,7.6-0.5c1.1,0.1,1.8,0.5,2.7,1.2c0.3,0.2,1,1.2,1.2,1.3c-0.1-0.2,0.1-0.8-0.6-1.6c-0.5-0.7-1.3-1.5-2.9-2.6
	c-1.1-0.8-2.8-1.8-4.3-2.8l-0.8-1.3c0-0.6,3.8,0.2,4.4,0.4c2.7,0.6,3.1,0.9,4.5,2.1c0.8,0.6,1.2,1.5,1.7,2.3
	c0.5,0.8,0.9,1.9,1.6,2.5c0.1,0,0.1,0.1,0.2,0.1c1.7-0.6,4.1-1.4,5.9-1.7c2.1-0.3,4.9,0.3,7,0.8c1.2,0.3,3.8,0.8,3.4,1.8
	C-1289.9,17.3-1293.4,18.4-1294.4,18.1z"/>
<path class="st1" d="M-1307.6,17.1c0,0,2.7-5.7,4.1-8c1.4-2.2,4.7-3.3,4.7-3.3s0.6,1.2,0.2,2.8c-0.4,1.5-2.2,3.5-3,4.6
	c-0.7,1.1-3.6,4.7-3.6,4.7L-1307.6,17.1z"/>
<g>
	<path class="st4" d="M-1308,116.6c0-1.8,0.3-3.4,0.4-4.9c0.1-0.6-1.1,0.3-1.1-2.1c0-2.5,1.6-1.6,1.5-2.3c-0.2-1.6,0.3-2.5-0.8-2.6
		c-1.7-0.2-3.5-0.3-3.7-2.5c-0.2-2.3,1.1-3.4,3.1-3.4c1.8,0,1.2-2,0.9-4.5l-86.9,17.9c0.4,1.3,0.6,2.5,0.7,3.8
		c0.1,1.3,0.1,2.5,0.1,3.8c1.3,0.8,2.4,2.4,2.4,3.5c0,2.4-1.4,2.9-2.6,3.8c-0.1,1,0,1.7,0.6,4.8c0.1,0.4,0.2,0.9,0.5,1.2
		c0.7,0.8,1.9,0.6,3,0.4c4.6-1.1,6.9-1.5,11.6-1.4c2.3,0.1,4.6,0.5,6.9,0.1c0.5-0.1-0.1-1.8,1.4-2.2c1.8-0.4,1.4,1.8,2,1.7
		c2.7-0.4,5.9-0.8,7.5-1.2c4-0.9,8.7-0.7,12.7,0c1.5,0.2,3.3,0.1,5.4-0.1c1-0.1,0.4-2.7,4.3-2.9c3.4-0.2,3.2,2.1,4.3,2
		c1.9-0.2,1.6-0.2,3.7-0.3c6.5-0.2,6.7-0.9,13.2-1.1c2.7-0.1,4.5-1.7,7.2-2.2c0.8-0.1,1.7-0.4,2.2-1c0.4-0.5,0.5-1.2,0.5-1.8
		C-1307,121.5-1308,118.7-1308,116.6z M-1386.9,130.3c-1,0-2.7,0.6-3.5,0.3c-0.7-0.2-0.6-1.5-0.2-2.3c0.4-0.8,1.9-1,1.9-1
		s2.4,0.1,2.8,0.6C-1385.4,128.6-1385.9,130.3-1386.9,130.3z M-1371.8,119.7c-0.8,0-2.4,1-3,0.6c-0.6-0.4-3.4-1.6-3-3
		c0.4-1.4,4.5-2.8,4.5-2.8s2.1,0.1,2.4,1.1C-1370.6,116.6-1371,119.7-1371.8,119.7z M-1353.8,125c-1.8,0-3.1,1.5-4.4,1.1
		c-1.4-0.5-2.3-1.7-1.5-3.2s4.1-3.5,4.1-3.5s3.4-0.3,4.1,0.8C-1350.7,121.2-1351.9,125-1353.8,125z M-1335.8,112.8
		c-1.8,0-3.2,1-4.6,0.6c-1.4-0.4-1.3-4.6-0.6-6c0.8-1.4,3.5-1.7,3.5-1.7s4.5,0.1,5.3,1.1C-1331.5,107.8-1334,112.8-1335.8,112.8z
		 M-1315.1,122.4c-1.8,0-5.2,1.1-6.6,0.6c-1.4-0.5-1.1-2.9-0.3-4.4s3.5-1.8,3.5-1.8s4.6,0.2,5.4,1.2
		C-1312.4,119.1-1313.3,122.4-1315.1,122.4z"/>
</g>
<path class="st5" d="M-1394.8,111.1c2.8-2,10.3-4.5,10.1-4.4c-2.1,1,5.2-3.2,7.2-4.3c2.4-1.3,4.5-2.6,8-4.3c1.5-0.8,4-1.2,5.5-1.9
	c2.4-1.2,3.7-2.5,5.5-3.3c2.5-1.1,6.3-2.1,8-2.7c3.3-1.2,4-1.7,8.5-3.7c1.2-0.5,2.9-1.8,4.3-1.9c1.4-0.1,4.6,0.2,5.9,0.6
	c2.7,0.9,6.9,2.8,9.6,3.6c5.6,1.8,7.9,2.7,13.5,4.5c1,0.5,0.4,1.6-0.6,1.8c-2.3,0.5-4.5,0.2-6.5,0.5c-1.9,0.3-3.8,1.4-5.7,1.7
	c-2.1,0.4-3.2,0.6-5.6,1.1c-2,0.4-4.1,1-6.1,1.4c-1.4,0.2-3.9,0.4-5.4,0.6c-2.9,0.5-5.5,1.9-8.3,2.4c-2.1,0.4-4.5,0.5-8.6,1.5
	c-2.8,0.7-6,1.6-8.4,2.1c-1.6,0.4-6.5,0.6-7.5,0.8c-3.6,0.7-3.5,1.5-6.1,2.1c-2.4,0.6-4.8,0.4-7.4,1.1c-2.1,0.5-5.2,1.8-8,2.4
	C-1393,113-1397.1,112.8-1394.8,111.1z"/>
<g>
	<path class="st6" d="M-1518.1-80.3c0,0-0.2-0.3,2.2,2.6c2.2,2.6,4.8,18.4,0.1,24.9c-2.6,3.5-7.8,10.7-13,12.8
		c-2.6,1-17.8,4.9-25,3.7c-4-0.7-10.2-3.1-15.3-2.7s-13.1,0.6-18.6,0.8c-6.2,0.2-15.6-4-17.2-6.8c-1.6-2.7-0.6-9.4-0.6-9.4
		s16.8-6.5,18.2-6.5s40.8-16.4,42.3-17.1C-1543.6-78.9-1518.1-80.3-1518.1-80.3z"/>
	<path class="st5" d="M-1518.3-61.4c1.4-2.3,3-6.1,3.1-8.1c0.3-5.9-1.4-11.5-5.5-15c-4.4-3.7-10-4.8-15.7-5.8
		c-5.9-1.1-12.8-1.2-18.6,0.4c-7.6,2-13.9,14.8-20.8,18.6c-6.9,3.8-15,4.6-21.5,6.2c-6.9,4.4-5.8,5.4-7.3,8.4
		c-1.5,2.9,1.2,5.9,3.7,8c2.5,2.1,5.8,2.9,9,3.5c14.2,2.7,20.5-2.6,34.3,1.6c8.4,2.6,18.6-0.7,24.8-3.3c6.2-2.6,6.6-4.6,13.5-13.1
		C-1518.9-60.4-1518.6-60.9-1518.3-61.4z"/>
	<path class="st7" d="M-1565.4-64.6c0,0,6.6-2.3,10-4.1c3.4-1.7,6.8-2.6,6.4-4.1c-0.3-1.5-3.1-4.4-3.6-5.6c-0.5-1.2-0.3-3.3,1.7-1.3
		c2.1,2,3.2,3.3,4.8,5.4c1.8,2.3,3,3.7,5.2,5.2c2.4,1.3,4.8,2.9,5.8,3.3c1,0.4,0.7,2.5-0.7,1.9c-1.4-0.5-3.9-1.3-5.8-2.4
		c-1.9-1.1-2.6-2.8-4.7-2.7c-2.2,0.1-4.6,2.2-8.2,3.5s-6,2.1-9.3,2.9c-3.3,0.7-7,3.3-8.4,1.6C-1572.8-61.9-1570.7-63-1565.4-64.6z"
		/>
</g>
<g>
	<path class="st4" d="M-1515.8,120.1l9.9,21.8c0,0,1.5,4.5,5.4,2.7c2.8-1.2,2.8-2.2,0.8-6.5c-1.9-4.3-9.1-20.2-9.1-20.2
		L-1515.8,120.1z"/>
	<path class="st7" d="M-1521.1,129.1c0,0-3.7,2.1-8.7-7.8c-3.1-6.2-13.8-34.5-13.8-38.7s1.5-12.9,9-15.3c10.3-3.3,15.8,1.8,19.9,8.8
		c4.1,7,14.4,28.6,15.9,33.1c1.5,4.5,3.3,9.3-1.8,11.6C-1505.6,123-1521.1,129.1-1521.1,129.1z"/>
	<path class="st1" d="M-1529.8,121.3c-3.1-6.2-13.8-34.5-13.8-38.7s1.5-12.9,9-15.3c10.3-3.3,15.8,1.8,19.9,8.8
		c4.1,7,14.4,28.6,15.9,33.1C-1505.8,112.6-1519.9,119.7-1529.8,121.3z"/>
</g>
<g>
	<path class="st6" d="M-1603.3,93c0,0-0.3,3.1-0.4,4.1c0,1-0.2,4.6-0.2,4.6s-9.4-5.4-10.2-5.9c-0.8-0.5,1.9-7.5,1.9-7.5l9.3,1.5
		L-1603.3,93z"/>
	<path class="st6" d="M-1603.9,101.7c0,0,19.4-2.6,20.4-2.7c1-0.2-2.3-8.8-2.3-8.8l-10.8-1.8l-7.5,1.2L-1603.9,101.7z"/>
	<path class="st5" d="M-1609.7,90c0,0,1.1,0.5,1.7,0.8c0.6,0.3,4.3,1.9,4.7,2.3c0.4,0.4,5.3-0.7,7.3-0.9c2-0.2,5.7-1.3,6.7-1.5
		c1-0.2,2.6-0.2,3.5-0.5c-1.6-1-4.7-2-6.2-3.1c-1.5-1-2.8-1.5-4.1-1.9c-0.5-0.2-3.8,0.6-7.6,1.4c-3.8,0.8-8.2,1.6-8.6,1.7
		C-1613,88.7-1609.7,90-1609.7,90z"/>
	<path class="st6" d="M-1588.8,101.4c0,0,1.6,3.3,1.6,4.3c0,1-1.6,5.2-1.6,5.2s-10-6.3-10.8-6.8c-0.8-0.5,1.9-7.5,1.9-7.5l9.3,1.5
		L-1588.8,101.4z"/>
	<path class="st6" d="M-1588.8,111c0,0,18-5.1,19-5.2c1-0.2-1.4-7.2-1.4-7.2l-10.8-1.8l-7.5,1.2L-1588.8,111z"/>
	<path class="st5" d="M-1595.2,98.4c0,0,1.1,0.5,1.7,0.8c0.6,0.3,4.3,1.9,4.7,2.3c0.4,0.4,5.3-0.7,7.3-0.9c2-0.2,5.7-1.3,6.7-1.5
		c1-0.2,2.6-0.2,3.5-0.5c-1.6-1-4.7-2-6.2-3.1c-1.5-1-2.8-1.5-4.1-1.9c-0.5-0.2-3.8,0.6-7.6,1.4c-3.8,0.8-8.2,1.6-8.6,1.7
		C-1598.5,97.1-1595.2,98.4-1595.2,98.4z"/>
	<path class="st6" d="M-1624.8,98.3c0,0-0.3,3.1-0.4,4.1c0,1-0.2,4.6-0.2,4.6s-9.4-5.4-10.2-5.9c-0.8-0.5,1.9-7.5,1.9-7.5l9.3,1.5
		L-1624.8,98.3z"/>
	<path class="st6" d="M-1625.4,107c0,0,19.4-2.6,20.4-2.7c1-0.2-2.3-8.8-2.3-8.8l-10.8-1.8l-7.5,1.2L-1625.4,107z"/>
	<path class="st5" d="M-1630.4,94.5c0,0,1.1,0.5,1.7,0.8c0.6,0.3,4.3,1.9,4.7,2.3c0.4,0.4,5.3-0.7,7.3-0.9c2-0.2,5.7-1.3,6.7-1.5
		c1-0.2,2.6-0.2,3.5-0.5c-1.6-1-4.7-2-6.2-3.1c-1.5-1-2.8-1.5-4.1-1.9c-0.5-0.2-3.8,0.6-7.6,1.4c-3.8,0.8-8.2,1.6-8.6,1.7
		C-1633.7,93.3-1630.4,94.5-1630.4,94.5z"/>
	<path class="st6" d="M-1610.3,106.7c0,0,1.6,3.3,1.6,4.3c0,1-1.6,5.2-1.6,5.2s-10-6.3-10.8-6.8c-0.8-0.5,1.9-7.5,1.9-7.5l9.3,1.5
		L-1610.3,106.7z"/>
	<path class="st6" d="M-1610.3,116.3c0,0,18-5.1,19-5.2c1-0.2-1.4-7.2-1.4-7.2l-10.8-1.8l-7.5,1.2L-1610.3,116.3z"/>
	<path class="st5" d="M-1616.7,103.7c0,0,1.1,0.5,1.7,0.8c0.6,0.3,4.3,1.9,4.7,2.3c0.4,0.4,5.3-0.7,7.3-0.9c2-0.2,5.7-1.3,6.7-1.5
		s2.6-0.2,3.5-0.5c-1.6-1-4.7-2-6.2-3.1c-1.5-1-2.8-1.5-4.1-1.9c-0.5-0.2-3.8,0.6-7.6,1.4c-3.8,0.8-8.2,1.6-8.6,1.7
		C-1619.9,102.4-1616.7,103.7-1616.7,103.7z"/>
	<path class="st6" d="M-1646.2,103.6c0,0-0.3,3.1-0.4,4.1c0,1-0.2,4.6-0.2,4.6s-9-1.4-9.9-1.9c-0.8-0.5,1.6-11.5,1.6-11.5l9.3,1.5
		L-1646.2,103.6z"/>
	<path class="st6" d="M-1646.8,112.3c0,0,19.4-2.6,20.4-2.7c1-0.2-2.3-8.8-2.3-8.8l-10.8-1.8l-7.5,1.2L-1646.8,112.3z"/>
	<path class="st5" d="M-1651.9,99.8c0,0,1.1,0.5,1.7,0.8s4.3,1.9,4.7,2.3c0.4,0.4,5.3-0.7,7.3-0.9s5.7-1.3,6.7-1.5s2.6-0.2,3.5-0.5
		c-1.6-1-4.7-2-6.2-3.1c-1.5-1-2.8-1.5-4.1-1.9c-0.5-0.2-3.8,0.6-7.6,1.4c-3.8,0.8-8.2,1.6-8.6,1.7
		C-1655.1,98.5-1651.9,99.8-1651.9,99.8z"/>
	<path class="st6" d="M-1631.7,112c0,0,1.6,3.3,1.6,4.3c0,1-1.6,5.2-1.6,5.2s-10-6.3-10.8-6.8c-0.8-0.5,1.9-7.5,1.9-7.5l9.3,1.5
		L-1631.7,112z"/>
	<path class="st6" d="M-1631.7,121.5c0,0,18-5.1,19-5.2c1-0.2-1.4-7.2-1.4-7.2l-10.8-1.8l-7.5,1.2L-1631.7,121.5z"/>
	<path class="st5" d="M-1638.1,109c0,0,1.1,0.5,1.7,0.8s4.3,1.9,4.7,2.3s5.3-0.7,7.3-0.9s5.7-1.3,6.7-1.5s2.6-0.2,3.5-0.5
		c-1.6-1-4.7-2-6.2-3.1c-1.5-1-2.8-1.5-4.1-1.9c-0.5-0.2-3.8,0.6-7.6,1.4c-3.8,0.8-8.2,1.6-8.6,1.7
		C-1641.4,107.7-1638.1,109-1638.1,109z"/>
	<path class="st6" d="M-1631.6,112.8l-0.3,11.8l62.2-15.3l-0.1-5.1l-5.8-1.8c0,0-49.4,13.5-49.9,13.7
		C-1626,116.2-1631.6,112.8-1631.6,112.8z"/>
	<polygon class="st6" points="-1631.9,124.6 -1656.7,110.4 -1651,106 -1626.5,118.7 	"/>
</g>
<g>
	<path class="st8" d="M-1661.1,31.9c12.8-2,33.8-9.5,40.1-12.4c6.3-2.9,12.9-4.1,19.1-4.3c7.2-0.2,14.9,1.6,17.3,5.4
		c2.6,4.2,3.2,15.3,4.4,18.7s3.6,5.6,4.6,2.9s3.6-13.9,5.8-16.2c2.2-2.3,9-2.9,12-4.5c3-1.6,5.5-4.4-1.3-5.6s-17.2-1-18.7-2.4
		c-1.6-1.5-8.1-18.2-30.5-21.5c-10.2-1.5-10.1-0.3-9.2-2.1c1.8-3.9,4-4.9,2.7-6.3s-21.8,1.2-23.1,2.3c-1.3,1.2-5.4,5-5.4,5
		s-13.7,1.7-21.4,7.3C-1672.1,3.5-1662.2,16.3-1661.1,31.9z"/>
	<path class="st6" d="M-1677.9,24.3c1.9-0.4,6.9-0.1,8.5-0.2c-2.8-1.4-5.3-2-8.7-1.7c-3.2,0.2-4.7,1.2-5.7,0c-0.6-0.8,0.6-6.9,1.4-9
		c3-7.6,9.6-12.4,17.8-15.2c6.2-2.1,16.4,31.7,3.6,33.7c-12.8,2-19.9-2.7-19.9-2.7c-1.1-0.5-3.4-2.7-2.1-3.3
		C-1681.7,25.3-1681.9,25.2-1677.9,24.3z"/>
	<path class="st1" d="M-1668.6,13.9c1.6,0.4,2.4-1.1,2.4-1.8c0-0.7-0.6-1.8-1.6-1.8c-1,0-1.7,0.4-2,1.1
		C-1670.3,12.9-1669.5,13.7-1668.6,13.9z"/>
	<path class="st6" d="M-1639.9,16.4c0,0,9.5,0.9,14.3-2s14.8-11.3,14.8-11.3s-0.2-3-9.1,0.4c-8.9,3.4-14.9,4.4-16.9,5.4
		S-1643.2,16.5-1639.9,16.4z"/>
</g>
<g>
	<g>
		<path class="st2" d="M-1496.6,29.4h-8.1v2.8h6.5V36h-6.5v5.9h-5V25.6h13.1V29.4z"/>
		<path class="st2" d="M-1490.5,29.3c1.3,0,2.5,0.3,3.5,0.8c1,0.5,1.8,1.2,2.3,2.2c0.6,1,0.8,2.1,0.8,3.5c0,1.3-0.3,2.5-0.8,3.5
			c-0.6,1-1.3,1.7-2.3,2.2c-1,0.5-2.2,0.8-3.5,0.8c-1.3,0-2.5-0.3-3.5-0.8c-1-0.5-1.8-1.2-2.4-2.2c-0.6-1-0.8-2.1-0.8-3.5
			c0-1.4,0.3-2.5,0.8-3.5c0.6-1,1.4-1.7,2.4-2.2C-1493,29.6-1491.8,29.3-1490.5,29.3z M-1490.5,32.7c-0.4,0-0.7,0.1-0.9,0.3
			c-0.3,0.2-0.4,0.5-0.6,0.9c-0.1,0.4-0.2,1-0.2,1.8c0,0.7,0.1,1.3,0.2,1.8c0.1,0.4,0.3,0.7,0.6,0.9c0.3,0.2,0.6,0.3,0.9,0.3
			c0.4,0,0.7-0.1,0.9-0.3c0.2-0.2,0.4-0.5,0.6-0.9c0.1-0.4,0.2-1,0.2-1.8c0-0.7-0.1-1.3-0.2-1.8c-0.1-0.4-0.3-0.8-0.6-0.9
			S-1490.1,32.7-1490.5,32.7z"/>
		<path class="st2" d="M-1476.4,29.3c1.3,0,2.5,0.3,3.5,0.8c1,0.5,1.8,1.2,2.3,2.2c0.6,1,0.8,2.1,0.8,3.5c0,1.3-0.3,2.5-0.8,3.5
			c-0.6,1-1.3,1.7-2.3,2.2c-1,0.5-2.2,0.8-3.5,0.8c-1.3,0-2.5-0.3-3.5-0.8c-1-0.5-1.8-1.2-2.4-2.2c-0.6-1-0.9-2.1-0.9-3.5
			c0-1.4,0.3-2.5,0.9-3.5c0.6-1,1.4-1.7,2.4-2.2C-1478.8,29.6-1477.7,29.3-1476.4,29.3z M-1476.4,32.7c-0.4,0-0.7,0.1-0.9,0.3
			c-0.3,0.2-0.4,0.5-0.6,0.9c-0.1,0.4-0.2,1-0.2,1.8c0,0.7,0.1,1.3,0.2,1.8c0.1,0.4,0.3,0.7,0.6,0.9c0.3,0.2,0.6,0.3,0.9,0.3
			c0.4,0,0.7-0.1,0.9-0.3c0.2-0.2,0.4-0.5,0.6-0.9c0.1-0.4,0.2-1,0.2-1.8c0-0.7-0.1-1.3-0.2-1.8c-0.1-0.4-0.3-0.8-0.6-0.9
			C-1475.7,32.8-1476,32.7-1476.4,32.7z"/>
		<path class="st2" d="M-1464,42.1c-1,0-1.9-0.3-2.6-0.8c-0.7-0.5-1.3-1.2-1.7-2.2c-0.4-1-0.6-2.1-0.6-3.4c0-1.4,0.2-2.5,0.6-3.5
			c0.4-1,1-1.7,1.7-2.2c0.7-0.5,1.6-0.8,2.6-0.8c1.2,0,2.1,0.4,2.7,1.1c0.7,0.7,1.1,1.7,1.3,2.8l-0.4,0.6v-8.3h5v16.4h-4.5l-0.3-4.6
			l0.6,0.6c-0.1,0.8-0.3,1.6-0.7,2.2c-0.4,0.6-0.9,1.2-1.5,1.5C-1462.4,41.9-1463.2,42.1-1464,42.1z M-1462.1,38.6
			c0.4,0,0.7-0.1,0.9-0.3c0.2-0.2,0.4-0.5,0.6-1c0.1-0.4,0.2-1,0.2-1.6c0-0.6-0.1-1.1-0.2-1.5c-0.1-0.4-0.3-0.7-0.6-0.9
			c-0.3-0.2-0.6-0.3-0.9-0.3c-0.5,0-1,0.2-1.3,0.6c-0.3,0.4-0.5,1.2-0.5,2.2c0,1.1,0.2,1.8,0.5,2.2
			C-1463.1,38.4-1462.6,38.6-1462.1,38.6z"/>
		<path class="st2" d="M-1438.9,25.6v3.8h-5.2v12.5h-5V29.4h-5.2v-3.8H-1438.9z"/>
		<path class="st2" d="M-1435.2,42.1c-0.8,0-1.6-0.1-2.2-0.4c-0.6-0.3-1.1-0.7-1.4-1.4c-0.3-0.6-0.5-1.5-0.5-2.5v-8.3h5v7.1
			c0,0.6,0.1,1.1,0.3,1.3c0.2,0.3,0.6,0.4,1,0.4c0.2,0,0.4,0,0.6-0.1c0.2-0.1,0.4-0.2,0.5-0.4c0.1-0.2,0.2-0.4,0.3-0.7
			c0.1-0.3,0.1-0.6,0.1-1v-6.6h5v12.3h-4.5l-0.1-2.5c-0.4,0.9-0.9,1.6-1.6,2C-1433.3,41.9-1434.2,42.1-1435.2,42.1z"/>
		<path class="st2" d="M-1424.6,41.9V29.6h4.5l0.2,4.8l-0.5-0.5c0.1-1,0.4-1.8,0.8-2.4c0.4-0.7,0.9-1.2,1.6-1.5
			c0.6-0.3,1.4-0.5,2.3-0.5c0.8,0,1.6,0.2,2.2,0.5c0.6,0.3,1.1,0.8,1.4,1.4c0.3,0.6,0.5,1.4,0.5,2.3v8.3h-5v-7
			c0-0.7-0.1-1.2-0.3-1.4c-0.2-0.3-0.5-0.4-0.9-0.4c-0.3,0-0.6,0.1-0.9,0.2c-0.3,0.2-0.5,0.4-0.6,0.8c-0.1,0.3-0.2,0.8-0.2,1.4v6.5
			H-1424.6z"/>
		<path class="st2" d="M-1403.7,42.1c-1.4,0-2.6-0.3-3.7-0.8c-1-0.5-1.8-1.2-2.4-2.2c-0.5-1-0.8-2.1-0.8-3.5c0-1.4,0.3-2.5,0.8-3.5
			c0.6-1,1.3-1.7,2.3-2.2c1-0.5,2.2-0.8,3.5-0.8c1.3,0,2.5,0.3,3.4,0.8c0.9,0.5,1.7,1.2,2.2,2.1c0.5,0.9,0.8,1.9,0.8,3.1
			c0,0.3,0,0.6,0,0.8c0,0.3-0.1,0.5-0.1,0.7h-9.7v-2.2h7.5l-2.4,0.9c0-0.9-0.1-1.6-0.4-2.1c-0.3-0.5-0.7-0.7-1.3-0.7
			c-0.4,0-0.8,0.1-1.1,0.3c-0.3,0.2-0.5,0.5-0.6,1c-0.1,0.5-0.2,1.1-0.2,1.8s0.1,1.4,0.3,1.8c0.2,0.4,0.4,0.7,0.7,0.9
			c0.3,0.2,0.7,0.2,1.2,0.2c0.5,0,0.9-0.1,1.2-0.3c0.3-0.2,0.5-0.5,0.6-0.9l4,1.2c-0.2,0.8-0.6,1.4-1.2,1.9
			c-0.6,0.5-1.3,0.9-2.1,1.1C-1401.9,42-1402.8,42.1-1403.7,42.1z"/>
		<path class="st2" d="M-1390.8,42.1c-1.2,0-2.4-0.2-3.5-0.5c-1.1-0.4-2-0.9-2.8-1.6l2-2.6c0.4,0.4,1,0.8,1.7,1.2
			c0.7,0.3,1.4,0.5,2.2,0.5c0.4,0,0.7-0.1,1-0.1c0.3-0.1,0.4-0.3,0.4-0.5c0-0.2-0.1-0.3-0.2-0.4c-0.1-0.1-0.4-0.2-0.9-0.3l-1.3-0.2
			c-1.7-0.3-2.9-0.8-3.6-1.4c-0.7-0.6-1-1.5-1-2.5c0-0.7,0.2-1.3,0.6-2c0.4-0.6,1.1-1.2,2-1.6c0.9-0.4,2.1-0.6,3.5-0.6
			c1.3,0,2.4,0.2,3.4,0.5c1,0.3,1.8,0.8,2.4,1.4l-1.9,2.6c-0.4-0.4-1-0.8-1.7-1c-0.7-0.2-1.3-0.4-1.9-0.4c-0.3,0-0.6,0-0.8,0.1
			c-0.2,0.1-0.4,0.1-0.5,0.2c-0.1,0.1-0.2,0.2-0.2,0.4c0,0.2,0.1,0.3,0.3,0.4s0.5,0.2,1,0.3l2,0.3c1.3,0.2,2.2,0.7,2.8,1.3
			c0.6,0.6,0.9,1.4,0.9,2.3c0,0.8-0.2,1.5-0.6,2.2c-0.4,0.7-1.1,1.2-2,1.6C-1388.3,41.9-1389.4,42.1-1390.8,42.1z"/>
	</g>
	<g>
		<path d="M-1381.8,29.4c-0.5,0-1-0.1-1.3-0.3c-0.4-0.2-0.7-0.5-0.9-0.9c-0.2-0.4-0.3-0.8-0.3-1.3c0-0.5,0.1-0.9,0.3-1.3
			c0.2-0.4,0.5-0.7,0.9-0.9c0.4-0.2,0.8-0.3,1.3-0.3c0.5,0,1,0.1,1.3,0.3c0.4,0.2,0.7,0.5,0.9,0.9c0.2,0.4,0.3,0.8,0.3,1.3
			c0,0.5-0.1,0.9-0.3,1.3c-0.2,0.4-0.5,0.7-0.9,0.9C-1380.8,29.3-1381.2,29.4-1381.8,29.4z M-1381.8,29.1c0.4,0,0.8-0.1,1.2-0.3
			c0.3-0.2,0.6-0.5,0.8-0.8s0.3-0.7,0.3-1.2c0-0.4-0.1-0.8-0.3-1.2s-0.4-0.6-0.8-0.8c-0.3-0.2-0.7-0.3-1.2-0.3
			c-0.4,0-0.8,0.1-1.2,0.3c-0.3,0.2-0.6,0.5-0.8,0.8s-0.3,0.7-0.3,1.2c0,0.4,0.1,0.8,0.3,1.2s0.4,0.6,0.8,0.8
			C-1382.6,29-1382.2,29.1-1381.8,29.1z M-1381.7,28.2c-0.4,0-0.8-0.1-1-0.4c-0.2-0.3-0.4-0.6-0.4-1c0-0.4,0.1-0.8,0.4-1
			c0.2-0.3,0.6-0.4,1-0.4c0.3,0,0.5,0.1,0.7,0.2c0.2,0.1,0.3,0.3,0.4,0.5l-0.3,0.1c-0.1-0.2-0.2-0.3-0.3-0.4
			c-0.1-0.1-0.3-0.1-0.6-0.1c-0.3,0-0.6,0.1-0.8,0.3c-0.2,0.2-0.3,0.5-0.3,0.8c0,0.3,0.1,0.6,0.3,0.8c0.2,0.2,0.4,0.3,0.8,0.3
			c0.2,0,0.4-0.1,0.6-0.2c0.2-0.1,0.3-0.3,0.3-0.5l0.3,0.1c-0.1,0.2-0.2,0.4-0.4,0.6C-1381.1,28.2-1381.4,28.2-1381.7,28.2z"/>
	</g>
</g>
<g>
	<path class="st4" d="M-1307.6-468c0.7-1.3,1.5-2.4,2.4-3.3c1.4-1.4,2.4-3.1,4.5-4.1c3.6-1.9,8.4-1.5,12.3-2.4
		c3.6-0.8,6.9-2.2,10.3-4c6.9-3.6,10-6.4,14.8-12.6c1.5-2,3.7-4.1,5.7-6.9c2-2.8,3.8-6.4,5.7-8c2.2-2,6.8-1.6,9.5-2.9
		c1,2.9,2,7.1,1.1,10c-1,3.3-2,7.5-3.1,10.1c-3.5,7.6-8.1,11.1-16.1,17.6c-3.7,3-8.3,5.7-13,7.7c-2.8,1.2-11.3,2.7-14.6,3.3
		c-7.8,1.5-11.4,0.5-18.3-1.5C-1307-465.1-1308-467.9-1307.6-468"/>
	<g>
		<path class="st4" d="M-1243.5-504.8c2.7-4.2,6.2-11.5,3-16.2c-1.4-2-4.5-0.8-4,1.7c1.2,5.1-1.3,9.9-4.5,13.8
			c-1.8,2.1,1.3,5.2,3.1,3.1c4.3-5.2,7.1-11.3,5.6-18c-1.3,0.6-2.6,1.1-4,1.7c2.2,3.2-1.2,9.1-3,11.8
			C-1248.8-504.6-1245.1-502.4-1243.5-504.8L-1243.5-504.8z"/>
	</g>
	<g>
		<path class="st3" d="M-1245.1-510.9c0.1,0.9,0.7,1.6,1.4,2.1c0.2,0.1,0.5-0.2,0.2-0.4c-0.7-0.4-1.1-1-1.2-1.8
			C-1244.7-511.2-1245.1-511.1-1245.1-510.9L-1245.1-510.9z"/>
	</g>
	<g>
		<path class="st3" d="M-1307.8-468.5c0,0.6,0,1.2,0.1,1.8c0.1,0.7,0.5,1.2,0.8,1.8c0.4,0.7,1.6,0.1,1.1-0.7
			c-0.3-0.5-0.6-0.9-0.7-1.5c-0.1-0.5-0.1-1-0.1-1.5C-1306.5-469.3-1307.8-469.3-1307.8-468.5L-1307.8-468.5z"/>
	</g>
</g>
<g>
	<path class="st7" d="M-1365.1-476.8c-4.1,1.9-4,2.3-8,4.4c-5.4,2.8-17.2,8.2-23.2,8.5c-0.7,0-1.4,0-2.1-0.3
		c-1.2-0.6-2.3-1.6-2.2-3.1l0,0c-0.5-0.8,0-3.1,0.8-3.7c1.7-1.4,11.2-3.9,15.2-4.9c4.6-1.2,9.1-1.9,10.8-3l14.6-6.6
		C-1352.3-482.4-1362.7-477.9-1365.1-476.8z"/>
	<path class="st1" d="M-1308.9-492.4c-9.5-0.6-29,6-38,8.3c-2.9,0.7-10.8,3.5-19.4,8.1c-2.6,1.4-3.7,2.4-5.9,3.1
		c2.8-4,1.1-5.5-2.7-5.5c8-3.9,16.1-9.5,22.7-15.3c6.1-5.4,20.1-20.7,26.3-26.1c2.2,1.7,4,2.5,3.4,4.6c-2.6,2.2-26.1,24.1-28.4,26.7
		c2.9-2,18-14.6,21.2-16.1c3.5-1.6,15.4-9.7,19.1-10.9c1.9,1.1,1.9,2.6,2.1,5.3c-3.7,1.2-15.9,9.2-19.4,11
		c-4.1,2.1-7.8,4.9-11.7,7.5c8.7-3.1,23.2-6.4,32.5-6.3C-1307.5-496.6-1307.9-494.5-1308.9-492.4z"/>
	<g>
		<path class="st3" d="M-1399.6-466.8c-0.8,0.3-1.6,0.7-2.3,1.2c-0.2,0.1,0,0.4,0.2,0.3c0.7-0.5,1.4-0.8,2.2-1.1
			C-1399.3-466.6-1399.4-466.9-1399.6-466.8L-1399.6-466.8z"/>
	</g>
	<g>
		<path class="st3" d="M-1400.6-467.7c-0.8,0.1-1.5,0.2-2.3,0.2c-0.2,0-0.2,0.4,0,0.4c0.8-0.1,1.5-0.2,2.3-0.2
			C-1400.4-467.4-1400.4-467.8-1400.6-467.7L-1400.6-467.7z"/>
	</g>
	<g>
		<path class="st3" d="M-1400.7-469.1c-0.7-0.2-1.4-0.5-2.1-0.7c-0.2-0.1-0.3,0.3-0.1,0.4c0.7,0.2,1.4,0.5,2.1,0.7
			C-1400.6-468.7-1400.5-469-1400.7-469.1L-1400.7-469.1z"/>
	</g>
	<g>
		<path class="st3" d="M-1399-465.4c-0.4,0.7-0.9,1.2-1.5,1.8c-0.2,0.2,0.1,0.4,0.3,0.3c0.6-0.5,1.1-1.2,1.5-1.8
			C-1398.6-465.4-1398.9-465.6-1399-465.4L-1399-465.4z"/>
	</g>
</g>
<g>
	<path class="st5" d="M-1303.9-347.3c-7.2,1.8-11.2,5.1-12.4,11.5c-1.6,11.2,3,23.2,23.9,22.9c20.9-0.3,23.1-8.3,24.3-16.3
		c0.6-4.6-0.6-9.4-1.7-11.6c-3.5-7.3-13.2-8.5-21.2-7C-1294.6-347.2-1301.2-348.3-1303.9-347.3"/>
	<path class="st1" d="M-1282.9-347.2c-2.5-0.7-3.8-1-5.9-0.3c-0.5,0.2-2.1,0.6-2.6,0.8c-0.9,0.5-2.5,1.2-3,1.1
		c-0.9-0.2-0.7,0.1-1.6-0.3c-0.7-0.3-2.4-1.2-3.1-1.6c-1.6-0.8-4-0.2-5.8,0c-0.8,0.1-4.1,1.2-4.4,0.6c-0.4-0.8,2.5-3.4,3.6-3.6
		c2.3-0.3,4-0.7,6.4-0.4c0.9,0.1,1.5,0.4,2.3,1c0.2,0.2,0.8,1,1,1.1c-0.1-0.2,0.1-0.6-0.5-1.3c-0.4-0.5-1.1-1.2-2.4-2.1
		c-0.9-0.6-2.4-1.5-3.6-2.4l-0.7-1.1c0-0.5,3.2,0.2,3.7,0.3c2.2,0.5,2.6,0.7,3.8,1.8c0.6,0.5,1,1.2,1.5,1.9c0.4,0.6,0.7,1.6,1.3,2.1
		c0,0,0.1,0.1,0.1,0.1c1.4-0.5,3.5-1.2,5-1.4c1.8-0.2,4.1,0.2,5.9,0.7c1,0.3,3.2,0.7,2.8,1.5C-1279.1-347.9-1282-346.9-1282.9-347.2
		z"/>
	<path class="st1" d="M-1293.7-348.9c0,0,2.2-4.8,3.4-6.7c1.2-1.9,3.9-2.7,3.9-2.7s0.5,1,0.2,2.3s-1.9,2.9-2.5,3.9
		c-0.6,0.9-3,3.9-3,3.9L-1293.7-348.9z"/>
</g>
<g>
	<g>
		<path class="st4" d="M-1308.8-431.4c0-1.5,0.2-2.9,0.3-4.1c0-0.5-0.9,0.3-0.9-1.8s1.4-1.3,1.3-1.9c-0.2-1.3,0.3-2.1-0.6-2.2
			c-1.4-0.1-3-0.2-3.1-2.1c-0.1-1.9,0.9-2.8,2.6-2.8c1.5,0,1-1.7,0.7-3.8l-73,15.1c0.3,1.1,0.5,2.1,0.6,3.2c0.1,1.1,0.1,2.1,0.1,3.2
			c1.1,0.6,2,2,2,3c0,2-1.2,2.4-2.2,3.2c-0.1,0.9,0,1.4,0.5,4c0.1,0.4,0.2,0.7,0.4,1c0.6,0.7,1.6,0.5,2.5,0.3c3.9-1,5.8-1.3,9.7-1.2
			c1.9,0,3.9,0.4,5.8,0.1c0.4-0.1-0.1-1.6,1.2-1.8c1.5-0.3,1.2,1.5,1.7,1.4c2.3-0.3,5-0.7,6.3-1c3.4-0.8,7.3-0.6,10.7,0
			c1.2,0.2,2.8,0.1,4.5,0c0.8-0.1,0.4-2.3,3.6-2.4c2.8-0.1,2.7,1.8,3.6,1.7c1.6-0.2,1.4-0.2,3.1-0.2c5.4-0.2,5.7-0.7,11.1-0.9
			c2.3-0.1,3.8-1.4,6.1-1.8c0.7-0.1,1.4-0.3,1.8-0.9c0.3-0.4,0.4-1,0.4-1.5C-1307.9-427.3-1308.7-429.7-1308.8-431.4z M-1375-419.9
			c-0.8,0-2.3,0.5-2.9,0.3c-0.6-0.2-0.5-1.3-0.1-2c0.3-0.7,1.6-0.8,1.6-0.8s2,0.1,2.4,0.5C-1373.8-421.4-1374.2-419.9-1375-419.9z
			 M-1362.4-428.9c-0.7,0-2,0.8-2.5,0.5c-0.5-0.3-2.9-1.3-2.6-2.5c0.3-1.2,3.8-2.3,3.8-2.3s1.7,0.1,2,0.9
			S-1361.7-428.9-1362.4-428.9z M-1347.2-424.4c-1.5,0-2.6,1.3-3.7,0.9c-1.2-0.4-1.9-1.4-1.3-2.7s3.5-3,3.5-3s2.8-0.3,3.5,0.6
			C-1344.6-427.6-1345.7-424.4-1347.2-424.4z M-1332.1-434.7c-1.5,0-2.7,0.9-3.9,0.5c-1.1-0.4-1.1-3.9-0.5-5
			c0.6-1.2,2.9-1.4,2.9-1.4s3.8,0.1,4.4,0.9S-1330.6-434.7-1332.1-434.7z M-1314.7-426.5c-1.5,0-4.4,0.9-5.5,0.5
			c-1.2-0.4-0.9-2.4-0.3-3.7c0.6-1.3,3-1.5,3-1.5s3.9,0.1,4.5,1C-1312.4-429.4-1313.2-426.5-1314.7-426.5z"/>
	</g>
	<path class="st5" d="M-1381.5-435.1c2.6-2.4,7.2-3.7,8.6-4.4c1.3-0.7,4.6-2.4,6.3-3.3c2.1-1.1,3.8-2.2,6.7-3.6
		c1.3-0.6,3.3-1,4.6-1.6c2-1,3.1-2.1,4.6-2.7c2.1-0.9,5.3-1.8,6.7-2.3c2.8-1,3.3-1.4,7.2-3.1c1-0.4,2.5-1.5,3.6-1.6
		c1.2-0.1,3.9,0.2,5,0.5c2.3,0.7,5.8,2.3,8,3.1c4.7,1.5,6.6,2.3,11.4,3.8c0.9,0.4,0.3,1.4-0.5,1.6c-2,0.4-3.8,0.1-5.5,0.4
		c-1.6,0.3-3.2,1.1-4.8,1.4c-1.8,0.3-2.7,0.5-4.7,0.9c-1.6,0.3-3.4,0.9-5.2,1.2c-1.2,0.2-3.3,0.3-4.5,0.5c-2.5,0.4-4.6,1.6-7,2
		c-1.8,0.3-3.8,0.4-7.2,1.3c-2.4,0.6-5.1,1.3-7.1,1.8c-1.3,0.3-5.5,0.5-6.3,0.6c-3,0.6-3,1.2-5.2,1.8c-2.1,0.5-4,0.4-6.2,0.9
		c-1.8,0.4-3.2,0.7-5.5,1.1C-1378.5-434.7-1381.2-434.5-1381.5-435.1z"/>
</g>
<g>
	<path class="st6" d="M-1357.9-541.8c0,0-0.2-0.2,2.2,1.8c2.2,1.8,6.8,14.5,3.9,20.6c-1.6,3.3-4.7,10-8.7,12.6c-2,1.3-14,6.8-20.1,7
		c-3.4,0.1-8.9-0.9-13.1,0.2c-4.2,1.1-10.7,2.6-15.3,3.6c-5.1,1.1-13.5-0.9-15.2-2.9c-1.7-2-2-7.7-2-7.7s12.8-8,14-8.2
		c1.2-0.2,31.1-19.9,32.2-20.8C-1378.7-536.6-1357.9-541.8-1357.9-541.8z"/>
	<path class="st5" d="M-1355.1-526.2c0.8-2.2,1.5-5.5,1.3-7.1c-0.6-4.9-2.9-9.3-6.9-11.5c-4.2-2.4-9-2.4-13.9-2.4
		c-5.1,0-10.7,1-15.3,3.2c-5.9,2.9-9.2,14.4-14.2,18.6c-5.1,4.2-14.1,6.3-16.8,8.5c-3.9,3-5.1,7.3-5.3,10.1c-0.1,1.3,2.5,2.7,4.9,4
		c2.4,1.3,5.3,1.5,8,1.5c12.1,0,16.5-5.4,28.6-4.1c7.3,0.8,15.3-3.5,20-6.6c4.7-3.1,4.8-4.8,9.1-12.9
		C-1355.4-525.2-1355.3-525.7-1355.1-526.2z"/>
	<path class="st7" d="M-1394.5-521.4c0,0,5.1-3,7.6-4.9s5.2-3.2,4.7-4.4c-0.5-1.2-3.2-3.2-3.8-4.1c-0.6-0.9-0.8-2.6,1.2-1.4
		c2,1.3,3.1,2.3,4.8,3.7c1.8,1.6,3.1,2.6,5.1,3.5c2.2,0.7,4.4,1.6,5.3,1.8c0.9,0.2,1,1.9-0.3,1.7s-3.4-0.5-5.1-1.1
		c-1.7-0.6-2.5-1.9-4.3-1.5c-1.8,0.4-3.5,2.5-6.3,4.1c-2.8,1.6-4.6,2.7-7.2,3.8c-2.6,1.1-5.3,3.8-6.7,2.6
		C-1400.2-518-1398.6-519.3-1394.5-521.4z"/>
</g>
<g>
	<path class="st8" d="M-1336.1-365.4c10.8-1.6,28.4-8,33.7-10.4c5.3-2.4,10.8-3.5,16.1-3.6c6.1-0.1,12.5,1.3,14.5,4.5
		c2.2,3.5,2.7,12.9,3.7,15.7c1.1,2.8,3,4.7,3.9,2.4s3.1-11.6,4.9-13.6c1.8-2,7.6-2.4,10.1-3.8c2.5-1.4,4.6-3.7-1.1-4.7
		c-5.8-1.1-14.4-0.8-15.7-2.1c-1.3-1.2-6.8-15.3-25.6-18c-8.6-1.3-8.5-0.3-7.8-1.8c1.5-3.3,3.4-4.1,2.3-5.3s-18.3,1-19.4,2
		c-1.1,1-4.5,4.2-4.5,4.2s-11.6,1.4-18,6.1C-1345.3-389.2-1337.1-378.5-1336.1-365.4z"/>
	<path class="st6" d="M-1350.2-371.8c1.6-0.4,5.8-0.1,7.1-0.2c-2.4-1.1-4.4-1.7-7.3-1.4c-2.7,0.2-3.9,1-4.8,0
		c-0.5-0.7,0.5-5.8,1.1-7.6c2.5-6.4,8-10.4,14.9-12.7c5.2-1.7,13.8,26.7,3,28.3c-10.8,1.6-16.7-2.2-16.7-2.2
		c-0.9-0.4-2.8-2.3-1.8-2.8C-1353.4-370.9-1353.6-371-1350.2-371.8z"/>
	<path class="st1" d="M-1342.4-380.5c1.3,0.3,2-0.9,2-1.5c0-0.6-0.5-1.5-1.4-1.5s-1.5,0.4-1.6,0.9
		C-1343.8-381.3-1343.2-380.7-1342.4-380.5z"/>
	<path class="st6" d="M-1318.3-378.4c0,0,8,0.8,12-1.7c4-2.4,12.4-9.5,12.4-9.5s-0.2-2.5-7.6,0.4c-7.5,2.9-12.5,3.7-14.2,4.6
		C-1317.5-383.8-1321-378.3-1318.3-378.4z"/>
</g>
<g>
	<path class="st6" d="M-1307.9-575.8c0,0-3.3-4.2-5.3-5.5c-1.3-0.1-9.9,6.7-12.4,9.3c-2.5,2.6-8.1,5.8-9.3,6.9s2.9,5.6,2.9,5.6
		l21.2-10.4L-1307.9-575.8z"/>
	<path class="st6" d="M-1331.9-559.5c0,0,4,15.1,4.9,16.5c0.3,0.4,1.3,1.6,6.2,7.1c2.9,3.3,7.4,7.5,10.9,11.4
		c4.2,4.6,9.4,9,13.2,13.2c6.5,7.2,12.2,12.9,12.2,12.9l15.8-6.1l0.3-20.2c0,0-40.6-40-40.3-39.4S-1331.9-559.5-1331.9-559.5z"/>
	<path class="st8" d="M-1316.8-555.3c0,0,3.1,2.7,7.3,7.3c4.4,4.9,8.3,8.7,10.5,11c2.2,2.3,6.8,8.2,10.9,12.7
		c2.5,2.8,6.7,6.7,9.7,10.3c2.1,2.4,9.9,9.4,9.9,9.4l18.5-22.5l-43.1-45.5c0,0-13.5-4.3-15.3-4.5c-1.8-0.2-11.3,7.9-13.3,9.6
		c-2,1.7-10.1,7.9-10.1,7.9S-1318.9-558.3-1316.8-555.3z"/>
	<path class="st7" d="M-1306.8-554.2c0,0,6-3.7,6.8-4.7c0.8-1,4.4-3.5,5-4c0.6-0.6,1.2-1.6,1.9-1.1s1.1,1.3,0.3,2.7
		c-0.8,1.4-1.2,3-1.6,4.1c-0.3,1.1,0.1,1.7,1.4,0.8c1.2-0.9,3-1.8,4.1-2.3c1.2-0.5,2.2,1.2,1.7,1.8c-0.6,0.6-1.6,2.2-2.8,3.9
		c-1.3,1.7-4.5,5.6-5.4,6.7c-0.9,1.1-2.1,2.6-2.8,2.1c-0.6-0.5-1.4-1.5-0.2-3.2c1.3-1.7,3.6-3.9,4.1-4.4s3.4-2.4,2.4-2.7
		c-0.5-0.2-2.7,0.8-4.4,1.4c-0.9,0.3-1.4-0.6-1.2-1.2c0.3-1.3,0.7-2.6,1.2-3.8c0.4-1.2-1.9,1.2-2.7,1.9c-0.8,0.7-2,2.1-3.1,2.6
		c-1.1,0.6-1.8,1-2.9,0.6C-1306.1-553.3-1307-553.9-1306.8-554.2z"/>
	<path class="st7" d="M-1287.3-550.1c-0.2,0.3-2.1,2.3-2.4,2.7s-2.7,2.8-3.2,3.5c-0.6,0.8-1.7,2.1-1.3,2.7c0.4,0.6,1,1.1,1.8-0.2
		c0.8-1.3,2.3-3.3,2.3-3.3c1.1-1.2,2.1-2.2,3.1-3.4c1-1.2,1.5-2.1,1.3-2.7C-1286-551.3-1287.3-550.1-1287.3-550.1z"/>
	<path class="st7" d="M-1284.4-554c-0.3,0.8-0.4,1.5,0.3,2.1c0.3,0.2,1.7-0.4,1.8-0.9c0.1-0.4-0.1-1-0.9-1.5
		C-1283.6-554.5-1284.4-554-1284.4-554z"/>
	<path class="st7" d="M-1280.5-550.4c-1,0-2.9,3.9-3.4,4.4c-0.5,0.5-3.5,4.3-4,5s-2.3,2.1-1.8,3.2c0.5,1.1,1.3,2.8,1.6,3.1
		c1.1,1,1.7,0.8,2.3,0.4s-0.2-1-1.6-2.3c-0.7-0.7-0.1-2.1,0.6-3.1s3.1-2.9,3.4-3.7c0.3-0.7,3-4,3.9-4.9
		C-1278.6-549.1-1279.2-550.3-1280.5-550.4z"/>
	<path class="st7" d="M-1276.8-536.9c-0.7-0.9-2.1-1-3.5-0.5c-1.4,0.5-3.2,2.1-3.5,3.6c-0.3,1.5-0.5,3.4,0,4.2
		c0.5,0.8,2.9,2.6,3.8,2.7s2.5-0.6,2.4-1.4c0-0.7-0.3-0.8-1.1-0.9s-2.3,0.6-3-0.9c-0.5-1.1-0.7-3.5,0.2-4.4c0.9-0.9,1.4-1.6,2.3-1.6
		c0.9,0.1,1.9,0.5,2.3,1.6c0.4,1.1,0.9,2.6,1.4,2.7s1.4,0.1,1.4-0.9c0.1-0.9-0.8-2-1.4-2.8S-1276.8-536.9-1276.8-536.9z"/>
	<path class="st7" d="M-1267.8-535.8c-0.5,0.7-2.9,3.5-3.8,4.4c-0.9,1-3.2,3.5-3.9,4.2s-1.7,1.6-2.1,2.6c-0.3,1,0,2.3,0.4,2.2
		s0,0,1.1-1.1s1.2-1.4,2-2.2c0.8-0.8,1.6-1.4,2.3-1.2c0.7,0.2,1.5,1,0.8,1.9c-0.6,1-1.5,2-2.3,2.8s-1.8,1.9-1.5,2.4
		c0.3,0.6,0.5,1.7,1,1.3c0.6-0.4,1.1-1.6,2.1-2.6c1-1,1.8-1.6,2.5-2.7s1.1-1.6,1.5-2.7c0.4-1.3,0.3-1.9-1.3-2.5
		c-1.5-0.6-1.9-0.3-2.3-0.2c-0.4,0.1,4.6-4.8,4.9-5.9C-1265.9-536.2-1266.9-537.1-1267.8-535.8z"/>
</g>
<g>
	<path class="st1" d="M-679-448.7c-13.6-4.4-15.2,0.5-17.9,4.9c-2.8,4.5-2.2,10.6,0.4,15.3c1.4,2.5,3.5,3.8,5.7,5.7
		c1.9,1.6,3.7,3.9,5.8,5.1c2.1,1.2,4.4,2.4,6.7,2c1.6-0.2,3.1-1.2,4.7-1.5c2.9-0.7,3.9,1.8,6.6,0.6c1.8-0.8,5.4-3.8,6.5-5.4
		c2.7-3.8,5.1-7.9,6-12.5s2.3-10.6-0.9-13.9c-3.1-3.3-4.5-4.6-9-5.1c-2.2-0.2-6.9-0.6-9.4,1.1C-675.6-451.1-676.9-449.7-679-448.7"
		/>
	<g>
		<path class="st2" d="M-678.2-447.4c-1.3-3.1-2.5-5.8-1.5-9.2c0.3-1-1.3-1.4-1.6-0.4c-1.2,3.8,0.2,7,1.7,10.5
			C-679.2-445.6-677.8-446.4-678.2-447.4L-678.2-447.4z"/>
	</g>
	<g>
		<path class="st3" d="M-681.2-446.1c1,0,1.8,0.3,2.8,0c0.8-0.2,1.5-0.7,2.1-1.3c0.2-0.2-0.1-0.6-0.3-0.3c-0.6,0.7-1.4,1.1-2.3,1.2
			c-0.8,0.1-1.5-0.1-2.3-0.1C-681.6-446.6-681.6-446.1-681.2-446.1L-681.2-446.1z"/>
	</g>
</g>
<g>
	<path class="st4" d="M-786-300c0.6-1.1,1.3-2.1,2.1-2.9c1.2-1.3,2.1-2.7,3.9-3.6c3.1-1.7,7.4-1.4,10.8-2.1c3.2-0.7,6.1-2,9-3.5
		c6.1-3.2,8.8-5.7,13-11.1c1.4-1.7,3.3-3.6,5-6c1.8-2.5,3.4-5.6,5-7.1c1.9-1.8,6-1.4,8.3-2.5c0.9,2.5,1.8,6.3,1,8.8
		c-0.9,2.9-1.7,6.6-2.7,8.9c-3.1,6.7-7.1,9.8-14.2,15.5c-3.2,2.6-7.3,5-11.4,6.8c-2.5,1.1-10,2.3-12.9,2.9
		c-6.9,1.3-10.1,0.5-16.1-1.3C-785.4-297.5-786.3-300-786-300"/>
	<g>
		<path class="st4" d="M-729.5-332.5c2.4-3.7,5.5-10.1,2.6-14.3c-1.2-1.8-4-0.7-3.5,1.5c1,4.5-1.1,8.8-3.9,12.2
			c-1.6,1.9,1.1,4.6,2.7,2.7c3.7-4.6,6.3-9.9,4.9-15.9c-1.2,0.5-2.3,1-3.5,1.5c1.9,2.8-1.1,8-2.6,10.4
			C-734.2-332.3-730.9-330.4-729.5-332.5L-729.5-332.5z"/>
	</g>
	<g>
		<path class="st3" d="M-730.9-337.8c0.1,0.8,0.6,1.4,1.2,1.8c0.2,0.1,0.4-0.2,0.2-0.3c-0.6-0.4-0.9-0.9-1.1-1.6
			C-730.5-338.2-730.9-338.1-730.9-337.8L-730.9-337.8z"/>
	</g>
	<g>
		<path class="st3" d="M-786.2-300.5c0,0.5,0,1.1,0.1,1.6c0.1,0.6,0.4,1.1,0.7,1.6c0.4,0.6,1.4,0.1,1-0.6c-0.2-0.4-0.5-0.8-0.6-1.3
			c-0.1-0.4-0.1-0.9-0.1-1.3C-785-301.2-786.1-301.2-786.2-300.5L-786.2-300.5z"/>
	</g>
</g>
<g>
	<path class="st7" d="M-746.8-471.4c-3.9,0.6-4,1.1-7.8,1.9c-5.2,1.1-16.5,3-21.7,1.9c-0.6-0.1-1.2-0.3-1.7-0.7
		c-0.9-0.8-1.6-1.9-1.2-3.1l0,0c-0.3-0.8,0.7-2.6,1.5-2.9c1.8-0.8,10.4-0.7,14-0.7c4.2,0,8.1,0.5,9.9-0.1l13.9-2.3
		C-734.7-473.1-744.6-471.8-746.8-471.4z"/>
	<path class="st1" d="M-695.5-471.7c-8-2.7-26.1-1.6-34.2-1.7c-2.6,0-10,0.5-18.4,2.5c-2.5,0.6-3.7,1.2-5.7,1.3
		c3.3-2.8,2.2-4.4-1-5.3c7.7-1.5,15.9-4.3,22.9-7.8c6.5-3.2,21.9-13,28.4-16.2c1.5,2,2.8,3,1.8,4.7c-2.7,1.3-27.8,14.5-30.3,16.2
		c2.9-1,18.7-8.2,21.7-8.8c3.4-0.6,15.4-4.7,18.8-4.8c1.4,1.3,1,2.7,0.6,5c-3.5,0.2-15.6,4.2-19,4.9c-3.9,0.8-7.8,2.4-11.7,3.7
		c8.1-0.6,21.2-0.1,29.1,2.2C-693.3-474.9-694.1-473.2-695.5-471.7z"/>
	<g>
		<path class="st3" d="M-778.5-470.8c-0.8,0.1-1.5,0.2-2.2,0.5c-0.2,0.1-0.1,0.4,0.1,0.3c0.7-0.2,1.4-0.4,2.1-0.4
			C-778.3-470.5-778.3-470.9-778.5-470.8L-778.5-470.8z"/>
	</g>
	<g>
		<path class="st3" d="M-779.2-471.8c-0.7-0.1-1.3-0.2-2-0.3c-0.2,0-0.3,0.3-0.1,0.3c0.7,0.1,1.3,0.2,2,0.3
			C-779-471.5-778.9-471.8-779.2-471.8L-779.2-471.8z"/>
	</g>
	<g>
		<path class="st3" d="M-778.9-473c-0.5-0.4-1.1-0.7-1.6-1.1c-0.2-0.1-0.3,0.2-0.2,0.3c0.5,0.4,1.1,0.7,1.6,1.1
			C-778.9-472.6-778.7-472.9-778.9-473L-778.9-473z"/>
	</g>
	<g>
		<path class="st3" d="M-778.3-469.4c-0.5,0.5-1,0.9-1.6,1.2c-0.2,0.1,0,0.4,0.2,0.3c0.6-0.3,1.2-0.7,1.7-1.2
			C-777.9-469.3-778.2-469.6-778.3-469.4L-778.3-469.4z"/>
	</g>
</g>
<g>
	<path class="st5" d="M-700.4-381.5c-6.3,1.6-9.9,4.5-10.9,10.1c-1.5,9.9,2.7,20.5,21.1,20.2c18.4-0.3,20.4-7.3,21.4-14.3
		c0.6-4.1-0.6-8.3-1.5-10.2c-3.1-6.4-11.7-7.5-18.7-6.2C-692.2-381.4-698-382.3-700.4-381.5"/>
	<path class="st1" d="M-681.8-381.3c-2.2-0.6-3.4-0.9-5.2-0.2c-0.4,0.1-1.8,0.5-2.3,0.7c-0.8,0.4-2.2,1-2.6,1
		c-0.8-0.1-0.6,0-1.4-0.3c-0.7-0.3-2.1-1.1-2.7-1.4c-1.4-0.7-3.5-0.2-5.1,0c-0.7,0.1-3.6,1-3.9,0.5c-0.4-0.7,2.2-3,3.2-3.1
		c2-0.3,3.6-0.6,5.6-0.3c0.8,0.1,1.4,0.4,2,0.9c0.2,0.2,0.7,0.9,0.9,1c-0.1-0.2,0.1-0.6-0.4-1.2c-0.4-0.5-0.9-1.1-2.1-1.9
		c-0.8-0.6-2.1-1.4-3.2-2.1l-0.6-0.9c0-0.4,2.8,0.2,3.3,0.3c2,0.5,2.3,0.7,3.4,1.6c0.6,0.5,0.9,1.1,1.3,1.7c0.4,0.6,0.6,1.4,1.2,1.8
		c0,0,0.1,0.1,0.1,0.1c1.2-0.4,3.1-1.1,4.4-1.2c1.6-0.2,3.7,0.2,5.2,0.6c0.9,0.3,2.8,0.6,2.5,1.3
		C-678.5-382-681.1-381.1-681.8-381.3z"/>
	<path class="st1" d="M-691.4-382.9c0,0,2-4.2,3-5.9c1.1-1.7,3.5-2.4,3.5-2.4s0.5,0.9,0.2,2c-0.3,1.1-1.7,2.6-2.2,3.4
		c-0.5,0.8-2.6,3.5-2.6,3.5L-691.4-382.9z"/>
</g>
<g>
	<g>
		<path class="st4" d="M-725.4-428.1c0-1.3,0.2-2.4,0.3-3.5c0-0.4-0.8,0.2-0.8-1.5c0-1.7,1.2-1.1,1.1-1.6c-0.2-1.1,0.2-1.8-0.5-1.8
			c-1.2-0.1-2.5-0.2-2.6-1.7c-0.1-1.6,0.8-2.4,2.2-2.4c1.3,0,0.9-1.4,0.6-3.2l-61.6,12.7c0.3,0.9,0.4,1.8,0.5,2.7
			c0.1,0.9,0.1,1.8,0.1,2.7c0.9,0.5,1.7,1.7,1.7,2.5c0,1.7-1,2.1-1.8,2.7c0,0.7,0,1.2,0.4,3.4c0.1,0.3,0.1,0.6,0.3,0.9
			c0.5,0.6,1.4,0.4,2.1,0.3c3.3-0.8,4.9-1.1,8.2-1c1.6,0,3.3,0.3,4.9,0.1c0.3,0-0.1-1.3,1-1.5c1.3-0.3,1,1.3,1.4,1.2
			c1.9-0.3,4.2-0.6,5.3-0.8c2.8-0.6,6.2-0.5,9,0c1,0.2,2.3,0.1,3.8,0c0.7-0.1,0.3-1.9,3-2.1c2.4-0.1,2.3,1.5,3,1.4
			c1.3-0.1,1.1-0.1,2.6-0.2c4.6-0.1,4.8-0.6,9.4-0.8c1.9-0.1,3.2-1.2,5.1-1.5c0.6-0.1,1.2-0.3,1.5-0.7c0.3-0.4,0.3-0.8,0.3-1.3
			C-724.7-424.7-725.3-426.7-725.4-428.1z M-781.2-418.4c-0.7,0-1.9,0.4-2.5,0.2c-0.5-0.2-0.4-1.1-0.1-1.7c0.3-0.6,1.3-0.7,1.3-0.7
			s1.7,0.1,2,0.5C-780.2-419.7-780.6-418.4-781.2-418.4z M-770.6-426c-0.6,0-1.7,0.7-2.1,0.4c-0.4-0.3-2.4-1.1-2.2-2.1
			c0.2-1,3.2-2,3.2-2s1.5,0.1,1.7,0.8S-770-426-770.6-426z M-757.8-422.2c-1.3,0-2.2,1.1-3.2,0.8c-1-0.3-1.6-1.2-1.1-2.3
			c0.5-1.1,2.9-2.5,2.9-2.5s2.4-0.2,2.9,0.5C-755.6-424.9-756.5-422.2-757.8-422.2z M-745.1-430.9c-1.3,0-2.3,0.7-3.3,0.4
			c-1-0.3-0.9-3.3-0.4-4.2c0.5-1,2.5-1.2,2.5-1.2s3.2,0.1,3.7,0.8C-742-434.4-743.8-430.9-745.1-430.9z M-730.4-424
			c-1.3,0-3.7,0.8-4.7,0.4c-1-0.3-0.8-2.1-0.2-3.2c0.5-1.1,2.5-1.3,2.5-1.3s3.3,0.1,3.8,0.9C-728.4-426.4-729.1-424-730.4-424z"/>
	</g>
	<path class="st5" d="M-786.7-431.2c2.2-2,6.1-3.2,7.2-3.7c1.1-0.6,3.9-2.1,5.3-2.8c1.7-0.9,3.2-1.8,5.7-3.1
		c1.1-0.5,2.8-0.9,3.9-1.4c1.7-0.8,2.6-1.8,3.9-2.3c1.8-0.8,4.5-1.5,5.7-1.9c2.4-0.9,2.8-1.2,6-2.6c0.9-0.4,2.1-1.3,3-1.3
		c1-0.1,3.3,0.2,4.2,0.5c1.9,0.6,4.9,2,6.8,2.6c4,1.3,5.6,1.9,9.6,3.2c0.7,0.3,0.3,1.2-0.4,1.3c-1.7,0.3-3.2,0.1-4.6,0.4
		c-1.4,0.2-2.7,1-4,1.2c-1.5,0.3-2.3,0.4-4,0.8c-1.4,0.3-2.9,0.7-4.3,1c-1,0.2-2.8,0.3-3.8,0.5c-2.1,0.3-3.9,1.3-5.9,1.7
		c-1.5,0.3-3.2,0.4-6.1,1.1c-2,0.5-4.3,1.1-6,1.5c-1.1,0.3-4.6,0.4-5.3,0.5c-2.6,0.5-2.5,1-4.3,1.5c-1.7,0.5-3.4,0.3-5.2,0.8
		c-1.5,0.4-2.7,0.6-4.7,0.9C-784.2-430.9-786.5-430.8-786.7-431.2z"/>
</g>
<g>
	<path class="st6" d="M-719.8-536.3c0,0-0.2-0.2,1.9,1.6c1.9,1.6,6,12.8,3.5,18.1c-1.4,2.9-4.2,8.9-7.7,11.1
		c-1.7,1.1-12.3,6-17.7,6.1c-3,0.1-7.8-0.8-11.5,0.1c-3.7,1-9.5,2.3-13.4,3.2c-4.5,1-11.9-0.8-13.4-2.6c-1.5-1.8-1.8-6.7-1.8-6.7
		s11.3-7.1,12.4-7.3c1.1-0.2,27.4-17.6,28.4-18.3C-738.1-531.7-719.8-536.3-719.8-536.3z"/>
	<path class="st5" d="M-717.3-522.5c0.7-1.9,1.3-4.8,1.2-6.3c-0.6-4.3-2.6-8.2-6.1-10.2c-3.7-2.1-7.9-2.1-12.2-2.1
		c-4.5,0-9.5,0.9-13.5,2.8c-5.2,2.5-8.1,12.7-12.6,16.4c-4.5,3.7-12.4,5.6-14.8,7.5c-3.4,2.6-4.5,6.4-4.7,8.9
		c-0.1,1.1,2.2,2.3,4.3,3.5c2.1,1.2,4.6,1.3,7.1,1.3c10.7,0,14.5-4.7,25.2-3.6c6.5,0.7,13.5-3.1,17.6-5.8c4.1-2.7,4.2-4.2,8-11.4
		C-717.6-521.7-717.5-522.1-717.3-522.5z"/>
	<path class="st7" d="M-752-518.3c0,0,4.5-2.6,6.7-4.4c2.2-1.7,4.6-2.8,4.1-3.9c-0.4-1.1-2.8-2.8-3.4-3.6s-0.7-2.3,1.1-1.2
		s2.8,2,4.2,3.3c1.6,1.4,2.7,2.3,4.5,3.1c1.9,0.7,3.9,1.4,4.7,1.6c0.8,0.2,0.9,1.7-0.2,1.5s-3-0.4-4.5-1c-1.5-0.5-2.2-1.7-3.8-1.3
		c-1.6,0.4-3.1,2.2-5.5,3.7c-2.4,1.4-4.1,2.4-6.3,3.4c-2.3,1-4.7,3.4-5.9,2.3C-757-515.3-755.7-516.4-752-518.3z"/>
</g>
<g>
	<path class="st8" d="M-805.1-361.9c9.5-1.4,25-7,29.7-9.2c4.7-2.1,9.5-3,14.1-3.2c5.3-0.1,11,1.2,12.8,4c2,3.1,2.4,11.3,3.3,13.8
		c0.9,2.5,2.7,4.1,3.4,2.1s2.7-10.2,4.3-12s6.7-2.1,8.9-3.3s4.1-3.2-1-4.2c-5.1-0.9-12.7-0.7-13.9-1.8s-6-13.4-22.6-15.9
		c-7.5-1.1-7.4-0.2-6.8-1.6c1.3-2.9,3-3.6,2-4.6c-1-1-16.1,0.9-17.1,1.7c-1,0.9-4,3.7-4,3.7s-10.2,1.3-15.8,5.4
		C-813.3-382.8-806-373.4-805.1-361.9z"/>
	<path class="st6" d="M-817.5-367.5c1.4-0.3,5.1-0.1,6.3-0.2c-2.1-1-3.9-1.5-6.5-1.3c-2.4,0.2-3.5,0.9-4.2,0c-0.5-0.6,0.4-5.1,1-6.6
		c2.2-5.6,7.1-9.2,13.2-11.2c4.6-1.5,12.1,23.5,2.6,24.9c-9.5,1.4-14.7-2-14.7-2c-0.8-0.4-2.5-2-1.5-2.5
		C-820.4-366.8-820.5-366.8-817.5-367.5z"/>
	<path class="st1" d="M-810.7-375.2c1.1,0.3,1.8-0.8,1.8-1.3c0-0.5-0.5-1.3-1.2-1.3c-0.7,0-1.3,0.3-1.4,0.8
		C-811.9-375.9-811.3-375.3-810.7-375.2z"/>
	<path class="st6" d="M-789.4-373.4c0,0,7,0.7,10.5-1.5s10.9-8.4,10.9-8.4s-0.2-2.2-6.7,0.3c-6.6,2.5-11,3.2-12.5,4
		C-788.8-378.1-791.9-373.3-789.4-373.4z"/>
</g>
<g>
	<path class="st6" d="M-816.4-336.5c0,0-0.3,2.6-0.3,3.5c0,0.9-0.2,4-0.2,4s-8.1-4.7-8.8-5.1s1.6-6.4,1.6-6.4l8,1.3L-816.4-336.5z"
		/>
	<path class="st6" d="M-816.9-329c0,0,16.8-2.2,17.6-2.4c0.9-0.1-2-7.6-2-7.6l-9.3-1.5l-6.4,1.1L-816.9-329z"/>
	<path class="st5" d="M-821.9-339.2c0,0,1,0.4,1.5,0.7c0.5,0.2,3.7,1.6,4,2s4.6-0.6,6.3-0.8c1.7-0.2,4.9-1.1,5.8-1.3s2.2-0.2,3-0.4
		c-1.4-0.9-4-1.8-5.3-2.6c-1.3-0.9-2.4-1.3-3.5-1.6c-0.4-0.1-3.3,0.5-6.5,1.2c-3.2,0.7-7.1,1.3-7.4,1.5
		C-824.7-340.3-821.9-339.2-821.9-339.2z"/>
	<path class="st6" d="M-803.9-329.3c0,0,1.3,2.9,1.3,3.7s-1.3,4.5-1.3,4.5s-8.6-5.4-9.3-5.8c-0.7-0.4,1.6-6.4,1.6-6.4l8,1.3
		L-803.9-329.3z"/>
	<path class="st6" d="M-803.9-321.1c0,0,15.5-4.4,16.4-4.5c0.9-0.1-1.2-6.2-1.2-6.2l-9.3-1.5l-6.4,1.1L-803.9-321.1z"/>
	<path class="st5" d="M-809.4-331.9c0,0,1,0.4,1.5,0.7c0.5,0.2,3.7,1.6,4,2s4.6-0.6,6.3-0.8c1.7-0.2,4.9-1.1,5.8-1.3s2.2-0.2,3-0.4
		c-1.4-0.9-4-1.8-5.3-2.6c-1.3-0.9-2.4-1.3-3.5-1.6c-0.4-0.1-3.3,0.5-6.5,1.2c-3.2,0.7-7.1,1.3-7.4,1.5
		C-812.2-333-809.4-331.9-809.4-331.9z"/>
	<path class="st6" d="M-834.9-332c0,0-0.3,2.6-0.3,3.5c0,0.9-0.2,4-0.2,4s-8.1-4.7-8.8-5.1s2.3-6.9,2.3-6.9l7.4,1.8L-834.9-332z"/>
	<path class="st6" d="M-835.4-324.5c0,0,16.8-2.2,17.6-2.4c0.9-0.1-2-7.6-2-7.6l-9.3-1.5l-6.4,1.1L-835.4-324.5z"/>
	<path class="st5" d="M-839.8-335.2c0,0,1,0.4,1.5,0.7s3.7,1.6,4,2s4.6-0.6,6.3-0.8c1.7-0.2,4.9-1.1,5.8-1.3s2.2-0.2,3-0.4
		c-1.4-0.9-4-1.8-5.3-2.6c-1.3-0.9-2.4-1.3-3.5-1.6c-0.4-0.1-3.3,0.5-6.5,1.2c-3.2,0.7-7.1,1.3-7.4,1.5
		C-842.5-336.3-839.8-335.2-839.8-335.2z"/>
	<path class="st6" d="M-822.4-324.7c0,0,1.3,2.9,1.3,3.7c0,0.9-1.3,4.5-1.3,4.5s-8.6-5.4-9.3-5.8s1.6-6.4,1.6-6.4l8,1.3
		L-822.4-324.7z"/>
	<path class="st6" d="M-822.4-316.5c0,0,15.5-4.4,16.4-4.5c0.9-0.1-1.2-6.2-1.2-6.2l-9.3-1.5l-6.4,1.1L-822.4-316.5z"/>
	<path class="st5" d="M-827.9-327.4c0,0,1,0.4,1.5,0.7c0.5,0.2,3.7,1.6,4,2c0.3,0.3,4.6-0.6,6.3-0.8c1.7-0.2,4.9-1.1,5.8-1.3
		s2.2-0.2,3-0.4c-1.4-0.9-4-1.8-5.3-2.6c-1.3-0.9-2.4-1.3-3.5-1.6c-0.4-0.1-3.3,0.5-6.5,1.2c-3.2,0.7-7.1,1.3-7.4,1.5
		C-830.7-328.5-827.9-327.4-827.9-327.4z"/>
	<path class="st6" d="M-853.4-327.4c0,0-0.3,2.6-0.3,3.5c0,0.9-0.2,4-0.2,4s-7.8-1.2-8.5-1.7s1.9-10.4,1.9-10.4l7.4,1.8
		L-853.4-327.4z"/>
	<path class="st6" d="M-853.9-319.9c0,0,16.8-2.2,17.6-2.4s-2-7.6-2-7.6l-9.3-1.5l-6.4,1.1L-853.9-319.9z"/>
	<path class="st5" d="M-858.3-330.7c0,0,1,0.4,1.5,0.7c0.5,0.2,3.7,1.6,4,2s4.6-0.6,6.3-0.8c1.7-0.2,4.9-1.1,5.8-1.3s2.2-0.2,3-0.4
		c-1.4-0.9-4-1.8-5.3-2.6c-1.3-0.9-2.4-1.3-3.5-1.6c-0.4-0.1-3.3,0.5-6.5,1.2c-3.2,0.7-7.1,1.3-7.4,1.5
		C-861-331.8-858.3-330.7-858.3-330.7z"/>
	<path class="st6" d="M-840.9-320.2c0,0,1.3,2.9,1.3,3.7c0,0.9-1.3,4.5-1.3,4.5s-8.6-5.4-9.3-5.8s1.6-6.4,1.6-6.4l8,1.3
		L-840.9-320.2z"/>
	<path class="st6" d="M-840.9-312c0,0,15.5-4.4,16.4-4.5s-1.2-6.2-1.2-6.2l-9.3-1.5l-6.4,1.1L-840.9-312z"/>
	<path class="st5" d="M-846.4-322.8c0,0,1,0.4,1.5,0.7s3.7,1.6,4,2c0.3,0.3,4.6-0.6,6.3-0.8c1.7-0.2,5-0.7,5.9-0.9s2.2-0.6,2.9-0.8
		c-1.4-0.9-4-1.8-5.3-2.6c-1.3-0.9-2.4-1.3-3.5-1.6c-0.4-0.1-3.3,0.5-6.5,1.2c-3.2,0.7-7.1,1.3-7.4,1.5
		C-849.2-323.9-846.4-322.8-846.4-322.8z"/>
	<path class="st6" d="M-840.7-319.5l-0.3,10.1l53.6-13.2l0.1-3.5l-5.1-2.4c0,0-42.6,11.6-43,11.8
		C-835.9-316.6-840.7-319.5-840.7-319.5z"/>
	<polygon class="st6" points="-841,-309.4 -862.4,-321.6 -857.5,-325.4 -836.4,-314.4 	"/>
</g>
<g>
	<path class="st1" d="M-1258.5-446.6c-15.4-5-17.3,0.6-20.4,5.5c-3.2,5.2-2.6,12,0.4,17.3c1.6,2.9,4,4.3,6.5,6.5
		c2.1,1.8,4.2,4.4,6.6,5.8c2.3,1.4,4.9,2.7,7.6,2.3c1.9-0.3,3.5-1.3,5.3-1.7c3.3-0.8,4.4,2,7.5,0.7c2.1-0.9,6.1-4.3,7.4-6.1
		c3-4.3,5.7-9,6.8-14.2c1-5.2,2.6-12-1-15.8c-3.5-3.7-5.1-5.2-10.2-5.8c-2.5-0.3-7.9-0.6-10.7,1.3
		C-1254.7-449.4-1256.1-447.7-1258.5-446.6"/>
	<g>
		<path class="st2" d="M-1257.6-445.1c-1.5-3.5-2.9-6.6-1.7-10.4c0.3-1.2-1.4-1.6-1.8-0.5c-1.3,4.3,0.2,7.9,1.9,11.9
			C-1258.7-443.1-1257.1-444-1257.6-445.1L-1257.6-445.1z"/>
	</g>
	<g>
		<path class="st3" d="M-1261.1-443.6c1.1,0,2.1,0.3,3.2,0c0.9-0.2,1.7-0.7,2.4-1.4c0.2-0.3-0.1-0.7-0.4-0.4
			c-0.7,0.7-1.5,1.2-2.6,1.4c-0.9,0.1-1.7-0.1-2.6-0.1C-1261.4-444.2-1261.4-443.6-1261.1-443.6L-1261.1-443.6z"/>
	</g>
</g>
<g>
	<path class="st6" d="M-1237.7-303.6c0,0-0.3,2.8-0.3,3.7s-0.2,4.2-0.2,4.2s-8.5-4.9-9.2-5.3c-0.7-0.5,1.7-6.7,1.7-6.7l8.4,1.3
		L-1237.7-303.6z"/>
	<path class="st6" d="M-1238.3-295.8c0,0,17.5-2.3,18.4-2.5c0.9-0.1-2.1-8-2.1-8l-9.7-1.6l-6.7,1.1L-1238.3-295.8z"/>
	<path class="st5" d="M-1243.5-306.4c0,0,1,0.5,1.6,0.7c0.6,0.2,3.9,1.7,4.2,2.1c0.3,0.3,4.8-0.6,6.6-0.8s5.2-1.2,6.1-1.4
		s2.4-0.2,3.1-0.4c-1.4-0.9-4.2-1.8-5.6-2.8c-1.3-0.9-2.6-1.4-3.7-1.7c-0.4-0.1-3.4,0.5-6.8,1.3c-3.4,0.7-7.4,1.4-7.8,1.6
		C-1246.4-307.5-1243.5-306.4-1243.5-306.4z"/>
	<path class="st6" d="M-1224.7-296c0,0,1.4,3,1.4,3.9c0,0.9-1.4,4.7-1.4,4.7s-9-5.6-9.7-6.1c-0.7-0.5,1.7-6.7,1.7-6.7l8.4,1.3
		L-1224.7-296z"/>
	<path class="st6" d="M-1224.7-287.4c0,0,16.2-4.6,17.1-4.7c0.9-0.1-1.3-6.5-1.3-6.5l-9.7-1.6l-6.7,1.1L-1224.7-287.4z"/>
	<path class="st5" d="M-1230.5-298.8c0,0,1,0.5,1.6,0.7c0.6,0.2,3.9,1.7,4.2,2.1s4.8-0.6,6.6-0.8c1.8-0.2,5.2-1.2,6.1-1.4
		c0.9-0.2,2.4-0.2,3.1-0.4c-1.4-0.9-4.2-1.8-5.6-2.8c-1.3-0.9-2.6-1.4-3.7-1.7c-0.4-0.1-3.4,0.5-6.8,1.3c-3.4,0.7-7.4,1.4-7.8,1.6
		C-1233.3-299.9-1230.5-298.8-1230.5-298.8z"/>
	<path class="st6" d="M-1257.1-298.8c0,0-0.3,2.8-0.3,3.7c0,0.9-0.2,4.2-0.2,4.2s-8.5-4.9-9.2-5.3s2.4-7.3,2.4-7.3l7.7,1.9
		L-1257.1-298.8z"/>
	<path class="st6" d="M-1257.6-291c0,0,17.5-2.3,18.4-2.5s-2.1-8-2.1-8l-9.7-1.6l-6.7,1.1L-1257.6-291z"/>
	<path class="st5" d="M-1262.2-302.3c0,0,1,0.5,1.6,0.7c0.6,0.2,3.9,1.7,4.2,2.1c0.3,0.3,4.8-0.6,6.6-0.8s5.2-1.2,6.1-1.4
		s2.4-0.2,3.1-0.4c-1.4-0.9-4.2-1.8-5.6-2.8c-1.3-0.9-2.6-1.4-3.7-1.7c-0.4-0.1-3.4,0.5-6.8,1.3s-7.4,1.4-7.8,1.6
		C-1265.1-303.4-1262.2-302.3-1262.2-302.3z"/>
	<path class="st6" d="M-1244-291.3c0,0,1.4,3,1.4,3.9c0,0.9-1.4,4.7-1.4,4.7s-9-5.6-9.7-6.1c-0.7-0.5,1.7-6.7,1.7-6.7l8.4,1.3
		L-1244-291.3z"/>
	<path class="st6" d="M-1244-282.7c0,0,16.2-4.6,17.1-4.7c0.9-0.1-1.3-6.5-1.3-6.5l-9.7-1.6l-6.7,1.1L-1244-282.7z"/>
	<path class="st5" d="M-1249.8-294c0,0,1,0.5,1.6,0.7c0.6,0.2,3.9,1.7,4.2,2.1c0.3,0.3,4.8-0.6,6.6-0.8s5.2-1.2,6.1-1.4
		s2.4-0.2,3.1-0.4c-1.4-0.9-4.2-1.8-5.6-2.8c-1.3-0.9-2.6-1.4-3.7-1.7c-0.4-0.1-3.4,0.5-6.8,1.3c-3.4,0.7-7.4,1.4-7.8,1.6
		C-1252.7-295.2-1249.8-294-1249.8-294z"/>
	<path class="st6" d="M-1276.5-294.1c0,0-0.3,2.8-0.3,3.7c0,0.9-0.2,4.2-0.2,4.2s-8.2-1.3-8.9-1.7c-0.7-0.5,2-10.9,2-10.9l7.8,1.9
		L-1276.5-294.1z"/>
	<path class="st6" d="M-1277-286.2c0,0,17.5-2.3,18.4-2.5c0.9-0.1-2.1-8-2.1-8l-9.7-1.6l-6.7,1.1L-1277-286.2z"/>
	<path class="st5" d="M-1281.6-297.5c0,0,1,0.5,1.6,0.7c0.6,0.2,3.9,1.7,4.2,2.1c0.3,0.3,4.8-0.6,6.6-0.8c1.8-0.2,5.2-1.2,6.1-1.4
		c0.9-0.2,2.4-0.2,3.1-0.4c-1.4-0.9-4.2-1.8-5.6-2.8c-1.3-0.9-2.6-1.4-3.7-1.7c-0.4-0.1-3.4,0.5-6.8,1.3s-7.4,1.4-7.8,1.6
		C-1284.5-298.7-1281.6-297.5-1281.6-297.5z"/>
	<path class="st6" d="M-1263.4-286.5c0,0,1.4,3,1.4,3.9c0,0.9-1.4,4.7-1.4,4.7s-9-5.6-9.7-6.1c-0.7-0.5,1.7-6.7,1.7-6.7l8.4,1.3
		L-1263.4-286.5z"/>
	<path class="st6" d="M-1263.4-277.9c0,0,16.2-4.6,17.1-4.7c0.9-0.1-1.3-6.5-1.3-6.5l-9.7-1.6l-6.7,1.1L-1263.4-277.9z"/>
	<path class="st5" d="M-1269.2-289.2c0,0,1,0.5,1.6,0.7c0.6,0.2,3.9,1.7,4.2,2.1c0.3,0.3,4.8-0.6,6.6-0.8s5.2-0.8,6.1-1
		c0.9-0.2,2.3-0.6,3.1-0.8c-1.4-0.9-4.2-1.8-5.6-2.8c-1.3-0.9-2.6-1.4-3.7-1.7c-0.4-0.1-3.4,0.5-6.8,1.3s-7.4,1.4-7.8,1.6
		C-1272.1-290.4-1269.2-289.2-1269.2-289.2z"/>
	<path class="st6" d="M-1263.2-285.8l-0.3,10.6l56.1-13.8l0.1-3.7l-5.3-2.5c0,0-44.6,12.2-45,12.3S-1263.2-285.8-1263.2-285.8z"/>
	<polygon class="st6" points="-1263.5,-275.2 -1285.9,-288 -1280.7,-291.9 -1258.6,-280.4 	"/>
</g>
<g>
	<path class="st1" d="M-820.6-278.5c-13.6-4.4-15.2,0.5-17.9,4.9c-2.8,4.5-2.2,10.6,0.4,15.3c1.4,2.5,3.5,3.8,5.7,5.7
		c1.9,1.6,3.7,3.9,5.8,5.1c2.1,1.2,4.4,2.4,6.7,2c1.6-0.2,3.1-1.2,4.7-1.5c2.9-0.7,3.9,1.8,6.6,0.6c1.8-0.8,5.4-3.8,6.5-5.4
		c2.7-3.8,5.1-7.9,6-12.5s2.3-10.6-0.9-13.9c-3.1-3.3-4.5-4.6-9-5.1c-2.2-0.2-6.9-0.6-9.4,1.1C-817.2-280.9-818.5-279.4-820.6-278.5
		"/>
	<g>
		<path class="st2" d="M-819.8-277.2c-1.3-3.1-2.5-5.8-1.5-9.2c0.3-1-1.3-1.4-1.6-0.4c-1.2,3.8,0.2,7,1.7,10.5
			C-820.8-275.4-819.4-276.2-819.8-277.2L-819.8-277.2z"/>
	</g>
	<g>
		<path class="st3" d="M-822.9-275.9c1,0,1.8,0.3,2.8,0c0.8-0.2,1.5-0.7,2.1-1.3c0.2-0.2-0.1-0.6-0.3-0.3c-0.6,0.7-1.4,1.1-2.3,1.2
			c-0.8,0.1-1.5-0.1-2.3-0.1C-823.2-276.3-823.2-275.8-822.9-275.9L-822.9-275.9z"/>
	</g>
</g>
<g>
	<path class="st4" d="M-933.3-282.9c2.7-3.4,6.8-9.7,11.7-11.4c4.9-1.7,14.4-4.5,18.4-5.1c4-0.6,18.5-0.6,21.5-0.3
		c5.8,0.4,15,4.4,19.4,9.3c1.7,1.9,5.4,6.8,6.4,8.8c1.7,3.4,1.6,8.5-2.4,9.9c-1.1,0.4-6.1,2.3-11.5,3.2c-7,1.2-12.4,2.5-16.1,2.7
		c-3.5,0.1-14.7,0.8-22.8,1c-7.2,0.1-14.5,1.1-17.4,0.5c-6-1.3-8.3-2.3-9.7-5.8S-936-279.5-933.3-282.9z"/>
	<path class="st5" d="M-917.4-295.8c0,0,5.7,3.9,7.4,6c1.7,2.2,2.6,7.2,3.2,8s1-7-1-9.2c-2-2.2-6.3-5.7-6.3-5.7L-917.4-295.8z"/>
	<path class="st5" d="M-902.8-299.4c0,0,5.3,4.6,7.1,6.8c1.7,2.2,2.6,7.2,3.2,8c0.6,0.7,1-7-1-9.2c-2-2.2-5.8-6-5.8-6L-902.8-299.4z
		"/>
	<path class="st5" d="M-887.9-299.9c0,0,6.3,4.6,8,6.8c1.7,2.2,2.6,7.2,3.2,8s1-7-1-9.2s-6.8-5.7-6.8-5.7L-887.9-299.9z"/>
</g>
<g>
	<path class="st6" d="M-696.6-280.6c0,0-0.2-0.2,1.9,1.6c1.9,1.6,6,12.8,3.5,18.1c-1.4,2.9-4.2,8.9-7.7,11.1
		c-1.7,1.1-12.3,6-17.7,6.1c-3,0.1-7.8-0.8-11.5,0.1s-9.5,2.3-13.4,3.2c-4.5,1-11.9-0.8-13.4-2.6c-1.5-1.8-1.8-6.7-1.8-6.7
		s11.3-7.1,12.4-7.3c1.1-0.2,27.4-17.6,28.4-18.3S-696.6-280.6-696.6-280.6z"/>
	<path class="st5" d="M-694.1-266.8c0.7-1.9,1.3-4.8,1.2-6.3c-0.6-4.3-2.6-8.2-6.1-10.2c-3.7-2.1-7.9-2.1-12.2-2.1
		c-4.5,0-9.5,0.9-13.5,2.8c-5.2,2.5-8.1,12.7-12.6,16.4c-4.5,3.7-12.4,5.6-14.8,7.5c-3.4,2.6-4.5,6.4-4.7,8.9
		c-0.1,1.1,2.2,2.3,4.3,3.5c2.1,1.2,4.6,1.3,7.1,1.3c10.7,0,14.5-4.7,25.2-3.6c6.5,0.7,13.5-3.1,17.6-5.8c4.1-2.7,4.2-4.2,8-11.4
		C-694.4-266-694.3-266.4-694.1-266.8z"/>
	<path class="st7" d="M-728.8-262.6c0,0,4.5-2.6,6.7-4.4c2.2-1.7,4.6-2.8,4.1-3.9c-0.4-1.1-2.8-2.8-3.4-3.6
		c-0.6-0.8-0.7-2.3,1.1-1.2c1.8,1.1,2.8,2,4.2,3.3c1.6,1.4,2.7,2.3,4.5,3.1c1.9,0.7,3.9,1.4,4.7,1.6c0.8,0.2,0.9,1.7-0.2,1.5
		c-1.1-0.2-3-0.4-4.5-1c-1.5-0.5-2.2-1.7-3.8-1.3s-3.1,2.2-5.5,3.7c-2.4,1.4-4.1,2.4-6.3,3.4c-2.3,1-4.7,3.4-5.9,2.3
		C-733.8-259.6-732.5-260.7-728.8-262.6z"/>
</g>
<g>
	<path class="st7" d="M-678.2-314.1c-3.9,0.6-4,1.1-7.8,1.9c-5.2,1.1-16.5,3-21.7,1.9c-0.6-0.1-1.2-0.3-1.7-0.7
		c-0.9-0.8-1.6-1.9-1.2-3.1l0,0c-0.3-0.8,0.7-2.6,1.5-2.9c1.8-0.8,10.4-0.7,14-0.7c4.2,0,8.1,0.5,9.9-0.1l13.9-2.3
		C-666.1-315.8-675.9-314.5-678.2-314.1z"/>
	<path class="st1" d="M-626.8-314.4c-8-2.7-26.1-1.6-34.2-1.7c-2.6,0-10,0.5-18.4,2.5c-2.5,0.6-3.7,1.2-5.7,1.3
		c3.3-2.8,2.2-4.4-1-5.3c7.7-1.5,15.9-4.3,22.9-7.8c6.5-3.2,21.9-13,28.4-16.2c1.5,2,2.8,3,1.8,4.7c-2.7,1.3-27.8,14.5-30.3,16.2
		c2.9-1,18.7-8.2,21.7-8.8c3.4-0.6,15.4-4.7,18.8-4.8c1.4,1.3,1,2.7,0.6,5c-3.5,0.2-15.6,4.2-19,4.9c-3.9,0.8-7.8,2.4-11.7,3.7
		c8.1-0.6,21.2-0.1,29.1,2.2C-624.6-317.6-625.4-315.9-626.8-314.4z"/>
	<g>
		<path class="st3" d="M-709.9-313.5c-0.8,0.1-1.5,0.2-2.2,0.5c-0.2,0.1-0.1,0.4,0.1,0.3c0.7-0.2,1.4-0.4,2.1-0.4
			C-709.7-313.2-709.7-313.5-709.9-313.5L-709.9-313.5z"/>
	</g>
	<g>
		<path class="st3" d="M-710.5-314.5c-0.7-0.1-1.3-0.2-2-0.3c-0.2,0-0.3,0.3-0.1,0.3c0.7,0.1,1.3,0.2,2,0.3
			C-710.4-314.2-710.3-314.5-710.5-314.5L-710.5-314.5z"/>
	</g>
	<g>
		<path class="st3" d="M-710.3-315.7c-0.5-0.4-1.1-0.7-1.6-1.1c-0.2-0.1-0.3,0.2-0.2,0.3c0.5,0.4,1.1,0.7,1.6,1.1
			C-710.3-315.3-710.1-315.6-710.3-315.7L-710.3-315.7z"/>
	</g>
	<g>
		<path class="st3" d="M-709.7-312.1c-0.5,0.5-1,0.9-1.6,1.2c-0.2,0.1,0,0.4,0.2,0.3c0.6-0.3,1.2-0.7,1.7-1.2
			C-709.3-312-709.5-312.3-709.7-312.1L-709.7-312.1z"/>
	</g>
</g>
<g>
	<g>
		<path class="st4" d="M-85.4-333.4c0-1,0.2-2,0.2-2.9c0-0.3-0.6,0.2-0.6-1.3c0-1.4,1-0.9,0.9-1.3c-0.1-0.9,0.2-1.5-0.4-1.5
			c-1-0.1-2.1-0.2-2.2-1.4c-0.1-1.4,0.6-2,1.8-2c1.1,0,0.7-1.2,0.5-2.6l-50.9,10.5c0.2,0.7,0.4,1.5,0.4,2.2c0.1,0.7,0.1,1.5,0.1,2.2
			c0.8,0.4,1.4,1.4,1.4,2.1c0,1.4-0.8,1.7-1.5,2.3c0,0.6,0,1,0.4,2.8c0.1,0.3,0.1,0.5,0.3,0.7c0.4,0.5,1.1,0.4,1.7,0.2
			c2.7-0.7,4-0.9,6.8-0.8c1.3,0,2.7,0.3,4,0.1c0.3,0-0.1-1.1,0.8-1.3c1.1-0.2,0.8,1,1.2,1c1.6-0.2,3.5-0.5,4.4-0.7
			c2.3-0.5,5.1-0.4,7.5,0c0.9,0.1,1.9,0.1,3.2,0c0.6-0.1,0.3-1.6,2.5-1.7c2-0.1,1.9,1.2,2.5,1.2c1.1-0.1,0.9-0.1,2.1-0.1
			c3.8-0.1,3.9-0.5,7.7-0.6c1.6,0,2.7-1,4.2-1.3c0.5-0.1,1-0.2,1.3-0.6c0.2-0.3,0.3-0.7,0.3-1.1C-84.9-330.5-85.4-332.2-85.4-333.4z
			 M-131.7-325.4c-0.6,0-1.6,0.3-2,0.2c-0.4-0.1-0.3-0.9-0.1-1.4c0.2-0.5,1.1-0.6,1.1-0.6s1.4,0,1.7,0.4
			C-130.8-326.4-131.1-325.4-131.7-325.4z M-122.8-331.6c-0.5,0-1.4,0.6-1.7,0.3c-0.4-0.2-2-0.9-1.8-1.7c0.2-0.8,2.6-1.6,2.6-1.6
			s1.2,0.1,1.4,0.7C-122.1-333.4-122.3-331.6-122.8-331.6z M-112.2-328.5c-1.1,0-1.8,0.9-2.6,0.6c-0.8-0.3-1.3-1-0.9-1.9
			c0.4-0.9,2.4-2.1,2.4-2.1s2-0.2,2.4,0.4C-110.4-330.7-111.2-328.5-112.2-328.5z M-101.7-335.7c-1.1,0-1.9,0.6-2.7,0.4
			c-0.8-0.2-0.8-2.7-0.3-3.5c0.4-0.8,2-1,2-1s2.7,0.1,3.1,0.7C-99.2-338.6-100.7-335.7-101.7-335.7z M-89.6-330
			c-1.1,0-3.1,0.6-3.9,0.4c-0.8-0.3-0.6-1.7-0.2-2.6c0.4-0.9,2.1-1.1,2.1-1.1s2.7,0.1,3.1,0.7C-88-332-88.5-330-89.6-330z"/>
	</g>
	<path class="st5" d="M-136.2-335.9c1.8-1.7,5-2.6,6-3.1s3.2-1.7,4.4-2.3c1.4-0.7,2.6-1.5,4.7-2.5c0.9-0.5,2.3-0.7,3.2-1.1
		c1.4-0.7,2.2-1.5,3.2-1.9c1.5-0.6,3.7-1.2,4.7-1.6c1.9-0.7,2.3-1,5-2.1c0.7-0.3,1.7-1,2.5-1.1c0.8,0,2.7,0.1,3.5,0.4
		c1.6,0.5,4,1.6,5.6,2.1c3.3,1.1,4.6,1.6,7.9,2.7c0.6,0.3,0.2,1-0.4,1.1c-1.4,0.3-2.6,0.1-3.8,0.3c-1.1,0.2-2.2,0.8-3.3,1
		c-1.2,0.2-1.9,0.3-3.3,0.6c-1.2,0.2-2.4,0.6-3.6,0.8c-0.8,0.1-2.3,0.2-3.1,0.4c-1.7,0.3-3.2,1.1-4.9,1.4c-1.3,0.2-2.7,0.3-5,0.9
		c-1.7,0.4-3.5,0.9-4.9,1.3c-0.9,0.2-3.8,0.3-4.4,0.4c-2.1,0.4-2.1,0.9-3.6,1.3c-1.4,0.4-2.8,0.3-4.3,0.6c-1.2,0.3-2.2,0.5-3.9,0.8
		C-134.1-335.7-136-335.6-136.2-335.9z"/>
</g>
<g>
	<path class="st6" d="M-98.1-470.8c0,0-0.1-0.1,1.1,1.3c1.1,1.3,2.4,9.4-0.1,12.7c-1.3,1.8-4,5.4-6.7,6.5c-1.3,0.5-9.1,2.4-12.8,1.8
		c-2.1-0.3-5.2-1.6-7.8-1.4s-6.7,0.3-9.5,0.4c-3.2,0.1-7.9-2.1-8.7-3.5c-0.8-1.4-0.3-4.8-0.3-4.8s8.6-3.3,9.3-3.3
		c0.7,0,20.9-8.2,21.6-8.6S-98.1-470.8-98.1-470.8z"/>
	<path class="st5" d="M-98.3-461.2c0.7-1.2,1.5-3.1,1.6-4.1c0.2-3-0.7-5.9-2.7-7.7c-2.2-1.9-5.1-2.5-8-3c-3-0.6-6.5-0.7-9.5,0.1
		c-3.9,1-7.1,7.5-10.7,9.4c-3.5,1.9-9.1,2.1-11,3.1c-2.7,1.3-3.9,3.7-4.3,5.4c-0.2,0.8,1.2,1.9,2.4,3c1.3,1.1,3,1.5,4.6,1.8
		c7.2,1.4,10.5-1.3,17.5,0.9c4.3,1.3,9.5-0.3,12.7-1.6c3.1-1.3,3.4-2.3,6.9-6.7C-98.6-460.7-98.4-460.9-98.3-461.2z"/>
	<path class="st7" d="M-122.3-463c0,0,3.4-1.2,5.1-2.1c1.7-0.9,3.5-1.3,3.3-2.1c-0.2-0.8-1.5-2.3-1.8-2.9c-0.3-0.6-0.2-1.7,0.9-0.7
		c1.1,1,1.6,1.7,2.4,2.8c0.9,1.2,1.5,1.9,2.7,2.7c1.2,0.7,2.4,1.5,2.9,1.7s0.4,1.3-0.4,1c-0.7-0.3-2-0.7-2.9-1.3
		c-0.9-0.6-1.3-1.4-2.4-1.4s-2.4,1.1-4.2,1.7c-1.8,0.7-3.1,1.1-4.7,1.4c-1.7,0.4-3.6,1.7-4.3,0.8C-126.1-461.6-125-462.2-122.3-463z
		"/>
</g>
<g>
	<path class="st8" d="M-130-357.9c8.1-1.3,21.4-6.1,25.4-7.9c4-1.8,8.2-2.6,12.1-2.7c4.6-0.1,9.4,1,11,3.4c1.7,2.6,2,9.7,2.8,11.9
		c0.8,2.1,2.3,3.5,3,1.8c0.7-1.7,2.3-8.8,3.7-10.3s5.7-1.8,7.6-2.9c1.9-1,3.5-2.8-0.9-3.6c-4.4-0.8-10.9-0.6-11.9-1.5
		c-1-0.9-5.2-11.5-19.4-13.6c-6.5-0.9-6.4-0.2-5.9-1.3c1.1-2.5,2.5-3.1,1.7-4s-13.8,0.8-14.7,1.5c-0.8,0.7-3.4,3.2-3.4,3.2
		s-8.7,1.1-13.6,4.6C-137-375.8-130.7-367.7-130-357.9z"/>
	<path class="st6" d="M-140.7-362.6c1.2-0.3,4.4-0.1,5.4-0.2c-1.8-0.9-3.4-1.2-5.5-1.1c-2,0.1-3,0.8-3.6,0c-0.4-0.5,0.3-4.4,0.8-5.7
		c1.9-4.8,6.1-7.9,11.3-9.6c3.9-1.3,10.4,20.1,2.3,21.4c-8.1,1.3-12.6-1.7-12.6-1.7c-0.7-0.3-2.1-1.7-1.3-2.1
		C-143.1-362-143.2-362.1-140.7-362.6z"/>
	<path class="st1" d="M-134.8-369.2c1,0.3,1.5-0.7,1.5-1.1c0-0.4-0.4-1.1-1-1.1s-1.1,0.3-1.2,0.7
		C-135.8-369.9-135.3-369.4-134.8-369.2z"/>
	<path class="st6" d="M-116.5-367.7c0,0,6,0.6,9-1.3s9.3-7.2,9.3-7.2s-0.1-1.9-5.8,0.3c-5.6,2.2-9.4,2.8-10.7,3.5
		C-116-371.8-118.6-367.7-116.5-367.7z"/>
</g>
<g>
	<path class="st1" d="M-113.6-286.9c-11.8-2.1-12.7,2.2-14.4,6.1c-1.8,4.1-0.7,9.1,2.1,12.7c1.5,1.9,3.4,2.8,5.4,4.1
		c1.7,1.1,3.6,2.8,5.5,3.6c1.9,0.8,3.9,1.5,5.8,0.9c1.3-0.4,2.5-1.3,3.8-1.8c2.4-0.9,3.4,1,5.6-0.3c1.5-0.9,4.1-3.8,4.8-5.3
		c1.8-3.5,3.3-7.2,3.5-11.1c0.2-3.9,0.7-9.1-2.3-11.5c-3-2.4-4.3-3.3-8.1-3.2c-1.9,0.1-5.8,0.3-7.7,2
		C-111.1-289.3-112-287.9-113.6-286.9"/>
	<g>
		<path class="st2" d="M-112.8-285.9c-1.5-2.4-2.8-4.6-2.3-7.5c0.1-0.9-1.2-1.1-1.4-0.2c-0.5,3.3,1,5.8,2.6,8.5
			C-113.4-284.3-112.3-285.1-112.8-285.9L-112.8-285.9z"/>
	</g>
	<g>
		<path class="st3" d="M-115.2-284.4c0.8-0.1,1.6,0,2.3-0.3c0.7-0.3,1.2-0.7,1.6-1.3c0.2-0.2-0.2-0.5-0.3-0.3
			c-0.4,0.6-1,1.1-1.7,1.3c-0.6,0.2-1.3,0.1-1.9,0.2C-115.5-284.8-115.5-284.4-115.2-284.4L-115.2-284.4z"/>
	</g>
</g>
<g>
	<path class="st6" d="M-302.3-363.9c0,0-0.2,2-0.2,2.7c0,0.7-0.1,3.1-0.1,3.1s-6.2-3.6-6.8-3.9c-0.5-0.3,1.3-5,1.3-5l6.2,1
		L-302.3-363.9z"/>
	<path class="st6" d="M-302.7-358.1c0,0,12.9-1.7,13.6-1.8s-1.6-5.9-1.6-5.9l-7.2-1.2l-5,0.8L-302.7-358.1z"/>
	<path class="st5" d="M-306.6-365.9c0,0,0.7,0.3,1.1,0.5c0.4,0.2,2.9,1.3,3.1,1.5c0.2,0.3,3.6-0.5,4.9-0.6s3.8-0.9,4.5-1
		c0.7-0.2,1.7-0.1,2.3-0.3c-1.1-0.7-3.1-1.4-4.1-2c-1-0.7-1.9-1-2.7-1.3c-0.3-0.1-2.5,0.4-5,0.9c-2.5,0.5-5.5,1-5.7,1.2
		C-308.7-366.7-306.6-365.9-306.6-365.9z"/>
	<path class="st6" d="M-292.7-358.3c0,0,1,2.2,1,2.9c0,0.7-1,3.5-1,3.5s-6.6-4.2-7.2-4.5c-0.5-0.3,1.3-5,1.3-5l6.2,1L-292.7-358.3z"
		/>
	<path class="st6" d="M-292.7-351.9c0,0,11.9-3.4,12.6-3.5c0.7-0.1-1-4.8-1-4.8l-7.2-1.2l-5,0.8L-292.7-351.9z"/>
	<path class="st5" d="M-296.9-360.3c0,0,0.7,0.3,1.1,0.5s2.9,1.3,3.1,1.5s3.6-0.5,4.9-0.6c1.3-0.1,3.8-0.9,4.5-1
		c0.7-0.2,1.7-0.1,2.3-0.3c-1.1-0.7-3.1-1.4-4.1-2c-1-0.7-1.9-1-2.7-1.3c-0.3-0.1-2.5,0.4-5,0.9c-2.5,0.5-5.5,1-5.7,1.2
		C-299.1-361.2-296.9-360.3-296.9-360.3z"/>
	<path class="st6" d="M-316.6-360.3c0,0-0.2,2-0.2,2.7c0,0.7-0.1,3.1-0.1,3.1s-6.2-3.6-6.8-3.9c-0.5-0.3,1.7-5.4,1.7-5.4l5.7,1.4
		L-316.6-360.3z"/>
	<path class="st6" d="M-316.9-354.6c0,0,12.9-1.7,13.6-1.8c0.7-0.1-1.6-5.9-1.6-5.9l-7.2-1.2l-5,0.8L-316.9-354.6z"/>
	<path class="st5" d="M-320.3-362.9c0,0,0.7,0.3,1.1,0.5c0.4,0.2,2.9,1.3,3.1,1.5c0.2,0.3,3.6-0.5,4.9-0.6s3.8-0.9,4.5-1
		c0.7-0.2,1.7-0.1,2.3-0.3c-1.1-0.7-3.1-1.4-4.1-2c-1-0.7-1.9-1-2.7-1.3c-0.3-0.1-2.5,0.4-5,0.9c-2.5,0.5-5.5,1-5.7,1.2
		C-322.5-363.7-320.3-362.9-320.3-362.9z"/>
	<path class="st6" d="M-306.9-354.8c0,0,1,2.2,1,2.9c0,0.7-1,3.5-1,3.5s-6.6-4.2-7.2-4.5s1.3-5,1.3-5l6.2,1L-306.9-354.8z"/>
	<path class="st6" d="M-306.9-348.4c0,0,11.9-3.4,12.6-3.5c0.7-0.1-1-4.8-1-4.8l-7.2-1.2l-5,0.8L-306.9-348.4z"/>
	<path class="st5" d="M-311.2-356.8c0,0,0.7,0.3,1.1,0.5c0.4,0.2,2.9,1.3,3.1,1.5c0.2,0.3,3.6-0.5,4.9-0.6s3.8-0.9,4.5-1
		s1.7-0.1,2.3-0.3c-1.1-0.7-3.1-1.4-4.1-2c-1-0.7-1.9-1-2.7-1.3c-0.3-0.1-2.5,0.4-5,0.9c-2.5,0.5-5.5,1-5.7,1.2
		C-313.3-357.6-311.2-356.8-311.2-356.8z"/>
	<path class="st6" d="M-330.8-356.8c0,0-0.2,2-0.2,2.7s-0.1,3.1-0.1,3.1s-6-0.9-6.6-1.3c-0.5-0.3,1.5-8,1.5-8l5.7,1.4L-330.8-356.8z
		"/>
	<path class="st6" d="M-331.2-351.1c0,0,12.9-1.7,13.6-1.8s-1.6-5.9-1.6-5.9l-7.2-1.2l-5,0.8L-331.2-351.1z"/>
	<path class="st5" d="M-334.6-359.4c0,0,0.7,0.3,1.1,0.5c0.4,0.2,2.9,1.3,3.1,1.5c0.2,0.3,3.6-0.5,4.9-0.6s3.8-0.9,4.5-1
		c0.7-0.2,1.7-0.1,2.3-0.3c-1.1-0.7-3.1-1.4-4.1-2c-1-0.7-1.9-1-2.7-1.3c-0.3-0.1-2.5,0.4-5,0.9c-2.5,0.5-5.5,1-5.7,1.2
		C-336.7-360.2-334.6-359.4-334.6-359.4z"/>
	<path class="st6" d="M-321.2-351.3c0,0,1,2.2,1,2.9c0,0.7-1,3.5-1,3.5s-6.6-4.2-7.2-4.5s1.3-5,1.3-5l6.2,1L-321.2-351.3z"/>
	<path class="st6" d="M-321.2-344.9c0,0,11.9-3.4,12.6-3.5c0.7-0.1-1-4.8-1-4.8l-7.2-1.2l-5,0.8L-321.2-344.9z"/>
	<path class="st5" d="M-325.4-353.3c0,0,0.7,0.3,1.1,0.5c0.4,0.2,2.9,1.3,3.1,1.5c0.2,0.3,3.6-0.5,4.9-0.6s3.9-0.6,4.5-0.7
		c0.7-0.2,1.7-0.4,2.3-0.6c-1.1-0.7-3.1-1.4-4.1-2c-1-0.7-1.9-1-2.7-1.3c-0.3-0.1-2.5,0.4-5,0.9c-2.5,0.5-5.5,1-5.7,1.2
		C-327.6-354.1-325.4-353.3-325.4-353.3z"/>
	<path class="st6" d="M-321.1-350.7l-0.2,7.8l41.3-10.2l0-2.7l-3.9-1.9c0,0-32.8,9-33.2,9.1C-317.3-348.5-321.1-350.7-321.1-350.7z"
		/>
	<polygon class="st6" points="-321.3,-342.9 -337.7,-352.3 -334,-355.3 -317.7,-346.8 	"/>
</g>
<g>
	<path class="st7" d="M-331.8-379.3c-3.8,1.3-3.7,1.7-7.4,3.1c-5,1.9-15.8,5.6-21.1,5.3c-0.6,0-1.3-0.1-1.8-0.4
		c-1-0.7-1.8-1.6-1.7-2.9l0,0c-0.4-0.8,0.3-2.7,1-3.2c1.7-1.1,10.2-2.4,13.7-2.9c4.1-0.7,8.1-0.8,9.8-1.7l13.4-4.5
		C-320.1-383-329.6-380.1-331.8-379.3z"/>
	<path class="st1" d="M-281.1-387.9c-8.3-1.4-26,2.6-34.1,3.8c-2.6,0.4-9.8,2.1-17.8,5.4c-2.4,1-3.5,1.8-5.4,2.2
		c2.8-3.3,1.5-4.7-1.9-5.1c7.3-2.7,15-6.8,21.3-11.3c5.9-4.2,19.5-16.3,25.4-20.5c1.8,1.7,3.3,2.6,2.5,4.3
		c-2.5,1.7-25.1,18.8-27.3,20.8c2.7-1.5,17.1-11.1,20-12.1c3.2-1.1,14.4-7.1,17.8-7.8c1.6,1.1,1.4,2.5,1.3,4.8
		c-3.4,0.7-14.7,6.6-18,7.9c-3.7,1.5-7.3,3.6-10.9,5.5c7.9-1.9,20.9-3.5,29.1-2.5C-279.5-391.4-280-389.6-281.1-387.9z"/>
	<g>
		<path class="st3" d="M-363-373.7c-0.7,0.2-1.4,0.5-2.1,0.8c-0.2,0.1-0.1,0.4,0.1,0.3c0.7-0.3,1.3-0.6,2-0.8
			C-362.7-373.5-362.8-373.8-363-373.7L-363-373.7z"/>
	</g>
	<g>
		<path class="st3" d="M-363.8-374.6c-0.7,0-1.3,0-2,0c-0.2,0-0.2,0.3,0,0.3c0.7,0,1.3,0,2,0C-363.6-374.3-363.5-374.6-363.8-374.6
			L-363.8-374.6z"/>
	</g>
	<g>
		<path class="st3" d="M-363.7-375.8c-0.6-0.3-1.2-0.5-1.8-0.8c-0.2-0.1-0.3,0.2-0.1,0.3c0.6,0.3,1.2,0.5,1.8,0.8
			C-363.6-375.4-363.5-375.7-363.7-375.8L-363.7-375.8z"/>
	</g>
	<g>
		<path class="st3" d="M-362.6-372.4c-0.4,0.5-0.9,1-1.4,1.4c-0.2,0.1,0,0.4,0.2,0.3c0.6-0.4,1.1-0.9,1.5-1.5
			C-362.2-372.3-362.4-372.5-362.6-372.4L-362.6-372.4z"/>
	</g>
</g>
<g>
	<path class="st5" d="M-315.7-293.6c-5.6,1.2-8.8,3.6-10,8.5c-1.6,8.6,1.6,18,17.7,18.5c16.1,0.4,18.1-5.6,19.3-11.8
		c0.7-3.5-0.2-7.3-0.9-9c-2.5-5.7-9.9-7-16.1-6.1C-308.5-293.2-313.6-294.2-315.7-293.6"/>
	<path class="st1" d="M-299.5-292.8c-1.9-0.6-2.9-0.9-4.5-0.4c-0.4,0.1-1.6,0.4-2,0.6c-0.7,0.3-1.9,0.8-2.3,0.7
		c-0.7-0.1-0.5,0-1.2-0.3c-0.6-0.3-1.8-1-2.3-1.3c-1.2-0.7-3.1-0.3-4.4-0.2c-0.6,0.1-3.2,0.8-3.4,0.3c-0.3-0.6,2-2.5,2.9-2.6
		c1.8-0.2,3.1-0.4,4.9-0.1c0.7,0.1,1.2,0.4,1.7,0.8c0.2,0.1,0.6,0.8,0.8,0.9c-0.1-0.1,0.1-0.5-0.3-1c-0.3-0.4-0.8-1-1.8-1.7
		c-0.7-0.5-1.8-1.3-2.7-1.9l-0.5-0.9c0-0.4,2.5,0.2,2.9,0.4c1.7,0.5,2,0.7,2.9,1.5c0.5,0.4,0.7,1,1.1,1.5c0.3,0.5,0.5,1.2,1,1.6
		c0,0,0.1,0.1,0.1,0.1c1.1-0.3,2.7-0.8,3.9-0.9c1.4-0.1,3.2,0.3,4.5,0.7c0.8,0.3,2.4,0.7,2.1,1.2
		C-296.5-293.2-298.8-292.6-299.5-292.8z"/>
	<path class="st1" d="M-307.8-294.5c0,0,1.9-3.6,2.9-5.1c1-1.4,3.1-2,3.1-2s0.4,0.8,0.1,1.8s-1.6,2.2-2,2.9
		c-0.5,0.7-2.5,2.9-2.5,2.9L-307.8-294.5z"/>
</g>
<g>
	<path class="st4" d="M-336.9-463.3c1.8-2.3,4.7-6.6,8-7.7c3.3-1.1,9.8-3,12.6-3.4c2.8-0.4,12.6-0.3,14.7-0.2
		c4,0.3,10.2,3.1,13.2,6.4c1.1,1.3,3.7,4.7,4.4,6c1.1,2.3,1.1,5.8-1.6,6.7c-0.8,0.3-4.2,1.6-7.8,2.1c-4.8,0.8-8.4,1.7-10.9,1.8
		c-2.4,0.1-10,0.5-15.5,0.6c-4.9,0.1-9.9,0.7-11.8,0.3c-4.1-0.9-5.7-1.6-6.6-4S-338.7-461-336.9-463.3z"/>
	<path class="st5" d="M-326-472c0,0,3.9,2.7,5,4.1c1.2,1.5,1.8,4.9,2.2,5.4c0.4,0.5,0.7-4.8-0.7-6.2s-4.3-3.9-4.3-3.9L-326-472z"/>
	<path class="st5" d="M-316-474.4c0,0,3.6,3.2,4.8,4.6c1.2,1.5,1.8,4.9,2.2,5.4c0.4,0.5,0.7-4.8-0.7-6.2c-1.3-1.5-3.9-4.1-3.9-4.1
		L-316-474.4z"/>
	<path class="st5" d="M-305.9-474.7c0,0,4.3,3.2,5.4,4.7s1.8,4.9,2.2,5.4c0.4,0.5,0.7-4.8-0.7-6.2c-1.3-1.5-4.6-3.9-4.6-3.9
		L-305.9-474.7z"/>
</g>
<path class="st9" d="M-397.9,235.5c0,0-3.2-33.7,2.3-46.6c5.4-13,33.3-22.1,51.1-16.3c16.9,5.5,26.4,9.9,30.2,56.7
	c1.1,13.6,0,22.6,0,22.6H-336c0,0,8.4-46.6-6.4-59.4c-9-7.8-31.5-7.6-36.1,4c-4.6,11.6-3.4,42.4-1.1,56.8
	c-5.7,5.7-16.7,5.4-16.7,5.4L-397.9,235.5z"/>
<polygon class="st9" points="-448.5,240.1 -288,224 -209.7,252.2 -238.1,312.3 -399.7,316.2 "/>
<path class="st10" d="M-448.5,240.1c-0.2,1.3-1.1,23.5-1.5,43.3c-0.3,11.8,0.5,28.3,0.2,42.4c-0.3,16.7,1.3,35,1,50.1
	c-0.5,25.9,0,47.7,0,47.7l54.1,35.1l29.8-39.9c0,0-4.1-153.1-4.5-151.3c-0.2,0.9-14.7,11.8-25.5,3.2
	C-408.3,264.1-433.3,242.9-448.5,240.1z"/>
<g>
	<path class="st5" d="M-378.9,214.6c-10.9,2.8-17.1,7.8-18.9,17.5c-2.5,17.2,4.6,35.4,36.5,34.9c31.9-0.5,35.3-12.7,37-24.8
		c1-7-1-14.3-2.6-17.7c-5.3-11.1-20.2-13-32.3-10.7C-364.7,214.8-374.7,213.2-378.9,214.6"/>
	<path class="st1" d="M-346.8,214.9c-3.8-1-5.8-1.5-8.9-0.4c-0.7,0.3-3.2,0.8-4,1.3c-1.3,0.7-3.7,1.8-4.5,1.7
		c-1.4-0.2-1.1,0.1-2.4-0.5c-1.1-0.5-3.7-1.9-4.7-2.4c-2.5-1.3-6.1-0.3-8.8,0.1c-1.2,0.2-6.2,1.8-6.7,0.9c-0.6-1.2,3.8-5.2,5.5-5.4
		c3.5-0.5,6.2-1,9.7-0.6c1.4,0.2,2.3,0.6,3.5,1.5c0.4,0.3,1.2,1.5,1.6,1.7c-0.2-0.3,0.1-1-0.7-2c-0.7-0.8-1.6-1.9-3.7-3.3
		c-1.4-1-3.6-2.4-5.5-3.6l-1-1.6c0-0.8,4.9,0.3,5.7,0.5c3.4,0.8,4,1.1,5.8,2.7c1,0.8,1.5,1.9,2.2,3c0.7,1,1.1,2.4,2.1,3.1
		c0.1,0.1,0.1,0.1,0.2,0.2c2.1-0.8,5.3-1.9,7.6-2.1c2.7-0.3,6.3,0.4,8.9,1.1c1.6,0.4,4.8,1.1,4.3,2.3
		C-341,213.8-345.5,215.2-346.8,214.9z"/>
	<path class="st1" d="M-363.3,212.2c0,0,3.4-7.3,5.2-10.2c1.8-2.9,6-4.2,6-4.2s0.8,1.6,0.3,3.5c-0.5,2-2.9,4.5-3.8,5.9s-4.6,6-4.6,6
		L-363.3,212.2z"/>
</g>
<g>
	<path class="st8" d="M-424.7,240.7c11.8,10.4,35.1,24,42.8,27.7c7.6,3.7,13.9,8.8,18.9,14.5c5.8,6.6,10.1,15.1,8.4,20.3
		c-1.8,5.7-11.8,14.9-14,18.7c-2.2,3.8-2.4,7.7,0.9,6.6c3.3-1.1,15.7-7.4,19.6-7.2c3.9,0.2,9.7,6.2,13.5,7.7
		c3.8,1.5,8.4,1.8,4.2-5.6c-4.2-7.4-12.5-16.8-12.3-19.3c0.1-2.6,10.6-21.7-3.8-45.1c-6.5-10.6-7.5-9.6-5.2-10.2
		c5.1-1.4,7.7-0.1,7.9-2.4c0.2-2.3-18.1-19.4-20.2-19.7s-8.9-1.1-8.9-1.1s-12.3-11.5-23.4-14.3
		C-406.9,208.4-411.1,227.5-424.7,240.7z"/>
	<path class="st6" d="M-430.7,219.2c1.9,1.5,5.5,6.3,6.8,7.7c-0.9-3.7-2.3-6.5-5.2-9.5c-2.7-2.8-4.8-3.4-4.4-5.3
		c0.2-1.2,6.9-4.9,9.4-5.7c9.4-3.2,19-0.8,28,4.8c6.8,4.2-16.8,40-28.6,29.6c-11.8-10.4-13-20.6-13-20.6c-0.4-1.4-0.1-5.3,1.5-4.5
		C-434.6,216.4-434.7,216.1-430.7,219.2z"/>
	<path class="st1" d="M-413.8,219.7c0.8,1.8,2.9,1.4,3.5,0.9c0.6-0.6,1.1-2,0.4-2.9s-1.8-1.3-2.5-1
		C-414.2,217.4-414.3,218.7-413.8,219.7z"/>
	<path class="st6" d="M-393.8,248.4c0,0,6.6,9.6,13,11.7c6.4,2.2,22,4.9,22,4.9s2.6-2.5-7.5-8.1c-10.1-5.6-15.7-10.4-18.2-11.6
		S-396.4,245.4-393.8,248.4z"/>
</g>
<g>
	<path class="st4" d="M-319.2,298.3c-1.1-8.2-4.1-22.3,0.1-31.2s13.2-25.8,17.8-32.1c4.6-6.3,24.1-26.2,28.5-30
		c8.4-7.4,26.2-14.6,38.8-14c4.9,0.2,16.7,1.7,20.8,3c6.8,2.2,13.7,9.2,10.4,16.6c-1,2.1-5,11.5-11.1,20.1
		c-7.8,11.1-13.2,20.3-17.9,25.6c-4.4,4.9-18.7,21.3-29.3,32.5c-9.5,10-18,21.4-22.6,24.5c-9.9,6.5-14.3,8.3-21,5.6
		C-311.4,316.1-318.2,306.5-319.2,298.3z"/>
	<path class="st5" d="M-315.5,259.2c0,0,12.9-2.6,18.2-2c5.3,0.6,13.5,6.1,15.2,6.3c1.8,0.2-8.3-10.8-13.9-10.9
		c-5.6-0.2-16.3,0.9-16.3,0.9L-315.5,259.2z"/>
	<path class="st5" d="M-300.8,234.3c0,0,13.5-1.1,18.8-0.6c5.3,0.6,13.5,6.1,15.2,6.3c1.8,0.2-8.3-10.8-13.9-10.9
		c-5.6-0.2-15.9-0.1-15.9-0.1L-300.8,234.3z"/>
	<path class="st5" d="M-281.4,213.3c0,0,14.8-2.4,20.1-1.8c5.3,0.6,13.5,6.1,15.2,6.3c1.8,0.2-8.3-10.8-13.9-10.9
		c-5.6-0.2-17,1.7-17,1.7L-281.4,213.3z"/>
</g>
<path class="st1" d="M-394.9,270.7c0,0,0.8,10.9,0.4,27.7c-0.4,17.7,0.1,32.2,0,40.8c-0.1,8.6-1.5,28.5-1.7,44.9
	c-0.2,10.1,0.5,25.5,0,38.1c-0.3,8.7,1.4,36.5,1.4,36.5l184.8-34.5l0.2-172.1C-209.7,252.2-364.1,268.5-394.9,270.7z"/>
<path class="st1" d="M-346.9,263.9c0,0-3.1-38,2.3-52.6c5.4-14.7,33.2-24.9,51-18.3c16.8,6.2,26.3,11.1,30.1,64
	c1.1,15.4,0,25.4,0,25.4h-21.6c0,0,8.4-52.6-6.4-66.9c-9-8.8-31.4-8.6-36,4.5c-4.6,13.1-3.4,47.9-1.1,64.1
	c-5.7,6.4-16.6,6.1-16.6,6.1L-346.9,263.9z"/>
<g>
	<path class="st9" d="M-309.5,92.3c0,0-6-2.6-10.2,3.4s0,11.1,6.8,7.7C-306.1,99.9-306.1,93.1-309.5,92.3z"/>
	<path class="st9" d="M-289.5,93.2c0,0-5.8-2.9-10.4,2.8c-4.6,5.7-0.7,11.1,6.4,8.1C-286.5,101.1-286.1,94.3-289.5,93.2z"/>
	<polygon class="st9" points="-311.4,91.9 -311.2,64.7 -308.5,64.7 -308.3,95.4 	"/>
	<polygon class="st9" points="-291.3,92.4 -288.7,65.2 -286,65.4 -288.4,96.1 	"/>
	<polygon class="st9" points="-311.2,72.6 -286.5,70.9 -286,65.4 -311.2,64.7 	"/>
</g>
<g>
	<path class="st9" d="M-151.3,226.2c0,0-6.5-0.5-8.6,6.6c-2.1,7,3.6,10.5,9,5S-147.8,225.9-151.3,226.2z"/>
	<path class="st9" d="M-132.1,220.6c0,0-6.4-0.9-8.9,6.1s3,10.7,8.6,5.6C-126.7,227.1-128.5,220.5-132.1,220.6z"/>
	<polygon class="st9" points="-153.2,226.5 -161.9,200.7 -159.3,199.8 -149.1,228.8 	"/>
	<polygon class="st9" points="-134,220.5 -140.5,193.9 -137.9,193.2 -130.1,222.9 	"/>
	<polygon class="st9" points="-159.4,208.3 -136.5,198.5 -137.9,193.2 -161.9,200.7 	"/>
</g>
<g>
	<path class="st9" d="M-489.5,210.1c0,0-6-2.6-10.2,3.4c-4.3,6,0,11.1,6.8,7.7S-486.1,210.9-489.5,210.1z"/>
	<path class="st9" d="M-469.5,211c0,0-5.8-2.9-10.4,2.8s-0.7,11.1,6.4,8.1C-466.5,218.9-466.1,212.1-469.5,211z"/>
	<polygon class="st9" points="-491.4,209.8 -491.2,182.5 -488.5,182.5 -488.3,213.2 	"/>
	<polygon class="st9" points="-471.3,210.3 -468.7,183.1 -466,183.2 -468.4,213.9 	"/>
	<polygon class="st9" points="-491.2,190.5 -466.5,188.7 -466,183.2 -491.2,182.5 	"/>
</g>
<g>
	<path class="st9" d="M-202.9,98.2c0,0-6.4,0.9-7,8.2c-0.6,7.3,5.7,9.5,9.8,3.1C-196,103-199.6,97.1-202.9,98.2z"/>
	<polygon class="st9" points="-204.7,98.9 -218.6,75.4 -216.2,74 -200.2,100.2 	"/>
	<polygon class="st9" points="-214.5,82.3 -201.9,72.4 -204.3,67.4 -218.6,75.4 	"/>
</g>
<g>
	<path class="st9" d="M-407.9,123.4c0,0-5.3-3.8-10.7,1.2c-5.4,4.9-2.3,10.8,5,8.9C-406.2,131.6-404.8,124.9-407.9,123.4z"/>
	<polygon class="st9" points="-409.7,122.7 -403.7,96.1 -401.1,96.7 -407.4,126.7 	"/>
	<polygon class="st9" points="-405.4,103.9 -389.4,105.3 -387.8,100 -403.7,96.1 	"/>
</g>
<g>
	<path class="st9" d="M-234.5,166c0,0-5.9-2.7-10.3,3.2c-4.4,5.9-0.2,11.1,6.7,7.8C-231.2,173.7-231.1,166.9-234.5,166z"/>
	<polygon class="st9" points="-236.3,165.7 -235.7,138.4 -233,138.4 -233.3,169.1 	"/>
</g>
<path d="M253.4,232.7c0,0-3.7-39.7,2.7-55c6.4-15.3,39.2-26,60.2-19.2c19.9,6.5,31.1,11.6,35.5,66.9c1.3,16.1,0,26.6,0,26.6h-25.5
	c0,0,9.9-54.9-7.6-70c-10.6-9.2-37.1-9-42.6,4.7c-5.5,13.7-4.1,50-1.3,67c-6.7,6.7-19.6,6.4-19.6,6.4L253.4,232.7z"/>
<polygon class="st11" points="193.7,238.2 383,219.2 475.2,252.5 441.8,323.3 251.2,327.9 "/>
<g>
	<g>
		<g>
			<path class="st4" d="M260.1,349c3.5-1.1,6.8-1.5,9.9-2.1c1.2-0.2-1.2-1.9,3.6-3.3s4,2.3,5.4,1.7c3-1.4,5.1-0.9,4.7-3
				c-0.7-3.4-1.5-7.1,2.7-8.6c4.4-1.6,7.2,0.1,8.4,4c1.1,3.6,4.6,1.3,9.3-0.9l-85.4-159.3c-2.2,1.5-4.6,2.6-6.9,3.6
				c-2.4,0.9-4.9,1.7-7.4,2.4c-0.7,3-3.4,6.1-5.5,6.7c-4.7,1.4-6.5-1-9-2.9c-2,0.5-3.3,1-9,3.9c-0.8,0.4-1.6,0.9-2.1,1.7
				c-1.2,1.8-0.1,4.2,1,6c4.9,8.3,7,12.5,9.5,21.8c1.2,4.5,1.8,9.2,3.7,13.5c0.4,0.9,3.5-1.3,5,1.5c1.8,3.4-2.7,3.8-2.2,4.9
				c2.3,5.1,5,11.1,6.6,14c4.1,7.3,6.3,16.6,7.5,24.8c0.4,3,1.6,6.5,3.2,10.5c0.7,1.8,5.6-0.7,8.1,6.6c2.3,6.5-2.3,7.4-1.4,9.5
				c1.5,3.6,1.3,3,2.6,7c4.1,12.6,5.6,12.6,9.7,25.2c1.7,5.3,6,7.9,8.4,12.8c0.7,1.5,1.7,3.1,3.2,3.6c1.2,0.5,2.6,0.2,3.8-0.1
				C251.1,353.7,256,350.2,260.1,349z M187.6,202.9c-0.6-1.9-2.7-5-2.7-6.6c0.1-1.6,2.7-2,4.5-1.7c1.8,0.3,3,3.1,3,3.1
				s1.2,4.8,0.4,5.9C191.9,204.7,188.1,204.8,187.6,202.9z M217.1,226.1c-0.5-1.6-3.3-4-2.8-5.5c0.4-1.5,1.1-7.5,4-7.7
				c2.9-0.1,8,7.2,8,7.2s0.9,4.1-0.8,5.4C223.8,226.7,217.6,227.7,217.1,226.1z M217.1,264.5c-1.1-3.6-4.8-5.1-4.7-8.1
				c0.1-3,2-5.5,5.4-4.9c3.4,0.6,9.3,6,9.3,6s2.5,6.4,0.9,8.5C226.4,268.2,218.2,268.1,217.1,264.5z M251.5,292.4
				c-1-3.5-3.9-5.7-3.9-8.6c0-2.9,8.2-5.3,11.4-4.6c3.2,0.7,5.3,5.8,5.3,5.8s2.4,8.9,0.9,11C263.7,298,252.5,295.9,251.5,292.4z
				 M244.6,338.4c-1.1-3.6-5.1-9.6-5-12.5c0.1-3,5.1-3.8,8.5-3.2c3.4,0.6,5.6,5.8,5.6,5.8s2.4,9.1,0.7,11.2
				C252.8,341.9,245.7,342,244.6,338.4z"/>
		</g>
	</g>
	<g>
		<path class="st5" d="M219.4,177.8c5.6,4.3,14.8,17.5,14.6,17.2c-3.2-3.4,9.3,8.2,12.6,11.6c3.9,4.1,7.6,7.3,13.1,13.2
			c2.4,2.5,4.7,7.1,7,9.6c3.6,4,7.1,5.7,9.6,8.8c3.6,4.3,7.7,11.1,10,14.1c4.3,5.8,5.6,6.8,12.1,14.5c1.7,2.1,5.2,4.7,6.1,7.2
			c0.9,2.6,2.2,9.1,2.2,11.9c-0.1,5.7-1.4,15-1.6,20.8c-0.3,12.1-0.7,17-1,29.1c-0.3,2.3-3,1.7-4-0.2c-2.2-4.3-2.9-8.6-4.8-12.4
			c-1.8-3.6-4.8-6.6-6.6-10.1c-2-3.9-3-5.9-5.3-10.4c-1.9-3.6-4.4-7.4-6.3-11.2c-1.3-2.7-3-7.4-4.4-10.1c-2.7-5.4-6.9-9.7-9.5-14.8
			c-2.1-3.9-3.6-8.6-8-15.9c-3-5.1-6.6-10.9-9.1-15.2c-1.7-2.9-4.9-12.4-5.9-14.2c-3.4-6.6-4.9-6-7.7-10.7
			c-2.7-4.4-3.6-9.1-6.4-13.8c-2.3-3.8-6.6-9.1-9.2-14.2C216.7,182.4,214.8,174.3,219.4,177.8z"/>
	</g>
</g>
<path class="st12" d="M193.7,238.2c-0.2,1.5-1.3,27.7-1.8,51c-0.3,14,0.5,33.3,0.2,50c-0.4,19.7,1.6,41.3,1.2,59.1
	c-0.6,30.6,0,56.2,0,56.2l63.7,41.4l35.1-47.1c0,0-4.8-179-5.3-176.9c-0.2,1.1-17.3,12.4-30,2.3
	C241.1,266.5,211.6,241.5,193.7,238.2z"/>
<g>
	<g>
		<path class="st7" d="M276.9,226c5.2,11.9,4.2,12.8,8.8,24.9c6.3,16.3,21.3,50.8,33.7,63.2c1.4,1.4,3,2.8,5,3.3
			c3.9,1,8,0.9,10.8-2.4l0,0c2.7-0.7,5.9-6.7,5.4-9.4c-1.1-6.4-16.7-30-23.2-39.9c-7.5-11.6-15.9-21.6-17.5-27.5l-18.7-42.5
			C260,189.5,273.8,219.1,276.9,226z"/>
	</g>
	<path class="st1" d="M185.8,83.9c21.7,17.1,51,69.1,66,91.3c4.8,7.2,16.4,28.4,26.2,55.1c2.9,7.9,3.4,12.4,6.7,18
		c1.8-14,8.3-14,16.6-6.7c-9.6-23.9-16.5-51.5-19.5-77c-2.8-23.5-3.3-83.6-6.2-107.1c-8.2-0.6-13.4-2.3-16.2,3.4
		c1.2,9.8,9.7,102.4,9.6,112.4c-2.4-10-10.7-66.3-14.7-75.6c-4.4-10.3-14.6-50.7-20.2-60.4c-6.2-1.4-9.2,1.9-14.8,7.4
		c5.8,9.8,16.4,50.5,20.5,61.1c4.7,12.3,7.3,25.8,10.7,38.7c-12.8-23.3-37.6-58.8-58-76.4C190.8,72,187.6,77.3,185.8,83.9z"/>
	<g>
		<g>
			<path class="st2" d="M329.1,313c1.1,2.1,2,4.4,2.6,6.7c0.2,0.7,1.2,0.4,1-0.3c-0.7-2.4-1.6-4.7-2.7-6.9
				C329.7,311.8,328.8,312.4,329.1,313L329.1,313z"/>
		</g>
	</g>
	<g>
		<g>
			<path class="st2" d="M333.1,313.2c1.5,1.6,3,3.3,4.4,4.9c0.5,0.5,1.2-0.2,0.8-0.8c-1.5-1.6-3-3.3-4.4-4.9
				C333.4,311.9,332.7,312.7,333.1,313.2L333.1,313.2z"/>
		</g>
	</g>
	<g>
		<g>
			<path class="st2" d="M336.2,310.6c2,0.9,4,1.7,6,2.6c0.6,0.3,1.2-0.7,0.6-1c-2-0.9-4-1.7-6-2.6
				C336.1,309.4,335.5,310.3,336.2,310.6L336.2,310.6z"/>
		</g>
	</g>
	<g>
		<g>
			<path class="st2" d="M324.7,314.1c-0.4,2.3-0.5,4.6-0.3,6.9c0.1,0.7,1.2,0.7,1.1,0c-0.2-2.2-0.1-4.4,0.3-6.6
				C325.9,313.7,324.8,313.4,324.7,314.1L324.7,314.1z"/>
		</g>
	</g>
</g>
<g>
	<g>
		<path class="st5" d="M375.7,183c-13.1,7.7-18.8,16.4-17.9,29.8c0.2,2.8,5.1,15.3,8.5,19.8c5,6.6,16.8,12,21,12.6
			c11,1.5,21.6,1.9,30.7-0.9c8.4-2.5,15.9-6.8,22.6-12.7c9.5-8.4,18.4-16.9,15.9-33.2c-0.6-3.9-6.6-18.2-10-21.9
			c-11-12.4-31-9.2-45.8-1.7C394.2,177.9,380.5,179.5,375.7,183"/>
	</g>
	<path class="st1" d="M417.3,171.3c-5.3,0.1-8.1,0.2-11.7,2.8c-0.8,0.6-3.8,2.3-4.7,3.1c-1.5,1.4-4.2,3.7-5.2,3.8
		c-1.9,0.2-1.4,0.5-3.2,0.3c-1.6-0.2-5.4-1.1-7-1.3c-3.7-0.7-7.9,1.8-11.3,3.4c-1.5,0.7-7.4,4.7-8.3,3.7c-1.3-1.4,3-8.1,5.1-9.1
		c4.3-2,7.6-3.6,12.3-4.4c1.9-0.3,3.3,0,5,0.6c0.6,0.2,2.2,1.5,2.7,1.6c-0.3-0.3-0.2-1.3-1.7-2.4c-1.2-0.8-2.8-1.8-6-2.9
		c-2.2-0.7-5.5-1.7-8.5-2.6l-2-1.7c-0.3-1,6.5-1.5,7.5-1.5c4.7-0.3,5.6,0,8.5,1.3c1.6,0.7,2.7,1.9,4,3c1.2,1,2.3,2.7,3.8,3.3
		c0.1,0,0.2,0.1,0.3,0.1c2.5-1.8,6.2-4.4,9-5.6c3.4-1.5,8.3-1.9,12-1.9c2.2,0,6.6-0.4,6.4,1.3C424.4,167.7,419.2,171.2,417.3,171.3z
		"/>
	<path class="st1" d="M395,174c0,0,1.7-10.8,3-15.2c1.3-4.4,6.2-7.7,6.2-7.7s1.6,1.7,1.7,4.5c0.1,2.7-2.1,6.8-2.7,9
		c-0.6,2.2-3.7,9.5-3.7,9.5L395,174z"/>
</g>
<g>
	<path class="st4" d="M404.4,315.3c-3.9-8.1-11.9-21.5-10.6-32.1c1.3-10.6,4.6-31,7.2-39.1c2.6-8.1,15.8-35.1,18.9-40.5
		c6.1-10.5,21.9-24,35.1-27.7c5.1-1.4,17.7-4,22.4-4c7.8-0.1,17.3,4.7,16.4,13.4c-0.3,2.5-1.2,13.5-4.5,24.4
		c-4.2,14.1-6.5,25.4-9.6,32.4c-2.9,6.6-11.9,28.3-18.9,43.4c-6.3,13.6-11.1,28.2-14.8,32.9c-7.9,10-11.8,13.5-19.6,13
		C418.5,330.9,408.3,323.4,404.4,315.3z"/>
	<path class="st13" d="M394.8,273.9c0,0,12.4-7.1,18-8.3c5.6-1.2,15.9,1.6,17.8,1.2c1.9-0.4-12.2-8.2-18-6.5
		c-5.8,1.7-16.4,6.5-16.4,6.5L394.8,273.9z"/>
	<path class="st5" d="M401.4,243.2c0,0,13.5-5.8,19.1-7s15.9,1.6,17.8,1.2s-12.2-8.2-18-6.5c-5.8,1.7-16.4,5.4-16.4,5.4L401.4,243.2
		z"/>
	<path class="st5" d="M414.1,215c0,0,14.4-7.5,20-8.8c5.6-1.2,15.9,1.6,17.8,1.2c1.9-0.4-12.2-8.2-18-6.5
		c-5.8,1.7-16.8,7.5-16.8,7.5L414.1,215z"/>
</g>
<g>
	<path class="st8" d="M404.1,300.7c-4.3-26.1-20.3-68.6-26.3-81.4c-6-12.8-8.7-26.2-9.2-38.9c-0.5-14.7,2.9-30.4,10.5-35.3
		c8.4-5.5,31.2-6.9,38-9.6c6.8-2.6,11.2-7.5,5.7-9.5c-5.5-2.1-28.3-7-33.2-11.5c-4.8-4.4-6.1-18.3-9.5-24.4c-3.4-6-9-11.2-11.5,2.9
		c-2.4,14-1.6,35-4.5,38.2c-2.9,3.2-36.8,17-42.9,62.7c-2.8,20.8-0.4,20.5-4.1,18.9c-8-3.6-10.1-8.1-12.9-5.3
		c-2.7,2.7,3,44.4,5.4,47.1c2.4,2.7,10.4,10.8,10.4,10.8s3.9,28,15.3,43.4C346.7,323.9,372.4,303.5,404.1,300.7z"/>
	<path class="st14" d="M389.2,335.2c-0.9-3.9-0.4-14-0.7-17.3c-2.7,5.8-3.9,10.8-3.3,17.9c0.5,6.5,2.6,9.5,0.2,11.5
		c-1.6,1.3-14.2-1-18.3-2.5c-15.6-5.8-25.6-19.2-31.4-35.8c-4.4-12.6,64.2-34.3,68.6-8.2s-4.9,40.6-4.9,40.6c-1,2.2-5.5,6.9-6.7,4.4
		C391.3,342.9,391.1,343.3,389.2,335.2z"/>
	<path class="st15" d="M367.8,316.5c0.8-3.2-2.3-4.9-3.7-4.8c-1.4,0.1-3.6,1.3-3.5,3.4c0,2,0.9,3.6,2.2,3.9
		C365.8,319.9,367.3,318.4,367.8,316.5z"/>
	<path class="st14" d="M372,257.9c0,0,1.6-19.4-4.5-29c-6.1-9.6-23.4-29.8-23.4-29.8s-6.1,0.5,1.1,18.5c7.2,18,9.3,30.2,11.5,34.4
		S372.3,264.7,372,257.9z"/>
</g>
<g>
	<path class="st1" d="M256.9,274.3c0,0,1,12.8,0.5,32.7c-0.5,20.8,0.1,38,0.1,48.1c-0.1,10.1-1.7,33.6-2,52.9
		c-0.2,12,0.5,30.1,0,44.9c-0.4,10.2,1.7,43.1,1.7,43.1l217.8-40.6l0.3-202.8C475.2,252.5,293.2,271.6,256.9,274.3z"/>
	<path class="st1" d="M313.5,266.3c0,0-3.7-44.7,2.7-62c6.4-17.3,39.1-29.4,60.1-21.6c19.9,7.3,31,13.1,35.4,75.4
		c1.3,18.1,0,30,0,30h-25.4c0,0,9.9-61.9-7.6-78.9c-10.6-10.3-37-10.2-42.4,5.3c-5.5,15.5-4,56.4-1.3,75.5
		c-6.7,7.6-19.6,7.2-19.6,7.2L313.5,266.3z"/>
</g>
<g>
	<path d="M351,48.5c0,0-7-3-12.1,4c-5,7,0,13.1,8,9.1C355,57.6,355,49.5,351,48.5z"/>
	<path d="M374.6,49.6c0,0-6.8-3.4-12.3,3.3c-5.4,6.7-0.8,13.1,7.5,9.5S378.6,50.9,374.6,49.6z"/>
	<polygon points="348.8,48.1 349,16 352.2,16 352.4,52.2 	"/>
	<polygon points="372.5,48.7 375.5,16.6 378.7,16.8 375.9,53 	"/>
	<polygon points="348.9,25.4 378.1,23.3 378.7,16.8 349,16 	"/>
</g>
<g>
	<path d="M544,221.9c0,0-7.6-0.6-10.1,7.7c-2.5,8.3,4.3,12.4,10.6,5.9S548.2,221.5,544,221.9z"/>
	<path d="M566.7,215.2c0,0-7.6-1-10.5,7.1c-2.9,8.1,3.5,12.6,10.2,6.5C573.1,222.8,570.9,215.1,566.7,215.2z"/>
	<polygon points="541.9,222.2 531.5,191.8 534.6,190.7 546.6,224.9 	"/>
	<polygon points="564.4,215 556.8,183.7 559.9,182.9 569,217.9 	"/>
	<polygon points="534.6,200.7 561.5,189.2 559.9,182.9 531.5,191.8 	"/>
</g>
<g>
	<path d="M125.4,182.8c0,0-7-3-12.1,4c-5,7,0,13.1,8,9.1C129.4,191.9,129.4,183.8,125.4,182.8z"/>
	<path d="M149,183.9c0,0-6.8-3.4-12.3,3.3s-0.8,13.1,7.5,9.5C152.5,193.2,153,185.2,149,183.9z"/>
	<polygon points="123.2,182.5 123.4,150.3 126.6,150.3 126.8,186.5 	"/>
	<polygon points="146.9,183 149.9,151 153.1,151.2 150.3,187.3 	"/>
	<polygon points="123.4,159.7 152.5,157.7 153.1,151.2 123.4,150.3 	"/>
</g>
<g>
	<path d="M483.2,70.9c0,0-7.6,1.1-8.3,9.7s6.7,11.2,11.6,3.6C491.3,76.6,487.2,69.7,483.2,70.9z"/>
	<polygon points="481.2,71.7 464.7,44.1 467.5,42.4 486.4,73.3 	"/>
	<polygon points="469.6,52.2 484.5,40.5 481.6,34.6 464.7,44.1 	"/>
</g>
<g>
	<path d="M223,81.3c0,0-6.2-4.4-12.6,1.4c-6.4,5.8-2.8,12.8,6,10.5S226.7,83.2,223,81.3z"/>
	<polygon points="221,80.5 227.9,49.2 231.1,49.8 223.7,85.2 	"/>
	<polygon points="225.9,58.3 244.8,60 246.7,53.8 227.9,49.2 	"/>
</g>
<g>
	<path d="M472.3,178.9c0,0-7-3.1-12.1,3.8c-5.1,7-0.2,13.1,7.9,9.2S476.3,180,472.3,178.9z"/>
	<polygon points="470.1,178.5 470.8,146.4 474.1,146.4 473.7,182.6 	"/>
</g>
<g>
</g>
<g>
</g>
<g>
</g>
<g>
</g>
<g>
</g>
<g>
</g>
</svg>
