<?xml version="1.0" encoding="utf-8"?>
<!-- Generator: Adobe Illustrator 24.1.3, SVG Export Plug-In . SVG Version: 6.00 Build 0)  -->
<svg version="1.1" id="Ebene_1" xmlns="http://www.w3.org/2000/svg" xmlns:xlink="http://www.w3.org/1999/xlink" x="0px" y="0px"
	 viewBox="0 0 400 400" style="enable-background:new 0 0 400 400;" xml:space="preserve">
<style type="text/css">
	.st0{fill:#3A86FF;}
	.st1{fill:#0E1116;}
	.st2{fill:#6BF178;}
</style>
<g>
	<path class="st0" d="M331.5,125.8c-37.1,29.2-109.4,66.2-132.8,75.9c-23.4,9.7-43.1,24-59,40.3c-18.4,18.8-32.8,43.6-28.7,59.3
		c4.5,17.4,32.8,46.7,38.7,58.4s5.8,23.4-3.9,19.5c-9.8-3.9-45.9-24.8-57.6-24.8s-30.2,16.9-41.9,20.8c-11.7,3.9-25.4,3.9-11.7-17.6
		c13.7-21.4,40.1-48.1,40.1-55.9c0-7.8-28.1-66.8,18.9-134.6c21.3-30.8,24.2-27.6,17.4-29.8c-14.9-5-23.1-1.6-23.4-8.4
		c-0.3-6.9,57.4-55.1,63.9-55.7c6.5-0.6,26.7-1.7,26.7-1.7s38.8-32.3,72.6-38.9C283.5,26,293,83.9,331.5,125.8z"/>
	<path class="st1" d="M370.3,52.5c4.7-2,5,9.8,3.6,13.8c0,0-5.4,30.3-42.5,59.5s-101.7-82-80.7-93.4c27.7-15,57-20.7,84.6-9.5
		c7.4,3,26.7,15,27.3,18.8c0.8,5.7-5.5,7.1-14.1,15.1c-9.2,8.6-13.7,16.6-17.2,27.5c4.3-4,15.9-17.9,21.8-22
		C365.5,53.7,365.3,54.6,370.3,52.5z"/>
	<path class="st2" d="M302.5,61.1c-2.8,5.1-9,3.7-10.6,2c-1.7-1.8-3.1-6.1-0.6-8.7c2.5-2.7,5.5-3.6,7.7-2.5
		C304,54.2,304.1,58.2,302.5,61.1z"/>
	<path class="st1" d="M237.4,143.6c0,0-21.3,27.6-40.9,33c-19.6,5.4-66.8,11.1-66.8,11.1s-7.4-8,23.8-23.1s48.7-28.7,56.6-31.6
		S246,135.1,237.4,143.6z"/>
</g>
<g>
</g>
<g>
</g>
<g>
</g>
<g>
</g>
<g>
</g>
<g>
</g>
<g>
</g>
<g>
</g>
<g>
</g>
<g>
</g>
<g>
</g>
<g>
</g>
<g>
</g>
<g>
</g>
<g>
</g>
</svg>
