<?xml version="1.0" encoding="utf-8"?>
<!-- Generator: Adobe Illustrator 24.1.3, SVG Export Plug-In . SVG Version: 6.00 Build 0)  -->
<svg version="1.1" id="Ebene_1" xmlns="http://www.w3.org/2000/svg" xmlns:xlink="http://www.w3.org/1999/xlink" x="0px" y="0px"
	 viewBox="0 0 394.8 412.1" style="enable-background:new 0 0 394.8 412.1;" xml:space="preserve">
<style type="text/css">
	.st0{fill:#FFE400;}
	.st1{fill:#F6F6F6;}
	.st2{fill:#FB5607;}
</style>
<g>
	<path class="st0" d="M111.1,258.5L10.4,366.8c0,0-21.7,19.5-2.4,37.5c13.7,12.7,19.1,10.5,38.8-10.7
		c19.8-21.3,93.5-100.5,93.5-100.5L111.1,258.5z"/>
	<path class="st1" d="M47.3,249.6c0,0-21.1-16.1,23.7-68.1c28-32.6,164.2-161,188.1-171.2S336.3-11.8,368,25
		c43.6,50.7,27.7,94.3-2.6,134.6S236.3,310,214.6,329.5c-21.7,19.5-45.2,40.9-70.4,17.5C119.1,323.6,47.3,249.6,47.3,249.6z"/>
	<path class="st2" d="M71,181.5c28-32.6,164.2-161,188.1-171.2S336.3-11.8,368,25c43.6,50.7,27.7,94.3-2.6,134.6
		S236.3,310,214.6,329.5C178,297.7,104,234.4,71,181.5z"/>
</g>
<g>
</g>
<g>
</g>
<g>
</g>
<g>
</g>
<g>
</g>
<g>
</g>
<g>
</g>
<g>
</g>
<g>
</g>
<g>
</g>
<g>
</g>
<g>
</g>
<g>
</g>
<g>
</g>
<g>
</g>
</svg>
