<?xml version="1.0" encoding="utf-8"?>
<!-- Generator: Adobe Illustrator 24.1.3, SVG Export Plug-In . SVG Version: 6.00 Build 0)  -->
<svg version="1.1" id="Ebene_1" xmlns="http://www.w3.org/2000/svg" xmlns:xlink="http://www.w3.org/1999/xlink" x="0px" y="0px"
	 viewBox="0 0 400 400" style="enable-background:new 0 0 400 400;" xml:space="preserve">
<style type="text/css">
	.st0{fill:#F6F6F6;}
	.st1{fill:#6BF178;}
	.st2{fill:#432918;}
</style>
<g>
	<path class="st0" d="M163.8,272.8c-14.1,15.7-13,17.7-26.4,34c-18,22-58.8,67.7-84.2,80.4c-3,1.5-6.1,2.8-9.4,2.6
		c-6.6-0.4-12.8-2.6-15.5-9.1l0,0c-3.8-2.4-5.7-13.3-3.6-17.3c4.9-9.3,41.1-37.8,56.1-49.8c17.5-14,35.5-25.2,41-33.5l50.5-56.1
		C208.5,224.9,172,263.6,163.8,272.8z"/>
</g>
<path class="st1" d="M376.9,99.6c-42.3,15.4-114,80.6-148.4,107.3c-11.1,8.6-39.8,35.4-68.5,71.7c-8.5,10.8-11.5,17.5-19.6,24.3
	c4.3-22.6-5.7-25.9-22.2-18.7c26.9-32,51.7-71.1,69.3-108.9c16.3-34.9,47.7-127.4,64.2-162.2c12.9,3.3,21.9,3.3,23.2,13.5
	c-6.9,14.5-67.2,153.2-72.1,168.6c8.8-14.2,50.4-96.9,61.2-109.2c12.1-13.7,48.3-70.9,62-83c10.2,0.9,13.3,7.7,19,19
	C331.2,34.3,294,91.6,282.2,106c-13.6,16.6-24.5,36.1-36.2,54.3C277.6,130.8,334,88.7,374.5,72C375.3,78.8,377.5,88.6,376.9,99.6z"
	/>
<path class="st2" d="M37.8,379c-2.9,2.8-5.5,5.9-7.7,9.3c-0.6,0.9,0.8,2,1.4,1c2.2-3.3,4.6-6.2,7.4-9
	C39.7,379.6,38.6,378.3,37.8,379L37.8,379z"/>
<path class="st2" d="M31.8,377c-3.1,1.8-6.2,3.5-9.4,5.3c-1,0.5-0.3,2.1,0.7,1.6c3.1-1.8,6.2-3.5,9.4-5.3
	C33.5,378.1,32.8,376.5,31.8,377L31.8,377z"/>
<path class="st2" d="M28.8,371.3c-3.5,0.3-7,0.6-10.5,0.9c-1.2,0.1-0.9,1.9,0.3,1.8c3.5-0.3,7-0.6,10.5-0.9
	C30.2,373,30,371.2,28.8,371.3L28.8,371.3z"/>
<path class="st2" d="M43.2,384.3c-0.5,3.6-1.5,7-2.9,10.4c-0.5,1.1,1.2,1.7,1.7,0.7c1.5-3.5,2.5-7.1,3-10.8
	C45.2,383.3,43.4,383.1,43.2,384.3L43.2,384.3z"/>
<g>
</g>
<g>
</g>
<g>
</g>
<g>
</g>
<g>
</g>
<g>
</g>
<g>
</g>
<g>
</g>
<g>
</g>
<g>
</g>
<g>
</g>
<g>
</g>
<g>
</g>
<g>
</g>
<g>
</g>
</svg>
