<?xml version="1.0" encoding="utf-8"?>
<!-- Generator: Adobe Illustrator 24.1.3, SVG Export Plug-In . SVG Version: 6.00 Build 0)  -->
<svg version="1.1" id="Ebene_1" xmlns="http://www.w3.org/2000/svg" xmlns:xlink="http://www.w3.org/1999/xlink" x="0px" y="0px"
	 viewBox="0 0 400 400" style="enable-background:new 0 0 400 400;" xml:space="preserve">
<style type="text/css">
	.st0{fill:#0E1116;}
	.st1{fill:#3A86FF;}
	.st2{fill:#F6F6F6;}
</style>
<g>
	<path class="st0" d="M134,39.2c0,0-14.2-18.2-23-24.1c-5.5-0.6-43.2,29.1-54.1,40.6S21.5,81.1,16.4,85.8
		c-5.1,4.7,12.8,24.3,12.8,24.3l92.4-45.4L134,39.2z"/>
	<path class="st0" d="M29.1,110.2c0,0,17.4,65.9,21.3,72.1c1.1,1.8,5.8,7,27.2,30.9c12.8,14.3,32.3,32.7,47.7,49.7
		c18.2,20.1,41.2,39.4,57.6,57.6c28.2,31.2,53.3,56.2,53.3,56.2l68.9-26.6l1.3-88.3c0,0-177.3-174.7-175.9-172
		C132,92.4,29.1,110.2,29.1,110.2z"/>
	<path class="st1" d="M94.8,128.8c0,0,13.4,11.7,31.7,32c19.1,21.3,36.2,37.8,45.7,48s29.6,35.6,47.5,55.2
		c11.1,12.2,29.2,29.4,42.5,44.9c9.2,10.7,43,41,43,41l80.9-98.3L198,53.3c0,0-58.9-18.8-66.8-19.4S82,68.3,73.4,75.5
		s-44.3,34.6-44.3,34.6S85.8,115.6,94.8,128.8z"/>
	<path class="st2" d="M138.5,133.4c0,0,26.3-16,29.7-20.3s19.2-15.1,21.6-17.6c2.4-2.5,5.1-7,8.3-4.6c3.2,2.4,4.6,5.8,1.3,11.7
		c-3.3,5.9-5.4,13-6.9,17.8c-1.5,4.8,0.6,7.5,5.9,3.6c5.3-3.9,13-7.8,18.1-9.9s9.8,5.2,7.4,7.8c-2.4,2.5-6.8,9.5-12.3,16.8
		s-19.6,24.5-23.4,29.2c-3.8,4.7-9.3,11.3-12.1,9.3c-2.8-2-6.2-6.6-0.7-13.9c5.5-7.3,15.6-17.1,17.7-19.3s14.6-10.4,10.4-11.6
		c-2.2-0.7-11.8,3.3-19.1,6.1c-3.9,1.5-5.9-2.6-5.3-5.1c1.5-5.6,3.3-11.5,5.1-16.7c1.9-5.2-8.3,5.3-11.8,8.2
		c-3.5,2.9-8.7,9.1-13.4,11.5c-4.7,2.5-8,4.2-12.6,2.5S137.8,134.9,138.5,133.4z"/>
	<path class="st2" d="M223.8,151.2c-1.1,1.1-9.1,10.2-10.5,11.7c-1.4,1.5-11.6,12.1-14.1,15.4c-2.4,3.3-7.4,9.1-5.5,11.6
		c1.8,2.5,4.4,4.9,7.9-0.9c3.5-5.8,10.1-14.2,10.1-14.2c4.9-5.1,9.2-9.5,13.4-14.6c4.2-5.1,6.6-9.1,5.5-11.6
		S223.8,151.2,223.8,151.2z"/>
	<path class="st2" d="M236.4,134.4c-1.4,3.6-1.8,6.7,1.3,9c1.5,1.1,7.5-1.9,7.8-3.8c0.3-1.8-0.4-4.4-3.7-6.4
		C240,132.2,236.4,134.4,236.4,134.4z"/>
	<path class="st2" d="M253.5,150.2c-4.1-0.2-12.6,17.1-14.8,19.3c-2.1,2.2-15.3,18.9-17.3,21.9c-2,3.1-10,9.1-8,13.9
		s5.5,12.3,7.1,13.7c4.7,4.3,7.2,3.4,9.9,1.6c2.6-1.7-0.7-4.5-6.9-10c-3.2-2.9-0.4-9.2,2.7-13.3c3.1-4.2,13.6-12.8,14.8-16
		c1.1-3.2,13-17.5,16.9-21.6C261.7,155.7,258.9,150.4,253.5,150.2z"/>
	<path class="st2" d="M269.6,209c-3.3-3.7-9.3-4.6-15.3-2.2c-6,2.3-13.8,9.2-15.3,15.9c-1.5,6.7-2.2,14.7,0,18.1
		s12.6,11.5,16.8,11.7c4.1,0.2,10.7-2.8,10.7-5.9s-1.1-3.6-4.6-3.8s-9.9,2.5-13-3.8c-2.4-4.9-2.8-15.2,0.9-19.1s6.1-7,10.2-6.8
		s8.4,2.3,10.1,7s4,11.1,6,11.7s6,0.4,6.3-3.7s-3.6-8.6-6.2-12.4C273.6,212,269.6,209,269.6,209z"/>
	<path class="st2" d="M308.8,213.6c-2.4,3.3-12.7,15.2-16.8,19.4c-4,4.2-14,15.2-16.8,18.1s-7.5,7.1-9,11.3s-0.1,9.9,1.8,9.8
		s0,0,4.7-4.9c4.7-4.9,5.3-6.1,8.7-9.7s7.2-6.2,10.1-5.3s6.4,4.3,3.7,8.5s-6.5,8.7-9.9,12.3c-3.4,3.6-7.8,8.1-6.5,10.6
		s2.1,7.6,4.6,5.6s4.6-6.8,9-11.3c4.4-4.5,7.8-6.8,10.9-12s4.6-6.8,6.4-11.9c1.9-5.5,1.1-8.3-5.6-11c-6.7-2.7-8.3-1.1-9.9-0.8
		s19.9-20.7,21.4-25.5C317.1,212.1,312.8,208.1,308.8,213.6z"/>
</g>
<g>
</g>
<g>
</g>
<g>
</g>
<g>
</g>
<g>
</g>
<g>
</g>
<g>
</g>
<g>
</g>
<g>
</g>
<g>
</g>
<g>
</g>
<g>
</g>
<g>
</g>
<g>
</g>
<g>
</g>
</svg>
