<?xml version="1.0" encoding="utf-8"?>
<!-- Generator: Adobe Illustrator 24.1.3, SVG Export Plug-In . SVG Version: 6.00 Build 0)  -->
<svg version="1.1" id="Ebene_1" xmlns="http://www.w3.org/2000/svg" xmlns:xlink="http://www.w3.org/1999/xlink" x="0px" y="0px"
	 viewBox="0 0 543.9 526.3" style="enable-background:new 0 0 543.9 526.3;" xml:space="preserve">
<style type="text/css">
	.st0{fill:#FB5607;}
	.st1{fill:#FFE400;}
</style>
<g>
	<path class="st0" d="M341.2,244.3c0,0,20,40.5,10.7,61.5s-29.1,46.5-24.1,62.6c5,16.1,21.7,18.4,51.7,25
		c29.9,6.7,51.6,45.2,51.6,45.2s-9.7,15.5-17,16.1c-7.3,0.6-0.1,20.2-9.2,21c-9.1,0.8-13.2,17.6-22.3,18.4
		c-9.1,0.8-15,17.8-24.4,14.9c-9.4-2.9-17.5,10.7-26.7,9.6c-9.3-1.1-17.6,8.8-27.2,4.1s-19.6,7.2-27.3,2.3
		c-7.8-4.9-14.6,1.2-22.1-22c-7.5-23.2,0.8-55.2,9.3-63.2c8.5-8.1,23.4-27.7,13.2-39.7s-31-19.4-45.8-20
		c-14.7-0.6-42.6-25.8-49.1-38.1c-6.5-12.3-3.7-21.7,5.1-26.1s4.5-11.4,11.5-15.7s10.3-8.2,20.6-16.4c10.3-8.2,16.8-17.9,25.5-24.2
		c8.7-6.2,15.9-6.9,24.9-9.4c9-2.6,21.7-3.7,30.5-8.1C309.5,237.8,328.9,250.8,341.2,244.3z"/>
	<path class="st1" d="M289.9,325.8c3.2,25.3,6.3,50.7,9.5,76c2.3,18.2,4.4,35.4,13.6,51.6c2.9,5,10.2-0.2,7.3-5.2
		c-10.8-18.7-11.3-41.4-13.9-62.4c-2.5-20.3-5.1-40.5-7.6-60.8C298.1,319.3,289.2,320,289.9,325.8L289.9,325.8z"/>
	<path class="st1" d="M254,344.3c11.6,42.5,67.3,43.4,83,82.1c2.2,5.3,10.6,2.3,8.4-3.1c-15.8-39.1-71.8-41.1-83-82.1
		C260.9,335.6,252.5,338.7,254,344.3L254,344.3z"/>
</g>
<g>
	<path class="st0" d="M471.8,0c0,0,25.4,31.2,67.6,13.4c-6.5,38.3-11.1,70.4-11.1,70.4l-11.1,70.4L506,224.6c0,0-9.8,83.5-18.4,90.5
		c-8.5,6.9-24.4-15.5-37.3-16.8S412.8,310,412.8,310l11.8-52.1l19.1-72.2l11.1-70.4c0,0,5.1-37.2,1.3-50.6
		C452.2,51.3,445.6,14.2,471.8,0z"/>
	<path class="st1" d="M539.3,13.4c0,0-40,34.9-57.6,42.2s-35.5,28.9-35.6,43.2s8.7,16.5,8.7,16.5s26.4-16.8,41.5-24.4
		c15.1-7.6,47.7-34.1,47.6-45.9C543.8,33.4,539.3,13.4,539.3,13.4z"/>
	<path class="st1" d="M528.2,83.8c0,0-40,34.9-57.6,42.2s-35.5,28.9-35.6,43.2c-0.2,14.3,8.7,16.5,8.7,16.5s26.4-16.8,41.5-24.4
		c15.1-7.6,47.7-34.1,47.6-45.9C532.7,103.8,528.2,83.8,528.2,83.8z"/>
	<path class="st1" d="M517.1,154.2c0,0-40,34.9-57.6,42.2s-35.5,28.9-35.6,43.2s8.7,16.5,8.7,16.5s26.4-16.8,41.5-24.4
		c15.1-7.6,47.7-34.1,47.6-45.9C521.6,174.2,517.1,154.2,517.1,154.2z"/>
	<path class="st1" d="M506,224.6c0,0-40,34.9-57.6,42.2s-35.5,28.9-35.6,43.2s8.7,16.5,8.7,16.5s26.4-16.8,41.5-24.4
		c15.1-7.6,47.7-34.1,47.6-45.9C510.5,244.6,506,224.6,506,224.6z"/>
</g>
<g>
	<path class="st0" d="M149.5,83.5L6.2,233c0,0-11,14.6-3.8,31.1c7.3,16.5,87.7,38.7,129.9,13.3c34.9-32.8,172.6-172.3,172.6-172.3
		l-65.8-26.8L149.5,83.5z"/>
	<path class="st1" d="M297.8,56.6c0,0-40.2-27.6-82.3-11.3s-67.8,36.3-62.4,52.8s43.8,33.1,102.4,22.3
		C305.4,111.3,321.5,93.3,297.8,56.6z"/>
	<path class="st1" d="M146.2,106.9C100.2,150.5,58.1,198,13.1,242.7c-4.1,4.1,2.2,10.4,6.3,6.4c45-44.7,87.1-92.2,133.1-135.8
		C156.8,109.2,150.4,102.9,146.2,106.9L146.2,106.9z"/>
	<path class="st1" d="M176.4,121.6c-48.6,45.9-94,95.1-141.4,142.2c-4.1,4.1,2.2,10.4,6.3,6.4c47.4-47.1,92.8-96.3,141.4-142.2
		C186.9,124,180.6,117.6,176.4,121.6L176.4,121.6z"/>
	<path class="st1" d="M210.2,126.3c-48.6,45.9-94,95.1-141.4,142.2c-4.1,4.1,2.2,10.4,6.3,6.4c47.4-47.1,92.8-96.3,141.4-142.2
		C220.7,128.7,214.4,122.3,210.2,126.3L210.2,126.3z"/>
	<path class="st1" d="M255,127.4c-48.6,45.9-94,95.1-141.4,142.2c-4.1,4.1,2.2,10.4,6.3,6.4c47.4-47.1,92.8-96.3,141.4-142.2
		C265.6,129.8,259.2,123.4,255,127.4L255,127.4z"/>
</g>
<g>
</g>
<g>
</g>
<g>
</g>
<g>
</g>
<g>
</g>
<g>
</g>
<g>
</g>
<g>
</g>
<g>
</g>
<g>
</g>
<g>
</g>
<g>
</g>
<g>
</g>
<g>
</g>
<g>
</g>
</svg>
