<?xml version="1.0" encoding="utf-8"?>
<!-- Generator: Adobe Illustrator 24.1.3, SVG Export Plug-In . SVG Version: 6.00 Build 0)  -->
<svg version="1.1" id="Ebene_1" xmlns="http://www.w3.org/2000/svg" xmlns:xlink="http://www.w3.org/1999/xlink" x="0px" y="0px"
	 viewBox="0 0 400 400" style="enable-background:new 0 0 400 400;" xml:space="preserve">
<style type="text/css">
	.st0{fill:#0E1116;}
	.st1{fill:#FB5607;}
	.st2{fill:#F6F6F6;}
</style>
<g>
	<path class="st0" d="M354.5,91.2c0,0-0.9-0.9,11.1,8.9c11.2,9.1,34.4,73.1,19.9,103.9c-7.9,16.8-24,50.8-44,63.6
		c-9.9,6.4-70.5,34.4-101.5,35.2c-17.3,0.4-45-4.8-66,0.8s-54.2,13.1-77.1,18.1c-25.8,5.7-68.1-4.3-77-14.8
		c-8.6-10.1-10.1-38.7-10.1-38.7s64.9-40.5,71-41.6c6.1-1.2,157.4-100.7,162.9-104.9S354.5,91.2,354.5,91.2z"/>
	<path class="st1" d="M368.6,170.2c4-10.9,7.7-27.7,6.6-36.1c-3.2-24.9-14.7-46.9-34.8-58.3c-21.3-12.1-45.5-12-70-12
		c-25.5,0.1-54.3,5.1-77.3,16.2c-30,14.5-46.3,72.7-72,94s-71,31.9-84.8,42.8C16.7,232,10.7,253.7,9.6,268
		c-0.5,6.5,12.6,13.4,24.7,20.2c12.1,6.8,26.6,7.6,40.5,7.6c61.3,0.2,83.4-27.2,144.3-20.6c37,4,77.2-17.5,100.8-33.3
		s24.1-24.3,45.9-65.4C366.7,174.9,367.7,172.7,368.6,170.2z"/>
	<path class="st2" d="M169.3,194.2c0,0,25.9-15,38.6-25s26.2-16.2,23.6-22.3c-2.6-6.1-16.2-16-19.5-20.6c-3.2-4.6-3.9-13.4,6.2-6.8
		c10.2,6.6,15.9,11.4,24.3,19c9.3,8.3,15.5,12.9,26,17.7c11.1,3.7,22.4,8.1,26.8,9.2c4.4,1,5,9.8-1.3,8.6c-6.3-1.2-17.4-2.5-26-5.6
		c-8.6-3.1-12.9-9.6-21.9-7.4c-9,2.2-17.7,12.7-31.7,21c-14,8.3-23.2,13.6-36.3,19.2c-13.2,5.7-26.8,19.3-33.8,13.4
		C140.7,211.3,148.5,205.1,169.3,194.2z"/>
</g>
<g>
</g>
<g>
</g>
<g>
</g>
<g>
</g>
<g>
</g>
<g>
</g>
<g>
</g>
<g>
</g>
<g>
</g>
<g>
</g>
<g>
</g>
<g>
</g>
<g>
</g>
<g>
</g>
<g>
</g>
</svg>
