<?xml version="1.0" encoding="utf-8"?>
<!-- Generator: Adobe Illustrator 24.1.3, SVG Export Plug-In . SVG Version: 6.00 Build 0)  -->
<svg version="1.1" id="Ebene_1" xmlns="http://www.w3.org/2000/svg" xmlns:xlink="http://www.w3.org/1999/xlink" x="0px" y="0px"
	 viewBox="0 0 422.6 359.5" style="enable-background:new 0 0 422.6 359.5;" xml:space="preserve">
<style type="text/css">
	.st0{fill:#FB5607;}
	.st1{fill:#6BF178;}
</style>
<g>
	<path class="st0" d="M109.3,87.2c-62.8,14.4-96.5,40.7-108.6,91c-2.6,10.7,2.7,62.1,11.5,82.4c12.8,29.7,54.5,62.4,71.2,69.1
		c43.4,17.2,86.3,30.1,126.6,29.7c37.3-0.4,73.3-8.1,107.8-22.8c48.9-20.9,95.5-42.7,104.5-106.1c2.1-15-5.7-74.4-14.9-91.9
		c-30.5-57.8-115.9-67.2-185.5-55.5C191.1,88.3,133.2,79.7,109.3,87.2"/>
</g>
<path class="st1" d="M293.7,88.5c-21.7-5.4-33.5-7.8-51.3-2c-4.2,1.3-18.3,4.4-22.9,6.6c-7.7,3.7-21.5,9.3-26,8.6
	c-8-1.2-6.1,0.4-13.6-2.4c-6.5-2.5-20.9-9.7-27-12.5c-14.3-6.5-34.7-1.7-50.4,0.4c-7.1,0.9-35.7,9.4-38.4,4.8
	C60.5,85.5,86,65.1,95.8,63.8c20.1-2.6,35.3-5.3,55.6-3c8,0.9,13.4,3.4,19.8,7.7c2.1,1.4,7.1,7.9,9.2,8.9c-1-1.5,0.8-5.1-4.1-10.5
	c-3.9-4.3-9.4-9.9-21-17c-8.1-5-20.7-12.2-31.6-18.7l-6-8.5c0.1-3.9,28.2,1.4,32.7,2.4c19.5,4.1,22.8,5.9,33.4,13.9
	c5.6,4.3,8.7,9.8,12.9,15.3c3.9,5.1,6.3,12.5,11.8,16.3c0.4,0.3,0.8,0.5,1.1,0.8c12.3-3.9,30.4-9.6,43.5-11.1
	c15.6-1.7,36.3,1.9,51.3,5.6c9.1,2.3,27.6,5.6,24.8,11.7C326.9,82.9,301.2,90.4,293.7,88.5z"/>
<path class="st1" d="M198.9,74.7c0,0,19.5-38.1,30.1-53S263.5,0,263.5,0s4.5,8.2,1.5,18.3c-3,10.2-16.5,23.1-21.8,30.6
	c-5.3,7.5-26.3,31.3-26.3,31.3L198.9,74.7z"/>
<g>
</g>
<g>
</g>
<g>
</g>
<g>
</g>
<g>
</g>
<g>
</g>
<g>
</g>
<g>
</g>
<g>
</g>
<g>
</g>
<g>
</g>
<g>
</g>
<g>
</g>
<g>
</g>
<g>
</g>
</svg>
